%TF.GenerationSoftware,KiCad,Pcbnew,8.0.1*%
%TF.CreationDate,2024-04-21T22:45:40+02:00*%
%TF.ProjectId,PowerSubsystem2.0,506f7765-7253-4756-9273-797374656d32,v2*%
%TF.SameCoordinates,Original*%
%TF.FileFunction,Copper,L1,Top*%
%TF.FilePolarity,Positive*%
%FSLAX46Y46*%
G04 Gerber Fmt 4.6, Leading zero omitted, Abs format (unit mm)*
G04 Created by KiCad (PCBNEW 8.0.1) date 2024-04-21 22:45:40*
%MOMM*%
%LPD*%
G01*
G04 APERTURE LIST*
G04 Aperture macros list*
%AMRoundRect*
0 Rectangle with rounded corners*
0 $1 Rounding radius*
0 $2 $3 $4 $5 $6 $7 $8 $9 X,Y pos of 4 corners*
0 Add a 4 corners polygon primitive as box body*
4,1,4,$2,$3,$4,$5,$6,$7,$8,$9,$2,$3,0*
0 Add four circle primitives for the rounded corners*
1,1,$1+$1,$2,$3*
1,1,$1+$1,$4,$5*
1,1,$1+$1,$6,$7*
1,1,$1+$1,$8,$9*
0 Add four rect primitives between the rounded corners*
20,1,$1+$1,$2,$3,$4,$5,0*
20,1,$1+$1,$4,$5,$6,$7,0*
20,1,$1+$1,$6,$7,$8,$9,0*
20,1,$1+$1,$8,$9,$2,$3,0*%
%AMFreePoly0*
4,1,19,0.000000,0.744911,0.071157,0.744911,0.207708,0.704816,0.327430,0.627875,0.420627,0.520320,0.479746,0.390866,0.500000,0.250000,0.500000,-0.250000,0.479746,-0.390866,0.420627,-0.520320,0.327430,-0.627875,0.207708,-0.704816,0.071157,-0.744911,0.000000,-0.744911,0.000000,-0.750000,-0.500000,-0.750000,-0.500000,0.750000,0.000000,0.750000,0.000000,0.744911,0.000000,0.744911,
$1*%
%AMFreePoly1*
4,1,19,0.500000,-0.750000,0.000000,-0.750000,0.000000,-0.744911,-0.071157,-0.744911,-0.207708,-0.704816,-0.327430,-0.627875,-0.420627,-0.520320,-0.479746,-0.390866,-0.500000,-0.250000,-0.500000,0.250000,-0.479746,0.390866,-0.420627,0.520320,-0.327430,0.627875,-0.207708,0.704816,-0.071157,0.744911,0.000000,0.744911,0.000000,0.750000,0.500000,0.750000,0.500000,-0.750000,0.500000,-0.750000,
$1*%
G04 Aperture macros list end*
%TA.AperFunction,SMDPad,CuDef*%
%ADD10FreePoly0,90.000000*%
%TD*%
%TA.AperFunction,SMDPad,CuDef*%
%ADD11FreePoly1,90.000000*%
%TD*%
%TA.AperFunction,SMDPad,CuDef*%
%ADD12RoundRect,0.150000X0.150000X-0.825000X0.150000X0.825000X-0.150000X0.825000X-0.150000X-0.825000X0*%
%TD*%
%TA.AperFunction,ComponentPad*%
%ADD13O,2.100000X1.200000*%
%TD*%
%TA.AperFunction,ComponentPad*%
%ADD14O,1.200000X1.700000*%
%TD*%
%TA.AperFunction,SMDPad,CuDef*%
%ADD15RoundRect,0.225000X-0.225000X-0.250000X0.225000X-0.250000X0.225000X0.250000X-0.225000X0.250000X0*%
%TD*%
%TA.AperFunction,SMDPad,CuDef*%
%ADD16RoundRect,0.225000X-0.250000X0.225000X-0.250000X-0.225000X0.250000X-0.225000X0.250000X0.225000X0*%
%TD*%
%TA.AperFunction,SMDPad,CuDef*%
%ADD17R,1.000000X1.000000*%
%TD*%
%TA.AperFunction,SMDPad,CuDef*%
%ADD18RoundRect,0.200000X-0.275000X0.200000X-0.275000X-0.200000X0.275000X-0.200000X0.275000X0.200000X0*%
%TD*%
%TA.AperFunction,SMDPad,CuDef*%
%ADD19RoundRect,0.200000X0.200000X0.275000X-0.200000X0.275000X-0.200000X-0.275000X0.200000X-0.275000X0*%
%TD*%
%TA.AperFunction,SMDPad,CuDef*%
%ADD20R,0.895000X1.470000*%
%TD*%
%TA.AperFunction,SMDPad,CuDef*%
%ADD21R,0.450000X1.050000*%
%TD*%
%TA.AperFunction,SMDPad,CuDef*%
%ADD22R,3.300000X2.400000*%
%TD*%
%TA.AperFunction,SMDPad,CuDef*%
%ADD23R,0.600000X1.200000*%
%TD*%
%TA.AperFunction,SMDPad,CuDef*%
%ADD24RoundRect,0.225000X0.250000X-0.225000X0.250000X0.225000X-0.250000X0.225000X-0.250000X-0.225000X0*%
%TD*%
%TA.AperFunction,SMDPad,CuDef*%
%ADD25RoundRect,0.218750X0.256250X-0.218750X0.256250X0.218750X-0.256250X0.218750X-0.256250X-0.218750X0*%
%TD*%
%TA.AperFunction,ComponentPad*%
%ADD26O,1.750000X1.200000*%
%TD*%
%TA.AperFunction,ComponentPad*%
%ADD27RoundRect,0.250000X0.625000X-0.350000X0.625000X0.350000X-0.625000X0.350000X-0.625000X-0.350000X0*%
%TD*%
%TA.AperFunction,ComponentPad*%
%ADD28R,1.700000X1.700000*%
%TD*%
%TA.AperFunction,ComponentPad*%
%ADD29O,1.700000X1.700000*%
%TD*%
%TA.AperFunction,ViaPad*%
%ADD30C,0.700000*%
%TD*%
%TA.AperFunction,Conductor*%
%ADD31C,0.300000*%
%TD*%
%TA.AperFunction,Conductor*%
%ADD32C,0.500000*%
%TD*%
G04 APERTURE END LIST*
D10*
%TO.P,JP3,2,B*%
%TO.N,Charging*%
X114000000Y-80000000D03*
D11*
%TO.P,JP3,1,A*%
%TO.N,Net-(JP3-A)*%
X114000000Y-81300000D03*
%TD*%
D10*
%TO.P,JP2,2,B*%
%TO.N,/Motor1_A*%
X122000000Y-65500000D03*
D11*
%TO.P,JP2,1,A*%
%TO.N,Net-(JP2-A)*%
X122000000Y-66800000D03*
%TD*%
D10*
%TO.P,JP1,2,B*%
%TO.N,/Motor2_A*%
X133500000Y-65350000D03*
D11*
%TO.P,JP1,1,A*%
%TO.N,Net-(JP1-A)*%
X133500000Y-66650000D03*
%TD*%
D12*
%TO.P,U1,1*%
%TO.N,VADC*%
X139650000Y-82950000D03*
%TO.P,U1,2,-*%
X140920000Y-82950000D03*
%TO.P,U1,3,+*%
%TO.N,Net-(U1A-+)*%
X142190000Y-82950000D03*
%TO.P,U1,4,V+*%
%TO.N,H-bridge*%
X143460000Y-82950000D03*
%TO.P,U1,5*%
%TO.N,N/C*%
X144730000Y-82950000D03*
%TO.P,U1,6*%
X146000000Y-82950000D03*
%TO.P,U1,7*%
X147270000Y-82950000D03*
%TO.P,U1,8*%
X147270000Y-78000000D03*
%TO.P,U1,9*%
X146000000Y-78000000D03*
%TO.P,U1,10*%
X144730000Y-78000000D03*
%TO.P,U1,11,V-*%
%TO.N,GND*%
X143460000Y-78000000D03*
%TO.P,U1,12*%
%TO.N,N/C*%
X142190000Y-78000000D03*
%TO.P,U1,13*%
X140920000Y-78000000D03*
%TO.P,U1,14*%
X139650000Y-78000000D03*
%TD*%
D13*
%TO.P,U5,5,5*%
%TO.N,unconnected-(U5-Pad5)*%
X107500000Y-72900051D03*
%TO.P,U5,4,4*%
%TO.N,unconnected-(U5-Pad4)*%
X107500000Y-88099949D03*
D14*
%TO.P,U5,3,3*%
%TO.N,H-bridge*%
X107500000Y-83500000D03*
%TO.P,U5,2,2*%
%TO.N,/Vbatt*%
X107500000Y-80500000D03*
%TO.P,U5,1,1*%
%TO.N,Charging*%
X107500000Y-77500000D03*
%TD*%
D15*
%TO.P,C1,2*%
%TO.N,H-bridge*%
X128380000Y-86030000D03*
%TO.P,C1,1*%
%TO.N,Net-(U2-VCP)*%
X126830000Y-86030000D03*
%TD*%
D16*
%TO.P,C2,1*%
%TO.N,Net-(U2-VINT)*%
X132237500Y-85715000D03*
%TO.P,C2,2*%
%TO.N,GND*%
X132237500Y-87265000D03*
%TD*%
%TO.P,C4,2*%
%TO.N,GND*%
X121500000Y-88775000D03*
%TO.P,C4,1*%
%TO.N,/Vusb*%
X121500000Y-87225000D03*
%TD*%
D17*
%TO.P,TP3,1,1*%
%TO.N,H-bridge*%
X145500000Y-91500000D03*
%TD*%
D18*
%TO.P,R3,1*%
%TO.N,GND*%
X132000000Y-71175000D03*
%TO.P,R3,2*%
%TO.N,Net-(U2-AISEN)*%
X132000000Y-72825000D03*
%TD*%
D19*
%TO.P,R1,1*%
%TO.N,H-bridge*%
X145785000Y-86475000D03*
%TO.P,R1,2*%
%TO.N,Net-(U1A-+)*%
X144135000Y-86475000D03*
%TD*%
D20*
%TO.P,U2,17,GND*%
%TO.N,GND*%
X128605000Y-80000000D03*
X129500000Y-80000000D03*
X130395000Y-80000000D03*
X131290000Y-80000000D03*
X128605000Y-78530000D03*
X129500000Y-78530000D03*
X130395000Y-78530000D03*
X131290000Y-78530000D03*
D21*
%TO.P,U2,16,AIN1*%
%TO.N,/PWM1*%
X132222500Y-82040000D03*
%TO.P,U2,15,AIN2*%
%TO.N,/PWM2*%
X131572500Y-82040000D03*
%TO.P,U2,14,VINT*%
%TO.N,Net-(U2-VINT)*%
X130922500Y-82040000D03*
%TO.P,U2,13,GND*%
%TO.N,GND*%
X130272500Y-82040000D03*
%TO.P,U2,12,VM*%
%TO.N,H-bridge*%
X129622500Y-82040000D03*
%TO.P,U2,11,VCP*%
%TO.N,Net-(U2-VCP)*%
X128972500Y-82040000D03*
%TO.P,U2,10,BIN2*%
%TO.N,/PWM4*%
X128322500Y-82040000D03*
%TO.P,U2,9,BIN1*%
%TO.N,/PWM3*%
X127672500Y-82040000D03*
%TO.P,U2,8,~{FAULT}*%
%TO.N,unconnected-(U2-~{FAULT}-Pad8)*%
X127672500Y-76490000D03*
%TO.P,U2,7,BOUT1*%
%TO.N,Net-(JP2-A)*%
X128322500Y-76490000D03*
%TO.P,U2,6,BISEN*%
%TO.N,Net-(U2-BISEN)*%
X128972500Y-76490000D03*
%TO.P,U2,5,BOUT2*%
%TO.N,/Motor1_B*%
X129622500Y-76490000D03*
%TO.P,U2,4,AOUT2*%
%TO.N,/Motor2_B*%
X130272500Y-76490000D03*
%TO.P,U2,3,AISEN*%
%TO.N,Net-(U2-AISEN)*%
X130922500Y-76490000D03*
%TO.P,U2,2,AOUT1*%
%TO.N,Net-(JP1-A)*%
X131572500Y-76490000D03*
%TO.P,U2,1,~{SLEEP}*%
%TO.N,unconnected-(U2-~{SLEEP}-Pad1)*%
X132222500Y-76490000D03*
%TD*%
D22*
%TO.P,U3,9,EP*%
%TO.N,GND*%
X119000000Y-82500000D03*
D23*
%TO.P,U3,8,CE*%
%TO.N,/Vusb*%
X117094996Y-79591694D03*
%TO.P,U3,7,CHRG#*%
%TO.N,Net-(U3-CHRG#)*%
X118364999Y-79591694D03*
%TO.P,U3,6,STDBY#*%
%TO.N,Net-(U3-STDBY#)*%
X119635001Y-79591694D03*
%TO.P,U3,5,BAT*%
%TO.N,Net-(JP3-A)*%
X120905004Y-79591694D03*
%TO.P,U3,4,VCC*%
%TO.N,/Vusb*%
X120905004Y-85408306D03*
%TO.P,U3,3,GND*%
%TO.N,GND*%
X119635001Y-85408306D03*
%TO.P,U3,2,PROG*%
%TO.N,Net-(U3-PROG)*%
X118364999Y-85408306D03*
%TO.P,U3,1,TEMP*%
%TO.N,GND*%
X117094996Y-85408306D03*
%TD*%
D24*
%TO.P,C3,1*%
%TO.N,GND*%
X130237500Y-87265000D03*
%TO.P,C3,2*%
%TO.N,H-bridge*%
X130237500Y-85715000D03*
%TD*%
D25*
%TO.P,D1,1,K*%
%TO.N,Net-(D1-K)*%
X118000000Y-72765000D03*
%TO.P,D1,2,A*%
%TO.N,/Vusb*%
X118000000Y-71190000D03*
%TD*%
D26*
%TO.P,J2,2,Pin_2*%
%TO.N,GND*%
X147450000Y-71000000D03*
D27*
%TO.P,J2,1,Pin_1*%
%TO.N,/Vbatt*%
X147450000Y-73000000D03*
%TD*%
D18*
%TO.P,R5,1*%
%TO.N,Net-(D1-K)*%
X119000000Y-75675000D03*
%TO.P,R5,2*%
%TO.N,Net-(U3-STDBY#)*%
X119000000Y-77325000D03*
%TD*%
%TO.P,R7,2*%
%TO.N,GND*%
X118000000Y-88825000D03*
%TO.P,R7,1*%
%TO.N,Net-(U3-PROG)*%
X118000000Y-87175000D03*
%TD*%
D25*
%TO.P,D2,1,K*%
%TO.N,Net-(D2-K)*%
X115000000Y-72840000D03*
%TO.P,D2,2,A*%
%TO.N,/Vusb*%
X115000000Y-71265000D03*
%TD*%
D18*
%TO.P,R6,1*%
%TO.N,Net-(D2-K)*%
X115500000Y-74675000D03*
%TO.P,R6,2*%
%TO.N,Net-(U3-CHRG#)*%
X115500000Y-76325000D03*
%TD*%
D17*
%TO.P,TP1,1,1*%
%TO.N,Net-(U1A-+)*%
X137500000Y-87000000D03*
%TD*%
D18*
%TO.P,R2,2*%
%TO.N,GND*%
X141770000Y-87800000D03*
%TO.P,R2,1*%
%TO.N,Net-(U1A-+)*%
X141770000Y-86150000D03*
%TD*%
D16*
%TO.P,C5,1*%
%TO.N,GND*%
X122000000Y-75950000D03*
%TO.P,C5,2*%
%TO.N,Net-(JP3-A)*%
X122000000Y-77500000D03*
%TD*%
D18*
%TO.P,R4,1*%
%TO.N,GND*%
X128500000Y-71175000D03*
%TO.P,R4,2*%
%TO.N,Net-(U2-BISEN)*%
X128500000Y-72825000D03*
%TD*%
D28*
%TO.P,J1,1,Pin_1*%
%TO.N,/Motor2_A*%
X136580000Y-60040000D03*
D29*
%TO.P,J1,2,Pin_2*%
%TO.N,/PWM1*%
X136580000Y-57500000D03*
%TO.P,J1,3,Pin_3*%
%TO.N,/Motor2_B*%
X134040000Y-60040000D03*
%TO.P,J1,4,Pin_4*%
%TO.N,/PWM2*%
X134040000Y-57500000D03*
%TO.P,J1,5,Pin_5*%
%TO.N,GND*%
X131500000Y-60040000D03*
%TO.P,J1,6,Pin_6*%
X131500000Y-57500000D03*
%TO.P,J1,7,Pin_7*%
%TO.N,/Vbatt*%
X128960000Y-60040000D03*
%TO.P,J1,8,Pin_8*%
X128960000Y-57500000D03*
%TO.P,J1,9,Pin_9*%
%TO.N,/RESV*%
X126420000Y-60040000D03*
%TO.P,J1,10,Pin_10*%
%TO.N,VADC*%
X126420000Y-57500000D03*
%TO.P,J1,11,Pin_11*%
%TO.N,/Vusb*%
X123880000Y-60040000D03*
%TO.P,J1,12,Pin_12*%
X123880000Y-57500000D03*
%TO.P,J1,13,Pin_13*%
%TO.N,/Motor1_A*%
X121340000Y-60040000D03*
%TO.P,J1,14,Pin_14*%
%TO.N,/PWM3*%
X121340000Y-57500000D03*
%TO.P,J1,15,Pin_15*%
%TO.N,/Motor1_B*%
X118800000Y-60040000D03*
%TO.P,J1,16,Pin_16*%
%TO.N,/PWM4*%
X118800000Y-57500000D03*
%TD*%
D30*
%TO.N,GND*%
X121500000Y-74500000D03*
X116500000Y-86500000D03*
%TO.N,/Vbatt*%
X124000000Y-69500000D03*
X111000000Y-80500000D03*
%TO.N,/Vusb*%
X116000000Y-67500000D03*
%TO.N,VADC*%
X137000000Y-69500000D03*
%TO.N,GND*%
X131500000Y-62500000D03*
%TO.N,/Vbatt*%
X138000000Y-68500000D03*
%TO.N,GND*%
X141460000Y-89000000D03*
X129500000Y-71000000D03*
X131000000Y-71000000D03*
X144500000Y-71000000D03*
X133500000Y-87500000D03*
X143460000Y-76475000D03*
X130500000Y-84000000D03*
%TO.N,/PWM2*%
X136000000Y-67000000D03*
%TO.N,/Motor1_B*%
X119000000Y-67000000D03*
X129500000Y-74500000D03*
%TD*%
D31*
%TO.N,/Vusb*%
X123880000Y-57500000D02*
X123880000Y-60040000D01*
D32*
%TO.N,GND*%
X147450000Y-71000000D02*
X144500000Y-71000000D01*
%TO.N,/Vbatt*%
X139868629Y-73000000D02*
X147450000Y-73000000D01*
X138000000Y-71131371D02*
X139868629Y-73000000D01*
X138000000Y-68500000D02*
X138000000Y-71131371D01*
%TO.N,H-bridge*%
X142500000Y-91500000D02*
X145500000Y-91500000D01*
X142107500Y-91107500D02*
X142500000Y-91500000D01*
X142107500Y-91107500D02*
X141715000Y-91500000D01*
X145785000Y-87430000D02*
X142107500Y-91107500D01*
X145785000Y-86475000D02*
X145785000Y-87430000D01*
X141715000Y-91500000D02*
X128000000Y-91500000D01*
D31*
%TO.N,Net-(U1A-+)*%
X138500000Y-87000000D02*
X137500000Y-87000000D01*
X139350000Y-86150000D02*
X138500000Y-87000000D01*
X141770000Y-86150000D02*
X139350000Y-86150000D01*
%TO.N,Net-(JP1-A)*%
X133500000Y-73500000D02*
X133500000Y-66650000D01*
X133000000Y-73500000D02*
X133500000Y-73500000D01*
X131572500Y-74927500D02*
X133000000Y-73500000D01*
X131572500Y-76490000D02*
X131572500Y-74927500D01*
%TO.N,/Motor2_A*%
X136580000Y-62270000D02*
X136580000Y-60040000D01*
X133500000Y-65350000D02*
X136580000Y-62270000D01*
%TO.N,Net-(JP3-A)*%
X120905004Y-78594996D02*
X120905004Y-79591694D01*
X122000000Y-77500000D02*
X120905004Y-78594996D01*
X120905004Y-80594996D02*
X120905004Y-79591694D01*
X120550000Y-80950000D02*
X120905004Y-80594996D01*
X116200000Y-81300000D02*
X116550000Y-80950000D01*
X116550000Y-80950000D02*
X120550000Y-80950000D01*
X114000000Y-81300000D02*
X116200000Y-81300000D01*
D32*
%TO.N,Charging*%
X111500000Y-77500000D02*
X107500000Y-77500000D01*
X114000000Y-80000000D02*
X111500000Y-77500000D01*
D31*
%TO.N,/PWM4*%
X116500000Y-66500000D02*
X116500000Y-57500000D01*
X125000000Y-83000000D02*
X125000000Y-75000000D01*
X126000000Y-84000000D02*
X125000000Y-83000000D01*
X128000000Y-84000000D02*
X126000000Y-84000000D01*
X128322500Y-83677500D02*
X128000000Y-84000000D01*
X125000000Y-75000000D02*
X116500000Y-66500000D01*
X128322500Y-82040000D02*
X128322500Y-83677500D01*
X116500000Y-57500000D02*
X118800000Y-57500000D01*
D32*
%TO.N,/Vusb*%
X119690000Y-71190000D02*
X118000000Y-71190000D01*
X124000000Y-75500000D02*
X119690000Y-71190000D01*
X121500000Y-87225000D02*
X122275000Y-87225000D01*
X122275000Y-87225000D02*
X124000000Y-85500000D01*
X124000000Y-85500000D02*
X124000000Y-75500000D01*
%TO.N,GND*%
X122000000Y-75000000D02*
X121500000Y-74500000D01*
X122000000Y-75950000D02*
X122000000Y-75000000D01*
%TO.N,/Vusb*%
X120905004Y-85408306D02*
X120905004Y-86630004D01*
X120905004Y-86630004D02*
X121500000Y-87225000D01*
%TO.N,GND*%
X117094996Y-85905004D02*
X116500000Y-86500000D01*
X117094996Y-85408306D02*
X117094996Y-85905004D01*
X120045002Y-88775000D02*
X119635001Y-88364999D01*
X121500000Y-88775000D02*
X120045002Y-88775000D01*
X119635001Y-88364999D02*
X119175000Y-88825000D01*
X119175000Y-88825000D02*
X118000000Y-88825000D01*
X119635001Y-85408306D02*
X119635001Y-88364999D01*
X119635001Y-83135001D02*
X119000000Y-82500000D01*
X119635001Y-85408306D02*
X119635001Y-83135001D01*
X117094996Y-84405004D02*
X119000000Y-82500000D01*
X117094996Y-85408306D02*
X117094996Y-84405004D01*
D31*
%TO.N,Net-(U3-PROG)*%
X118000000Y-86000000D02*
X118000000Y-87175000D01*
X118364999Y-85635001D02*
X118000000Y-86000000D01*
X118364999Y-85408306D02*
X118364999Y-85635001D01*
%TO.N,Net-(U3-STDBY#)*%
X119635001Y-77960001D02*
X119635001Y-79591694D01*
X119000000Y-77325000D02*
X119635001Y-77960001D01*
%TO.N,Net-(U3-CHRG#)*%
X118364999Y-79189999D02*
X118364999Y-79591694D01*
X115500000Y-76325000D02*
X118364999Y-79189999D01*
D32*
%TO.N,/Vusb*%
X112735000Y-71265000D02*
X115000000Y-71265000D01*
X112500000Y-77500000D02*
X112500000Y-71500000D01*
X115003302Y-77500000D02*
X112500000Y-77500000D01*
X112500000Y-71500000D02*
X112735000Y-71265000D01*
X117094996Y-79591694D02*
X115003302Y-77500000D01*
D31*
%TO.N,Net-(D2-K)*%
X115500000Y-74675000D02*
X115000000Y-74175000D01*
X115000000Y-74175000D02*
X115000000Y-72840000D01*
%TO.N,Net-(D1-K)*%
X118000000Y-74675000D02*
X118000000Y-72765000D01*
X119000000Y-75675000D02*
X118000000Y-74675000D01*
D32*
%TO.N,H-bridge*%
X111500000Y-89500000D02*
X111500000Y-84000000D01*
X114500000Y-92500000D02*
X111500000Y-89500000D01*
X111500000Y-84000000D02*
X111000000Y-83500000D01*
X127000000Y-92500000D02*
X114500000Y-92500000D01*
X128000000Y-91500000D02*
X127000000Y-92500000D01*
X111000000Y-83500000D02*
X107500000Y-83500000D01*
D31*
%TO.N,Net-(JP2-A)*%
X122000000Y-66800000D02*
X122000000Y-69342500D01*
X122000000Y-69342500D02*
X128322500Y-75665000D01*
X128322500Y-75665000D02*
X128322500Y-76490000D01*
%TO.N,/Motor1_A*%
X122000000Y-62000000D02*
X122000000Y-65500000D01*
X121340000Y-61340000D02*
X122000000Y-62000000D01*
X121340000Y-60040000D02*
X121340000Y-61340000D01*
%TO.N,/PWM1*%
X139000000Y-57500000D02*
X136580000Y-57500000D01*
X135000000Y-66500000D02*
X139000000Y-62500000D01*
X135000000Y-82500000D02*
X135000000Y-66500000D01*
X139000000Y-62500000D02*
X139000000Y-57500000D01*
X133500000Y-84000000D02*
X135000000Y-82500000D01*
X132222500Y-82722500D02*
X133500000Y-84000000D01*
X132222500Y-82040000D02*
X132222500Y-82722500D01*
%TO.N,/PWM2*%
X131572500Y-83279607D02*
X131572500Y-82040000D01*
X134207107Y-84500000D02*
X132792893Y-84500000D01*
X136000000Y-82707107D02*
X134207107Y-84500000D01*
X132792893Y-84500000D02*
X131572500Y-83279607D01*
X136000000Y-67000000D02*
X136000000Y-82707107D01*
%TO.N,VADC*%
X137000000Y-69500000D02*
X137000000Y-85000000D01*
X137000000Y-85000000D02*
X139000000Y-85000000D01*
%TO.N,/Motor2_B*%
X130272500Y-63500000D02*
X132500000Y-63500000D01*
X134040000Y-61960000D02*
X134040000Y-60040000D01*
X130272500Y-76490000D02*
X130272500Y-63500000D01*
X132500000Y-63500000D02*
X134040000Y-61960000D01*
%TO.N,/Motor1_B*%
X118800000Y-62700000D02*
X118800000Y-60040000D01*
X119000000Y-67000000D02*
X119000000Y-62900000D01*
X119000000Y-62900000D02*
X118800000Y-62700000D01*
%TO.N,GND*%
X130272500Y-83772500D02*
X130500000Y-84000000D01*
X130272500Y-82040000D02*
X130272500Y-83772500D01*
%TO.N,/Motor1_B*%
X129622500Y-75550787D02*
X129622500Y-76490000D01*
X129500000Y-75428287D02*
X129622500Y-75550787D01*
X129500000Y-74500000D02*
X129500000Y-75428287D01*
D32*
%TO.N,/Vbatt*%
X128960000Y-64540000D02*
X128960000Y-60040000D01*
X124000000Y-69500000D02*
X128960000Y-64540000D01*
X107500000Y-80500000D02*
X111000000Y-80500000D01*
%TO.N,H-bridge*%
X129922500Y-86030000D02*
X130237500Y-85715000D01*
X128380000Y-86030000D02*
X129922500Y-86030000D01*
X128380000Y-91120000D02*
X128000000Y-91500000D01*
X128380000Y-86030000D02*
X128380000Y-91120000D01*
D31*
X129622500Y-85100000D02*
X130237500Y-85715000D01*
X129622500Y-82040000D02*
X129622500Y-85100000D01*
D32*
X145785000Y-85285000D02*
X145785000Y-86475000D01*
X145500000Y-85000000D02*
X145785000Y-85285000D01*
X143500000Y-85000000D02*
X145500000Y-85000000D01*
X143460000Y-84960000D02*
X143500000Y-85000000D01*
X143460000Y-82950000D02*
X143460000Y-84960000D01*
D31*
%TO.N,VADC*%
X140000000Y-85000000D02*
X139000000Y-85000000D01*
X140920000Y-84080000D02*
X140000000Y-85000000D01*
X140920000Y-82950000D02*
X140920000Y-84080000D01*
D32*
%TO.N,/Vusb*%
X118000000Y-69500000D02*
X116000000Y-67500000D01*
X118000000Y-71190000D02*
X118000000Y-69500000D01*
D31*
%TO.N,VADC*%
X139650000Y-84350000D02*
X139000000Y-85000000D01*
X139650000Y-82950000D02*
X139650000Y-84350000D01*
D32*
%TO.N,GND*%
X131500000Y-60040000D02*
X131500000Y-62500000D01*
X131500000Y-57500000D02*
X131500000Y-60040000D01*
%TO.N,/Vbatt*%
X128960000Y-57500000D02*
X128960000Y-60040000D01*
D31*
%TO.N,Net-(U1A-+)*%
X142635000Y-86150000D02*
X142960000Y-86475000D01*
X142960000Y-86475000D02*
X144135000Y-86475000D01*
X141770000Y-86150000D02*
X142635000Y-86150000D01*
X141770000Y-84665000D02*
X141770000Y-86150000D01*
X142190000Y-84245000D02*
X141770000Y-84665000D01*
X142190000Y-82950000D02*
X142190000Y-84245000D01*
D32*
%TO.N,GND*%
X141770000Y-88690000D02*
X141460000Y-89000000D01*
X141770000Y-87800000D02*
X141770000Y-88690000D01*
X129325000Y-71175000D02*
X129500000Y-71000000D01*
X128500000Y-71175000D02*
X129325000Y-71175000D01*
X131175000Y-71175000D02*
X131000000Y-71000000D01*
X132000000Y-71175000D02*
X131175000Y-71175000D01*
X133265000Y-87265000D02*
X133500000Y-87500000D01*
X132237500Y-87265000D02*
X133265000Y-87265000D01*
X130237500Y-87265000D02*
X132237500Y-87265000D01*
X143460000Y-78000000D02*
X143460000Y-76475000D01*
D31*
%TO.N,/PWM3*%
X120140000Y-58700000D02*
X121340000Y-57500000D01*
X120140000Y-68640000D02*
X120140000Y-58700000D01*
X126000000Y-74500000D02*
X120140000Y-68640000D01*
X126000000Y-82500000D02*
X126000000Y-74500000D01*
X126500000Y-83000000D02*
X126000000Y-82500000D01*
X127500000Y-83000000D02*
X126500000Y-83000000D01*
X127672500Y-82827500D02*
X127500000Y-83000000D01*
X127672500Y-82040000D02*
X127672500Y-82827500D01*
%TO.N,Net-(U2-AISEN)*%
X130922500Y-74577500D02*
X132000000Y-73500000D01*
X130922500Y-76490000D02*
X130922500Y-74577500D01*
X132000000Y-73500000D02*
X132000000Y-72825000D01*
%TO.N,Net-(U2-BISEN)*%
X128500000Y-75135394D02*
X128500000Y-72825000D01*
X128972500Y-75607894D02*
X128500000Y-75135394D01*
X128972500Y-76490000D02*
X128972500Y-75607894D01*
D32*
%TO.N,/Vusb*%
X117925000Y-71265000D02*
X118000000Y-71190000D01*
X115000000Y-71265000D02*
X117925000Y-71265000D01*
D31*
%TO.N,GND*%
X130272500Y-80122500D02*
X130272500Y-82040000D01*
X130395000Y-80000000D02*
X130272500Y-80122500D01*
%TO.N,Net-(U2-VCP)*%
X128605000Y-84530000D02*
X127105000Y-84530000D01*
X128972500Y-84162500D02*
X128605000Y-84530000D01*
X126830000Y-84805000D02*
X126830000Y-86030000D01*
X128972500Y-82040000D02*
X128972500Y-84162500D01*
X127105000Y-84530000D02*
X126830000Y-84805000D01*
%TO.N,Net-(U2-VINT)*%
X132237500Y-84662500D02*
X132237500Y-85715000D01*
X130922500Y-83347500D02*
X132237500Y-84662500D01*
X130922500Y-82040000D02*
X130922500Y-83347500D01*
%TD*%
%TA.AperFunction,Conductor*%
%TO.N,/Vbatt*%
G36*
X129210000Y-61370633D02*
G01*
X129423483Y-61313433D01*
X129423492Y-61313429D01*
X129637578Y-61213600D01*
X129831082Y-61078105D01*
X129998105Y-60911082D01*
X130128119Y-60725405D01*
X130182696Y-60681781D01*
X130252195Y-60674588D01*
X130314549Y-60706110D01*
X130331269Y-60725405D01*
X130461505Y-60911401D01*
X130461506Y-60911402D01*
X130628595Y-61078492D01*
X130628598Y-61078494D01*
X130628599Y-61078495D01*
X130696623Y-61126125D01*
X130740248Y-61180701D01*
X130749500Y-61227700D01*
X130749500Y-62065678D01*
X130732887Y-62127678D01*
X130718750Y-62152163D01*
X130663504Y-62322192D01*
X130663503Y-62322194D01*
X130644815Y-62500000D01*
X130663503Y-62677805D01*
X130663504Y-62677808D01*
X130666551Y-62687185D01*
X130668544Y-62757026D01*
X130632462Y-62816858D01*
X130569761Y-62847684D01*
X130548619Y-62849500D01*
X130208429Y-62849500D01*
X130082761Y-62874497D01*
X130082755Y-62874499D01*
X129964375Y-62923533D01*
X129964366Y-62923538D01*
X129857831Y-62994723D01*
X129857827Y-62994726D01*
X129767226Y-63085327D01*
X129767223Y-63085331D01*
X129696038Y-63191866D01*
X129696033Y-63191875D01*
X129646999Y-63310255D01*
X129646997Y-63310261D01*
X129622000Y-63435928D01*
X129622000Y-70025500D01*
X129602315Y-70092539D01*
X129549511Y-70138294D01*
X129498000Y-70149500D01*
X129410609Y-70149500D01*
X129379954Y-70156015D01*
X129235733Y-70186670D01*
X129235728Y-70186672D01*
X129072408Y-70259388D01*
X129072404Y-70259390D01*
X129050934Y-70274989D01*
X128985128Y-70298468D01*
X128941162Y-70293056D01*
X128902196Y-70280914D01*
X128831616Y-70274500D01*
X128168384Y-70274500D01*
X128149145Y-70276248D01*
X128097807Y-70280913D01*
X127935393Y-70331522D01*
X127789811Y-70419530D01*
X127669530Y-70539811D01*
X127581522Y-70685393D01*
X127530913Y-70847807D01*
X127524500Y-70918386D01*
X127524500Y-71431613D01*
X127530913Y-71502192D01*
X127530913Y-71502194D01*
X127530914Y-71502196D01*
X127581522Y-71664606D01*
X127663099Y-71799551D01*
X127669530Y-71810188D01*
X127771661Y-71912319D01*
X127805146Y-71973642D01*
X127800162Y-72043334D01*
X127771661Y-72087681D01*
X127669531Y-72189810D01*
X127669530Y-72189811D01*
X127581522Y-72335393D01*
X127530913Y-72497807D01*
X127524500Y-72568386D01*
X127524500Y-73081613D01*
X127530913Y-73152192D01*
X127530913Y-73152194D01*
X127530914Y-73152196D01*
X127581522Y-73314606D01*
X127633128Y-73399973D01*
X127669530Y-73460188D01*
X127789810Y-73580468D01*
X127795715Y-73585094D01*
X127794911Y-73586119D01*
X127836833Y-73631890D01*
X127849500Y-73686488D01*
X127849500Y-73972692D01*
X127829815Y-74039731D01*
X127777011Y-74085486D01*
X127707853Y-74095430D01*
X127644297Y-74066405D01*
X127637819Y-74060373D01*
X122686819Y-69109373D01*
X122653334Y-69048050D01*
X122650500Y-69021692D01*
X122650500Y-67802179D01*
X122670185Y-67735140D01*
X122722989Y-67689385D01*
X122722991Y-67689384D01*
X122733083Y-67684775D01*
X122733082Y-67684775D01*
X122733094Y-67684770D01*
X122854130Y-67606986D01*
X122962791Y-67512832D01*
X122962794Y-67512829D01*
X123057015Y-67404091D01*
X123134747Y-67283137D01*
X123194517Y-67152259D01*
X123235024Y-67014304D01*
X123255500Y-66871889D01*
X123255500Y-66300000D01*
X123250355Y-66228060D01*
X123239396Y-66190740D01*
X123235636Y-66138158D01*
X123248376Y-66049546D01*
X123255500Y-66000000D01*
X123255500Y-65428111D01*
X123235024Y-65285696D01*
X123194517Y-65147741D01*
X123134747Y-65016863D01*
X123060623Y-64901523D01*
X123059802Y-64900081D01*
X123057011Y-64895901D01*
X122962792Y-64787169D01*
X122962789Y-64787166D01*
X122854135Y-64693018D01*
X122854132Y-64693015D01*
X122767232Y-64637169D01*
X122733094Y-64615230D01*
X122722985Y-64610613D01*
X122670184Y-64564859D01*
X122650500Y-64497821D01*
X122650500Y-61935928D01*
X122625502Y-61810261D01*
X122625501Y-61810260D01*
X122625501Y-61810256D01*
X122576465Y-61691873D01*
X122549738Y-61651873D01*
X122541264Y-61639191D01*
X122505278Y-61585332D01*
X122505272Y-61585325D01*
X122190640Y-61270694D01*
X122157155Y-61209371D01*
X122162139Y-61139680D01*
X122204010Y-61083746D01*
X122207201Y-61081436D01*
X122208122Y-61080790D01*
X122211401Y-61078495D01*
X122378495Y-60911401D01*
X122508425Y-60725842D01*
X122563002Y-60682217D01*
X122632500Y-60675023D01*
X122694855Y-60706546D01*
X122711575Y-60725842D01*
X122841500Y-60911395D01*
X122841505Y-60911401D01*
X123008599Y-61078495D01*
X123095980Y-61139680D01*
X123202165Y-61214032D01*
X123202167Y-61214033D01*
X123202170Y-61214035D01*
X123416337Y-61313903D01*
X123644592Y-61375063D01*
X123821034Y-61390500D01*
X123879999Y-61395659D01*
X123880000Y-61395659D01*
X123880001Y-61395659D01*
X123938966Y-61390500D01*
X124115408Y-61375063D01*
X124343663Y-61313903D01*
X124557830Y-61214035D01*
X124751401Y-61078495D01*
X124918495Y-60911401D01*
X125048425Y-60725842D01*
X125103002Y-60682217D01*
X125172500Y-60675023D01*
X125234855Y-60706546D01*
X125251575Y-60725842D01*
X125381500Y-60911395D01*
X125381505Y-60911401D01*
X125548599Y-61078495D01*
X125635980Y-61139680D01*
X125742165Y-61214032D01*
X125742167Y-61214033D01*
X125742170Y-61214035D01*
X125956337Y-61313903D01*
X126184592Y-61375063D01*
X126361034Y-61390500D01*
X126419999Y-61395659D01*
X126420000Y-61395659D01*
X126420001Y-61395659D01*
X126478966Y-61390500D01*
X126655408Y-61375063D01*
X126883663Y-61313903D01*
X127097830Y-61214035D01*
X127291401Y-61078495D01*
X127458495Y-60911401D01*
X127588730Y-60725405D01*
X127643307Y-60681781D01*
X127712805Y-60674587D01*
X127775160Y-60706110D01*
X127791879Y-60725405D01*
X127921890Y-60911078D01*
X128088917Y-61078105D01*
X128282421Y-61213600D01*
X128496507Y-61313429D01*
X128496516Y-61313433D01*
X128710000Y-61370634D01*
X128710000Y-60473012D01*
X128767007Y-60505925D01*
X128894174Y-60540000D01*
X129025826Y-60540000D01*
X129152993Y-60505925D01*
X129210000Y-60473012D01*
X129210000Y-61370633D01*
G37*
%TD.AperFunction*%
%TA.AperFunction,Conductor*%
G36*
X129210000Y-59606988D02*
G01*
X129152993Y-59574075D01*
X129025826Y-59540000D01*
X128894174Y-59540000D01*
X128767007Y-59574075D01*
X128710000Y-59606988D01*
X128710000Y-57933012D01*
X128767007Y-57965925D01*
X128894174Y-58000000D01*
X129025826Y-58000000D01*
X129152993Y-57965925D01*
X129210000Y-57933012D01*
X129210000Y-59606988D01*
G37*
%TD.AperFunction*%
%TA.AperFunction,Conductor*%
G36*
X138501039Y-52000017D02*
G01*
X138503981Y-52000065D01*
X138656582Y-52002559D01*
X138670718Y-52003602D01*
X138980196Y-52044345D01*
X138996087Y-52047506D01*
X139240218Y-52112921D01*
X139296612Y-52128032D01*
X139311971Y-52133246D01*
X139599400Y-52252303D01*
X139613947Y-52259477D01*
X139883377Y-52415032D01*
X139896863Y-52424043D01*
X140143686Y-52613437D01*
X140155881Y-52624132D01*
X140375867Y-52844118D01*
X140386562Y-52856313D01*
X140575956Y-53103136D01*
X140584967Y-53116622D01*
X140740522Y-53386052D01*
X140747696Y-53400599D01*
X140866753Y-53688028D01*
X140871967Y-53703387D01*
X140952491Y-54003903D01*
X140955655Y-54019812D01*
X140996396Y-54329270D01*
X140997440Y-54343428D01*
X140999983Y-54498960D01*
X141000000Y-54500987D01*
X141000000Y-65500026D01*
X141002675Y-65663677D01*
X141002677Y-65663694D01*
X141041589Y-65959262D01*
X141045406Y-65988249D01*
X141061831Y-66049546D01*
X141130135Y-66304461D01*
X141255410Y-66606901D01*
X141255414Y-66606911D01*
X141419095Y-66890415D01*
X141618382Y-67150131D01*
X141618388Y-67150138D01*
X141849861Y-67381611D01*
X141849868Y-67381617D01*
X142109584Y-67580904D01*
X142393088Y-67744585D01*
X142393089Y-67744585D01*
X142393092Y-67744587D01*
X142695539Y-67869865D01*
X143011751Y-67954594D01*
X143336317Y-67997324D01*
X143361892Y-67997742D01*
X143499973Y-68000000D01*
X143500000Y-68000000D01*
X149499013Y-68000000D01*
X149501039Y-68000017D01*
X149503981Y-68000065D01*
X149656582Y-68002559D01*
X149670718Y-68003602D01*
X149980196Y-68044345D01*
X149996087Y-68047506D01*
X150240218Y-68112921D01*
X150296612Y-68128032D01*
X150311971Y-68133246D01*
X150531951Y-68224364D01*
X150571170Y-68240610D01*
X150599400Y-68252303D01*
X150613947Y-68259477D01*
X150827871Y-68382986D01*
X150883377Y-68415032D01*
X150896863Y-68424043D01*
X151143686Y-68613437D01*
X151155881Y-68624132D01*
X151375867Y-68844118D01*
X151386562Y-68856313D01*
X151575956Y-69103136D01*
X151584967Y-69116622D01*
X151740522Y-69386052D01*
X151747696Y-69400599D01*
X151866753Y-69688028D01*
X151871967Y-69703387D01*
X151952491Y-70003903D01*
X151955655Y-70019812D01*
X151996396Y-70329270D01*
X151997440Y-70343428D01*
X151999983Y-70498960D01*
X152000000Y-70500987D01*
X152000000Y-91999012D01*
X151999983Y-92001039D01*
X151997440Y-92156571D01*
X151996396Y-92170729D01*
X151955655Y-92480187D01*
X151952491Y-92496096D01*
X151871967Y-92796612D01*
X151866753Y-92811971D01*
X151747696Y-93099400D01*
X151740522Y-93113947D01*
X151584967Y-93383377D01*
X151575956Y-93396863D01*
X151386562Y-93643686D01*
X151375867Y-93655881D01*
X151155881Y-93875867D01*
X151143686Y-93886562D01*
X150896863Y-94075956D01*
X150883377Y-94084967D01*
X150613947Y-94240522D01*
X150599400Y-94247696D01*
X150311971Y-94366753D01*
X150296612Y-94371967D01*
X149996096Y-94452491D01*
X149980187Y-94455655D01*
X149670729Y-94496396D01*
X149656571Y-94497440D01*
X149501040Y-94499983D01*
X149499013Y-94500000D01*
X106000987Y-94500000D01*
X105998960Y-94499983D01*
X105843428Y-94497440D01*
X105829270Y-94496396D01*
X105519812Y-94455655D01*
X105503903Y-94452491D01*
X105203387Y-94371967D01*
X105188028Y-94366753D01*
X104900599Y-94247696D01*
X104886052Y-94240522D01*
X104616622Y-94084967D01*
X104603136Y-94075956D01*
X104356313Y-93886562D01*
X104344118Y-93875867D01*
X104124132Y-93655881D01*
X104113437Y-93643686D01*
X103924043Y-93396863D01*
X103915032Y-93383377D01*
X103759477Y-93113947D01*
X103752303Y-93099400D01*
X103633246Y-92811971D01*
X103628032Y-92796612D01*
X103548688Y-92500498D01*
X103547506Y-92496087D01*
X103544345Y-92480196D01*
X103503602Y-92170718D01*
X103502559Y-92156582D01*
X103500017Y-92001038D01*
X103500000Y-91999012D01*
X103500000Y-88186560D01*
X105949500Y-88186560D01*
X105954084Y-88215500D01*
X105975465Y-88350500D01*
X105976598Y-88357650D01*
X106030127Y-88522394D01*
X106108768Y-88676737D01*
X106210586Y-88816877D01*
X106333072Y-88939363D01*
X106473212Y-89041181D01*
X106627555Y-89119822D01*
X106792299Y-89173351D01*
X106963389Y-89200449D01*
X106963390Y-89200449D01*
X108036610Y-89200449D01*
X108036611Y-89200449D01*
X108207701Y-89173351D01*
X108372445Y-89119822D01*
X108526788Y-89041181D01*
X108666928Y-88939363D01*
X108789414Y-88816877D01*
X108891232Y-88676737D01*
X108969873Y-88522394D01*
X109023402Y-88357650D01*
X109050500Y-88186560D01*
X109050500Y-88013338D01*
X109023402Y-87842248D01*
X108969873Y-87677504D01*
X108891232Y-87523161D01*
X108789414Y-87383021D01*
X108666928Y-87260535D01*
X108526788Y-87158717D01*
X108372445Y-87080076D01*
X108207701Y-87026547D01*
X108207699Y-87026546D01*
X108207698Y-87026546D01*
X108076271Y-87005730D01*
X108036611Y-86999449D01*
X106963389Y-86999449D01*
X106923728Y-87005730D01*
X106792302Y-87026546D01*
X106627552Y-87080077D01*
X106473211Y-87158717D01*
X106393256Y-87216808D01*
X106333072Y-87260535D01*
X106333070Y-87260537D01*
X106333069Y-87260537D01*
X106210588Y-87383018D01*
X106210588Y-87383019D01*
X106210586Y-87383021D01*
X106202989Y-87393478D01*
X106108768Y-87523160D01*
X106030128Y-87677501D01*
X105976597Y-87842251D01*
X105951534Y-88000498D01*
X105949500Y-88013338D01*
X105949500Y-88186560D01*
X103500000Y-88186560D01*
X103500000Y-83836611D01*
X106399500Y-83836611D01*
X106400147Y-83840694D01*
X106423101Y-83985626D01*
X106426598Y-84007701D01*
X106470818Y-84143796D01*
X106480128Y-84172447D01*
X106487077Y-84186086D01*
X106558768Y-84326788D01*
X106660586Y-84466928D01*
X106783072Y-84589414D01*
X106923212Y-84691232D01*
X107077555Y-84769873D01*
X107242299Y-84823402D01*
X107413389Y-84850500D01*
X107413390Y-84850500D01*
X107586610Y-84850500D01*
X107586611Y-84850500D01*
X107757701Y-84823402D01*
X107922445Y-84769873D01*
X108076788Y-84691232D01*
X108216928Y-84589414D01*
X108339414Y-84466928D01*
X108441232Y-84326788D01*
X108445607Y-84318202D01*
X108493582Y-84267408D01*
X108556090Y-84250500D01*
X110625500Y-84250500D01*
X110692539Y-84270185D01*
X110738294Y-84322989D01*
X110749500Y-84374500D01*
X110749500Y-89573918D01*
X110749500Y-89573920D01*
X110749499Y-89573920D01*
X110778340Y-89718907D01*
X110778343Y-89718917D01*
X110834914Y-89855492D01*
X110867812Y-89904727D01*
X110867813Y-89904730D01*
X110917046Y-89978414D01*
X110917052Y-89978421D01*
X113917049Y-92978416D01*
X114021584Y-93082951D01*
X114021587Y-93082953D01*
X114021588Y-93082954D01*
X114144503Y-93165083D01*
X114144506Y-93165085D01*
X114201079Y-93188518D01*
X114201080Y-93188518D01*
X114281088Y-93221659D01*
X114397241Y-93244763D01*
X114416468Y-93248587D01*
X114426081Y-93250500D01*
X114426082Y-93250500D01*
X127073920Y-93250500D01*
X127171462Y-93231096D01*
X127218913Y-93221658D01*
X127355495Y-93165084D01*
X127404729Y-93132186D01*
X127478416Y-93082952D01*
X128274548Y-92286818D01*
X128335871Y-92253334D01*
X128362229Y-92250500D01*
X141788920Y-92250500D01*
X141886462Y-92231096D01*
X141933913Y-92221658D01*
X142060049Y-92169410D01*
X142129516Y-92161942D01*
X142154947Y-92169409D01*
X142281087Y-92221658D01*
X142281091Y-92221658D01*
X142281092Y-92221659D01*
X142426079Y-92250500D01*
X142426082Y-92250500D01*
X142426083Y-92250500D01*
X142573918Y-92250500D01*
X144500249Y-92250500D01*
X144567288Y-92270185D01*
X144599515Y-92300188D01*
X144642451Y-92357542D01*
X144642454Y-92357546D01*
X144642457Y-92357548D01*
X144757664Y-92443793D01*
X144757671Y-92443797D01*
X144892517Y-92494091D01*
X144892516Y-92494091D01*
X144899444Y-92494835D01*
X144952127Y-92500500D01*
X146047872Y-92500499D01*
X146107483Y-92494091D01*
X146242331Y-92443796D01*
X146357546Y-92357546D01*
X146443796Y-92242331D01*
X146494091Y-92107483D01*
X146500500Y-92047873D01*
X146500499Y-90952128D01*
X146494091Y-90892517D01*
X146462990Y-90809132D01*
X146443797Y-90757671D01*
X146443793Y-90757664D01*
X146357547Y-90642455D01*
X146357544Y-90642452D01*
X146242335Y-90556206D01*
X146242328Y-90556202D01*
X146107482Y-90505908D01*
X146107483Y-90505908D01*
X146047883Y-90499501D01*
X146047881Y-90499500D01*
X146047873Y-90499500D01*
X146047864Y-90499500D01*
X144952129Y-90499500D01*
X144952123Y-90499501D01*
X144892516Y-90505908D01*
X144757671Y-90556202D01*
X144757664Y-90556206D01*
X144642457Y-90642451D01*
X144642451Y-90642457D01*
X144599515Y-90699812D01*
X144543581Y-90741682D01*
X144500249Y-90749500D01*
X143826230Y-90749500D01*
X143759191Y-90729815D01*
X143713436Y-90677011D01*
X143703492Y-90607853D01*
X143732517Y-90544297D01*
X143738549Y-90537819D01*
X146367948Y-87908419D01*
X146367947Y-87908419D01*
X146367951Y-87908416D01*
X146450084Y-87785495D01*
X146506658Y-87648913D01*
X146528652Y-87538344D01*
X146535500Y-87503920D01*
X146535500Y-87227976D01*
X146553382Y-87163829D01*
X146628478Y-87039606D01*
X146679086Y-86877196D01*
X146685500Y-86806616D01*
X146685500Y-86143384D01*
X146679086Y-86072804D01*
X146628478Y-85910394D01*
X146553382Y-85786171D01*
X146535500Y-85722023D01*
X146535500Y-85211079D01*
X146506659Y-85066092D01*
X146506658Y-85066091D01*
X146506658Y-85066087D01*
X146473442Y-84985896D01*
X146450085Y-84929507D01*
X146442910Y-84918769D01*
X146400486Y-84855276D01*
X146382259Y-84827997D01*
X146367954Y-84806586D01*
X146192631Y-84631263D01*
X146159146Y-84569940D01*
X146164130Y-84500248D01*
X146206002Y-84444315D01*
X146247073Y-84426392D01*
X146246485Y-84424366D01*
X146325154Y-84401509D01*
X146410398Y-84376744D01*
X146551865Y-84293081D01*
X146551870Y-84293075D01*
X146558031Y-84288298D01*
X146559933Y-84290750D01*
X146608579Y-84264155D01*
X146678274Y-84269104D01*
X146710695Y-84289940D01*
X146711969Y-84288298D01*
X146718132Y-84293078D01*
X146718135Y-84293081D01*
X146859602Y-84376744D01*
X146901224Y-84388836D01*
X147017426Y-84422597D01*
X147017429Y-84422597D01*
X147017431Y-84422598D01*
X147054306Y-84425500D01*
X147054314Y-84425500D01*
X147485686Y-84425500D01*
X147485694Y-84425500D01*
X147522569Y-84422598D01*
X147522571Y-84422597D01*
X147522573Y-84422597D01*
X147564191Y-84410505D01*
X147680398Y-84376744D01*
X147821865Y-84293081D01*
X147938081Y-84176865D01*
X148021744Y-84035398D01*
X148067598Y-83877569D01*
X148070500Y-83840694D01*
X148070500Y-82059306D01*
X148067598Y-82022431D01*
X148064809Y-82012833D01*
X148031585Y-81898476D01*
X148021744Y-81864602D01*
X147938081Y-81723135D01*
X147938079Y-81723133D01*
X147938076Y-81723129D01*
X147821870Y-81606923D01*
X147821862Y-81606917D01*
X147680396Y-81523255D01*
X147680393Y-81523254D01*
X147522573Y-81477402D01*
X147522567Y-81477401D01*
X147485701Y-81474500D01*
X147485694Y-81474500D01*
X147054306Y-81474500D01*
X147054298Y-81474500D01*
X147017432Y-81477401D01*
X147017426Y-81477402D01*
X146859606Y-81523254D01*
X146859603Y-81523255D01*
X146718137Y-81606917D01*
X146711969Y-81611702D01*
X146710072Y-81609256D01*
X146661358Y-81635857D01*
X146591666Y-81630873D01*
X146559296Y-81610069D01*
X146558031Y-81611702D01*
X146551862Y-81606917D01*
X146410396Y-81523255D01*
X146410393Y-81523254D01*
X146252573Y-81477402D01*
X146252567Y-81477401D01*
X146215701Y-81474500D01*
X146215694Y-81474500D01*
X145784306Y-81474500D01*
X145784298Y-81474500D01*
X145747432Y-81477401D01*
X145747426Y-81477402D01*
X145589606Y-81523254D01*
X145589603Y-81523255D01*
X145448137Y-81606917D01*
X145441969Y-81611702D01*
X145440072Y-81609256D01*
X145391358Y-81635857D01*
X145321666Y-81630873D01*
X145289296Y-81610069D01*
X145288031Y-81611702D01*
X145281862Y-81606917D01*
X145140396Y-81523255D01*
X145140393Y-81523254D01*
X144982573Y-81477402D01*
X144982567Y-81477401D01*
X144945701Y-81474500D01*
X144945694Y-81474500D01*
X144514306Y-81474500D01*
X144514298Y-81474500D01*
X144477432Y-81477401D01*
X144477426Y-81477402D01*
X144319606Y-81523254D01*
X144319603Y-81523255D01*
X144178137Y-81606917D01*
X144171969Y-81611702D01*
X144170072Y-81609256D01*
X144121358Y-81635857D01*
X144051666Y-81630873D01*
X144019296Y-81610069D01*
X144018031Y-81611702D01*
X144011862Y-81606917D01*
X143870396Y-81523255D01*
X143870393Y-81523254D01*
X143712573Y-81477402D01*
X143712567Y-81477401D01*
X143675701Y-81474500D01*
X143675694Y-81474500D01*
X143244306Y-81474500D01*
X143244298Y-81474500D01*
X143207432Y-81477401D01*
X143207426Y-81477402D01*
X143049606Y-81523254D01*
X143049603Y-81523255D01*
X142908137Y-81606917D01*
X142901969Y-81611702D01*
X142900072Y-81609256D01*
X142851358Y-81635857D01*
X142781666Y-81630873D01*
X142749296Y-81610069D01*
X142748031Y-81611702D01*
X142741862Y-81606917D01*
X142600396Y-81523255D01*
X142600393Y-81523254D01*
X142442573Y-81477402D01*
X142442567Y-81477401D01*
X142405701Y-81474500D01*
X142405694Y-81474500D01*
X141974306Y-81474500D01*
X141974298Y-81474500D01*
X141937432Y-81477401D01*
X141937426Y-81477402D01*
X141779606Y-81523254D01*
X141779603Y-81523255D01*
X141638137Y-81606917D01*
X141631969Y-81611702D01*
X141630072Y-81609256D01*
X141581358Y-81635857D01*
X141511666Y-81630873D01*
X141479296Y-81610069D01*
X141478031Y-81611702D01*
X141471862Y-81606917D01*
X141330396Y-81523255D01*
X141330393Y-81523254D01*
X141172573Y-81477402D01*
X141172567Y-81477401D01*
X141135701Y-81474500D01*
X141135694Y-81474500D01*
X140704306Y-81474500D01*
X140704298Y-81474500D01*
X140667432Y-81477401D01*
X140667426Y-81477402D01*
X140509606Y-81523254D01*
X140509603Y-81523255D01*
X140368137Y-81606917D01*
X140361969Y-81611702D01*
X140360072Y-81609256D01*
X140311358Y-81635857D01*
X140241666Y-81630873D01*
X140209296Y-81610069D01*
X140208031Y-81611702D01*
X140201862Y-81606917D01*
X140060396Y-81523255D01*
X140060393Y-81523254D01*
X139902573Y-81477402D01*
X139902567Y-81477401D01*
X139865701Y-81474500D01*
X139865694Y-81474500D01*
X139434306Y-81474500D01*
X139434298Y-81474500D01*
X139397432Y-81477401D01*
X139397426Y-81477402D01*
X139239606Y-81523254D01*
X139239603Y-81523255D01*
X139098137Y-81606917D01*
X139098129Y-81606923D01*
X138981923Y-81723129D01*
X138981917Y-81723137D01*
X138898255Y-81864603D01*
X138898254Y-81864606D01*
X138852402Y-82022426D01*
X138852401Y-82022432D01*
X138849500Y-82059298D01*
X138849500Y-83840701D01*
X138852401Y-83877567D01*
X138852402Y-83877573D01*
X138898254Y-84035393D01*
X138898256Y-84035398D01*
X138903700Y-84044604D01*
X138920881Y-84112329D01*
X138898721Y-84178591D01*
X138884649Y-84195403D01*
X138766874Y-84313180D01*
X138705551Y-84346666D01*
X138679192Y-84349500D01*
X137774500Y-84349500D01*
X137707461Y-84329815D01*
X137661706Y-84277011D01*
X137650500Y-84225500D01*
X137650500Y-78890701D01*
X138849500Y-78890701D01*
X138852401Y-78927567D01*
X138852402Y-78927573D01*
X138898254Y-79085393D01*
X138898255Y-79085396D01*
X138981917Y-79226862D01*
X138981923Y-79226870D01*
X139098129Y-79343076D01*
X139098133Y-79343079D01*
X139098135Y-79343081D01*
X139239602Y-79426744D01*
X139281224Y-79438836D01*
X139397426Y-79472597D01*
X139397429Y-79472597D01*
X139397431Y-79472598D01*
X139434306Y-79475500D01*
X139434314Y-79475500D01*
X139865686Y-79475500D01*
X139865694Y-79475500D01*
X139902569Y-79472598D01*
X139902571Y-79472597D01*
X139902573Y-79472597D01*
X139944191Y-79460505D01*
X140060398Y-79426744D01*
X140201865Y-79343081D01*
X140201870Y-79343075D01*
X140208031Y-79338298D01*
X140209933Y-79340750D01*
X140258579Y-79314155D01*
X140328274Y-79319104D01*
X140360695Y-79339940D01*
X140361969Y-79338298D01*
X140368132Y-79343078D01*
X140368135Y-79343081D01*
X140509602Y-79426744D01*
X140551224Y-79438836D01*
X140667426Y-79472597D01*
X140667429Y-79472597D01*
X140667431Y-79472598D01*
X140704306Y-79475500D01*
X140704314Y-79475500D01*
X141135686Y-79475500D01*
X141135694Y-79475500D01*
X141172569Y-79472598D01*
X141172571Y-79472597D01*
X141172573Y-79472597D01*
X141214191Y-79460505D01*
X141330398Y-79426744D01*
X141471865Y-79343081D01*
X141471870Y-79343075D01*
X141478031Y-79338298D01*
X141479933Y-79340750D01*
X141528579Y-79314155D01*
X141598274Y-79319104D01*
X141630695Y-79339940D01*
X141631969Y-79338298D01*
X141638132Y-79343078D01*
X141638135Y-79343081D01*
X141779602Y-79426744D01*
X141821224Y-79438836D01*
X141937426Y-79472597D01*
X141937429Y-79472597D01*
X141937431Y-79472598D01*
X141974306Y-79475500D01*
X141974314Y-79475500D01*
X142405686Y-79475500D01*
X142405694Y-79475500D01*
X142442569Y-79472598D01*
X142442571Y-79472597D01*
X142442573Y-79472597D01*
X142484191Y-79460505D01*
X142600398Y-79426744D01*
X142741865Y-79343081D01*
X142741870Y-79343075D01*
X142748031Y-79338298D01*
X142749933Y-79340750D01*
X142798579Y-79314155D01*
X142868274Y-79319104D01*
X142900695Y-79339940D01*
X142901969Y-79338298D01*
X142908132Y-79343078D01*
X142908135Y-79343081D01*
X143049602Y-79426744D01*
X143091224Y-79438836D01*
X143207426Y-79472597D01*
X143207429Y-79472597D01*
X143207431Y-79472598D01*
X143244306Y-79475500D01*
X143244314Y-79475500D01*
X143675686Y-79475500D01*
X143675694Y-79475500D01*
X143712569Y-79472598D01*
X143712571Y-79472597D01*
X143712573Y-79472597D01*
X143754191Y-79460505D01*
X143870398Y-79426744D01*
X144011865Y-79343081D01*
X144011870Y-79343075D01*
X144018031Y-79338298D01*
X144019933Y-79340750D01*
X144068579Y-79314155D01*
X144138274Y-79319104D01*
X144170695Y-79339940D01*
X144171969Y-79338298D01*
X144178132Y-79343078D01*
X144178135Y-79343081D01*
X144319602Y-79426744D01*
X144361224Y-79438836D01*
X144477426Y-79472597D01*
X144477429Y-79472597D01*
X144477431Y-79472598D01*
X144514306Y-79475500D01*
X144514314Y-79475500D01*
X144945686Y-79475500D01*
X144945694Y-79475500D01*
X144982569Y-79472598D01*
X144982571Y-79472597D01*
X144982573Y-79472597D01*
X145024191Y-79460505D01*
X145140398Y-79426744D01*
X145281865Y-79343081D01*
X145281870Y-79343075D01*
X145288031Y-79338298D01*
X145289933Y-79340750D01*
X145338579Y-79314155D01*
X145408274Y-79319104D01*
X145440695Y-79339940D01*
X145441969Y-79338298D01*
X145448132Y-79343078D01*
X145448135Y-79343081D01*
X145589602Y-79426744D01*
X145631224Y-79438836D01*
X145747426Y-79472597D01*
X145747429Y-79472597D01*
X145747431Y-79472598D01*
X145784306Y-79475500D01*
X145784314Y-79475500D01*
X146215686Y-79475500D01*
X146215694Y-79475500D01*
X146252569Y-79472598D01*
X146252571Y-79472597D01*
X146252573Y-79472597D01*
X146294191Y-79460505D01*
X146410398Y-79426744D01*
X146551865Y-79343081D01*
X146551870Y-79343075D01*
X146558031Y-79338298D01*
X146559933Y-79340750D01*
X146608579Y-79314155D01*
X146678274Y-79319104D01*
X146710695Y-79339940D01*
X146711969Y-79338298D01*
X146718132Y-79343078D01*
X146718135Y-79343081D01*
X146859602Y-79426744D01*
X146901224Y-79438836D01*
X147017426Y-79472597D01*
X147017429Y-79472597D01*
X147017431Y-79472598D01*
X147054306Y-79475500D01*
X147054314Y-79475500D01*
X147485686Y-79475500D01*
X147485694Y-79475500D01*
X147522569Y-79472598D01*
X147522571Y-79472597D01*
X147522573Y-79472597D01*
X147564191Y-79460505D01*
X147680398Y-79426744D01*
X147821865Y-79343081D01*
X147938081Y-79226865D01*
X148021744Y-79085398D01*
X148062876Y-78943822D01*
X148067597Y-78927573D01*
X148067598Y-78927567D01*
X148070499Y-78890701D01*
X148070500Y-78890694D01*
X148070500Y-77109306D01*
X148067598Y-77072431D01*
X148066422Y-77068384D01*
X148021745Y-76914606D01*
X148021744Y-76914603D01*
X148021744Y-76914602D01*
X147938081Y-76773135D01*
X147938079Y-76773133D01*
X147938076Y-76773129D01*
X147821870Y-76656923D01*
X147821862Y-76656917D01*
X147694534Y-76581616D01*
X147680398Y-76573256D01*
X147680397Y-76573255D01*
X147680396Y-76573255D01*
X147680393Y-76573254D01*
X147522573Y-76527402D01*
X147522567Y-76527401D01*
X147485701Y-76524500D01*
X147485694Y-76524500D01*
X147054306Y-76524500D01*
X147054298Y-76524500D01*
X147017432Y-76527401D01*
X147017426Y-76527402D01*
X146859606Y-76573254D01*
X146859603Y-76573255D01*
X146718137Y-76656917D01*
X146711969Y-76661702D01*
X146710072Y-76659256D01*
X146661358Y-76685857D01*
X146591666Y-76680873D01*
X146559296Y-76660069D01*
X146558031Y-76661702D01*
X146551862Y-76656917D01*
X146424534Y-76581616D01*
X146410398Y-76573256D01*
X146410397Y-76573255D01*
X146410396Y-76573255D01*
X146410393Y-76573254D01*
X146252573Y-76527402D01*
X146252567Y-76527401D01*
X146215701Y-76524500D01*
X146215694Y-76524500D01*
X145784306Y-76524500D01*
X145784298Y-76524500D01*
X145747432Y-76527401D01*
X145747426Y-76527402D01*
X145589606Y-76573254D01*
X145589603Y-76573255D01*
X145448137Y-76656917D01*
X145441969Y-76661702D01*
X145440072Y-76659256D01*
X145391358Y-76685857D01*
X145321666Y-76680873D01*
X145289296Y-76660069D01*
X145288031Y-76661702D01*
X145281862Y-76656917D01*
X145154534Y-76581616D01*
X145140398Y-76573256D01*
X145140397Y-76573255D01*
X145140396Y-76573255D01*
X145140393Y-76573254D01*
X144982573Y-76527402D01*
X144982567Y-76527401D01*
X144945701Y-76524500D01*
X144945694Y-76524500D01*
X144514306Y-76524500D01*
X144514298Y-76524500D01*
X144477432Y-76527401D01*
X144467749Y-76530215D01*
X144397879Y-76530015D01*
X144339210Y-76492072D01*
X144310367Y-76428433D01*
X144309841Y-76424157D01*
X144296497Y-76297197D01*
X144257312Y-76176597D01*
X144241252Y-76127170D01*
X144241249Y-76127164D01*
X144207314Y-76068386D01*
X144151859Y-75972335D01*
X144102139Y-75917116D01*
X144032235Y-75839478D01*
X144032232Y-75839476D01*
X144032231Y-75839475D01*
X144032230Y-75839474D01*
X143887593Y-75734388D01*
X143724267Y-75661671D01*
X143724265Y-75661670D01*
X143596594Y-75634533D01*
X143549391Y-75624500D01*
X143370609Y-75624500D01*
X143339954Y-75631015D01*
X143195733Y-75661670D01*
X143195728Y-75661672D01*
X143032408Y-75734387D01*
X142887768Y-75839475D01*
X142768140Y-75972336D01*
X142678750Y-76127164D01*
X142678747Y-76127170D01*
X142623504Y-76297192D01*
X142623503Y-76297195D01*
X142610165Y-76424099D01*
X142583580Y-76488714D01*
X142526282Y-76528698D01*
X142456463Y-76531358D01*
X142452255Y-76530215D01*
X142442574Y-76527402D01*
X142442567Y-76527401D01*
X142405701Y-76524500D01*
X142405694Y-76524500D01*
X141974306Y-76524500D01*
X141974298Y-76524500D01*
X141937432Y-76527401D01*
X141937426Y-76527402D01*
X141779606Y-76573254D01*
X141779603Y-76573255D01*
X141638137Y-76656917D01*
X141631969Y-76661702D01*
X141630072Y-76659256D01*
X141581358Y-76685857D01*
X141511666Y-76680873D01*
X141479296Y-76660069D01*
X141478031Y-76661702D01*
X141471862Y-76656917D01*
X141344534Y-76581616D01*
X141330398Y-76573256D01*
X141330397Y-76573255D01*
X141330396Y-76573255D01*
X141330393Y-76573254D01*
X141172573Y-76527402D01*
X141172567Y-76527401D01*
X141135701Y-76524500D01*
X141135694Y-76524500D01*
X140704306Y-76524500D01*
X140704298Y-76524500D01*
X140667432Y-76527401D01*
X140667426Y-76527402D01*
X140509606Y-76573254D01*
X140509603Y-76573255D01*
X140368137Y-76656917D01*
X140361969Y-76661702D01*
X140360072Y-76659256D01*
X140311358Y-76685857D01*
X140241666Y-76680873D01*
X140209296Y-76660069D01*
X140208031Y-76661702D01*
X140201862Y-76656917D01*
X140074534Y-76581616D01*
X140060398Y-76573256D01*
X140060397Y-76573255D01*
X140060396Y-76573255D01*
X140060393Y-76573254D01*
X139902573Y-76527402D01*
X139902567Y-76527401D01*
X139865701Y-76524500D01*
X139865694Y-76524500D01*
X139434306Y-76524500D01*
X139434298Y-76524500D01*
X139397432Y-76527401D01*
X139397426Y-76527402D01*
X139239606Y-76573254D01*
X139239603Y-76573255D01*
X139098137Y-76656917D01*
X139098129Y-76656923D01*
X138981923Y-76773129D01*
X138981917Y-76773137D01*
X138898255Y-76914603D01*
X138898254Y-76914606D01*
X138852402Y-77072426D01*
X138852401Y-77072432D01*
X138849500Y-77109298D01*
X138849500Y-78890701D01*
X137650500Y-78890701D01*
X137650500Y-71000000D01*
X143644815Y-71000000D01*
X143663503Y-71177805D01*
X143663504Y-71177807D01*
X143718747Y-71347829D01*
X143718750Y-71347835D01*
X143808141Y-71502665D01*
X143849812Y-71548946D01*
X143927764Y-71635521D01*
X143927767Y-71635523D01*
X143927770Y-71635526D01*
X144072407Y-71740612D01*
X144235733Y-71813329D01*
X144410609Y-71850500D01*
X144410610Y-71850500D01*
X144589389Y-71850500D01*
X144589391Y-71850500D01*
X144764267Y-71813329D01*
X144881306Y-71761219D01*
X144931741Y-71750500D01*
X146317796Y-71750500D01*
X146384835Y-71770185D01*
X146405477Y-71786819D01*
X146443491Y-71824833D01*
X146476976Y-71886156D01*
X146471992Y-71955848D01*
X146430120Y-72011781D01*
X146420907Y-72018053D01*
X146356654Y-72057684D01*
X146232684Y-72181654D01*
X146140643Y-72330875D01*
X146140641Y-72330880D01*
X146085494Y-72497302D01*
X146085493Y-72497309D01*
X146075000Y-72600013D01*
X146075000Y-72750000D01*
X147169670Y-72750000D01*
X147149925Y-72769745D01*
X147100556Y-72855255D01*
X147075000Y-72950630D01*
X147075000Y-73049370D01*
X147100556Y-73144745D01*
X147149925Y-73230255D01*
X147169670Y-73250000D01*
X146075001Y-73250000D01*
X146075001Y-73399986D01*
X146085494Y-73502697D01*
X146140641Y-73669119D01*
X146140643Y-73669124D01*
X146232684Y-73818345D01*
X146356654Y-73942315D01*
X146505875Y-74034356D01*
X146505880Y-74034358D01*
X146672302Y-74089505D01*
X146672309Y-74089506D01*
X146775019Y-74099999D01*
X147199999Y-74099999D01*
X147200000Y-74099998D01*
X147200000Y-73280330D01*
X147219745Y-73300075D01*
X147305255Y-73349444D01*
X147400630Y-73375000D01*
X147499370Y-73375000D01*
X147594745Y-73349444D01*
X147680255Y-73300075D01*
X147700000Y-73280330D01*
X147700000Y-74099999D01*
X148124972Y-74099999D01*
X148124986Y-74099998D01*
X148227697Y-74089505D01*
X148394119Y-74034358D01*
X148394124Y-74034356D01*
X148543345Y-73942315D01*
X148667315Y-73818345D01*
X148759356Y-73669124D01*
X148759358Y-73669119D01*
X148814505Y-73502697D01*
X148814506Y-73502690D01*
X148824999Y-73399986D01*
X148825000Y-73399973D01*
X148825000Y-73250000D01*
X147730330Y-73250000D01*
X147750075Y-73230255D01*
X147799444Y-73144745D01*
X147825000Y-73049370D01*
X147825000Y-72950630D01*
X147799444Y-72855255D01*
X147750075Y-72769745D01*
X147730330Y-72750000D01*
X148824999Y-72750000D01*
X148824999Y-72600028D01*
X148824998Y-72600013D01*
X148814505Y-72497302D01*
X148759358Y-72330880D01*
X148759356Y-72330875D01*
X148667315Y-72181654D01*
X148543343Y-72057682D01*
X148479093Y-72018053D01*
X148432368Y-71966105D01*
X148421145Y-71897143D01*
X148448988Y-71833061D01*
X148456486Y-71824855D01*
X148564414Y-71716928D01*
X148666232Y-71576788D01*
X148744873Y-71422445D01*
X148798402Y-71257701D01*
X148825500Y-71086611D01*
X148825500Y-70913389D01*
X148798402Y-70742299D01*
X148744873Y-70577555D01*
X148666232Y-70423212D01*
X148564414Y-70283072D01*
X148441928Y-70160586D01*
X148301788Y-70058768D01*
X148147445Y-69980127D01*
X147982701Y-69926598D01*
X147982699Y-69926597D01*
X147982698Y-69926597D01*
X147851271Y-69905781D01*
X147811611Y-69899500D01*
X147088389Y-69899500D01*
X147048728Y-69905781D01*
X146917302Y-69926597D01*
X146752552Y-69980128D01*
X146598211Y-70058768D01*
X146518256Y-70116859D01*
X146458072Y-70160586D01*
X146458070Y-70160588D01*
X146458069Y-70160588D01*
X146405477Y-70213181D01*
X146344154Y-70246666D01*
X146317796Y-70249500D01*
X144931741Y-70249500D01*
X144881306Y-70238780D01*
X144856687Y-70227819D01*
X144764267Y-70186671D01*
X144764265Y-70186670D01*
X144621999Y-70156431D01*
X144589391Y-70149500D01*
X144410609Y-70149500D01*
X144379954Y-70156015D01*
X144235733Y-70186670D01*
X144235728Y-70186672D01*
X144072408Y-70259387D01*
X143927768Y-70364475D01*
X143808140Y-70497336D01*
X143718750Y-70652164D01*
X143718747Y-70652170D01*
X143663504Y-70822192D01*
X143663503Y-70822194D01*
X143644815Y-71000000D01*
X137650500Y-71000000D01*
X137650500Y-70096197D01*
X137670185Y-70029158D01*
X137682352Y-70013223D01*
X137691859Y-70002665D01*
X137781250Y-69847835D01*
X137836497Y-69677803D01*
X137855185Y-69500000D01*
X137836497Y-69322197D01*
X137781250Y-69152165D01*
X137691859Y-68997335D01*
X137630829Y-68929554D01*
X137572235Y-68864478D01*
X137572232Y-68864476D01*
X137572231Y-68864475D01*
X137572230Y-68864474D01*
X137427593Y-68759388D01*
X137264267Y-68686671D01*
X137264265Y-68686670D01*
X137136594Y-68659533D01*
X137089391Y-68649500D01*
X136910609Y-68649500D01*
X136814604Y-68669906D01*
X136800280Y-68672951D01*
X136730613Y-68667634D01*
X136674880Y-68625496D01*
X136650775Y-68559916D01*
X136650500Y-68551660D01*
X136650500Y-67596197D01*
X136670185Y-67529158D01*
X136682352Y-67513223D01*
X136682691Y-67512847D01*
X136691859Y-67502665D01*
X136781250Y-67347835D01*
X136836497Y-67177803D01*
X136855185Y-67000000D01*
X136836497Y-66822197D01*
X136792462Y-66686671D01*
X136781252Y-66652170D01*
X136781249Y-66652164D01*
X136779711Y-66649500D01*
X136691859Y-66497335D01*
X136645003Y-66445296D01*
X136572235Y-66364478D01*
X136572232Y-66364476D01*
X136572231Y-66364475D01*
X136572230Y-66364474D01*
X136427593Y-66259388D01*
X136407641Y-66250505D01*
X136354407Y-66205257D01*
X136334085Y-66138408D01*
X136353130Y-66071184D01*
X136370393Y-66049551D01*
X139505276Y-62914670D01*
X139576465Y-62808127D01*
X139625501Y-62689744D01*
X139650500Y-62564069D01*
X139650500Y-57435931D01*
X139650500Y-57435928D01*
X139625502Y-57310261D01*
X139625501Y-57310260D01*
X139625501Y-57310256D01*
X139576465Y-57191873D01*
X139576464Y-57191872D01*
X139576461Y-57191866D01*
X139505276Y-57085331D01*
X139505273Y-57085327D01*
X139414672Y-56994726D01*
X139414668Y-56994723D01*
X139308133Y-56923538D01*
X139308124Y-56923533D01*
X139189744Y-56874499D01*
X139189738Y-56874497D01*
X139064071Y-56849500D01*
X139064069Y-56849500D01*
X137837721Y-56849500D01*
X137770682Y-56829815D01*
X137736146Y-56796623D01*
X137618494Y-56628597D01*
X137451402Y-56461506D01*
X137451395Y-56461501D01*
X137257834Y-56325967D01*
X137257830Y-56325965D01*
X137257828Y-56325964D01*
X137043663Y-56226097D01*
X137043659Y-56226096D01*
X137043655Y-56226094D01*
X136815413Y-56164938D01*
X136815403Y-56164936D01*
X136580001Y-56144341D01*
X136579999Y-56144341D01*
X136344596Y-56164936D01*
X136344586Y-56164938D01*
X136116344Y-56226094D01*
X136116335Y-56226098D01*
X135902171Y-56325964D01*
X135902169Y-56325965D01*
X135708597Y-56461505D01*
X135541505Y-56628597D01*
X135411575Y-56814158D01*
X135356998Y-56857783D01*
X135287500Y-56864977D01*
X135225145Y-56833454D01*
X135208425Y-56814158D01*
X135078494Y-56628597D01*
X134911402Y-56461506D01*
X134911395Y-56461501D01*
X134717834Y-56325967D01*
X134717830Y-56325965D01*
X134717828Y-56325964D01*
X134503663Y-56226097D01*
X134503659Y-56226096D01*
X134503655Y-56226094D01*
X134275413Y-56164938D01*
X134275403Y-56164936D01*
X134040001Y-56144341D01*
X134039999Y-56144341D01*
X133804596Y-56164936D01*
X133804586Y-56164938D01*
X133576344Y-56226094D01*
X133576335Y-56226098D01*
X133362171Y-56325964D01*
X133362169Y-56325965D01*
X133168597Y-56461505D01*
X133001505Y-56628597D01*
X132871575Y-56814158D01*
X132816998Y-56857783D01*
X132747500Y-56864977D01*
X132685145Y-56833454D01*
X132668425Y-56814158D01*
X132538494Y-56628597D01*
X132371402Y-56461506D01*
X132371395Y-56461501D01*
X132177834Y-56325967D01*
X132177830Y-56325965D01*
X132177828Y-56325964D01*
X131963663Y-56226097D01*
X131963659Y-56226096D01*
X131963655Y-56226094D01*
X131735413Y-56164938D01*
X131735403Y-56164936D01*
X131500001Y-56144341D01*
X131499999Y-56144341D01*
X131264596Y-56164936D01*
X131264586Y-56164938D01*
X131036344Y-56226094D01*
X131036335Y-56226098D01*
X130822171Y-56325964D01*
X130822169Y-56325965D01*
X130628597Y-56461505D01*
X130461508Y-56628594D01*
X130331269Y-56814595D01*
X130276692Y-56858219D01*
X130207193Y-56865412D01*
X130144839Y-56833890D01*
X130128119Y-56814594D01*
X129998113Y-56628926D01*
X129998108Y-56628920D01*
X129831082Y-56461894D01*
X129637578Y-56326399D01*
X129423492Y-56226570D01*
X129423486Y-56226567D01*
X129210000Y-56169364D01*
X129210000Y-57066988D01*
X129152993Y-57034075D01*
X129025826Y-57000000D01*
X128894174Y-57000000D01*
X128767007Y-57034075D01*
X128710000Y-57066988D01*
X128710000Y-56169364D01*
X128709999Y-56169364D01*
X128496513Y-56226567D01*
X128496507Y-56226570D01*
X128282422Y-56326399D01*
X128282420Y-56326400D01*
X128088926Y-56461886D01*
X128088920Y-56461891D01*
X127921891Y-56628920D01*
X127921890Y-56628922D01*
X127791880Y-56814595D01*
X127737303Y-56858219D01*
X127667804Y-56865412D01*
X127605450Y-56833890D01*
X127588730Y-56814594D01*
X127458494Y-56628597D01*
X127291402Y-56461506D01*
X127291395Y-56461501D01*
X127097834Y-56325967D01*
X127097830Y-56325965D01*
X127097828Y-56325964D01*
X126883663Y-56226097D01*
X126883659Y-56226096D01*
X126883655Y-56226094D01*
X126655413Y-56164938D01*
X126655403Y-56164936D01*
X126420001Y-56144341D01*
X126419999Y-56144341D01*
X126184596Y-56164936D01*
X126184586Y-56164938D01*
X125956344Y-56226094D01*
X125956335Y-56226098D01*
X125742171Y-56325964D01*
X125742169Y-56325965D01*
X125548597Y-56461505D01*
X125381505Y-56628597D01*
X125251575Y-56814158D01*
X125196998Y-56857783D01*
X125127500Y-56864977D01*
X125065145Y-56833454D01*
X125048425Y-56814158D01*
X124918494Y-56628597D01*
X124751402Y-56461506D01*
X124751395Y-56461501D01*
X124557834Y-56325967D01*
X124557830Y-56325965D01*
X124557828Y-56325964D01*
X124343663Y-56226097D01*
X124343659Y-56226096D01*
X124343655Y-56226094D01*
X124115413Y-56164938D01*
X124115403Y-56164936D01*
X123880001Y-56144341D01*
X123879999Y-56144341D01*
X123644596Y-56164936D01*
X123644586Y-56164938D01*
X123416344Y-56226094D01*
X123416335Y-56226098D01*
X123202171Y-56325964D01*
X123202169Y-56325965D01*
X123008597Y-56461505D01*
X122841505Y-56628597D01*
X122711575Y-56814158D01*
X122656998Y-56857783D01*
X122587500Y-56864977D01*
X122525145Y-56833454D01*
X122508425Y-56814158D01*
X122378494Y-56628597D01*
X122211402Y-56461506D01*
X122211395Y-56461501D01*
X122017834Y-56325967D01*
X122017830Y-56325965D01*
X122017828Y-56325964D01*
X121803663Y-56226097D01*
X121803659Y-56226096D01*
X121803655Y-56226094D01*
X121575413Y-56164938D01*
X121575403Y-56164936D01*
X121340001Y-56144341D01*
X121339999Y-56144341D01*
X121104596Y-56164936D01*
X121104586Y-56164938D01*
X120876344Y-56226094D01*
X120876335Y-56226098D01*
X120662171Y-56325964D01*
X120662169Y-56325965D01*
X120468597Y-56461505D01*
X120301505Y-56628597D01*
X120171575Y-56814158D01*
X120116998Y-56857783D01*
X120047500Y-56864977D01*
X119985145Y-56833454D01*
X119968425Y-56814158D01*
X119838494Y-56628597D01*
X119671402Y-56461506D01*
X119671395Y-56461501D01*
X119477834Y-56325967D01*
X119477830Y-56325965D01*
X119477828Y-56325964D01*
X119263663Y-56226097D01*
X119263659Y-56226096D01*
X119263655Y-56226094D01*
X119035413Y-56164938D01*
X119035403Y-56164936D01*
X118800001Y-56144341D01*
X118799999Y-56144341D01*
X118564596Y-56164936D01*
X118564586Y-56164938D01*
X118336344Y-56226094D01*
X118336335Y-56226098D01*
X118122171Y-56325964D01*
X118122169Y-56325965D01*
X117928597Y-56461505D01*
X117761506Y-56628596D01*
X117643854Y-56796623D01*
X117589277Y-56840248D01*
X117542279Y-56849500D01*
X116435929Y-56849500D01*
X116310261Y-56874497D01*
X116310255Y-56874499D01*
X116191875Y-56923533D01*
X116191866Y-56923538D01*
X116085331Y-56994723D01*
X116085327Y-56994726D01*
X115994726Y-57085327D01*
X115994723Y-57085331D01*
X115923538Y-57191866D01*
X115923533Y-57191875D01*
X115874499Y-57310255D01*
X115874497Y-57310261D01*
X115849500Y-57435928D01*
X115849500Y-66562075D01*
X115829815Y-66629114D01*
X115777011Y-66674869D01*
X115751286Y-66683364D01*
X115735735Y-66686670D01*
X115735728Y-66686672D01*
X115572408Y-66759387D01*
X115427768Y-66864475D01*
X115308140Y-66997336D01*
X115218750Y-67152164D01*
X115218747Y-67152170D01*
X115163504Y-67322192D01*
X115163503Y-67322194D01*
X115144815Y-67500000D01*
X115163503Y-67677805D01*
X115163504Y-67677807D01*
X115218747Y-67847829D01*
X115218750Y-67847835D01*
X115308141Y-68002665D01*
X115308985Y-68003602D01*
X115427764Y-68135521D01*
X115427767Y-68135523D01*
X115427770Y-68135526D01*
X115572407Y-68240612D01*
X115735733Y-68313329D01*
X115735734Y-68313329D01*
X115741670Y-68315972D01*
X115740890Y-68317723D01*
X115780822Y-68342190D01*
X117213181Y-69774548D01*
X117246666Y-69835871D01*
X117249500Y-69862229D01*
X117249500Y-70390500D01*
X117229815Y-70457539D01*
X117177011Y-70503294D01*
X117125500Y-70514500D01*
X115793034Y-70514500D01*
X115725995Y-70494815D01*
X115705885Y-70478609D01*
X115705387Y-70478216D01*
X115562295Y-70389955D01*
X115562289Y-70389952D01*
X115562287Y-70389951D01*
X115402685Y-70337064D01*
X115402683Y-70337063D01*
X115304181Y-70327000D01*
X115304174Y-70327000D01*
X114695826Y-70327000D01*
X114695818Y-70327000D01*
X114597316Y-70337063D01*
X114597315Y-70337064D01*
X114531618Y-70358834D01*
X114437715Y-70389950D01*
X114437704Y-70389955D01*
X114294612Y-70478216D01*
X114288946Y-70482697D01*
X114288171Y-70481717D01*
X114233324Y-70511666D01*
X114206966Y-70514500D01*
X112661080Y-70514500D01*
X112516092Y-70543340D01*
X112516082Y-70543343D01*
X112379511Y-70599912D01*
X112379498Y-70599919D01*
X112256584Y-70682048D01*
X112256580Y-70682051D01*
X111917050Y-71021580D01*
X111895309Y-71054119D01*
X111873855Y-71086229D01*
X111873600Y-71086611D01*
X111834916Y-71144504D01*
X111834912Y-71144511D01*
X111778343Y-71281082D01*
X111778340Y-71281092D01*
X111749500Y-71426079D01*
X111749500Y-76633330D01*
X111729815Y-76700369D01*
X111677011Y-76746124D01*
X111607853Y-76756068D01*
X111601311Y-76754948D01*
X111573919Y-76749500D01*
X111573918Y-76749500D01*
X108556090Y-76749500D01*
X108489051Y-76729815D01*
X108445607Y-76681798D01*
X108441234Y-76673216D01*
X108441229Y-76673207D01*
X108408415Y-76628044D01*
X108339414Y-76533072D01*
X108216928Y-76410586D01*
X108076788Y-76308768D01*
X107922445Y-76230127D01*
X107757701Y-76176598D01*
X107757699Y-76176597D01*
X107757698Y-76176597D01*
X107626271Y-76155781D01*
X107586611Y-76149500D01*
X107413389Y-76149500D01*
X107373728Y-76155781D01*
X107242302Y-76176597D01*
X107077552Y-76230128D01*
X106923211Y-76308768D01*
X106858822Y-76355550D01*
X106783072Y-76410586D01*
X106783070Y-76410588D01*
X106783069Y-76410588D01*
X106660588Y-76533069D01*
X106660588Y-76533070D01*
X106660586Y-76533072D01*
X106634099Y-76569528D01*
X106558768Y-76673211D01*
X106480128Y-76827552D01*
X106426597Y-76992302D01*
X106399500Y-77163389D01*
X106399500Y-77836610D01*
X106426017Y-78004036D01*
X106426598Y-78007701D01*
X106480127Y-78172445D01*
X106558768Y-78326788D01*
X106660586Y-78466928D01*
X106783072Y-78589414D01*
X106923212Y-78691232D01*
X107077555Y-78769873D01*
X107242299Y-78823402D01*
X107413389Y-78850500D01*
X107413390Y-78850500D01*
X107586610Y-78850500D01*
X107586611Y-78850500D01*
X107757701Y-78823402D01*
X107922445Y-78769873D01*
X108076788Y-78691232D01*
X108216928Y-78589414D01*
X108339414Y-78466928D01*
X108441232Y-78326788D01*
X108445607Y-78318202D01*
X108493582Y-78267408D01*
X108556090Y-78250500D01*
X111137770Y-78250500D01*
X111204809Y-78270185D01*
X111225451Y-78286819D01*
X112715976Y-79777344D01*
X112749461Y-79838667D01*
X112751033Y-79882671D01*
X112744500Y-79928109D01*
X112744500Y-80500002D01*
X112749644Y-80571939D01*
X112760603Y-80609262D01*
X112764363Y-80661841D01*
X112744500Y-80799998D01*
X112744500Y-81371889D01*
X112764974Y-81514296D01*
X112764977Y-81514308D01*
X112780076Y-81565730D01*
X112805483Y-81652259D01*
X112823086Y-81690804D01*
X112865252Y-81783136D01*
X112865253Y-81783138D01*
X112939376Y-81898476D01*
X112940196Y-81899917D01*
X112942988Y-81904098D01*
X113037207Y-82012830D01*
X113037210Y-82012833D01*
X113145864Y-82106981D01*
X113145867Y-82106984D01*
X113145869Y-82106985D01*
X113145870Y-82106986D01*
X113266906Y-82184770D01*
X113266914Y-82184774D01*
X113266923Y-82184779D01*
X113391642Y-82241736D01*
X113395941Y-82243985D01*
X113448489Y-82259414D01*
X113535744Y-82285035D01*
X113535745Y-82285035D01*
X113535748Y-82285036D01*
X113578183Y-82291136D01*
X113678059Y-82305497D01*
X113734399Y-82305497D01*
X113734409Y-82305500D01*
X113785764Y-82305500D01*
X114265573Y-82305500D01*
X114265601Y-82305497D01*
X114321940Y-82305497D01*
X114321941Y-82305497D01*
X114455479Y-82286297D01*
X114455481Y-82286297D01*
X114461612Y-82285415D01*
X114464256Y-82285035D01*
X114464257Y-82285035D01*
X114602309Y-82244498D01*
X114733094Y-82184770D01*
X114854130Y-82106986D01*
X114962791Y-82012832D01*
X114962794Y-82012829D01*
X114979718Y-81993297D01*
X115038495Y-81955523D01*
X115073431Y-81950500D01*
X116264071Y-81950500D01*
X116348615Y-81933682D01*
X116389744Y-81925501D01*
X116508127Y-81876465D01*
X116511069Y-81874499D01*
X116614669Y-81805277D01*
X116637819Y-81782126D01*
X116699140Y-81748642D01*
X116768831Y-81753625D01*
X116824766Y-81795496D01*
X116849184Y-81860960D01*
X116849500Y-81869808D01*
X116849500Y-83537769D01*
X116829815Y-83604808D01*
X116813181Y-83625450D01*
X116512046Y-83926585D01*
X116512043Y-83926589D01*
X116472595Y-83985626D01*
X116472596Y-83985627D01*
X116429910Y-84049512D01*
X116373339Y-84186086D01*
X116373336Y-84186096D01*
X116344496Y-84331083D01*
X116344496Y-84561577D01*
X116336678Y-84604910D01*
X116300904Y-84700823D01*
X116294497Y-84760422D01*
X116294497Y-84760429D01*
X116294496Y-84760441D01*
X116294496Y-85579981D01*
X116274811Y-85647020D01*
X116222007Y-85692775D01*
X116220932Y-85693260D01*
X116072408Y-85759387D01*
X115927768Y-85864475D01*
X115808140Y-85997336D01*
X115718750Y-86152164D01*
X115718747Y-86152170D01*
X115663504Y-86322192D01*
X115663503Y-86322194D01*
X115644815Y-86500000D01*
X115663503Y-86677805D01*
X115663504Y-86677807D01*
X115718747Y-86847829D01*
X115718750Y-86847835D01*
X115808141Y-87002665D01*
X115810694Y-87005500D01*
X115927764Y-87135521D01*
X115927767Y-87135523D01*
X115927770Y-87135526D01*
X116072407Y-87240612D01*
X116235733Y-87313329D01*
X116410609Y-87350500D01*
X116410610Y-87350500D01*
X116589389Y-87350500D01*
X116589391Y-87350500D01*
X116764267Y-87313329D01*
X116850067Y-87275128D01*
X116919314Y-87265844D01*
X116982590Y-87295472D01*
X117019804Y-87354606D01*
X117024500Y-87388408D01*
X117024500Y-87431613D01*
X117030913Y-87502192D01*
X117030913Y-87502194D01*
X117030914Y-87502196D01*
X117077127Y-87650503D01*
X117081522Y-87664606D01*
X117169530Y-87810188D01*
X117271661Y-87912319D01*
X117305146Y-87973642D01*
X117300162Y-88043334D01*
X117271661Y-88087681D01*
X117169531Y-88189810D01*
X117169530Y-88189811D01*
X117081522Y-88335393D01*
X117030913Y-88497807D01*
X117030563Y-88501662D01*
X117024670Y-88566519D01*
X117024500Y-88568386D01*
X117024500Y-89081613D01*
X117030913Y-89152192D01*
X117030913Y-89152194D01*
X117030914Y-89152196D01*
X117081522Y-89314606D01*
X117157376Y-89440084D01*
X117169530Y-89460188D01*
X117289811Y-89580469D01*
X117289813Y-89580470D01*
X117289815Y-89580472D01*
X117435394Y-89668478D01*
X117597804Y-89719086D01*
X117668384Y-89725500D01*
X117668387Y-89725500D01*
X118331613Y-89725500D01*
X118331616Y-89725500D01*
X118402196Y-89719086D01*
X118564606Y-89668478D01*
X118688828Y-89593382D01*
X118752977Y-89575500D01*
X119248920Y-89575500D01*
X119346462Y-89556096D01*
X119393913Y-89546658D01*
X119530495Y-89490084D01*
X119579729Y-89457186D01*
X119582398Y-89455402D01*
X119649067Y-89434503D01*
X119698772Y-89443921D01*
X119826089Y-89496658D01*
X119826093Y-89496658D01*
X119826094Y-89496659D01*
X119971081Y-89525500D01*
X119971084Y-89525500D01*
X119971085Y-89525500D01*
X120118919Y-89525500D01*
X120698126Y-89525500D01*
X120765165Y-89545185D01*
X120785807Y-89561819D01*
X120796955Y-89572967D01*
X120796959Y-89572970D01*
X120941294Y-89661998D01*
X120941297Y-89661999D01*
X120941303Y-89662003D01*
X121102292Y-89715349D01*
X121201655Y-89725500D01*
X121798344Y-89725499D01*
X121798352Y-89725498D01*
X121798355Y-89725498D01*
X121862877Y-89718907D01*
X121897708Y-89715349D01*
X122058697Y-89662003D01*
X122203044Y-89572968D01*
X122322968Y-89453044D01*
X122412003Y-89308697D01*
X122465349Y-89147708D01*
X122475500Y-89048345D01*
X122475499Y-88501656D01*
X122465349Y-88402292D01*
X122412003Y-88241303D01*
X122352766Y-88145266D01*
X122334326Y-88077875D01*
X122355248Y-88011212D01*
X122408890Y-87966442D01*
X122434114Y-87958553D01*
X122493913Y-87946658D01*
X122630495Y-87890084D01*
X122693552Y-87847951D01*
X122753416Y-87807952D01*
X124582951Y-85978416D01*
X124665084Y-85855495D01*
X124721658Y-85718913D01*
X124736533Y-85644135D01*
X124750500Y-85573920D01*
X124750500Y-83969808D01*
X124770185Y-83902769D01*
X124822989Y-83857014D01*
X124892147Y-83847070D01*
X124955703Y-83876095D01*
X124962181Y-83882127D01*
X125585325Y-84505272D01*
X125585332Y-84505278D01*
X125691863Y-84576459D01*
X125691867Y-84576461D01*
X125691874Y-84576466D01*
X125744903Y-84598431D01*
X125744904Y-84598431D01*
X125744905Y-84598432D01*
X125780136Y-84613025D01*
X125810256Y-84625501D01*
X125810260Y-84625501D01*
X125810261Y-84625502D01*
X125935928Y-84650500D01*
X125935931Y-84650500D01*
X126055500Y-84650500D01*
X126122539Y-84670185D01*
X126168294Y-84722989D01*
X126179500Y-84774500D01*
X126179500Y-85128125D01*
X126159815Y-85195164D01*
X126143182Y-85215806D01*
X126032029Y-85326959D01*
X125943001Y-85471294D01*
X125942996Y-85471305D01*
X125889651Y-85632290D01*
X125879500Y-85731647D01*
X125879500Y-86328337D01*
X125879501Y-86328355D01*
X125889650Y-86427707D01*
X125889651Y-86427710D01*
X125942996Y-86588694D01*
X125943001Y-86588705D01*
X126032029Y-86733040D01*
X126032032Y-86733044D01*
X126151955Y-86852967D01*
X126151959Y-86852970D01*
X126296294Y-86941998D01*
X126296297Y-86941999D01*
X126296303Y-86942003D01*
X126457292Y-86995349D01*
X126556655Y-87005500D01*
X127103344Y-87005499D01*
X127103352Y-87005498D01*
X127103355Y-87005498D01*
X127183256Y-86997336D01*
X127202708Y-86995349D01*
X127363697Y-86942003D01*
X127440403Y-86894689D01*
X127507795Y-86876249D01*
X127574458Y-86897171D01*
X127619228Y-86950813D01*
X127629500Y-87000228D01*
X127629500Y-90757770D01*
X127609815Y-90824809D01*
X127593181Y-90845451D01*
X126725451Y-91713181D01*
X126664128Y-91746666D01*
X126637770Y-91749500D01*
X114862229Y-91749500D01*
X114795190Y-91729815D01*
X114774548Y-91713181D01*
X112286819Y-89225451D01*
X112253334Y-89164128D01*
X112250500Y-89137770D01*
X112250500Y-83926079D01*
X112221659Y-83781092D01*
X112221658Y-83781091D01*
X112221658Y-83781087D01*
X112221656Y-83781082D01*
X112165085Y-83644507D01*
X112118458Y-83574724D01*
X112082952Y-83521584D01*
X111478416Y-82917048D01*
X111400426Y-82864938D01*
X111400425Y-82864937D01*
X111355500Y-82834919D01*
X111355488Y-82834912D01*
X111218917Y-82778343D01*
X111218907Y-82778340D01*
X111073920Y-82749500D01*
X111073918Y-82749500D01*
X108556090Y-82749500D01*
X108489051Y-82729815D01*
X108445607Y-82681798D01*
X108441234Y-82673216D01*
X108441229Y-82673207D01*
X108411672Y-82632526D01*
X108339414Y-82533072D01*
X108216928Y-82410586D01*
X108076788Y-82308768D01*
X107922445Y-82230127D01*
X107757701Y-82176598D01*
X107757699Y-82176597D01*
X107757698Y-82176597D01*
X107626271Y-82155781D01*
X107586611Y-82149500D01*
X107413389Y-82149500D01*
X107373728Y-82155781D01*
X107242302Y-82176597D01*
X107077552Y-82230128D01*
X106923211Y-82308768D01*
X106894243Y-82329815D01*
X106783072Y-82410586D01*
X106783070Y-82410588D01*
X106783069Y-82410588D01*
X106660588Y-82533069D01*
X106660588Y-82533070D01*
X106660586Y-82533072D01*
X106637845Y-82564372D01*
X106558768Y-82673211D01*
X106480128Y-82827552D01*
X106426597Y-82992302D01*
X106412699Y-83080054D01*
X106399500Y-83163389D01*
X106399500Y-83836611D01*
X103500000Y-83836611D01*
X103500000Y-80836571D01*
X106400000Y-80836571D01*
X106427085Y-81007584D01*
X106480591Y-81172257D01*
X106559195Y-81326524D01*
X106660967Y-81466602D01*
X106783397Y-81589032D01*
X106923475Y-81690804D01*
X107077744Y-81769408D01*
X107242415Y-81822914D01*
X107242414Y-81822914D01*
X107249999Y-81824115D01*
X107250000Y-81824114D01*
X107250000Y-80916988D01*
X107259940Y-80934205D01*
X107315795Y-80990060D01*
X107384204Y-81029556D01*
X107460504Y-81050000D01*
X107539496Y-81050000D01*
X107615796Y-81029556D01*
X107684205Y-80990060D01*
X107740060Y-80934205D01*
X107750000Y-80916988D01*
X107750000Y-81824115D01*
X107757584Y-81822914D01*
X107922255Y-81769408D01*
X108076524Y-81690804D01*
X108216602Y-81589032D01*
X108339032Y-81466602D01*
X108440804Y-81326524D01*
X108519408Y-81172257D01*
X108572914Y-81007584D01*
X108600000Y-80836571D01*
X108600000Y-80750000D01*
X107800000Y-80750000D01*
X107800000Y-80250000D01*
X108600000Y-80250000D01*
X108600000Y-80163428D01*
X108572914Y-79992415D01*
X108519408Y-79827742D01*
X108440804Y-79673475D01*
X108339032Y-79533397D01*
X108216602Y-79410967D01*
X108076524Y-79309195D01*
X107922257Y-79230591D01*
X107757589Y-79177087D01*
X107757581Y-79177085D01*
X107750000Y-79175884D01*
X107750000Y-80083011D01*
X107740060Y-80065795D01*
X107684205Y-80009940D01*
X107615796Y-79970444D01*
X107539496Y-79950000D01*
X107460504Y-79950000D01*
X107384204Y-79970444D01*
X107315795Y-80009940D01*
X107259940Y-80065795D01*
X107250000Y-80083011D01*
X107250000Y-79175884D01*
X107249999Y-79175884D01*
X107242418Y-79177085D01*
X107242410Y-79177087D01*
X107077742Y-79230591D01*
X106923475Y-79309195D01*
X106783397Y-79410967D01*
X106660967Y-79533397D01*
X106559195Y-79673475D01*
X106480591Y-79827742D01*
X106427085Y-79992415D01*
X106400000Y-80163428D01*
X106400000Y-80250000D01*
X107200000Y-80250000D01*
X107200000Y-80750000D01*
X106400000Y-80750000D01*
X106400000Y-80836571D01*
X103500000Y-80836571D01*
X103500000Y-72986662D01*
X105949500Y-72986662D01*
X105976598Y-73157752D01*
X106030127Y-73322496D01*
X106108768Y-73476839D01*
X106210586Y-73616979D01*
X106333072Y-73739465D01*
X106473212Y-73841283D01*
X106627555Y-73919924D01*
X106792299Y-73973453D01*
X106963389Y-74000551D01*
X106963390Y-74000551D01*
X108036610Y-74000551D01*
X108036611Y-74000551D01*
X108207701Y-73973453D01*
X108372445Y-73919924D01*
X108526788Y-73841283D01*
X108666928Y-73739465D01*
X108789414Y-73616979D01*
X108891232Y-73476839D01*
X108969873Y-73322496D01*
X109023402Y-73157752D01*
X109050500Y-72986662D01*
X109050500Y-72813440D01*
X109023402Y-72642350D01*
X108969873Y-72477606D01*
X108891232Y-72323263D01*
X108789414Y-72183123D01*
X108666928Y-72060637D01*
X108526788Y-71958819D01*
X108372445Y-71880178D01*
X108207701Y-71826649D01*
X108207699Y-71826648D01*
X108207698Y-71826648D01*
X108076271Y-71805832D01*
X108036611Y-71799551D01*
X106963389Y-71799551D01*
X106923728Y-71805832D01*
X106792302Y-71826648D01*
X106627552Y-71880179D01*
X106473211Y-71958819D01*
X106416531Y-72000000D01*
X106333072Y-72060637D01*
X106333070Y-72060639D01*
X106333069Y-72060639D01*
X106210588Y-72183120D01*
X106210588Y-72183121D01*
X106210586Y-72183123D01*
X106182855Y-72221291D01*
X106108768Y-72323262D01*
X106030128Y-72477603D01*
X105976597Y-72642353D01*
X105949500Y-72813440D01*
X105949500Y-72986662D01*
X103500000Y-72986662D01*
X103500000Y-70500987D01*
X103500017Y-70498961D01*
X103501311Y-70419815D01*
X103502559Y-70343416D01*
X103503602Y-70329283D01*
X103544346Y-70019800D01*
X103547505Y-70003915D01*
X103628032Y-69703385D01*
X103633246Y-69688028D01*
X103752303Y-69400599D01*
X103759473Y-69386058D01*
X103915036Y-69116615D01*
X103924038Y-69103143D01*
X104113443Y-68856305D01*
X104124124Y-68844126D01*
X104344126Y-68624124D01*
X104356305Y-68613443D01*
X104603143Y-68424038D01*
X104616615Y-68415036D01*
X104886058Y-68259473D01*
X104900592Y-68252306D01*
X105188030Y-68133245D01*
X105203387Y-68128032D01*
X105503915Y-68047505D01*
X105519800Y-68044346D01*
X105829283Y-68003602D01*
X105843416Y-68002559D01*
X105996083Y-68000064D01*
X105998961Y-68000017D01*
X106000987Y-68000000D01*
X112000027Y-68000000D01*
X112133922Y-67997810D01*
X112163683Y-67997324D01*
X112488249Y-67954594D01*
X112804461Y-67869865D01*
X113106908Y-67744587D01*
X113390416Y-67580904D01*
X113650133Y-67381616D01*
X113881616Y-67150133D01*
X114080904Y-66890416D01*
X114244587Y-66606908D01*
X114369865Y-66304461D01*
X114454594Y-65988249D01*
X114497324Y-65663683D01*
X114500000Y-65500000D01*
X114500000Y-54500987D01*
X114500017Y-54498961D01*
X114500064Y-54496083D01*
X114502559Y-54343416D01*
X114503602Y-54329283D01*
X114544346Y-54019800D01*
X114547505Y-54003915D01*
X114628032Y-53703385D01*
X114633246Y-53688028D01*
X114752303Y-53400599D01*
X114759473Y-53386058D01*
X114915036Y-53116615D01*
X114924038Y-53103143D01*
X115113443Y-52856305D01*
X115124124Y-52844126D01*
X115344126Y-52624124D01*
X115356305Y-52613443D01*
X115603143Y-52424038D01*
X115616615Y-52415036D01*
X115886058Y-52259473D01*
X115900592Y-52252306D01*
X116188030Y-52133245D01*
X116203387Y-52128032D01*
X116503915Y-52047505D01*
X116519800Y-52044346D01*
X116829283Y-52003602D01*
X116843416Y-52002559D01*
X116996083Y-52000064D01*
X116998961Y-52000017D01*
X117000987Y-52000000D01*
X138499013Y-52000000D01*
X138501039Y-52000017D01*
G37*
%TD.AperFunction*%
%TD*%
M02*
