%TF.GenerationSoftware,KiCad,Pcbnew,8.0.1*%
%TF.CreationDate,2024-04-21T22:45:41+02:00*%
%TF.ProjectId,PowerSubsystem2.0,506f7765-7253-4756-9273-797374656d32,v2*%
%TF.SameCoordinates,Original*%
%TF.FileFunction,Soldermask,Top*%
%TF.FilePolarity,Negative*%
%FSLAX46Y46*%
G04 Gerber Fmt 4.6, Leading zero omitted, Abs format (unit mm)*
G04 Created by KiCad (PCBNEW 8.0.1) date 2024-04-21 22:45:41*
%MOMM*%
%LPD*%
G01*
G04 APERTURE LIST*
G04 Aperture macros list*
%AMRoundRect*
0 Rectangle with rounded corners*
0 $1 Rounding radius*
0 $2 $3 $4 $5 $6 $7 $8 $9 X,Y pos of 4 corners*
0 Add a 4 corners polygon primitive as box body*
4,1,4,$2,$3,$4,$5,$6,$7,$8,$9,$2,$3,0*
0 Add four circle primitives for the rounded corners*
1,1,$1+$1,$2,$3*
1,1,$1+$1,$4,$5*
1,1,$1+$1,$6,$7*
1,1,$1+$1,$8,$9*
0 Add four rect primitives between the rounded corners*
20,1,$1+$1,$2,$3,$4,$5,0*
20,1,$1+$1,$4,$5,$6,$7,0*
20,1,$1+$1,$6,$7,$8,$9,0*
20,1,$1+$1,$8,$9,$2,$3,0*%
%AMFreePoly0*
4,1,19,0.000000,0.744911,0.071157,0.744911,0.207708,0.704816,0.327430,0.627875,0.420627,0.520320,0.479746,0.390866,0.500000,0.250000,0.500000,-0.250000,0.479746,-0.390866,0.420627,-0.520320,0.327430,-0.627875,0.207708,-0.704816,0.071157,-0.744911,0.000000,-0.744911,0.000000,-0.750000,-0.500000,-0.750000,-0.500000,0.750000,0.000000,0.750000,0.000000,0.744911,0.000000,0.744911,
$1*%
%AMFreePoly1*
4,1,19,0.500000,-0.750000,0.000000,-0.750000,0.000000,-0.744911,-0.071157,-0.744911,-0.207708,-0.704816,-0.327430,-0.627875,-0.420627,-0.520320,-0.479746,-0.390866,-0.500000,-0.250000,-0.500000,0.250000,-0.479746,0.390866,-0.420627,0.520320,-0.327430,0.627875,-0.207708,0.704816,-0.071157,0.744911,0.000000,0.744911,0.000000,0.750000,0.500000,0.750000,0.500000,-0.750000,0.500000,-0.750000,
$1*%
G04 Aperture macros list end*
%ADD10FreePoly0,90.000000*%
%ADD11FreePoly1,90.000000*%
%ADD12RoundRect,0.150000X0.150000X-0.825000X0.150000X0.825000X-0.150000X0.825000X-0.150000X-0.825000X0*%
%ADD13O,2.100000X1.200000*%
%ADD14O,1.200000X1.700000*%
%ADD15RoundRect,0.225000X-0.225000X-0.250000X0.225000X-0.250000X0.225000X0.250000X-0.225000X0.250000X0*%
%ADD16RoundRect,0.225000X-0.250000X0.225000X-0.250000X-0.225000X0.250000X-0.225000X0.250000X0.225000X0*%
%ADD17R,1.000000X1.000000*%
%ADD18RoundRect,0.200000X-0.275000X0.200000X-0.275000X-0.200000X0.275000X-0.200000X0.275000X0.200000X0*%
%ADD19RoundRect,0.200000X0.200000X0.275000X-0.200000X0.275000X-0.200000X-0.275000X0.200000X-0.275000X0*%
%ADD20R,0.895000X1.470000*%
%ADD21R,0.450000X1.050000*%
%ADD22R,3.300000X2.400000*%
%ADD23R,0.600000X1.200000*%
%ADD24RoundRect,0.225000X0.250000X-0.225000X0.250000X0.225000X-0.250000X0.225000X-0.250000X-0.225000X0*%
%ADD25RoundRect,0.218750X0.256250X-0.218750X0.256250X0.218750X-0.256250X0.218750X-0.256250X-0.218750X0*%
%ADD26O,1.750000X1.200000*%
%ADD27RoundRect,0.250000X0.625000X-0.350000X0.625000X0.350000X-0.625000X0.350000X-0.625000X-0.350000X0*%
%ADD28R,1.700000X1.700000*%
%ADD29O,1.700000X1.700000*%
G04 APERTURE END LIST*
D10*
%TO.C,JP3*%
X114000000Y-80000000D03*
D11*
X114000000Y-81300000D03*
%TD*%
D10*
%TO.C,JP2*%
X122000000Y-65500000D03*
D11*
X122000000Y-66800000D03*
%TD*%
D10*
%TO.C,JP1*%
X133500000Y-65350000D03*
D11*
X133500000Y-66650000D03*
%TD*%
D12*
%TO.C,U1*%
X139650000Y-82950000D03*
X140920000Y-82950000D03*
X142190000Y-82950000D03*
X143460000Y-82950000D03*
X144730000Y-82950000D03*
X146000000Y-82950000D03*
X147270000Y-82950000D03*
X147270000Y-78000000D03*
X146000000Y-78000000D03*
X144730000Y-78000000D03*
X143460000Y-78000000D03*
X142190000Y-78000000D03*
X140920000Y-78000000D03*
X139650000Y-78000000D03*
%TD*%
D13*
%TO.C,U5*%
X107500000Y-72900051D03*
X107500000Y-88099949D03*
D14*
X107500000Y-83500000D03*
X107500000Y-80500000D03*
X107500000Y-77500000D03*
%TD*%
D15*
%TO.C,C1*%
X128380000Y-86030000D03*
X126830000Y-86030000D03*
%TD*%
D16*
%TO.C,C2*%
X132237500Y-85715000D03*
X132237500Y-87265000D03*
%TD*%
%TO.C,C4*%
X121500000Y-88775000D03*
X121500000Y-87225000D03*
%TD*%
D17*
%TO.C,TP3*%
X145500000Y-91500000D03*
%TD*%
D18*
%TO.C,R3*%
X132000000Y-71175000D03*
X132000000Y-72825000D03*
%TD*%
D19*
%TO.C,R1*%
X145785000Y-86475000D03*
X144135000Y-86475000D03*
%TD*%
D20*
%TO.C,U2*%
X128605000Y-80000000D03*
X129500000Y-80000000D03*
X130395000Y-80000000D03*
X131290000Y-80000000D03*
X128605000Y-78530000D03*
X129500000Y-78530000D03*
X130395000Y-78530000D03*
X131290000Y-78530000D03*
D21*
X132222500Y-82040000D03*
X131572500Y-82040000D03*
X130922500Y-82040000D03*
X130272500Y-82040000D03*
X129622500Y-82040000D03*
X128972500Y-82040000D03*
X128322500Y-82040000D03*
X127672500Y-82040000D03*
X127672500Y-76490000D03*
X128322500Y-76490000D03*
X128972500Y-76490000D03*
X129622500Y-76490000D03*
X130272500Y-76490000D03*
X130922500Y-76490000D03*
X131572500Y-76490000D03*
X132222500Y-76490000D03*
%TD*%
D22*
%TO.C,U3*%
X119000000Y-82500000D03*
D23*
X117094996Y-79591694D03*
X118364999Y-79591694D03*
X119635001Y-79591694D03*
X120905004Y-79591694D03*
X120905004Y-85408306D03*
X119635001Y-85408306D03*
X118364999Y-85408306D03*
X117094996Y-85408306D03*
%TD*%
D24*
%TO.C,C3*%
X130237500Y-87265000D03*
X130237500Y-85715000D03*
%TD*%
D25*
%TO.C,D1*%
X118000000Y-72765000D03*
X118000000Y-71190000D03*
%TD*%
D26*
%TO.C,J2*%
X147450000Y-71000000D03*
D27*
X147450000Y-73000000D03*
%TD*%
D18*
%TO.C,R5*%
X119000000Y-75675000D03*
X119000000Y-77325000D03*
%TD*%
%TO.C,R7*%
X118000000Y-88825000D03*
X118000000Y-87175000D03*
%TD*%
D25*
%TO.C,D2*%
X115000000Y-72840000D03*
X115000000Y-71265000D03*
%TD*%
D18*
%TO.C,R6*%
X115500000Y-74675000D03*
X115500000Y-76325000D03*
%TD*%
D17*
%TO.C,TP1*%
X137500000Y-87000000D03*
%TD*%
D18*
%TO.C,R2*%
X141770000Y-87800000D03*
X141770000Y-86150000D03*
%TD*%
D16*
%TO.C,C5*%
X122000000Y-75950000D03*
X122000000Y-77500000D03*
%TD*%
D18*
%TO.C,R4*%
X128500000Y-71175000D03*
X128500000Y-72825000D03*
%TD*%
D28*
%TO.C,J1*%
X136580000Y-60040000D03*
D29*
X136580000Y-57500000D03*
X134040000Y-60040000D03*
X134040000Y-57500000D03*
X131500000Y-60040000D03*
X131500000Y-57500000D03*
X128960000Y-60040000D03*
X128960000Y-57500000D03*
X126420000Y-60040000D03*
X126420000Y-57500000D03*
X123880000Y-60040000D03*
X123880000Y-57500000D03*
X121340000Y-60040000D03*
X121340000Y-57500000D03*
X118800000Y-60040000D03*
X118800000Y-57500000D03*
%TD*%
M02*
