%TF.GenerationSoftware,KiCad,Pcbnew,8.0.1*%
%TF.CreationDate,2024-04-21T22:45:41+02:00*%
%TF.ProjectId,PowerSubsystem2.0,506f7765-7253-4756-9273-797374656d32,v2*%
%TF.SameCoordinates,Original*%
%TF.FileFunction,Legend,Top*%
%TF.FilePolarity,Positive*%
%FSLAX46Y46*%
G04 Gerber Fmt 4.6, Leading zero omitted, Abs format (unit mm)*
G04 Created by KiCad (PCBNEW 8.0.1) date 2024-04-21 22:45:41*
%MOMM*%
%LPD*%
G01*
G04 APERTURE LIST*
G04 Aperture macros list*
%AMRoundRect*
0 Rectangle with rounded corners*
0 $1 Rounding radius*
0 $2 $3 $4 $5 $6 $7 $8 $9 X,Y pos of 4 corners*
0 Add a 4 corners polygon primitive as box body*
4,1,4,$2,$3,$4,$5,$6,$7,$8,$9,$2,$3,0*
0 Add four circle primitives for the rounded corners*
1,1,$1+$1,$2,$3*
1,1,$1+$1,$4,$5*
1,1,$1+$1,$6,$7*
1,1,$1+$1,$8,$9*
0 Add four rect primitives between the rounded corners*
20,1,$1+$1,$2,$3,$4,$5,0*
20,1,$1+$1,$4,$5,$6,$7,0*
20,1,$1+$1,$6,$7,$8,$9,0*
20,1,$1+$1,$8,$9,$2,$3,0*%
%AMFreePoly0*
4,1,19,0.000000,0.744911,0.071157,0.744911,0.207708,0.704816,0.327430,0.627875,0.420627,0.520320,0.479746,0.390866,0.500000,0.250000,0.500000,-0.250000,0.479746,-0.390866,0.420627,-0.520320,0.327430,-0.627875,0.207708,-0.704816,0.071157,-0.744911,0.000000,-0.744911,0.000000,-0.750000,-0.500000,-0.750000,-0.500000,0.750000,0.000000,0.750000,0.000000,0.744911,0.000000,0.744911,
$1*%
%AMFreePoly1*
4,1,19,0.500000,-0.750000,0.000000,-0.750000,0.000000,-0.744911,-0.071157,-0.744911,-0.207708,-0.704816,-0.327430,-0.627875,-0.420627,-0.520320,-0.479746,-0.390866,-0.500000,-0.250000,-0.500000,0.250000,-0.479746,0.390866,-0.420627,0.520320,-0.327430,0.627875,-0.207708,0.704816,-0.071157,0.744911,0.000000,0.744911,0.000000,0.750000,0.500000,0.750000,0.500000,-0.750000,0.500000,-0.750000,
$1*%
G04 Aperture macros list end*
%ADD10C,0.125000*%
%ADD11C,0.120000*%
%ADD12C,0.150000*%
%ADD13C,0.059995*%
%ADD14C,0.254000*%
%ADD15FreePoly0,90.000000*%
%ADD16FreePoly1,90.000000*%
%ADD17RoundRect,0.150000X0.150000X-0.825000X0.150000X0.825000X-0.150000X0.825000X-0.150000X-0.825000X0*%
%ADD18O,2.100000X1.200000*%
%ADD19O,1.200000X1.700000*%
%ADD20RoundRect,0.225000X-0.225000X-0.250000X0.225000X-0.250000X0.225000X0.250000X-0.225000X0.250000X0*%
%ADD21RoundRect,0.225000X-0.250000X0.225000X-0.250000X-0.225000X0.250000X-0.225000X0.250000X0.225000X0*%
%ADD22R,1.000000X1.000000*%
%ADD23RoundRect,0.200000X-0.275000X0.200000X-0.275000X-0.200000X0.275000X-0.200000X0.275000X0.200000X0*%
%ADD24RoundRect,0.200000X0.200000X0.275000X-0.200000X0.275000X-0.200000X-0.275000X0.200000X-0.275000X0*%
%ADD25R,0.895000X1.470000*%
%ADD26R,0.450000X1.050000*%
%ADD27R,3.300000X2.400000*%
%ADD28R,0.600000X1.200000*%
%ADD29RoundRect,0.225000X0.250000X-0.225000X0.250000X0.225000X-0.250000X0.225000X-0.250000X-0.225000X0*%
%ADD30RoundRect,0.218750X0.256250X-0.218750X0.256250X0.218750X-0.256250X0.218750X-0.256250X-0.218750X0*%
%ADD31O,1.750000X1.200000*%
%ADD32RoundRect,0.250000X0.625000X-0.350000X0.625000X0.350000X-0.625000X0.350000X-0.625000X-0.350000X0*%
%ADD33R,1.700000X1.700000*%
%ADD34O,1.700000X1.700000*%
G04 APERTURE END LIST*
D10*
X150323500Y-91727287D02*
X150371119Y-91584430D01*
X150371119Y-91584430D02*
X150371119Y-91346335D01*
X150371119Y-91346335D02*
X150323500Y-91251097D01*
X150323500Y-91251097D02*
X150275880Y-91203478D01*
X150275880Y-91203478D02*
X150180642Y-91155859D01*
X150180642Y-91155859D02*
X150085404Y-91155859D01*
X150085404Y-91155859D02*
X149990166Y-91203478D01*
X149990166Y-91203478D02*
X149942547Y-91251097D01*
X149942547Y-91251097D02*
X149894928Y-91346335D01*
X149894928Y-91346335D02*
X149847309Y-91536811D01*
X149847309Y-91536811D02*
X149799690Y-91632049D01*
X149799690Y-91632049D02*
X149752071Y-91679668D01*
X149752071Y-91679668D02*
X149656833Y-91727287D01*
X149656833Y-91727287D02*
X149561595Y-91727287D01*
X149561595Y-91727287D02*
X149466357Y-91679668D01*
X149466357Y-91679668D02*
X149418738Y-91632049D01*
X149418738Y-91632049D02*
X149371119Y-91536811D01*
X149371119Y-91536811D02*
X149371119Y-91298716D01*
X149371119Y-91298716D02*
X149418738Y-91155859D01*
X149847309Y-90393954D02*
X149847309Y-90727287D01*
X150371119Y-90727287D02*
X149371119Y-90727287D01*
X149371119Y-90727287D02*
X149371119Y-90251097D01*
X150371119Y-89298716D02*
X149894928Y-89632049D01*
X150371119Y-89870144D02*
X149371119Y-89870144D01*
X149371119Y-89870144D02*
X149371119Y-89489192D01*
X149371119Y-89489192D02*
X149418738Y-89393954D01*
X149418738Y-89393954D02*
X149466357Y-89346335D01*
X149466357Y-89346335D02*
X149561595Y-89298716D01*
X149561595Y-89298716D02*
X149704452Y-89298716D01*
X149704452Y-89298716D02*
X149799690Y-89346335D01*
X149799690Y-89346335D02*
X149847309Y-89393954D01*
X149847309Y-89393954D02*
X149894928Y-89489192D01*
X149894928Y-89489192D02*
X149894928Y-89870144D01*
X150371119Y-88298716D02*
X149894928Y-88632049D01*
X150371119Y-88870144D02*
X149371119Y-88870144D01*
X149371119Y-88870144D02*
X149371119Y-88489192D01*
X149371119Y-88489192D02*
X149418738Y-88393954D01*
X149418738Y-88393954D02*
X149466357Y-88346335D01*
X149466357Y-88346335D02*
X149561595Y-88298716D01*
X149561595Y-88298716D02*
X149704452Y-88298716D01*
X149704452Y-88298716D02*
X149799690Y-88346335D01*
X149799690Y-88346335D02*
X149847309Y-88393954D01*
X149847309Y-88393954D02*
X149894928Y-88489192D01*
X149894928Y-88489192D02*
X149894928Y-88870144D01*
X149847309Y-87870144D02*
X149847309Y-87536811D01*
X150371119Y-87393954D02*
X150371119Y-87870144D01*
X150371119Y-87870144D02*
X149371119Y-87870144D01*
X149371119Y-87870144D02*
X149371119Y-87393954D01*
X150371119Y-86965382D02*
X149371119Y-86965382D01*
X149371119Y-86965382D02*
X150371119Y-86393954D01*
X150371119Y-86393954D02*
X149371119Y-86393954D01*
X149371119Y-85727287D02*
X149371119Y-85632049D01*
X149371119Y-85632049D02*
X149418738Y-85536811D01*
X149418738Y-85536811D02*
X149466357Y-85489192D01*
X149466357Y-85489192D02*
X149561595Y-85441573D01*
X149561595Y-85441573D02*
X149752071Y-85393954D01*
X149752071Y-85393954D02*
X149990166Y-85393954D01*
X149990166Y-85393954D02*
X150180642Y-85441573D01*
X150180642Y-85441573D02*
X150275880Y-85489192D01*
X150275880Y-85489192D02*
X150323500Y-85536811D01*
X150323500Y-85536811D02*
X150371119Y-85632049D01*
X150371119Y-85632049D02*
X150371119Y-85727287D01*
X150371119Y-85727287D02*
X150323500Y-85822525D01*
X150323500Y-85822525D02*
X150275880Y-85870144D01*
X150275880Y-85870144D02*
X150180642Y-85917763D01*
X150180642Y-85917763D02*
X149990166Y-85965382D01*
X149990166Y-85965382D02*
X149752071Y-85965382D01*
X149752071Y-85965382D02*
X149561595Y-85917763D01*
X149561595Y-85917763D02*
X149466357Y-85870144D01*
X149466357Y-85870144D02*
X149418738Y-85822525D01*
X149418738Y-85822525D02*
X149371119Y-85727287D01*
X149371119Y-84774906D02*
X149371119Y-84679668D01*
X149371119Y-84679668D02*
X149418738Y-84584430D01*
X149418738Y-84584430D02*
X149466357Y-84536811D01*
X149466357Y-84536811D02*
X149561595Y-84489192D01*
X149561595Y-84489192D02*
X149752071Y-84441573D01*
X149752071Y-84441573D02*
X149990166Y-84441573D01*
X149990166Y-84441573D02*
X150180642Y-84489192D01*
X150180642Y-84489192D02*
X150275880Y-84536811D01*
X150275880Y-84536811D02*
X150323500Y-84584430D01*
X150323500Y-84584430D02*
X150371119Y-84679668D01*
X150371119Y-84679668D02*
X150371119Y-84774906D01*
X150371119Y-84774906D02*
X150323500Y-84870144D01*
X150323500Y-84870144D02*
X150275880Y-84917763D01*
X150275880Y-84917763D02*
X150180642Y-84965382D01*
X150180642Y-84965382D02*
X149990166Y-85013001D01*
X149990166Y-85013001D02*
X149752071Y-85013001D01*
X149752071Y-85013001D02*
X149561595Y-84965382D01*
X149561595Y-84965382D02*
X149466357Y-84917763D01*
X149466357Y-84917763D02*
X149418738Y-84870144D01*
X149418738Y-84870144D02*
X149371119Y-84774906D01*
X150371119Y-83489192D02*
X150371119Y-84060620D01*
X150371119Y-83774906D02*
X149371119Y-83774906D01*
X149371119Y-83774906D02*
X149513976Y-83870144D01*
X149513976Y-83870144D02*
X149609214Y-83965382D01*
X149609214Y-83965382D02*
X149656833Y-84060620D01*
X149418738Y-81774906D02*
X149371119Y-81870144D01*
X149371119Y-81870144D02*
X149371119Y-82013001D01*
X149371119Y-82013001D02*
X149418738Y-82155858D01*
X149418738Y-82155858D02*
X149513976Y-82251096D01*
X149513976Y-82251096D02*
X149609214Y-82298715D01*
X149609214Y-82298715D02*
X149799690Y-82346334D01*
X149799690Y-82346334D02*
X149942547Y-82346334D01*
X149942547Y-82346334D02*
X150133023Y-82298715D01*
X150133023Y-82298715D02*
X150228261Y-82251096D01*
X150228261Y-82251096D02*
X150323500Y-82155858D01*
X150323500Y-82155858D02*
X150371119Y-82013001D01*
X150371119Y-82013001D02*
X150371119Y-81917763D01*
X150371119Y-81917763D02*
X150323500Y-81774906D01*
X150323500Y-81774906D02*
X150275880Y-81727287D01*
X150275880Y-81727287D02*
X149942547Y-81727287D01*
X149942547Y-81727287D02*
X149942547Y-81917763D01*
X149371119Y-80870144D02*
X149371119Y-81060620D01*
X149371119Y-81060620D02*
X149418738Y-81155858D01*
X149418738Y-81155858D02*
X149466357Y-81203477D01*
X149466357Y-81203477D02*
X149609214Y-81298715D01*
X149609214Y-81298715D02*
X149799690Y-81346334D01*
X149799690Y-81346334D02*
X150180642Y-81346334D01*
X150180642Y-81346334D02*
X150275880Y-81298715D01*
X150275880Y-81298715D02*
X150323500Y-81251096D01*
X150323500Y-81251096D02*
X150371119Y-81155858D01*
X150371119Y-81155858D02*
X150371119Y-80965382D01*
X150371119Y-80965382D02*
X150323500Y-80870144D01*
X150323500Y-80870144D02*
X150275880Y-80822525D01*
X150275880Y-80822525D02*
X150180642Y-80774906D01*
X150180642Y-80774906D02*
X149942547Y-80774906D01*
X149942547Y-80774906D02*
X149847309Y-80822525D01*
X149847309Y-80822525D02*
X149799690Y-80870144D01*
X149799690Y-80870144D02*
X149752071Y-80965382D01*
X149752071Y-80965382D02*
X149752071Y-81155858D01*
X149752071Y-81155858D02*
X149799690Y-81251096D01*
X149799690Y-81251096D02*
X149847309Y-81298715D01*
X149847309Y-81298715D02*
X149942547Y-81346334D01*
X150371119Y-80298715D02*
X150371119Y-80108239D01*
X150371119Y-80108239D02*
X150323500Y-80013001D01*
X150323500Y-80013001D02*
X150275880Y-79965382D01*
X150275880Y-79965382D02*
X150133023Y-79870144D01*
X150133023Y-79870144D02*
X149942547Y-79822525D01*
X149942547Y-79822525D02*
X149561595Y-79822525D01*
X149561595Y-79822525D02*
X149466357Y-79870144D01*
X149466357Y-79870144D02*
X149418738Y-79917763D01*
X149418738Y-79917763D02*
X149371119Y-80013001D01*
X149371119Y-80013001D02*
X149371119Y-80203477D01*
X149371119Y-80203477D02*
X149418738Y-80298715D01*
X149418738Y-80298715D02*
X149466357Y-80346334D01*
X149466357Y-80346334D02*
X149561595Y-80393953D01*
X149561595Y-80393953D02*
X149799690Y-80393953D01*
X149799690Y-80393953D02*
X149894928Y-80346334D01*
X149894928Y-80346334D02*
X149942547Y-80298715D01*
X149942547Y-80298715D02*
X149990166Y-80203477D01*
X149990166Y-80203477D02*
X149990166Y-80013001D01*
X149990166Y-80013001D02*
X149942547Y-79917763D01*
X149942547Y-79917763D02*
X149894928Y-79870144D01*
X149894928Y-79870144D02*
X149799690Y-79822525D01*
D11*
X130890517Y-54849216D02*
X130842898Y-54920645D01*
X130842898Y-54920645D02*
X130842898Y-55027787D01*
X130842898Y-55027787D02*
X130890517Y-55134930D01*
X130890517Y-55134930D02*
X130985755Y-55206359D01*
X130985755Y-55206359D02*
X131080993Y-55242073D01*
X131080993Y-55242073D02*
X131271469Y-55277787D01*
X131271469Y-55277787D02*
X131414326Y-55277787D01*
X131414326Y-55277787D02*
X131604802Y-55242073D01*
X131604802Y-55242073D02*
X131700040Y-55206359D01*
X131700040Y-55206359D02*
X131795279Y-55134930D01*
X131795279Y-55134930D02*
X131842898Y-55027787D01*
X131842898Y-55027787D02*
X131842898Y-54956359D01*
X131842898Y-54956359D02*
X131795279Y-54849216D01*
X131795279Y-54849216D02*
X131747659Y-54813502D01*
X131747659Y-54813502D02*
X131414326Y-54813502D01*
X131414326Y-54813502D02*
X131414326Y-54956359D01*
X131842898Y-54492073D02*
X130842898Y-54492073D01*
X130842898Y-54492073D02*
X131842898Y-54063502D01*
X131842898Y-54063502D02*
X130842898Y-54063502D01*
X131842898Y-53706359D02*
X130842898Y-53706359D01*
X130842898Y-53706359D02*
X130842898Y-53527788D01*
X130842898Y-53527788D02*
X130890517Y-53420645D01*
X130890517Y-53420645D02*
X130985755Y-53349216D01*
X130985755Y-53349216D02*
X131080993Y-53313502D01*
X131080993Y-53313502D02*
X131271469Y-53277788D01*
X131271469Y-53277788D02*
X131414326Y-53277788D01*
X131414326Y-53277788D02*
X131604802Y-53313502D01*
X131604802Y-53313502D02*
X131700040Y-53349216D01*
X131700040Y-53349216D02*
X131795279Y-53420645D01*
X131795279Y-53420645D02*
X131842898Y-53527788D01*
X131842898Y-53527788D02*
X131842898Y-53706359D01*
X128371379Y-55349624D02*
X129371379Y-55099624D01*
X129371379Y-55099624D02*
X128371379Y-54849624D01*
X129371379Y-54599624D02*
X128371379Y-54599624D01*
X128752331Y-54599624D02*
X128704712Y-54528196D01*
X128704712Y-54528196D02*
X128704712Y-54385338D01*
X128704712Y-54385338D02*
X128752331Y-54313910D01*
X128752331Y-54313910D02*
X128799950Y-54278196D01*
X128799950Y-54278196D02*
X128895188Y-54242481D01*
X128895188Y-54242481D02*
X129180902Y-54242481D01*
X129180902Y-54242481D02*
X129276140Y-54278196D01*
X129276140Y-54278196D02*
X129323760Y-54313910D01*
X129323760Y-54313910D02*
X129371379Y-54385338D01*
X129371379Y-54385338D02*
X129371379Y-54528196D01*
X129371379Y-54528196D02*
X129323760Y-54599624D01*
X129371379Y-53599625D02*
X128847569Y-53599625D01*
X128847569Y-53599625D02*
X128752331Y-53635339D01*
X128752331Y-53635339D02*
X128704712Y-53706767D01*
X128704712Y-53706767D02*
X128704712Y-53849625D01*
X128704712Y-53849625D02*
X128752331Y-53921053D01*
X129323760Y-53599625D02*
X129371379Y-53671053D01*
X129371379Y-53671053D02*
X129371379Y-53849625D01*
X129371379Y-53849625D02*
X129323760Y-53921053D01*
X129323760Y-53921053D02*
X129228521Y-53956767D01*
X129228521Y-53956767D02*
X129133283Y-53956767D01*
X129133283Y-53956767D02*
X129038045Y-53921053D01*
X129038045Y-53921053D02*
X128990426Y-53849625D01*
X128990426Y-53849625D02*
X128990426Y-53671053D01*
X128990426Y-53671053D02*
X128942807Y-53599625D01*
X128704712Y-53349625D02*
X128704712Y-53063911D01*
X128371379Y-53242482D02*
X129228521Y-53242482D01*
X129228521Y-53242482D02*
X129323760Y-53206768D01*
X129323760Y-53206768D02*
X129371379Y-53135339D01*
X129371379Y-53135339D02*
X129371379Y-53063911D01*
X128704712Y-52921054D02*
X128704712Y-52635340D01*
X128371379Y-52813911D02*
X129228521Y-52813911D01*
X129228521Y-52813911D02*
X129323760Y-52778197D01*
X129323760Y-52778197D02*
X129371379Y-52706768D01*
X129371379Y-52706768D02*
X129371379Y-52635340D01*
X125871379Y-55349624D02*
X126871379Y-55099624D01*
X126871379Y-55099624D02*
X125871379Y-54849624D01*
X126585664Y-54635338D02*
X126585664Y-54278196D01*
X126871379Y-54706767D02*
X125871379Y-54456767D01*
X125871379Y-54456767D02*
X126871379Y-54206767D01*
X126871379Y-53956767D02*
X125871379Y-53956767D01*
X125871379Y-53956767D02*
X125871379Y-53778196D01*
X125871379Y-53778196D02*
X125918998Y-53671053D01*
X125918998Y-53671053D02*
X126014236Y-53599624D01*
X126014236Y-53599624D02*
X126109474Y-53563910D01*
X126109474Y-53563910D02*
X126299950Y-53528196D01*
X126299950Y-53528196D02*
X126442807Y-53528196D01*
X126442807Y-53528196D02*
X126633283Y-53563910D01*
X126633283Y-53563910D02*
X126728521Y-53599624D01*
X126728521Y-53599624D02*
X126823760Y-53671053D01*
X126823760Y-53671053D02*
X126871379Y-53778196D01*
X126871379Y-53778196D02*
X126871379Y-53956767D01*
X126776140Y-52778196D02*
X126823760Y-52813910D01*
X126823760Y-52813910D02*
X126871379Y-52921053D01*
X126871379Y-52921053D02*
X126871379Y-52992481D01*
X126871379Y-52992481D02*
X126823760Y-53099624D01*
X126823760Y-53099624D02*
X126728521Y-53171053D01*
X126728521Y-53171053D02*
X126633283Y-53206767D01*
X126633283Y-53206767D02*
X126442807Y-53242481D01*
X126442807Y-53242481D02*
X126299950Y-53242481D01*
X126299950Y-53242481D02*
X126109474Y-53206767D01*
X126109474Y-53206767D02*
X126014236Y-53171053D01*
X126014236Y-53171053D02*
X125918998Y-53099624D01*
X125918998Y-53099624D02*
X125871379Y-52992481D01*
X125871379Y-52992481D02*
X125871379Y-52921053D01*
X125871379Y-52921053D02*
X125918998Y-52813910D01*
X125918998Y-52813910D02*
X125966617Y-52778196D01*
X123371379Y-54885338D02*
X123371379Y-55242481D01*
X123371379Y-55242481D02*
X123847569Y-55278195D01*
X123847569Y-55278195D02*
X123799950Y-55242481D01*
X123799950Y-55242481D02*
X123752331Y-55171053D01*
X123752331Y-55171053D02*
X123752331Y-54992481D01*
X123752331Y-54992481D02*
X123799950Y-54921053D01*
X123799950Y-54921053D02*
X123847569Y-54885338D01*
X123847569Y-54885338D02*
X123942807Y-54849624D01*
X123942807Y-54849624D02*
X124180902Y-54849624D01*
X124180902Y-54849624D02*
X124276140Y-54885338D01*
X124276140Y-54885338D02*
X124323760Y-54921053D01*
X124323760Y-54921053D02*
X124371379Y-54992481D01*
X124371379Y-54992481D02*
X124371379Y-55171053D01*
X124371379Y-55171053D02*
X124323760Y-55242481D01*
X124323760Y-55242481D02*
X124276140Y-55278195D01*
X123371379Y-54635338D02*
X124371379Y-54385338D01*
X124371379Y-54385338D02*
X123371379Y-54135338D01*
X136871379Y-55242481D02*
X135871379Y-55242481D01*
X135871379Y-55242481D02*
X135871379Y-54956767D01*
X135871379Y-54956767D02*
X135918998Y-54885338D01*
X135918998Y-54885338D02*
X135966617Y-54849624D01*
X135966617Y-54849624D02*
X136061855Y-54813910D01*
X136061855Y-54813910D02*
X136204712Y-54813910D01*
X136204712Y-54813910D02*
X136299950Y-54849624D01*
X136299950Y-54849624D02*
X136347569Y-54885338D01*
X136347569Y-54885338D02*
X136395188Y-54956767D01*
X136395188Y-54956767D02*
X136395188Y-55242481D01*
X135871379Y-54563910D02*
X136871379Y-54385338D01*
X136871379Y-54385338D02*
X136157093Y-54242481D01*
X136157093Y-54242481D02*
X136871379Y-54099624D01*
X136871379Y-54099624D02*
X135871379Y-53921053D01*
X136871379Y-53635338D02*
X135871379Y-53635338D01*
X135871379Y-53635338D02*
X136585664Y-53385338D01*
X136585664Y-53385338D02*
X135871379Y-53135338D01*
X135871379Y-53135338D02*
X136871379Y-53135338D01*
X136871379Y-52385338D02*
X136871379Y-52813909D01*
X136871379Y-52599624D02*
X135871379Y-52599624D01*
X135871379Y-52599624D02*
X136014236Y-52671052D01*
X136014236Y-52671052D02*
X136109474Y-52742481D01*
X136109474Y-52742481D02*
X136157093Y-52813909D01*
X134371379Y-55242481D02*
X133371379Y-55242481D01*
X133371379Y-55242481D02*
X133371379Y-54956767D01*
X133371379Y-54956767D02*
X133418998Y-54885338D01*
X133418998Y-54885338D02*
X133466617Y-54849624D01*
X133466617Y-54849624D02*
X133561855Y-54813910D01*
X133561855Y-54813910D02*
X133704712Y-54813910D01*
X133704712Y-54813910D02*
X133799950Y-54849624D01*
X133799950Y-54849624D02*
X133847569Y-54885338D01*
X133847569Y-54885338D02*
X133895188Y-54956767D01*
X133895188Y-54956767D02*
X133895188Y-55242481D01*
X133371379Y-54563910D02*
X134371379Y-54385338D01*
X134371379Y-54385338D02*
X133657093Y-54242481D01*
X133657093Y-54242481D02*
X134371379Y-54099624D01*
X134371379Y-54099624D02*
X133371379Y-53921053D01*
X134371379Y-53635338D02*
X133371379Y-53635338D01*
X133371379Y-53635338D02*
X134085664Y-53385338D01*
X134085664Y-53385338D02*
X133371379Y-53135338D01*
X133371379Y-53135338D02*
X134371379Y-53135338D01*
X133466617Y-52813909D02*
X133418998Y-52778195D01*
X133418998Y-52778195D02*
X133371379Y-52706767D01*
X133371379Y-52706767D02*
X133371379Y-52528195D01*
X133371379Y-52528195D02*
X133418998Y-52456767D01*
X133418998Y-52456767D02*
X133466617Y-52421052D01*
X133466617Y-52421052D02*
X133561855Y-52385338D01*
X133561855Y-52385338D02*
X133657093Y-52385338D01*
X133657093Y-52385338D02*
X133799950Y-52421052D01*
X133799950Y-52421052D02*
X134371379Y-52849624D01*
X134371379Y-52849624D02*
X134371379Y-52385338D01*
X121871379Y-55242481D02*
X120871379Y-55242481D01*
X120871379Y-55242481D02*
X120871379Y-54956767D01*
X120871379Y-54956767D02*
X120918998Y-54885338D01*
X120918998Y-54885338D02*
X120966617Y-54849624D01*
X120966617Y-54849624D02*
X121061855Y-54813910D01*
X121061855Y-54813910D02*
X121204712Y-54813910D01*
X121204712Y-54813910D02*
X121299950Y-54849624D01*
X121299950Y-54849624D02*
X121347569Y-54885338D01*
X121347569Y-54885338D02*
X121395188Y-54956767D01*
X121395188Y-54956767D02*
X121395188Y-55242481D01*
X120871379Y-54563910D02*
X121871379Y-54385338D01*
X121871379Y-54385338D02*
X121157093Y-54242481D01*
X121157093Y-54242481D02*
X121871379Y-54099624D01*
X121871379Y-54099624D02*
X120871379Y-53921053D01*
X121871379Y-53635338D02*
X120871379Y-53635338D01*
X120871379Y-53635338D02*
X121585664Y-53385338D01*
X121585664Y-53385338D02*
X120871379Y-53135338D01*
X120871379Y-53135338D02*
X121871379Y-53135338D01*
X120871379Y-52849624D02*
X120871379Y-52385338D01*
X120871379Y-52385338D02*
X121252331Y-52635338D01*
X121252331Y-52635338D02*
X121252331Y-52528195D01*
X121252331Y-52528195D02*
X121299950Y-52456767D01*
X121299950Y-52456767D02*
X121347569Y-52421052D01*
X121347569Y-52421052D02*
X121442807Y-52385338D01*
X121442807Y-52385338D02*
X121680902Y-52385338D01*
X121680902Y-52385338D02*
X121776140Y-52421052D01*
X121776140Y-52421052D02*
X121823760Y-52456767D01*
X121823760Y-52456767D02*
X121871379Y-52528195D01*
X121871379Y-52528195D02*
X121871379Y-52742481D01*
X121871379Y-52742481D02*
X121823760Y-52813909D01*
X121823760Y-52813909D02*
X121776140Y-52849624D01*
X118871379Y-55242481D02*
X117871379Y-55242481D01*
X117871379Y-55242481D02*
X117871379Y-54956767D01*
X117871379Y-54956767D02*
X117918998Y-54885338D01*
X117918998Y-54885338D02*
X117966617Y-54849624D01*
X117966617Y-54849624D02*
X118061855Y-54813910D01*
X118061855Y-54813910D02*
X118204712Y-54813910D01*
X118204712Y-54813910D02*
X118299950Y-54849624D01*
X118299950Y-54849624D02*
X118347569Y-54885338D01*
X118347569Y-54885338D02*
X118395188Y-54956767D01*
X118395188Y-54956767D02*
X118395188Y-55242481D01*
X117871379Y-54563910D02*
X118871379Y-54385338D01*
X118871379Y-54385338D02*
X118157093Y-54242481D01*
X118157093Y-54242481D02*
X118871379Y-54099624D01*
X118871379Y-54099624D02*
X117871379Y-53921053D01*
X118871379Y-53635338D02*
X117871379Y-53635338D01*
X117871379Y-53635338D02*
X118585664Y-53385338D01*
X118585664Y-53385338D02*
X117871379Y-53135338D01*
X117871379Y-53135338D02*
X118871379Y-53135338D01*
X118204712Y-52456767D02*
X118871379Y-52456767D01*
X117823760Y-52635338D02*
X118538045Y-52813909D01*
X118538045Y-52813909D02*
X118538045Y-52349624D01*
D12*
X113333333Y-82562295D02*
X113333333Y-83133723D01*
X113333333Y-83133723D02*
X113295238Y-83248009D01*
X113295238Y-83248009D02*
X113219047Y-83324200D01*
X113219047Y-83324200D02*
X113104762Y-83362295D01*
X113104762Y-83362295D02*
X113028571Y-83362295D01*
X113714286Y-83362295D02*
X113714286Y-82562295D01*
X113714286Y-82562295D02*
X114019048Y-82562295D01*
X114019048Y-82562295D02*
X114095238Y-82600390D01*
X114095238Y-82600390D02*
X114133333Y-82638485D01*
X114133333Y-82638485D02*
X114171429Y-82714676D01*
X114171429Y-82714676D02*
X114171429Y-82828961D01*
X114171429Y-82828961D02*
X114133333Y-82905152D01*
X114133333Y-82905152D02*
X114095238Y-82943247D01*
X114095238Y-82943247D02*
X114019048Y-82981342D01*
X114019048Y-82981342D02*
X113714286Y-82981342D01*
X114438095Y-82562295D02*
X114933333Y-82562295D01*
X114933333Y-82562295D02*
X114666667Y-82867057D01*
X114666667Y-82867057D02*
X114780952Y-82867057D01*
X114780952Y-82867057D02*
X114857143Y-82905152D01*
X114857143Y-82905152D02*
X114895238Y-82943247D01*
X114895238Y-82943247D02*
X114933333Y-83019438D01*
X114933333Y-83019438D02*
X114933333Y-83209914D01*
X114933333Y-83209914D02*
X114895238Y-83286104D01*
X114895238Y-83286104D02*
X114857143Y-83324200D01*
X114857143Y-83324200D02*
X114780952Y-83362295D01*
X114780952Y-83362295D02*
X114552381Y-83362295D01*
X114552381Y-83362295D02*
X114476190Y-83324200D01*
X114476190Y-83324200D02*
X114438095Y-83286104D01*
X123833333Y-65562295D02*
X123833333Y-66133723D01*
X123833333Y-66133723D02*
X123795238Y-66248009D01*
X123795238Y-66248009D02*
X123719047Y-66324200D01*
X123719047Y-66324200D02*
X123604762Y-66362295D01*
X123604762Y-66362295D02*
X123528571Y-66362295D01*
X124214286Y-66362295D02*
X124214286Y-65562295D01*
X124214286Y-65562295D02*
X124519048Y-65562295D01*
X124519048Y-65562295D02*
X124595238Y-65600390D01*
X124595238Y-65600390D02*
X124633333Y-65638485D01*
X124633333Y-65638485D02*
X124671429Y-65714676D01*
X124671429Y-65714676D02*
X124671429Y-65828961D01*
X124671429Y-65828961D02*
X124633333Y-65905152D01*
X124633333Y-65905152D02*
X124595238Y-65943247D01*
X124595238Y-65943247D02*
X124519048Y-65981342D01*
X124519048Y-65981342D02*
X124214286Y-65981342D01*
X124976190Y-65638485D02*
X125014286Y-65600390D01*
X125014286Y-65600390D02*
X125090476Y-65562295D01*
X125090476Y-65562295D02*
X125280952Y-65562295D01*
X125280952Y-65562295D02*
X125357143Y-65600390D01*
X125357143Y-65600390D02*
X125395238Y-65638485D01*
X125395238Y-65638485D02*
X125433333Y-65714676D01*
X125433333Y-65714676D02*
X125433333Y-65790866D01*
X125433333Y-65790866D02*
X125395238Y-65905152D01*
X125395238Y-65905152D02*
X124938095Y-66362295D01*
X124938095Y-66362295D02*
X125433333Y-66362295D01*
X131062295Y-66666666D02*
X131633723Y-66666666D01*
X131633723Y-66666666D02*
X131748009Y-66704761D01*
X131748009Y-66704761D02*
X131824200Y-66780952D01*
X131824200Y-66780952D02*
X131862295Y-66895237D01*
X131862295Y-66895237D02*
X131862295Y-66971428D01*
X131862295Y-66285713D02*
X131062295Y-66285713D01*
X131062295Y-66285713D02*
X131062295Y-65980951D01*
X131062295Y-65980951D02*
X131100390Y-65904761D01*
X131100390Y-65904761D02*
X131138485Y-65866666D01*
X131138485Y-65866666D02*
X131214676Y-65828570D01*
X131214676Y-65828570D02*
X131328961Y-65828570D01*
X131328961Y-65828570D02*
X131405152Y-65866666D01*
X131405152Y-65866666D02*
X131443247Y-65904761D01*
X131443247Y-65904761D02*
X131481342Y-65980951D01*
X131481342Y-65980951D02*
X131481342Y-66285713D01*
X131862295Y-65066666D02*
X131862295Y-65523809D01*
X131862295Y-65295237D02*
X131062295Y-65295237D01*
X131062295Y-65295237D02*
X131176580Y-65371428D01*
X131176580Y-65371428D02*
X131252771Y-65447618D01*
X131252771Y-65447618D02*
X131290866Y-65523809D01*
X137634819Y-81236904D02*
X138444342Y-81236904D01*
X138444342Y-81236904D02*
X138539580Y-81189285D01*
X138539580Y-81189285D02*
X138587200Y-81141666D01*
X138587200Y-81141666D02*
X138634819Y-81046428D01*
X138634819Y-81046428D02*
X138634819Y-80855952D01*
X138634819Y-80855952D02*
X138587200Y-80760714D01*
X138587200Y-80760714D02*
X138539580Y-80713095D01*
X138539580Y-80713095D02*
X138444342Y-80665476D01*
X138444342Y-80665476D02*
X137634819Y-80665476D01*
X138634819Y-79665476D02*
X138634819Y-80236904D01*
X138634819Y-79951190D02*
X137634819Y-79951190D01*
X137634819Y-79951190D02*
X137777676Y-80046428D01*
X137777676Y-80046428D02*
X137872914Y-80141666D01*
X137872914Y-80141666D02*
X137920533Y-80236904D01*
X106954819Y-91261904D02*
X107764342Y-91261904D01*
X107764342Y-91261904D02*
X107859580Y-91214285D01*
X107859580Y-91214285D02*
X107907200Y-91166666D01*
X107907200Y-91166666D02*
X107954819Y-91071428D01*
X107954819Y-91071428D02*
X107954819Y-90880952D01*
X107954819Y-90880952D02*
X107907200Y-90785714D01*
X107907200Y-90785714D02*
X107859580Y-90738095D01*
X107859580Y-90738095D02*
X107764342Y-90690476D01*
X107764342Y-90690476D02*
X106954819Y-90690476D01*
X106954819Y-89738095D02*
X106954819Y-90214285D01*
X106954819Y-90214285D02*
X107431009Y-90261904D01*
X107431009Y-90261904D02*
X107383390Y-90214285D01*
X107383390Y-90214285D02*
X107335771Y-90119047D01*
X107335771Y-90119047D02*
X107335771Y-89880952D01*
X107335771Y-89880952D02*
X107383390Y-89785714D01*
X107383390Y-89785714D02*
X107431009Y-89738095D01*
X107431009Y-89738095D02*
X107526247Y-89690476D01*
X107526247Y-89690476D02*
X107764342Y-89690476D01*
X107764342Y-89690476D02*
X107859580Y-89738095D01*
X107859580Y-89738095D02*
X107907200Y-89785714D01*
X107907200Y-89785714D02*
X107954819Y-89880952D01*
X107954819Y-89880952D02*
X107954819Y-90119047D01*
X107954819Y-90119047D02*
X107907200Y-90214285D01*
X107907200Y-90214285D02*
X107859580Y-90261904D01*
X125859580Y-86166666D02*
X125907200Y-86214285D01*
X125907200Y-86214285D02*
X125954819Y-86357142D01*
X125954819Y-86357142D02*
X125954819Y-86452380D01*
X125954819Y-86452380D02*
X125907200Y-86595237D01*
X125907200Y-86595237D02*
X125811961Y-86690475D01*
X125811961Y-86690475D02*
X125716723Y-86738094D01*
X125716723Y-86738094D02*
X125526247Y-86785713D01*
X125526247Y-86785713D02*
X125383390Y-86785713D01*
X125383390Y-86785713D02*
X125192914Y-86738094D01*
X125192914Y-86738094D02*
X125097676Y-86690475D01*
X125097676Y-86690475D02*
X125002438Y-86595237D01*
X125002438Y-86595237D02*
X124954819Y-86452380D01*
X124954819Y-86452380D02*
X124954819Y-86357142D01*
X124954819Y-86357142D02*
X125002438Y-86214285D01*
X125002438Y-86214285D02*
X125050057Y-86166666D01*
X125954819Y-85214285D02*
X125954819Y-85785713D01*
X125954819Y-85499999D02*
X124954819Y-85499999D01*
X124954819Y-85499999D02*
X125097676Y-85595237D01*
X125097676Y-85595237D02*
X125192914Y-85690475D01*
X125192914Y-85690475D02*
X125240533Y-85785713D01*
X132597080Y-89656666D02*
X132644700Y-89704285D01*
X132644700Y-89704285D02*
X132692319Y-89847142D01*
X132692319Y-89847142D02*
X132692319Y-89942380D01*
X132692319Y-89942380D02*
X132644700Y-90085237D01*
X132644700Y-90085237D02*
X132549461Y-90180475D01*
X132549461Y-90180475D02*
X132454223Y-90228094D01*
X132454223Y-90228094D02*
X132263747Y-90275713D01*
X132263747Y-90275713D02*
X132120890Y-90275713D01*
X132120890Y-90275713D02*
X131930414Y-90228094D01*
X131930414Y-90228094D02*
X131835176Y-90180475D01*
X131835176Y-90180475D02*
X131739938Y-90085237D01*
X131739938Y-90085237D02*
X131692319Y-89942380D01*
X131692319Y-89942380D02*
X131692319Y-89847142D01*
X131692319Y-89847142D02*
X131739938Y-89704285D01*
X131739938Y-89704285D02*
X131787557Y-89656666D01*
X131787557Y-89275713D02*
X131739938Y-89228094D01*
X131739938Y-89228094D02*
X131692319Y-89132856D01*
X131692319Y-89132856D02*
X131692319Y-88894761D01*
X131692319Y-88894761D02*
X131739938Y-88799523D01*
X131739938Y-88799523D02*
X131787557Y-88751904D01*
X131787557Y-88751904D02*
X131882795Y-88704285D01*
X131882795Y-88704285D02*
X131978033Y-88704285D01*
X131978033Y-88704285D02*
X132120890Y-88751904D01*
X132120890Y-88751904D02*
X132692319Y-89323332D01*
X132692319Y-89323332D02*
X132692319Y-88704285D01*
X121859580Y-90666666D02*
X121907200Y-90714285D01*
X121907200Y-90714285D02*
X121954819Y-90857142D01*
X121954819Y-90857142D02*
X121954819Y-90952380D01*
X121954819Y-90952380D02*
X121907200Y-91095237D01*
X121907200Y-91095237D02*
X121811961Y-91190475D01*
X121811961Y-91190475D02*
X121716723Y-91238094D01*
X121716723Y-91238094D02*
X121526247Y-91285713D01*
X121526247Y-91285713D02*
X121383390Y-91285713D01*
X121383390Y-91285713D02*
X121192914Y-91238094D01*
X121192914Y-91238094D02*
X121097676Y-91190475D01*
X121097676Y-91190475D02*
X121002438Y-91095237D01*
X121002438Y-91095237D02*
X120954819Y-90952380D01*
X120954819Y-90952380D02*
X120954819Y-90857142D01*
X120954819Y-90857142D02*
X121002438Y-90714285D01*
X121002438Y-90714285D02*
X121050057Y-90666666D01*
X121288152Y-89809523D02*
X121954819Y-89809523D01*
X120907200Y-90047618D02*
X121621485Y-90285713D01*
X121621485Y-90285713D02*
X121621485Y-89666666D01*
X147062295Y-92509523D02*
X147062295Y-92052380D01*
X147862295Y-92280952D02*
X147062295Y-92280952D01*
X147862295Y-91785713D02*
X147062295Y-91785713D01*
X147062295Y-91785713D02*
X147062295Y-91480951D01*
X147062295Y-91480951D02*
X147100390Y-91404761D01*
X147100390Y-91404761D02*
X147138485Y-91366666D01*
X147138485Y-91366666D02*
X147214676Y-91328570D01*
X147214676Y-91328570D02*
X147328961Y-91328570D01*
X147328961Y-91328570D02*
X147405152Y-91366666D01*
X147405152Y-91366666D02*
X147443247Y-91404761D01*
X147443247Y-91404761D02*
X147481342Y-91480951D01*
X147481342Y-91480951D02*
X147481342Y-91785713D01*
X147062295Y-91061904D02*
X147062295Y-90566666D01*
X147062295Y-90566666D02*
X147367057Y-90833332D01*
X147367057Y-90833332D02*
X147367057Y-90719047D01*
X147367057Y-90719047D02*
X147405152Y-90642856D01*
X147405152Y-90642856D02*
X147443247Y-90604761D01*
X147443247Y-90604761D02*
X147519438Y-90566666D01*
X147519438Y-90566666D02*
X147709914Y-90566666D01*
X147709914Y-90566666D02*
X147786104Y-90604761D01*
X147786104Y-90604761D02*
X147824200Y-90642856D01*
X147824200Y-90642856D02*
X147862295Y-90719047D01*
X147862295Y-90719047D02*
X147862295Y-90947618D01*
X147862295Y-90947618D02*
X147824200Y-91023809D01*
X147824200Y-91023809D02*
X147786104Y-91061904D01*
X132454819Y-69491666D02*
X131978628Y-69824999D01*
X132454819Y-70063094D02*
X131454819Y-70063094D01*
X131454819Y-70063094D02*
X131454819Y-69682142D01*
X131454819Y-69682142D02*
X131502438Y-69586904D01*
X131502438Y-69586904D02*
X131550057Y-69539285D01*
X131550057Y-69539285D02*
X131645295Y-69491666D01*
X131645295Y-69491666D02*
X131788152Y-69491666D01*
X131788152Y-69491666D02*
X131883390Y-69539285D01*
X131883390Y-69539285D02*
X131931009Y-69586904D01*
X131931009Y-69586904D02*
X131978628Y-69682142D01*
X131978628Y-69682142D02*
X131978628Y-70063094D01*
X131454819Y-69158332D02*
X131454819Y-68539285D01*
X131454819Y-68539285D02*
X131835771Y-68872618D01*
X131835771Y-68872618D02*
X131835771Y-68729761D01*
X131835771Y-68729761D02*
X131883390Y-68634523D01*
X131883390Y-68634523D02*
X131931009Y-68586904D01*
X131931009Y-68586904D02*
X132026247Y-68539285D01*
X132026247Y-68539285D02*
X132264342Y-68539285D01*
X132264342Y-68539285D02*
X132359580Y-68586904D01*
X132359580Y-68586904D02*
X132407200Y-68634523D01*
X132407200Y-68634523D02*
X132454819Y-68729761D01*
X132454819Y-68729761D02*
X132454819Y-69015475D01*
X132454819Y-69015475D02*
X132407200Y-69110713D01*
X132407200Y-69110713D02*
X132359580Y-69158332D01*
X147333333Y-86954819D02*
X147000000Y-86478628D01*
X146761905Y-86954819D02*
X146761905Y-85954819D01*
X146761905Y-85954819D02*
X147142857Y-85954819D01*
X147142857Y-85954819D02*
X147238095Y-86002438D01*
X147238095Y-86002438D02*
X147285714Y-86050057D01*
X147285714Y-86050057D02*
X147333333Y-86145295D01*
X147333333Y-86145295D02*
X147333333Y-86288152D01*
X147333333Y-86288152D02*
X147285714Y-86383390D01*
X147285714Y-86383390D02*
X147238095Y-86431009D01*
X147238095Y-86431009D02*
X147142857Y-86478628D01*
X147142857Y-86478628D02*
X146761905Y-86478628D01*
X148285714Y-86954819D02*
X147714286Y-86954819D01*
X148000000Y-86954819D02*
X148000000Y-85954819D01*
X148000000Y-85954819D02*
X147904762Y-86097676D01*
X147904762Y-86097676D02*
X147809524Y-86192914D01*
X147809524Y-86192914D02*
X147714286Y-86240533D01*
X132952319Y-80026904D02*
X133761842Y-80026904D01*
X133761842Y-80026904D02*
X133857080Y-79979285D01*
X133857080Y-79979285D02*
X133904700Y-79931666D01*
X133904700Y-79931666D02*
X133952319Y-79836428D01*
X133952319Y-79836428D02*
X133952319Y-79645952D01*
X133952319Y-79645952D02*
X133904700Y-79550714D01*
X133904700Y-79550714D02*
X133857080Y-79503095D01*
X133857080Y-79503095D02*
X133761842Y-79455476D01*
X133761842Y-79455476D02*
X132952319Y-79455476D01*
X133047557Y-79026904D02*
X132999938Y-78979285D01*
X132999938Y-78979285D02*
X132952319Y-78884047D01*
X132952319Y-78884047D02*
X132952319Y-78645952D01*
X132952319Y-78645952D02*
X132999938Y-78550714D01*
X132999938Y-78550714D02*
X133047557Y-78503095D01*
X133047557Y-78503095D02*
X133142795Y-78455476D01*
X133142795Y-78455476D02*
X133238033Y-78455476D01*
X133238033Y-78455476D02*
X133380890Y-78503095D01*
X133380890Y-78503095D02*
X133952319Y-79074523D01*
X133952319Y-79074523D02*
X133952319Y-78455476D01*
X113738095Y-84454819D02*
X113738095Y-85264342D01*
X113738095Y-85264342D02*
X113785714Y-85359580D01*
X113785714Y-85359580D02*
X113833333Y-85407200D01*
X113833333Y-85407200D02*
X113928571Y-85454819D01*
X113928571Y-85454819D02*
X114119047Y-85454819D01*
X114119047Y-85454819D02*
X114214285Y-85407200D01*
X114214285Y-85407200D02*
X114261904Y-85359580D01*
X114261904Y-85359580D02*
X114309523Y-85264342D01*
X114309523Y-85264342D02*
X114309523Y-84454819D01*
X114690476Y-84454819D02*
X115309523Y-84454819D01*
X115309523Y-84454819D02*
X114976190Y-84835771D01*
X114976190Y-84835771D02*
X115119047Y-84835771D01*
X115119047Y-84835771D02*
X115214285Y-84883390D01*
X115214285Y-84883390D02*
X115261904Y-84931009D01*
X115261904Y-84931009D02*
X115309523Y-85026247D01*
X115309523Y-85026247D02*
X115309523Y-85264342D01*
X115309523Y-85264342D02*
X115261904Y-85359580D01*
X115261904Y-85359580D02*
X115214285Y-85407200D01*
X115214285Y-85407200D02*
X115119047Y-85454819D01*
X115119047Y-85454819D02*
X114833333Y-85454819D01*
X114833333Y-85454819D02*
X114738095Y-85407200D01*
X114738095Y-85407200D02*
X114690476Y-85359580D01*
X130597080Y-89656666D02*
X130644700Y-89704285D01*
X130644700Y-89704285D02*
X130692319Y-89847142D01*
X130692319Y-89847142D02*
X130692319Y-89942380D01*
X130692319Y-89942380D02*
X130644700Y-90085237D01*
X130644700Y-90085237D02*
X130549461Y-90180475D01*
X130549461Y-90180475D02*
X130454223Y-90228094D01*
X130454223Y-90228094D02*
X130263747Y-90275713D01*
X130263747Y-90275713D02*
X130120890Y-90275713D01*
X130120890Y-90275713D02*
X129930414Y-90228094D01*
X129930414Y-90228094D02*
X129835176Y-90180475D01*
X129835176Y-90180475D02*
X129739938Y-90085237D01*
X129739938Y-90085237D02*
X129692319Y-89942380D01*
X129692319Y-89942380D02*
X129692319Y-89847142D01*
X129692319Y-89847142D02*
X129739938Y-89704285D01*
X129739938Y-89704285D02*
X129787557Y-89656666D01*
X129692319Y-89323332D02*
X129692319Y-88704285D01*
X129692319Y-88704285D02*
X130073271Y-89037618D01*
X130073271Y-89037618D02*
X130073271Y-88894761D01*
X130073271Y-88894761D02*
X130120890Y-88799523D01*
X130120890Y-88799523D02*
X130168509Y-88751904D01*
X130168509Y-88751904D02*
X130263747Y-88704285D01*
X130263747Y-88704285D02*
X130501842Y-88704285D01*
X130501842Y-88704285D02*
X130597080Y-88751904D01*
X130597080Y-88751904D02*
X130644700Y-88799523D01*
X130644700Y-88799523D02*
X130692319Y-88894761D01*
X130692319Y-88894761D02*
X130692319Y-89180475D01*
X130692319Y-89180475D02*
X130644700Y-89275713D01*
X130644700Y-89275713D02*
X130597080Y-89323332D01*
X116954819Y-73503094D02*
X115954819Y-73503094D01*
X115954819Y-73503094D02*
X115954819Y-73264999D01*
X115954819Y-73264999D02*
X116002438Y-73122142D01*
X116002438Y-73122142D02*
X116097676Y-73026904D01*
X116097676Y-73026904D02*
X116192914Y-72979285D01*
X116192914Y-72979285D02*
X116383390Y-72931666D01*
X116383390Y-72931666D02*
X116526247Y-72931666D01*
X116526247Y-72931666D02*
X116716723Y-72979285D01*
X116716723Y-72979285D02*
X116811961Y-73026904D01*
X116811961Y-73026904D02*
X116907200Y-73122142D01*
X116907200Y-73122142D02*
X116954819Y-73264999D01*
X116954819Y-73264999D02*
X116954819Y-73503094D01*
X116954819Y-71979285D02*
X116954819Y-72550713D01*
X116954819Y-72264999D02*
X115954819Y-72264999D01*
X115954819Y-72264999D02*
X116097676Y-72360237D01*
X116097676Y-72360237D02*
X116192914Y-72455475D01*
X116192914Y-72455475D02*
X116240533Y-72550713D01*
X143454819Y-74833333D02*
X144169104Y-74833333D01*
X144169104Y-74833333D02*
X144311961Y-74880952D01*
X144311961Y-74880952D02*
X144407200Y-74976190D01*
X144407200Y-74976190D02*
X144454819Y-75119047D01*
X144454819Y-75119047D02*
X144454819Y-75214285D01*
X143550057Y-74404761D02*
X143502438Y-74357142D01*
X143502438Y-74357142D02*
X143454819Y-74261904D01*
X143454819Y-74261904D02*
X143454819Y-74023809D01*
X143454819Y-74023809D02*
X143502438Y-73928571D01*
X143502438Y-73928571D02*
X143550057Y-73880952D01*
X143550057Y-73880952D02*
X143645295Y-73833333D01*
X143645295Y-73833333D02*
X143740533Y-73833333D01*
X143740533Y-73833333D02*
X143883390Y-73880952D01*
X143883390Y-73880952D02*
X144454819Y-74452380D01*
X144454819Y-74452380D02*
X144454819Y-73833333D01*
X117954819Y-76491666D02*
X117478628Y-76824999D01*
X117954819Y-77063094D02*
X116954819Y-77063094D01*
X116954819Y-77063094D02*
X116954819Y-76682142D01*
X116954819Y-76682142D02*
X117002438Y-76586904D01*
X117002438Y-76586904D02*
X117050057Y-76539285D01*
X117050057Y-76539285D02*
X117145295Y-76491666D01*
X117145295Y-76491666D02*
X117288152Y-76491666D01*
X117288152Y-76491666D02*
X117383390Y-76539285D01*
X117383390Y-76539285D02*
X117431009Y-76586904D01*
X117431009Y-76586904D02*
X117478628Y-76682142D01*
X117478628Y-76682142D02*
X117478628Y-77063094D01*
X116954819Y-75586904D02*
X116954819Y-76063094D01*
X116954819Y-76063094D02*
X117431009Y-76110713D01*
X117431009Y-76110713D02*
X117383390Y-76063094D01*
X117383390Y-76063094D02*
X117335771Y-75967856D01*
X117335771Y-75967856D02*
X117335771Y-75729761D01*
X117335771Y-75729761D02*
X117383390Y-75634523D01*
X117383390Y-75634523D02*
X117431009Y-75586904D01*
X117431009Y-75586904D02*
X117526247Y-75539285D01*
X117526247Y-75539285D02*
X117764342Y-75539285D01*
X117764342Y-75539285D02*
X117859580Y-75586904D01*
X117859580Y-75586904D02*
X117907200Y-75634523D01*
X117907200Y-75634523D02*
X117954819Y-75729761D01*
X117954819Y-75729761D02*
X117954819Y-75967856D01*
X117954819Y-75967856D02*
X117907200Y-76063094D01*
X117907200Y-76063094D02*
X117859580Y-76110713D01*
X118454819Y-90666666D02*
X117978628Y-90999999D01*
X118454819Y-91238094D02*
X117454819Y-91238094D01*
X117454819Y-91238094D02*
X117454819Y-90857142D01*
X117454819Y-90857142D02*
X117502438Y-90761904D01*
X117502438Y-90761904D02*
X117550057Y-90714285D01*
X117550057Y-90714285D02*
X117645295Y-90666666D01*
X117645295Y-90666666D02*
X117788152Y-90666666D01*
X117788152Y-90666666D02*
X117883390Y-90714285D01*
X117883390Y-90714285D02*
X117931009Y-90761904D01*
X117931009Y-90761904D02*
X117978628Y-90857142D01*
X117978628Y-90857142D02*
X117978628Y-91238094D01*
X117454819Y-90333332D02*
X117454819Y-89666666D01*
X117454819Y-89666666D02*
X118454819Y-90095237D01*
X114024819Y-73503094D02*
X113024819Y-73503094D01*
X113024819Y-73503094D02*
X113024819Y-73264999D01*
X113024819Y-73264999D02*
X113072438Y-73122142D01*
X113072438Y-73122142D02*
X113167676Y-73026904D01*
X113167676Y-73026904D02*
X113262914Y-72979285D01*
X113262914Y-72979285D02*
X113453390Y-72931666D01*
X113453390Y-72931666D02*
X113596247Y-72931666D01*
X113596247Y-72931666D02*
X113786723Y-72979285D01*
X113786723Y-72979285D02*
X113881961Y-73026904D01*
X113881961Y-73026904D02*
X113977200Y-73122142D01*
X113977200Y-73122142D02*
X114024819Y-73264999D01*
X114024819Y-73264999D02*
X114024819Y-73503094D01*
X113120057Y-72550713D02*
X113072438Y-72503094D01*
X113072438Y-72503094D02*
X113024819Y-72407856D01*
X113024819Y-72407856D02*
X113024819Y-72169761D01*
X113024819Y-72169761D02*
X113072438Y-72074523D01*
X113072438Y-72074523D02*
X113120057Y-72026904D01*
X113120057Y-72026904D02*
X113215295Y-71979285D01*
X113215295Y-71979285D02*
X113310533Y-71979285D01*
X113310533Y-71979285D02*
X113453390Y-72026904D01*
X113453390Y-72026904D02*
X114024819Y-72598332D01*
X114024819Y-72598332D02*
X114024819Y-71979285D01*
X114454819Y-75491666D02*
X113978628Y-75824999D01*
X114454819Y-76063094D02*
X113454819Y-76063094D01*
X113454819Y-76063094D02*
X113454819Y-75682142D01*
X113454819Y-75682142D02*
X113502438Y-75586904D01*
X113502438Y-75586904D02*
X113550057Y-75539285D01*
X113550057Y-75539285D02*
X113645295Y-75491666D01*
X113645295Y-75491666D02*
X113788152Y-75491666D01*
X113788152Y-75491666D02*
X113883390Y-75539285D01*
X113883390Y-75539285D02*
X113931009Y-75586904D01*
X113931009Y-75586904D02*
X113978628Y-75682142D01*
X113978628Y-75682142D02*
X113978628Y-76063094D01*
X113454819Y-74634523D02*
X113454819Y-74824999D01*
X113454819Y-74824999D02*
X113502438Y-74920237D01*
X113502438Y-74920237D02*
X113550057Y-74967856D01*
X113550057Y-74967856D02*
X113692914Y-75063094D01*
X113692914Y-75063094D02*
X113883390Y-75110713D01*
X113883390Y-75110713D02*
X114264342Y-75110713D01*
X114264342Y-75110713D02*
X114359580Y-75063094D01*
X114359580Y-75063094D02*
X114407200Y-75015475D01*
X114407200Y-75015475D02*
X114454819Y-74920237D01*
X114454819Y-74920237D02*
X114454819Y-74729761D01*
X114454819Y-74729761D02*
X114407200Y-74634523D01*
X114407200Y-74634523D02*
X114359580Y-74586904D01*
X114359580Y-74586904D02*
X114264342Y-74539285D01*
X114264342Y-74539285D02*
X114026247Y-74539285D01*
X114026247Y-74539285D02*
X113931009Y-74586904D01*
X113931009Y-74586904D02*
X113883390Y-74634523D01*
X113883390Y-74634523D02*
X113835771Y-74729761D01*
X113835771Y-74729761D02*
X113835771Y-74920237D01*
X113835771Y-74920237D02*
X113883390Y-75015475D01*
X113883390Y-75015475D02*
X113931009Y-75063094D01*
X113931009Y-75063094D02*
X114026247Y-75110713D01*
X136490476Y-88562295D02*
X136947619Y-88562295D01*
X136719047Y-89362295D02*
X136719047Y-88562295D01*
X137214286Y-89362295D02*
X137214286Y-88562295D01*
X137214286Y-88562295D02*
X137519048Y-88562295D01*
X137519048Y-88562295D02*
X137595238Y-88600390D01*
X137595238Y-88600390D02*
X137633333Y-88638485D01*
X137633333Y-88638485D02*
X137671429Y-88714676D01*
X137671429Y-88714676D02*
X137671429Y-88828961D01*
X137671429Y-88828961D02*
X137633333Y-88905152D01*
X137633333Y-88905152D02*
X137595238Y-88943247D01*
X137595238Y-88943247D02*
X137519048Y-88981342D01*
X137519048Y-88981342D02*
X137214286Y-88981342D01*
X138433333Y-89362295D02*
X137976190Y-89362295D01*
X138204762Y-89362295D02*
X138204762Y-88562295D01*
X138204762Y-88562295D02*
X138128571Y-88676580D01*
X138128571Y-88676580D02*
X138052381Y-88752771D01*
X138052381Y-88752771D02*
X137976190Y-88790866D01*
X140454819Y-88166666D02*
X139978628Y-88499999D01*
X140454819Y-88738094D02*
X139454819Y-88738094D01*
X139454819Y-88738094D02*
X139454819Y-88357142D01*
X139454819Y-88357142D02*
X139502438Y-88261904D01*
X139502438Y-88261904D02*
X139550057Y-88214285D01*
X139550057Y-88214285D02*
X139645295Y-88166666D01*
X139645295Y-88166666D02*
X139788152Y-88166666D01*
X139788152Y-88166666D02*
X139883390Y-88214285D01*
X139883390Y-88214285D02*
X139931009Y-88261904D01*
X139931009Y-88261904D02*
X139978628Y-88357142D01*
X139978628Y-88357142D02*
X139978628Y-88738094D01*
X139550057Y-87785713D02*
X139502438Y-87738094D01*
X139502438Y-87738094D02*
X139454819Y-87642856D01*
X139454819Y-87642856D02*
X139454819Y-87404761D01*
X139454819Y-87404761D02*
X139502438Y-87309523D01*
X139502438Y-87309523D02*
X139550057Y-87261904D01*
X139550057Y-87261904D02*
X139645295Y-87214285D01*
X139645295Y-87214285D02*
X139740533Y-87214285D01*
X139740533Y-87214285D02*
X139883390Y-87261904D01*
X139883390Y-87261904D02*
X140454819Y-87833332D01*
X140454819Y-87833332D02*
X140454819Y-87214285D01*
X120859580Y-76126666D02*
X120907200Y-76174285D01*
X120907200Y-76174285D02*
X120954819Y-76317142D01*
X120954819Y-76317142D02*
X120954819Y-76412380D01*
X120954819Y-76412380D02*
X120907200Y-76555237D01*
X120907200Y-76555237D02*
X120811961Y-76650475D01*
X120811961Y-76650475D02*
X120716723Y-76698094D01*
X120716723Y-76698094D02*
X120526247Y-76745713D01*
X120526247Y-76745713D02*
X120383390Y-76745713D01*
X120383390Y-76745713D02*
X120192914Y-76698094D01*
X120192914Y-76698094D02*
X120097676Y-76650475D01*
X120097676Y-76650475D02*
X120002438Y-76555237D01*
X120002438Y-76555237D02*
X119954819Y-76412380D01*
X119954819Y-76412380D02*
X119954819Y-76317142D01*
X119954819Y-76317142D02*
X120002438Y-76174285D01*
X120002438Y-76174285D02*
X120050057Y-76126666D01*
X119954819Y-75221904D02*
X119954819Y-75698094D01*
X119954819Y-75698094D02*
X120431009Y-75745713D01*
X120431009Y-75745713D02*
X120383390Y-75698094D01*
X120383390Y-75698094D02*
X120335771Y-75602856D01*
X120335771Y-75602856D02*
X120335771Y-75364761D01*
X120335771Y-75364761D02*
X120383390Y-75269523D01*
X120383390Y-75269523D02*
X120431009Y-75221904D01*
X120431009Y-75221904D02*
X120526247Y-75174285D01*
X120526247Y-75174285D02*
X120764342Y-75174285D01*
X120764342Y-75174285D02*
X120859580Y-75221904D01*
X120859580Y-75221904D02*
X120907200Y-75269523D01*
X120907200Y-75269523D02*
X120954819Y-75364761D01*
X120954819Y-75364761D02*
X120954819Y-75602856D01*
X120954819Y-75602856D02*
X120907200Y-75698094D01*
X120907200Y-75698094D02*
X120859580Y-75745713D01*
X128954819Y-69341666D02*
X128478628Y-69674999D01*
X128954819Y-69913094D02*
X127954819Y-69913094D01*
X127954819Y-69913094D02*
X127954819Y-69532142D01*
X127954819Y-69532142D02*
X128002438Y-69436904D01*
X128002438Y-69436904D02*
X128050057Y-69389285D01*
X128050057Y-69389285D02*
X128145295Y-69341666D01*
X128145295Y-69341666D02*
X128288152Y-69341666D01*
X128288152Y-69341666D02*
X128383390Y-69389285D01*
X128383390Y-69389285D02*
X128431009Y-69436904D01*
X128431009Y-69436904D02*
X128478628Y-69532142D01*
X128478628Y-69532142D02*
X128478628Y-69913094D01*
X128288152Y-68484523D02*
X128954819Y-68484523D01*
X127907200Y-68722618D02*
X128621485Y-68960713D01*
X128621485Y-68960713D02*
X128621485Y-68341666D01*
X139454819Y-58666666D02*
X140169104Y-58666666D01*
X140169104Y-58666666D02*
X140311961Y-58619047D01*
X140311961Y-58619047D02*
X140407200Y-58523809D01*
X140407200Y-58523809D02*
X140454819Y-58380952D01*
X140454819Y-58380952D02*
X140454819Y-58285714D01*
X140454819Y-59666666D02*
X140454819Y-59095238D01*
X140454819Y-59380952D02*
X139454819Y-59380952D01*
X139454819Y-59380952D02*
X139597676Y-59285714D01*
X139597676Y-59285714D02*
X139692914Y-59190476D01*
X139692914Y-59190476D02*
X139740533Y-59095238D01*
D11*
%TO.C,JP3*%
X114300000Y-79250000D02*
G75*
G02*
X115000000Y-79950000I0J-700000D01*
G01*
X113000000Y-79950000D02*
G75*
G02*
X113700000Y-79250000I700000J0D01*
G01*
X115000000Y-81350000D02*
G75*
G02*
X114300000Y-82050000I-699999J-1D01*
G01*
X113700000Y-82050000D02*
G75*
G02*
X113000000Y-81350000I-1J699999D01*
G01*
X113700000Y-79250000D02*
X114300000Y-79250000D01*
X115000000Y-79950000D02*
X115000000Y-81350000D01*
X113000000Y-81350000D02*
X113000000Y-79950000D01*
X114300000Y-82050000D02*
X113700000Y-82050000D01*
%TO.C,JP2*%
X122300000Y-64750000D02*
G75*
G02*
X123000000Y-65450000I0J-700000D01*
G01*
X121000000Y-65450000D02*
G75*
G02*
X121700000Y-64750000I700000J0D01*
G01*
X123000000Y-66850000D02*
G75*
G02*
X122300000Y-67550000I-699999J-1D01*
G01*
X121700000Y-67550000D02*
G75*
G02*
X121000000Y-66850000I-1J699999D01*
G01*
X121700000Y-64750000D02*
X122300000Y-64750000D01*
X123000000Y-65450000D02*
X123000000Y-66850000D01*
X121000000Y-66850000D02*
X121000000Y-65450000D01*
X122300000Y-67550000D02*
X121700000Y-67550000D01*
%TO.C,JP1*%
X133800000Y-64600000D02*
G75*
G02*
X134500000Y-65300000I0J-700000D01*
G01*
X132500000Y-65300000D02*
G75*
G02*
X133200000Y-64600000I700000J0D01*
G01*
X134500000Y-66700000D02*
G75*
G02*
X133800000Y-67400000I-699999J-1D01*
G01*
X133200000Y-67400000D02*
G75*
G02*
X132500000Y-66700000I-1J699999D01*
G01*
X133200000Y-64600000D02*
X133800000Y-64600000D01*
X134500000Y-65300000D02*
X134500000Y-66700000D01*
X132500000Y-66700000D02*
X132500000Y-65300000D01*
X133800000Y-67400000D02*
X133200000Y-67400000D01*
%TO.C,U1*%
X139025000Y-80475000D02*
X139025000Y-82425000D01*
X139025000Y-80475000D02*
X139025000Y-78525000D01*
X147895000Y-80475000D02*
X147895000Y-82425000D01*
X147895000Y-80475000D02*
X147895000Y-78525000D01*
X139090000Y-83175000D02*
X138760000Y-83415000D01*
X138760000Y-82935000D01*
X139090000Y-83175000D01*
G36*
X139090000Y-83175000D02*
G01*
X138760000Y-83415000D01*
X138760000Y-82935000D01*
X139090000Y-83175000D01*
G37*
D13*
%TO.C,U5*%
X101679832Y-72699898D02*
G75*
G02*
X101619888Y-72699898I-29972J0D01*
G01*
X101619888Y-72699898D02*
G75*
G02*
X101679832Y-72699898I29972J0D01*
G01*
D14*
X106243358Y-88300025D02*
X105200330Y-88300025D01*
X109800000Y-88300025D02*
X108756642Y-88300025D01*
X104650318Y-86600000D02*
X105200330Y-86599975D01*
X104650318Y-86600000D02*
X104650318Y-74400000D01*
X110350013Y-86600000D02*
X109800000Y-86599975D01*
X105200330Y-86599975D02*
X105200330Y-88300025D01*
X109800000Y-86599975D02*
X109800000Y-88300025D01*
X105200330Y-74400025D02*
X105200330Y-72699975D01*
X109800000Y-74400025D02*
X109800000Y-72699975D01*
X104650318Y-74400000D02*
X105200330Y-74400025D01*
X110350013Y-74400000D02*
X110350013Y-86600000D01*
X110350013Y-74400000D02*
X109800000Y-74400025D01*
X106243358Y-72699975D02*
X105200330Y-72699975D01*
X109800000Y-72699975D02*
X108756642Y-72699975D01*
D11*
%TO.C,C1*%
X127464420Y-86540000D02*
X127745580Y-86540000D01*
X127464420Y-85520000D02*
X127745580Y-85520000D01*
%TO.C,C2*%
X132747500Y-86349420D02*
X132747500Y-86630580D01*
X131727500Y-86349420D02*
X131727500Y-86630580D01*
%TO.C,C4*%
X122010000Y-87859420D02*
X122010000Y-88140580D01*
X120990000Y-87859420D02*
X120990000Y-88140580D01*
%TO.C,TP3*%
X146200000Y-92200000D02*
X144800000Y-92200000D01*
X146200000Y-90800000D02*
X146200000Y-92200000D01*
X144800000Y-92200000D02*
X144800000Y-90800000D01*
X144800000Y-90800000D02*
X146200000Y-90800000D01*
%TO.C,R3*%
X132522500Y-71762742D02*
X132522500Y-72237258D01*
X131477500Y-71762742D02*
X131477500Y-72237258D01*
%TO.C,R1*%
X145197258Y-85952500D02*
X144722742Y-85952500D01*
X145197258Y-86997500D02*
X144722742Y-86997500D01*
%TO.C,U2*%
X132222500Y-75715000D02*
X131982500Y-75385000D01*
X132462500Y-75385000D01*
X132222500Y-75715000D01*
G36*
X132222500Y-75715000D02*
G01*
X131982500Y-75385000D01*
X132462500Y-75385000D01*
X132222500Y-75715000D01*
G37*
D12*
X127222500Y-77015000D02*
X127222500Y-81515000D01*
X132672500Y-77015000D02*
X132672500Y-81515000D01*
D13*
%TO.C,U3*%
X116575819Y-85449962D02*
G75*
G02*
X116515875Y-85449962I-29972J0D01*
G01*
X116515875Y-85449962D02*
G75*
G02*
X116575819Y-85449962I29972J0D01*
G01*
D14*
X116140208Y-85000127D02*
G75*
G02*
X115799848Y-85000127I-170180J0D01*
G01*
X115799848Y-85000127D02*
G75*
G02*
X116140208Y-85000127I170180J0D01*
G01*
X116500127Y-81699899D02*
G75*
G02*
X116500127Y-83300101I-375289J-800101D01*
G01*
X121549911Y-84550038D02*
X116449835Y-84550038D01*
X121549911Y-80449962D02*
X121549911Y-84550038D01*
X116450089Y-83300102D02*
X116450089Y-84550038D01*
X116450089Y-81699898D02*
X116450089Y-80449962D01*
X116450089Y-80449962D02*
X121550165Y-80449962D01*
D11*
%TO.C,C3*%
X130747500Y-86630580D02*
X130747500Y-86349420D01*
X129727500Y-86630580D02*
X129727500Y-86349420D01*
%TO.C,D1*%
X117265000Y-71177500D02*
X117265000Y-73462500D01*
X117265000Y-73462500D02*
X118735000Y-73462500D01*
X118735000Y-73462500D02*
X118735000Y-71177500D01*
%TO.C,J2*%
X145340000Y-74110000D02*
X145340000Y-75360000D01*
X145340000Y-75360000D02*
X146590000Y-75360000D01*
X145440000Y-73300000D02*
X145440000Y-73600000D01*
X145440000Y-73600000D02*
X145640000Y-73600000D01*
X145540000Y-73300000D02*
X145540000Y-73600000D01*
X145640000Y-68940000D02*
X145640000Y-75060000D01*
X145640000Y-72500000D02*
X146250000Y-72500000D01*
X145640000Y-73300000D02*
X145440000Y-73300000D01*
X145640000Y-75060000D02*
X150360000Y-75060000D01*
X146250000Y-69550000D02*
X146250000Y-71500000D01*
X146250000Y-71500000D02*
X145640000Y-71500000D01*
X146250000Y-72500000D02*
X146250000Y-74450000D01*
X146250000Y-74450000D02*
X149750000Y-74450000D01*
X146950000Y-68940000D02*
X146950000Y-69550000D01*
X146950000Y-75060000D02*
X146950000Y-74450000D01*
X148250000Y-68940000D02*
X148250000Y-69550000D01*
X148250000Y-75060000D02*
X148250000Y-74450000D01*
X149250000Y-71900000D02*
X149750000Y-71900000D01*
X149250000Y-72100000D02*
X149250000Y-71900000D01*
X149750000Y-69550000D02*
X146250000Y-69550000D01*
X149750000Y-72000000D02*
X149250000Y-72000000D01*
X149750000Y-72100000D02*
X149250000Y-72100000D01*
X149750000Y-74450000D02*
X149750000Y-69550000D01*
X150360000Y-68940000D02*
X145640000Y-68940000D01*
X150360000Y-75060000D02*
X150360000Y-68940000D01*
%TO.C,R5*%
X118477500Y-76262742D02*
X118477500Y-76737258D01*
X119522500Y-76262742D02*
X119522500Y-76737258D01*
%TO.C,R7*%
X118522500Y-87762742D02*
X118522500Y-88237258D01*
X117477500Y-87762742D02*
X117477500Y-88237258D01*
%TO.C,D2*%
X114265000Y-71252500D02*
X114265000Y-73537500D01*
X114265000Y-73537500D02*
X115735000Y-73537500D01*
X115735000Y-73537500D02*
X115735000Y-71252500D01*
%TO.C,R6*%
X116022500Y-75262742D02*
X116022500Y-75737258D01*
X114977500Y-75262742D02*
X114977500Y-75737258D01*
%TO.C,TP1*%
X136800000Y-86300000D02*
X138200000Y-86300000D01*
X136800000Y-87700000D02*
X136800000Y-86300000D01*
X138200000Y-86300000D02*
X138200000Y-87700000D01*
X138200000Y-87700000D02*
X136800000Y-87700000D01*
%TO.C,R2*%
X141247500Y-86737742D02*
X141247500Y-87212258D01*
X142292500Y-86737742D02*
X142292500Y-87212258D01*
%TO.C,C5*%
X121490000Y-76584420D02*
X121490000Y-76865580D01*
X122510000Y-76584420D02*
X122510000Y-76865580D01*
%TO.C,R4*%
X129022500Y-71762742D02*
X129022500Y-72237258D01*
X127977500Y-71762742D02*
X127977500Y-72237258D01*
%TD*%
%LPC*%
D15*
%TO.C,JP3*%
X114000000Y-80000000D03*
D16*
X114000000Y-81300000D03*
%TD*%
D15*
%TO.C,JP2*%
X122000000Y-65500000D03*
D16*
X122000000Y-66800000D03*
%TD*%
D15*
%TO.C,JP1*%
X133500000Y-65350000D03*
D16*
X133500000Y-66650000D03*
%TD*%
D17*
%TO.C,U1*%
X139650000Y-82950000D03*
X140920000Y-82950000D03*
X142190000Y-82950000D03*
X143460000Y-82950000D03*
X144730000Y-82950000D03*
X146000000Y-82950000D03*
X147270000Y-82950000D03*
X147270000Y-78000000D03*
X146000000Y-78000000D03*
X144730000Y-78000000D03*
X143460000Y-78000000D03*
X142190000Y-78000000D03*
X140920000Y-78000000D03*
X139650000Y-78000000D03*
%TD*%
D18*
%TO.C,U5*%
X107500000Y-72900051D03*
X107500000Y-88099949D03*
D19*
X107500000Y-83500000D03*
X107500000Y-80500000D03*
X107500000Y-77500000D03*
%TD*%
D20*
%TO.C,C1*%
X128380000Y-86030000D03*
X126830000Y-86030000D03*
%TD*%
D21*
%TO.C,C2*%
X132237500Y-85715000D03*
X132237500Y-87265000D03*
%TD*%
%TO.C,C4*%
X121500000Y-88775000D03*
X121500000Y-87225000D03*
%TD*%
D22*
%TO.C,TP3*%
X145500000Y-91500000D03*
%TD*%
D23*
%TO.C,R3*%
X132000000Y-71175000D03*
X132000000Y-72825000D03*
%TD*%
D24*
%TO.C,R1*%
X145785000Y-86475000D03*
X144135000Y-86475000D03*
%TD*%
D25*
%TO.C,U2*%
X128605000Y-80000000D03*
X129500000Y-80000000D03*
X130395000Y-80000000D03*
X131290000Y-80000000D03*
X128605000Y-78530000D03*
X129500000Y-78530000D03*
X130395000Y-78530000D03*
X131290000Y-78530000D03*
D26*
X132222500Y-82040000D03*
X131572500Y-82040000D03*
X130922500Y-82040000D03*
X130272500Y-82040000D03*
X129622500Y-82040000D03*
X128972500Y-82040000D03*
X128322500Y-82040000D03*
X127672500Y-82040000D03*
X127672500Y-76490000D03*
X128322500Y-76490000D03*
X128972500Y-76490000D03*
X129622500Y-76490000D03*
X130272500Y-76490000D03*
X130922500Y-76490000D03*
X131572500Y-76490000D03*
X132222500Y-76490000D03*
%TD*%
D27*
%TO.C,U3*%
X119000000Y-82500000D03*
D28*
X117094996Y-79591694D03*
X118364999Y-79591694D03*
X119635001Y-79591694D03*
X120905004Y-79591694D03*
X120905004Y-85408306D03*
X119635001Y-85408306D03*
X118364999Y-85408306D03*
X117094996Y-85408306D03*
%TD*%
D29*
%TO.C,C3*%
X130237500Y-87265000D03*
X130237500Y-85715000D03*
%TD*%
D30*
%TO.C,D1*%
X118000000Y-72765000D03*
X118000000Y-71190000D03*
%TD*%
D31*
%TO.C,J2*%
X147450000Y-71000000D03*
D32*
X147450000Y-73000000D03*
%TD*%
D23*
%TO.C,R5*%
X119000000Y-75675000D03*
X119000000Y-77325000D03*
%TD*%
%TO.C,R7*%
X118000000Y-88825000D03*
X118000000Y-87175000D03*
%TD*%
D30*
%TO.C,D2*%
X115000000Y-72840000D03*
X115000000Y-71265000D03*
%TD*%
D23*
%TO.C,R6*%
X115500000Y-74675000D03*
X115500000Y-76325000D03*
%TD*%
D22*
%TO.C,TP1*%
X137500000Y-87000000D03*
%TD*%
D23*
%TO.C,R2*%
X141770000Y-87800000D03*
X141770000Y-86150000D03*
%TD*%
D21*
%TO.C,C5*%
X122000000Y-75950000D03*
X122000000Y-77500000D03*
%TD*%
D23*
%TO.C,R4*%
X128500000Y-71175000D03*
X128500000Y-72825000D03*
%TD*%
D33*
%TO.C,J1*%
X136580000Y-60040000D03*
D34*
X136580000Y-57500000D03*
X134040000Y-60040000D03*
X134040000Y-57500000D03*
X131500000Y-60040000D03*
X131500000Y-57500000D03*
X128960000Y-60040000D03*
X128960000Y-57500000D03*
X126420000Y-60040000D03*
X126420000Y-57500000D03*
X123880000Y-60040000D03*
X123880000Y-57500000D03*
X121340000Y-60040000D03*
X121340000Y-57500000D03*
X118800000Y-60040000D03*
X118800000Y-57500000D03*
%TD*%
%LPD*%
M02*
