%TF.GenerationSoftware,KiCad,Pcbnew,8.0.1*%
%TF.CreationDate,2024-04-21T22:45:41+02:00*%
%TF.ProjectId,PowerSubsystem2.0,506f7765-7253-4756-9273-797374656d32,v2*%
%TF.SameCoordinates,Original*%
%TF.FileFunction,Paste,Top*%
%TF.FilePolarity,Positive*%
%FSLAX46Y46*%
G04 Gerber Fmt 4.6, Leading zero omitted, Abs format (unit mm)*
G04 Created by KiCad (PCBNEW 8.0.1) date 2024-04-21 22:45:41*
%MOMM*%
%LPD*%
G01*
G04 APERTURE LIST*
G04 Aperture macros list*
%AMRoundRect*
0 Rectangle with rounded corners*
0 $1 Rounding radius*
0 $2 $3 $4 $5 $6 $7 $8 $9 X,Y pos of 4 corners*
0 Add a 4 corners polygon primitive as box body*
4,1,4,$2,$3,$4,$5,$6,$7,$8,$9,$2,$3,0*
0 Add four circle primitives for the rounded corners*
1,1,$1+$1,$2,$3*
1,1,$1+$1,$4,$5*
1,1,$1+$1,$6,$7*
1,1,$1+$1,$8,$9*
0 Add four rect primitives between the rounded corners*
20,1,$1+$1,$2,$3,$4,$5,0*
20,1,$1+$1,$4,$5,$6,$7,0*
20,1,$1+$1,$6,$7,$8,$9,0*
20,1,$1+$1,$8,$9,$2,$3,0*%
G04 Aperture macros list end*
%ADD10RoundRect,0.150000X0.150000X-0.825000X0.150000X0.825000X-0.150000X0.825000X-0.150000X-0.825000X0*%
%ADD11RoundRect,0.225000X-0.225000X-0.250000X0.225000X-0.250000X0.225000X0.250000X-0.225000X0.250000X0*%
%ADD12RoundRect,0.225000X-0.250000X0.225000X-0.250000X-0.225000X0.250000X-0.225000X0.250000X0.225000X0*%
%ADD13RoundRect,0.200000X-0.275000X0.200000X-0.275000X-0.200000X0.275000X-0.200000X0.275000X0.200000X0*%
%ADD14RoundRect,0.200000X0.200000X0.275000X-0.200000X0.275000X-0.200000X-0.275000X0.200000X-0.275000X0*%
%ADD15R,0.537000X0.882000*%
%ADD16R,0.450000X1.050000*%
%ADD17R,3.300000X2.400000*%
%ADD18R,0.600000X1.200000*%
%ADD19RoundRect,0.225000X0.250000X-0.225000X0.250000X0.225000X-0.250000X0.225000X-0.250000X-0.225000X0*%
%ADD20RoundRect,0.218750X0.256250X-0.218750X0.256250X0.218750X-0.256250X0.218750X-0.256250X-0.218750X0*%
G04 APERTURE END LIST*
D10*
%TO.C,U1*%
X139650000Y-82950000D03*
X140920000Y-82950000D03*
X142190000Y-82950000D03*
X143460000Y-82950000D03*
X144730000Y-82950000D03*
X146000000Y-82950000D03*
X147270000Y-82950000D03*
X147270000Y-78000000D03*
X146000000Y-78000000D03*
X144730000Y-78000000D03*
X143460000Y-78000000D03*
X142190000Y-78000000D03*
X140920000Y-78000000D03*
X139650000Y-78000000D03*
%TD*%
D11*
%TO.C,C1*%
X128380000Y-86030000D03*
X126830000Y-86030000D03*
%TD*%
D12*
%TO.C,C2*%
X132237500Y-85715000D03*
X132237500Y-87265000D03*
%TD*%
%TO.C,C4*%
X121500000Y-88775000D03*
X121500000Y-87225000D03*
%TD*%
D13*
%TO.C,R3*%
X132000000Y-71175000D03*
X132000000Y-72825000D03*
%TD*%
D14*
%TO.C,R1*%
X145785000Y-86475000D03*
X144135000Y-86475000D03*
%TD*%
D15*
%TO.C,U2*%
X128605000Y-80000000D03*
X129500000Y-80000000D03*
X130395000Y-80000000D03*
X131290000Y-80000000D03*
X128605000Y-78530000D03*
X129500000Y-78530000D03*
X130395000Y-78530000D03*
X131290000Y-78530000D03*
D16*
X132222500Y-82040000D03*
X131572500Y-82040000D03*
X130922500Y-82040000D03*
X130272500Y-82040000D03*
X129622500Y-82040000D03*
X128972500Y-82040000D03*
X128322500Y-82040000D03*
X127672500Y-82040000D03*
X127672500Y-76490000D03*
X128322500Y-76490000D03*
X128972500Y-76490000D03*
X129622500Y-76490000D03*
X130272500Y-76490000D03*
X130922500Y-76490000D03*
X131572500Y-76490000D03*
X132222500Y-76490000D03*
%TD*%
D17*
%TO.C,U3*%
X119000000Y-82500000D03*
D18*
X117094996Y-79591694D03*
X118364999Y-79591694D03*
X119635001Y-79591694D03*
X120905004Y-79591694D03*
X120905004Y-85408306D03*
X119635001Y-85408306D03*
X118364999Y-85408306D03*
X117094996Y-85408306D03*
%TD*%
D19*
%TO.C,C3*%
X130237500Y-87265000D03*
X130237500Y-85715000D03*
%TD*%
D20*
%TO.C,D1*%
X118000000Y-72765000D03*
X118000000Y-71190000D03*
%TD*%
D13*
%TO.C,R5*%
X119000000Y-75675000D03*
X119000000Y-77325000D03*
%TD*%
%TO.C,R7*%
X118000000Y-88825000D03*
X118000000Y-87175000D03*
%TD*%
D20*
%TO.C,D2*%
X115000000Y-72840000D03*
X115000000Y-71265000D03*
%TD*%
D13*
%TO.C,R6*%
X115500000Y-74675000D03*
X115500000Y-76325000D03*
%TD*%
%TO.C,R2*%
X141770000Y-87800000D03*
X141770000Y-86150000D03*
%TD*%
D12*
%TO.C,C5*%
X122000000Y-75950000D03*
X122000000Y-77500000D03*
%TD*%
D13*
%TO.C,R4*%
X128500000Y-71175000D03*
X128500000Y-72825000D03*
%TD*%
M02*
