M48
; DRILL file {KiCad 8.0.1} date 2024-04-21T22:45:41+0200
; FORMAT={-:-/ absolute / inch / decimal}
; #@! TF.CreationDate,2024-04-21T22:45:41+02:00
; #@! TF.GenerationSoftware,Kicad,Pcbnew,8.0.1
; #@! TF.FileFunction,Plated,1,2,PTH
FMAT,2
INCH
; #@! TA.AperFunction,Plated,PTH,ViaDrill
T1C0.0118
; #@! TA.AperFunction,Plated,PTH,ComponentDrill
T2C0.0236
; #@! TA.AperFunction,Plated,PTH,ComponentDrill
T3C0.0295
; #@! TA.AperFunction,Plated,PTH,ComponentDrill
T4C0.0394
%
G90
G05
T1
X4.3701Y-3.1693
X4.5669Y-2.6575
X4.5866Y-3.4055
X4.685Y-2.6378
X4.7835Y-2.9331
X4.8819Y-2.7362
X5.0984Y-2.7953
X5.0984Y-2.9331
X5.1378Y-3.3071
X5.1575Y-2.7953
X5.1772Y-2.4606
X5.2559Y-3.4449
X5.3543Y-2.6378
X5.3937Y-2.7362
X5.4331Y-2.6969
X5.5693Y-3.5039
X5.648Y-3.0108
X5.689Y-2.7953
T3
X5.8051Y-2.7953
X5.8051Y-2.874
T4
X4.6772Y-2.2638
X4.6772Y-2.3638
X4.7772Y-2.2638
X4.7772Y-2.3638
X4.8772Y-2.2638
X4.8772Y-2.3638
X4.9772Y-2.2638
X4.9772Y-2.3638
X5.0772Y-2.2638
X5.0772Y-2.3638
X5.1772Y-2.2638
X5.1772Y-2.3638
X5.2772Y-2.2638
X5.2772Y-2.3638
X5.3772Y-2.2638
X5.3772Y-2.3638
T2
G00X4.252Y-2.8701
M15
G01X4.2126Y-2.8701
M16
G05
G00X4.2323Y-3.061
M15
G01X4.2323Y-3.0413
M16
G05
G00X4.2323Y-3.1791
M15
G01X4.2323Y-3.1594
M16
G05
G00X4.2323Y-3.2972
M15
G01X4.2323Y-3.2776
M16
G05
G00X4.252Y-3.4685
M15
G01X4.2126Y-3.4685
M16
G05
M30
