%TF.GenerationSoftware,KiCad,Pcbnew,8.0.1*%
%TF.CreationDate,2024-03-24T23:32:15+02:00*%
%TF.ProjectId,PowerSubsystem,506f7765-7253-4756-9273-797374656d2e,rev?*%
%TF.SameCoordinates,Original*%
%TF.FileFunction,Copper,L1,Top*%
%TF.FilePolarity,Positive*%
%FSLAX46Y46*%
G04 Gerber Fmt 4.6, Leading zero omitted, Abs format (unit mm)*
G04 Created by KiCad (PCBNEW 8.0.1) date 2024-03-24 23:32:15*
%MOMM*%
%LPD*%
G01*
G04 APERTURE LIST*
G04 Aperture macros list*
%AMRoundRect*
0 Rectangle with rounded corners*
0 $1 Rounding radius*
0 $2 $3 $4 $5 $6 $7 $8 $9 X,Y pos of 4 corners*
0 Add a 4 corners polygon primitive as box body*
4,1,4,$2,$3,$4,$5,$6,$7,$8,$9,$2,$3,0*
0 Add four circle primitives for the rounded corners*
1,1,$1+$1,$2,$3*
1,1,$1+$1,$4,$5*
1,1,$1+$1,$6,$7*
1,1,$1+$1,$8,$9*
0 Add four rect primitives between the rounded corners*
20,1,$1+$1,$2,$3,$4,$5,0*
20,1,$1+$1,$4,$5,$6,$7,0*
20,1,$1+$1,$6,$7,$8,$9,0*
20,1,$1+$1,$8,$9,$2,$3,0*%
G04 Aperture macros list end*
%TA.AperFunction,SMDPad,CuDef*%
%ADD10R,1.000000X1.000000*%
%TD*%
%TA.AperFunction,ComponentPad*%
%ADD11C,2.500000*%
%TD*%
%TA.AperFunction,SMDPad,CuDef*%
%ADD12RoundRect,0.200000X-0.275000X0.200000X-0.275000X-0.200000X0.275000X-0.200000X0.275000X0.200000X0*%
%TD*%
%TA.AperFunction,SMDPad,CuDef*%
%ADD13RoundRect,0.200000X0.275000X-0.200000X0.275000X0.200000X-0.275000X0.200000X-0.275000X-0.200000X0*%
%TD*%
%TA.AperFunction,SMDPad,CuDef*%
%ADD14RoundRect,0.200000X0.200000X0.275000X-0.200000X0.275000X-0.200000X-0.275000X0.200000X-0.275000X0*%
%TD*%
%TA.AperFunction,SMDPad,CuDef*%
%ADD15RoundRect,0.218750X0.256250X-0.218750X0.256250X0.218750X-0.256250X0.218750X-0.256250X-0.218750X0*%
%TD*%
%TA.AperFunction,SMDPad,CuDef*%
%ADD16RoundRect,0.225000X-0.225000X-0.250000X0.225000X-0.250000X0.225000X0.250000X-0.225000X0.250000X0*%
%TD*%
%TA.AperFunction,SMDPad,CuDef*%
%ADD17RoundRect,0.225000X0.250000X-0.225000X0.250000X0.225000X-0.250000X0.225000X-0.250000X-0.225000X0*%
%TD*%
%TA.AperFunction,SMDPad,CuDef*%
%ADD18RoundRect,0.225000X0.225000X0.250000X-0.225000X0.250000X-0.225000X-0.250000X0.225000X-0.250000X0*%
%TD*%
%TA.AperFunction,SMDPad,CuDef*%
%ADD19R,1.050000X0.450000*%
%TD*%
%TA.AperFunction,SMDPad,CuDef*%
%ADD20R,1.470000X0.895000*%
%TD*%
%TA.AperFunction,SMDPad,CuDef*%
%ADD21R,2.400000X3.300000*%
%TD*%
%TA.AperFunction,SMDPad,CuDef*%
%ADD22R,1.200000X0.600000*%
%TD*%
%TA.AperFunction,SMDPad,CuDef*%
%ADD23RoundRect,0.150000X-0.150000X0.825000X-0.150000X-0.825000X0.150000X-0.825000X0.150000X0.825000X0*%
%TD*%
%TA.AperFunction,ComponentPad*%
%ADD24RoundRect,0.250000X-0.350000X-0.625000X0.350000X-0.625000X0.350000X0.625000X-0.350000X0.625000X0*%
%TD*%
%TA.AperFunction,ComponentPad*%
%ADD25O,1.200000X1.750000*%
%TD*%
%TA.AperFunction,ComponentPad*%
%ADD26O,1.700000X1.700000*%
%TD*%
%TA.AperFunction,ComponentPad*%
%ADD27R,1.700000X1.700000*%
%TD*%
%TA.AperFunction,ViaPad*%
%ADD28C,0.800000*%
%TD*%
%TA.AperFunction,Conductor*%
%ADD29C,0.254000*%
%TD*%
%TA.AperFunction,Conductor*%
%ADD30C,0.300000*%
%TD*%
%TA.AperFunction,Conductor*%
%ADD31C,0.500000*%
%TD*%
G04 APERTURE END LIST*
D10*
%TO.P,TP6,1,1*%
%TO.N,Net-(U3-BISEN)*%
X161500000Y-64000000D03*
%TD*%
%TO.P,TP5,1,1*%
%TO.N,Net-(U2-BAT)*%
X179000000Y-70500000D03*
%TD*%
%TO.P,TP4,1,1*%
%TO.N,/Motor1_A*%
X163000000Y-70000000D03*
%TD*%
%TO.P,TP3,1,1*%
%TO.N,/Motor2_A*%
X161500000Y-55000000D03*
%TD*%
%TO.P,TP2,1,1*%
%TO.N,Circuit2*%
X163000000Y-73000000D03*
%TD*%
%TO.P,TP1,1,1*%
%TO.N,Net-(U1A-+)*%
X181500000Y-70500000D03*
%TD*%
D11*
%TO.P,U4,1,1*%
%TO.N,Net-(U2-BAT)*%
X176300102Y-69900051D03*
%TO.P,U4,2,2*%
%TO.N,Vbatt*%
X171500000Y-69900051D03*
%TO.P,U4,3,3*%
%TO.N,Circuit2*%
X166699898Y-69900051D03*
%TO.P,U4,4,4*%
%TO.N,unconnected-(U4-Pad4)*%
X178149987Y-79099949D03*
%TO.P,U4,5,5*%
%TO.N,unconnected-(U4-Pad5)*%
X164850013Y-79099949D03*
%TD*%
D12*
%TO.P,R7,1*%
%TO.N,Net-(U2-PROG)*%
X180000000Y-61175000D03*
%TO.P,R7,2*%
%TO.N,GND*%
X180000000Y-62825000D03*
%TD*%
%TO.P,R6,1*%
%TO.N,Net-(D1-K)*%
X193415807Y-63277495D03*
%TO.P,R6,2*%
%TO.N,Net-(U2-STDBY#)*%
X193415807Y-64927495D03*
%TD*%
%TO.P,R5,2*%
%TO.N,Net-(U2-CHRG#)*%
X191317500Y-64927495D03*
%TO.P,R5,1*%
%TO.N,Net-(D2-K)*%
X191317500Y-63277495D03*
%TD*%
D13*
%TO.P,R4,1*%
%TO.N,GND*%
X161500000Y-67325000D03*
%TO.P,R4,2*%
%TO.N,Net-(U3-BISEN)*%
X161500000Y-65675000D03*
%TD*%
%TO.P,R3,1*%
%TO.N,GND*%
X161500000Y-60825000D03*
%TO.P,R3,2*%
%TO.N,Net-(U3-AISEN)*%
X161500000Y-59175000D03*
%TD*%
D14*
%TO.P,R2,1*%
%TO.N,Net-(U1A-+)*%
X186190000Y-70500000D03*
%TO.P,R2,2*%
%TO.N,GND*%
X184540000Y-70500000D03*
%TD*%
%TO.P,R1,2*%
%TO.N,Net-(U1A-+)*%
X188675000Y-70500000D03*
%TO.P,R1,1*%
%TO.N,Vbatt*%
X190325000Y-70500000D03*
%TD*%
D15*
%TO.P,D2,1,K*%
%TO.N,Net-(D2-K)*%
X191317500Y-61605000D03*
%TO.P,D2,2,A*%
%TO.N,Vusb*%
X191317500Y-60030000D03*
%TD*%
%TO.P,D1,1,K*%
%TO.N,Net-(D1-K)*%
X193415807Y-61564995D03*
%TO.P,D1,2,A*%
%TO.N,Vusb*%
X193415807Y-59989995D03*
%TD*%
D16*
%TO.P,C5,1*%
%TO.N,GND*%
X185407499Y-65817500D03*
%TO.P,C5,2*%
%TO.N,Net-(U2-BAT)*%
X186957499Y-65817500D03*
%TD*%
D17*
%TO.P,C4,2*%
%TO.N,GND*%
X192000000Y-56450000D03*
%TO.P,C4,1*%
%TO.N,Vusb*%
X192000000Y-58000000D03*
%TD*%
D18*
%TO.P,C3,1*%
%TO.N,Net-(U3-VCP)*%
X175265000Y-66540000D03*
%TO.P,C3,2*%
%TO.N,Circuit2*%
X173715000Y-66540000D03*
%TD*%
D16*
%TO.P,C2,1*%
%TO.N,Net-(U3-VINT)*%
X173715000Y-60725000D03*
%TO.P,C2,2*%
%TO.N,GND*%
X175265000Y-60725000D03*
%TD*%
D18*
%TO.P,C1,1*%
%TO.N,GND*%
X175265000Y-63725000D03*
%TO.P,C1,2*%
%TO.N,Circuit2*%
X173715000Y-63725000D03*
%TD*%
D19*
%TO.P,U3,1,~{SLEEP}*%
%TO.N,unconnected-(U3-~{SLEEP}-Pad1)*%
X165725000Y-60225000D03*
%TO.P,U3,2,AOUT1*%
%TO.N,/Motor2_A*%
X165725000Y-60875000D03*
%TO.P,U3,3,AISEN*%
%TO.N,Net-(U3-AISEN)*%
X165725000Y-61525000D03*
%TO.P,U3,4,AOUT2*%
%TO.N,/Motor2_B*%
X165725000Y-62175000D03*
%TO.P,U3,5,BOUT2*%
%TO.N,/Motor1_B*%
X165725000Y-62825000D03*
%TO.P,U3,6,BISEN*%
%TO.N,Net-(U3-BISEN)*%
X165725000Y-63475000D03*
%TO.P,U3,7,BOUT1*%
%TO.N,/Motor1_A*%
X165725000Y-64125000D03*
%TO.P,U3,8,~{FAULT}*%
%TO.N,unconnected-(U3-~{FAULT}-Pad8)*%
X165725000Y-64775000D03*
%TO.P,U3,9,BIN1*%
%TO.N,Vp3*%
X171275000Y-64775000D03*
%TO.P,U3,10,BIN2*%
%TO.N,Vp4*%
X171275000Y-64125000D03*
%TO.P,U3,11,VCP*%
%TO.N,Net-(U3-VCP)*%
X171275000Y-63475000D03*
%TO.P,U3,12,VM*%
%TO.N,Circuit2*%
X171275000Y-62825000D03*
%TO.P,U3,13,GND*%
%TO.N,GND*%
X171275000Y-62175000D03*
%TO.P,U3,14,VINT*%
%TO.N,Net-(U3-VINT)*%
X171275000Y-61525000D03*
%TO.P,U3,15,AIN2*%
%TO.N,Vp2*%
X171275000Y-60875000D03*
%TO.P,U3,16,AIN1*%
%TO.N,Vp1*%
X171275000Y-60225000D03*
D20*
%TO.P,U3,17,GND*%
%TO.N,GND*%
X167765000Y-61157500D03*
X167765000Y-62052500D03*
X167765000Y-62947500D03*
X167765000Y-63842500D03*
X169235000Y-61157500D03*
X169235000Y-62052500D03*
X169235000Y-62947500D03*
X169235000Y-63842500D03*
%TD*%
D21*
%TO.P,U2,9,EP*%
%TO.N,GND*%
X184817500Y-61682499D03*
D22*
%TO.P,U2,8,CE*%
%TO.N,Vusb*%
X187725806Y-59777495D03*
%TO.P,U2,7,CHRG#*%
%TO.N,Net-(U2-CHRG#)*%
X187725806Y-61047498D03*
%TO.P,U2,6,STDBY#*%
%TO.N,Net-(U2-STDBY#)*%
X187725806Y-62317500D03*
%TO.P,U2,5,BAT*%
%TO.N,Net-(U2-BAT)*%
X187725806Y-63587503D03*
%TO.P,U2,4,VCC*%
%TO.N,Vusb*%
X181909194Y-63587503D03*
%TO.P,U2,3,GND*%
%TO.N,GND*%
X181909194Y-62317500D03*
%TO.P,U2,2,PROG*%
%TO.N,Net-(U2-PROG)*%
X181909194Y-61047498D03*
%TO.P,U2,1,TEMP*%
%TO.N,GND*%
X181909194Y-59777495D03*
%TD*%
D23*
%TO.P,U1,1*%
%TO.N,BATT_ADC*%
X190810000Y-73500000D03*
%TO.P,U1,2,-*%
X189540000Y-73500000D03*
%TO.P,U1,3,+*%
%TO.N,Net-(U1A-+)*%
X188270000Y-73500000D03*
%TO.P,U1,4,V+*%
%TO.N,Vbatt*%
X187000000Y-73500000D03*
%TO.P,U1,5,+*%
%TO.N,unconnected-(U1B-+-Pad5)*%
X185730000Y-73500000D03*
%TO.P,U1,6,-*%
%TO.N,unconnected-(U1B---Pad6)*%
X184460000Y-73500000D03*
%TO.P,U1,7*%
%TO.N,unconnected-(U1-Pad7)*%
X183190000Y-73500000D03*
%TO.P,U1,8*%
%TO.N,unconnected-(U1-Pad8)*%
X183190000Y-78450000D03*
%TO.P,U1,9,-*%
%TO.N,unconnected-(U1C---Pad9)*%
X184460000Y-78450000D03*
%TO.P,U1,10,+*%
%TO.N,unconnected-(U1C-+-Pad10)*%
X185730000Y-78450000D03*
%TO.P,U1,11,V-*%
%TO.N,GND*%
X187000000Y-78450000D03*
%TO.P,U1,12,+*%
%TO.N,unconnected-(U1D-+-Pad12)*%
X188270000Y-78450000D03*
%TO.P,U1,13,-*%
%TO.N,unconnected-(U1D---Pad13)*%
X189540000Y-78450000D03*
%TO.P,U1,14*%
%TO.N,unconnected-(U1-Pad14)*%
X190810000Y-78450000D03*
%TD*%
D24*
%TO.P,J2,1,Pin_1*%
%TO.N,Vbatt*%
X188500000Y-50950000D03*
D25*
%TO.P,J2,2,Pin_2*%
%TO.N,GND*%
X190500000Y-50950000D03*
%TD*%
D26*
%TO.P,J1,16,Pin_16*%
%TO.N,Vp4*%
X164380000Y-50000000D03*
%TO.P,J1,15,Pin_15*%
%TO.N,/Motor1_B*%
X164380000Y-52540000D03*
%TO.P,J1,14,Pin_14*%
%TO.N,Vp3*%
X166920000Y-50000000D03*
%TO.P,J1,13,Pin_13*%
%TO.N,/Motor1_A*%
X166920000Y-52540000D03*
%TO.P,J1,12,Pin_12*%
%TO.N,Vusb*%
X169460000Y-50000000D03*
%TO.P,J1,11,Pin_11*%
X169460000Y-52540000D03*
%TO.P,J1,10,Pin_10*%
%TO.N,BATT_ADC*%
X172000000Y-50000000D03*
%TO.P,J1,9,Pin_9*%
%TO.N,/RESV*%
X172000000Y-52540000D03*
%TO.P,J1,8,Pin_8*%
%TO.N,Vbatt*%
X174540000Y-50000000D03*
%TO.P,J1,7,Pin_7*%
X174540000Y-52540000D03*
%TO.P,J1,6,Pin_6*%
%TO.N,GND*%
X177080000Y-50000000D03*
%TO.P,J1,5,Pin_5*%
X177080000Y-52540000D03*
%TO.P,J1,4,Pin_4*%
%TO.N,Vp2*%
X179620000Y-50000000D03*
%TO.P,J1,3,Pin_3*%
%TO.N,/Motor2_B*%
X179620000Y-52540000D03*
%TO.P,J1,2,Pin_2*%
%TO.N,Vp1*%
X182160000Y-50000000D03*
D27*
%TO.P,J1,1,Pin_1*%
%TO.N,/Motor2_A*%
X182160000Y-52540000D03*
%TD*%
D28*
%TO.N,/Motor1_A*%
X166500000Y-66098000D03*
X165500000Y-67552000D03*
%TO.N,/Motor2_A*%
X162985933Y-56485933D03*
X164500000Y-58000000D03*
%TO.N,Vbatt*%
X182177000Y-57273000D03*
%TO.N,BATT_ADC*%
X173000000Y-55773000D03*
X192500000Y-69000000D03*
%TO.N,Vbatt*%
X177566675Y-58903055D03*
%TO.N,Vusb*%
X170657313Y-55370317D03*
%TO.N,Vbatt*%
X175217442Y-55773711D03*
X189493425Y-71925001D03*
X187000000Y-72000000D03*
%TO.N,GND*%
X161500000Y-68500000D03*
X161500000Y-62000000D03*
X183325000Y-70500000D03*
X187000000Y-80475000D03*
X190500000Y-56500000D03*
X190500000Y-54500000D03*
%TO.N,Vusb*%
X179528134Y-58028134D03*
X186500000Y-58500000D03*
X182000000Y-64500000D03*
%TO.N,GND*%
X177000000Y-54773000D03*
X180000000Y-64175000D03*
%TO.N,Vp4*%
X165107000Y-54889304D03*
X165773000Y-57500000D03*
X167500000Y-57500000D03*
X170000000Y-59227000D03*
%TO.N,Vp3*%
X169000000Y-55000000D03*
X175000000Y-57773000D03*
X177000000Y-59727000D03*
X176500000Y-65000000D03*
X169000000Y-57773000D03*
X172500000Y-65000000D03*
%TO.N,GND*%
X172669671Y-62184897D03*
%TO.N,Vp2*%
X170227000Y-56273000D03*
X172500000Y-59500000D03*
%TO.N,Vp1*%
X171500000Y-59000000D03*
X178500000Y-57000000D03*
%TO.N,/Motor1_A*%
X166500000Y-55000000D03*
X166577000Y-59000000D03*
%TO.N,/Motor1_B*%
X162940319Y-58460310D03*
X163000000Y-62500000D03*
%TO.N,/Motor2_B*%
X163773000Y-59014067D03*
X163664907Y-61335093D03*
%TD*%
D29*
%TO.N,Net-(U3-BISEN)*%
X161500000Y-64000000D02*
X161500000Y-65675000D01*
X161675000Y-65500000D02*
X161500000Y-65675000D01*
X164873000Y-63573000D02*
X164873000Y-65500000D01*
X164971000Y-63475000D02*
X164873000Y-63573000D01*
X165725000Y-63475000D02*
X164971000Y-63475000D01*
X164873000Y-65500000D02*
X161675000Y-65500000D01*
%TO.N,GND*%
X169235000Y-64765000D02*
X169235000Y-63842500D01*
X167175000Y-66825000D02*
X169235000Y-64765000D01*
X165198866Y-66825000D02*
X167175000Y-66825000D01*
X162175000Y-67500000D02*
X164523866Y-67500000D01*
X164523866Y-67500000D02*
X165198866Y-66825000D01*
X162000000Y-67325000D02*
X162175000Y-67500000D01*
X161500000Y-67325000D02*
X162000000Y-67325000D01*
%TO.N,/Motor1_A*%
X163500000Y-70000000D02*
X163000000Y-70000000D01*
X165500000Y-68000000D02*
X163500000Y-70000000D01*
X165500000Y-67552000D02*
X165500000Y-68000000D01*
%TO.N,Circuit2*%
X163599949Y-73000000D02*
X166699898Y-69900051D01*
X163000000Y-73000000D02*
X163599949Y-73000000D01*
%TO.N,/Motor1_A*%
X166479000Y-64125000D02*
X165725000Y-64125000D01*
X166577000Y-64223000D02*
X166479000Y-64125000D01*
X166577000Y-66021000D02*
X166577000Y-64223000D01*
X166500000Y-66098000D02*
X166577000Y-66021000D01*
%TO.N,Net-(U2-BAT)*%
X176900051Y-70500000D02*
X176300102Y-69900051D01*
X179000000Y-70500000D02*
X176900051Y-70500000D01*
%TO.N,/Motor2_A*%
X162985933Y-56485933D02*
X161500000Y-55000000D01*
X164500000Y-58500000D02*
X164500000Y-58000000D01*
%TO.N,Net-(U1A-+)*%
X186000000Y-70690000D02*
X186190000Y-70500000D01*
X186000000Y-71500000D02*
X186000000Y-70690000D01*
X182500000Y-71500000D02*
X186000000Y-71500000D01*
X181500000Y-70500000D02*
X182500000Y-71500000D01*
D30*
%TO.N,Vbatt*%
X182177000Y-57273000D02*
X188500000Y-50950000D01*
D29*
%TO.N,BATT_ADC*%
X173177000Y-55596000D02*
X173177000Y-51177000D01*
X173000000Y-55773000D02*
X173177000Y-55596000D01*
X173177000Y-51177000D02*
X172000000Y-50000000D01*
X192500000Y-70000000D02*
X192500000Y-69000000D01*
X192500000Y-70500000D02*
X192500000Y-70000000D01*
X190810000Y-72190000D02*
X192500000Y-70500000D01*
X190810000Y-73500000D02*
X190810000Y-72190000D01*
X189540000Y-73500000D02*
X190810000Y-73500000D01*
D30*
%TO.N,Vbatt*%
X175217442Y-55773711D02*
X174540000Y-55096269D01*
X174540000Y-55096269D02*
X174540000Y-52540000D01*
X177750000Y-59086380D02*
X177566675Y-58903055D01*
X177750000Y-60750000D02*
X177750000Y-59086380D01*
X173267766Y-69900051D02*
X171500000Y-69900051D01*
X175167817Y-68000000D02*
X173267766Y-69900051D01*
X176500000Y-68000000D02*
X175167817Y-68000000D01*
X177750000Y-60750000D02*
X177750000Y-66750000D01*
X177750000Y-66750000D02*
X176500000Y-68000000D01*
D29*
%TO.N,Vusb*%
X169460000Y-54431866D02*
X169460000Y-52540000D01*
X169727000Y-54727000D02*
X169727000Y-54698866D01*
X170657313Y-55370317D02*
X170370317Y-55370317D01*
X169727000Y-54698866D02*
X169460000Y-54431866D01*
X170370317Y-55370317D02*
X169727000Y-54727000D01*
%TO.N,Vp2*%
X177329814Y-56500000D02*
X178257000Y-55572814D01*
X170454000Y-56500000D02*
X177329814Y-56500000D01*
X170227000Y-56273000D02*
X170454000Y-56500000D01*
X178257000Y-55572814D02*
X178257000Y-51363000D01*
X178257000Y-51363000D02*
X179620000Y-50000000D01*
D31*
%TO.N,Vbatt*%
X174540000Y-52540000D02*
X174540000Y-50000000D01*
D30*
X173599949Y-72000000D02*
X187000000Y-72000000D01*
X171500000Y-69900051D02*
X173599949Y-72000000D01*
D29*
%TO.N,Vp3*%
X175000000Y-57773000D02*
X169000000Y-57773000D01*
D30*
%TO.N,Net-(U2-BAT)*%
X179200153Y-67000000D02*
X176300102Y-69900051D01*
X186957499Y-66042501D02*
X186000000Y-67000000D01*
X186000000Y-67000000D02*
X179200153Y-67000000D01*
X186957499Y-65817500D02*
X186957499Y-66042501D01*
%TO.N,Vbatt*%
X189493425Y-71331575D02*
X190325000Y-70500000D01*
X189493425Y-71925001D02*
X189493425Y-71331575D01*
X187000000Y-73500000D02*
X187000000Y-72000000D01*
D29*
%TO.N,Net-(U1A-+)*%
X188270000Y-70905000D02*
X188675000Y-70500000D01*
X188270000Y-73500000D02*
X188270000Y-70905000D01*
%TO.N,GND*%
X161500000Y-68000000D02*
X161500000Y-68500000D01*
X161500000Y-67325000D02*
X161500000Y-68000000D01*
D31*
X161500000Y-60825000D02*
X161500000Y-62000000D01*
D29*
%TO.N,Net-(U1A-+)*%
X186190000Y-70500000D02*
X188675000Y-70500000D01*
D30*
%TO.N,GND*%
X184540000Y-70500000D02*
X183325000Y-70500000D01*
X187000000Y-78450000D02*
X187000000Y-80475000D01*
D31*
X192000000Y-56500000D02*
X190500000Y-56500000D01*
X192000000Y-56450000D02*
X192000000Y-56500000D01*
X190500000Y-50950000D02*
X190500000Y-54500000D01*
D29*
%TO.N,Vusb*%
X169460000Y-52540000D02*
X169460000Y-50000000D01*
X179556268Y-58000000D02*
X179528134Y-58028134D01*
X185500000Y-58000000D02*
X179556268Y-58000000D01*
X186000000Y-58000000D02*
X185500000Y-58000000D01*
X186500000Y-58500000D02*
X186000000Y-58000000D01*
X190500000Y-60000000D02*
X190530000Y-60030000D01*
X190530000Y-60030000D02*
X191317500Y-60030000D01*
X190000000Y-60000000D02*
X190500000Y-60000000D01*
X189777495Y-59777495D02*
X190000000Y-60000000D01*
X187725806Y-59777495D02*
X189777495Y-59777495D01*
X187500000Y-59551689D02*
X187725806Y-59777495D01*
X187500000Y-58500000D02*
X187500000Y-59551689D01*
X186500000Y-58500000D02*
X187500000Y-58500000D01*
X181909194Y-64409194D02*
X182000000Y-64500000D01*
X181909194Y-63587503D02*
X181909194Y-64409194D01*
D30*
%TO.N,GND*%
X180507500Y-62317500D02*
X180000000Y-62825000D01*
X181909194Y-62317500D02*
X180507500Y-62317500D01*
D29*
%TO.N,Net-(U2-PROG)*%
X180127502Y-61047498D02*
X180000000Y-61175000D01*
X181909194Y-61047498D02*
X180127502Y-61047498D01*
D30*
%TO.N,Vusb*%
X193415807Y-59415807D02*
X192000000Y-58000000D01*
X193415807Y-59989995D02*
X193415807Y-59415807D01*
D29*
X191317500Y-60030000D02*
X191317500Y-58682500D01*
X191317500Y-58682500D02*
X192000000Y-58000000D01*
D30*
%TO.N,Net-(D2-K)*%
X191317500Y-61605000D02*
X191317500Y-63277495D01*
D31*
%TO.N,GND*%
X177080000Y-54693000D02*
X177000000Y-54773000D01*
X177080000Y-52540000D02*
X177080000Y-54693000D01*
X177080000Y-50000000D02*
X177080000Y-52540000D01*
D29*
%TO.N,/Motor2_B*%
X179620000Y-54851866D02*
X179620000Y-52540000D01*
X168028134Y-57000000D02*
X177471866Y-57000000D01*
X167801134Y-56773000D02*
X168028134Y-57000000D01*
X177471866Y-57000000D02*
X179620000Y-54851866D01*
X165471866Y-56773000D02*
X167801134Y-56773000D01*
X165244866Y-57000000D02*
X165471866Y-56773000D01*
X164142052Y-57000000D02*
X165244866Y-57000000D01*
X163773000Y-57369052D02*
X164142052Y-57000000D01*
X163773000Y-59014067D02*
X163773000Y-57369052D01*
%TO.N,Net-(U2-CHRG#)*%
X190415807Y-64927495D02*
X189605803Y-64927495D01*
D30*
%TO.N,Net-(U2-STDBY#)*%
X193360807Y-64982495D02*
X193415807Y-64927495D01*
X189225806Y-66047498D02*
X193360807Y-66047498D01*
X189156654Y-65978346D02*
X189225806Y-66047498D01*
X193360807Y-66047498D02*
X193360807Y-64982495D01*
D29*
%TO.N,/Motor2_A*%
X182211026Y-54288974D02*
X182211026Y-52591026D01*
X178528134Y-58000000D02*
X180500000Y-56028134D01*
X180500000Y-56028134D02*
X180500000Y-56000000D01*
X177000000Y-58000000D02*
X178528134Y-58000000D01*
X176500000Y-58500000D02*
X177000000Y-58000000D01*
X172028134Y-58500000D02*
X176500000Y-58500000D01*
X180500000Y-56000000D02*
X182211026Y-54288974D01*
X171801134Y-58273000D02*
X172028134Y-58500000D01*
X171198866Y-58273000D02*
X171801134Y-58273000D01*
X170971866Y-58500000D02*
X171198866Y-58273000D01*
X166048866Y-58500000D02*
X166275866Y-58273000D01*
X164500000Y-58500000D02*
X166048866Y-58500000D01*
X164500000Y-60500000D02*
X164500000Y-58500000D01*
X166878134Y-58273000D02*
X167105134Y-58500000D01*
X167105134Y-58500000D02*
X170971866Y-58500000D01*
X164875000Y-60875000D02*
X164500000Y-60500000D01*
X166275866Y-58273000D02*
X166878134Y-58273000D01*
X165725000Y-60875000D02*
X164875000Y-60875000D01*
%TO.N,Vp3*%
X177000000Y-64500000D02*
X176500000Y-65000000D01*
X177000000Y-59727000D02*
X177000000Y-64500000D01*
D30*
%TO.N,GND*%
X180000000Y-62825000D02*
X180000000Y-64175000D01*
D29*
X176500000Y-61000000D02*
X176500000Y-63500000D01*
X176225000Y-60725000D02*
X176500000Y-61000000D01*
X176275000Y-63725000D02*
X175265000Y-63725000D01*
X175265000Y-60725000D02*
X176225000Y-60725000D01*
X176500000Y-63500000D02*
X176275000Y-63725000D01*
%TO.N,Vp4*%
X165557000Y-51177000D02*
X164380000Y-50000000D01*
X165107000Y-54889304D02*
X165557000Y-54439304D01*
X165557000Y-54439304D02*
X165557000Y-51177000D01*
X167500000Y-57500000D02*
X165773000Y-57500000D01*
X170423000Y-59650000D02*
X170000000Y-59227000D01*
X170423000Y-64052000D02*
X170423000Y-59650000D01*
X170496000Y-64125000D02*
X170423000Y-64052000D01*
X171275000Y-64125000D02*
X170496000Y-64125000D01*
%TO.N,Vp3*%
X168097000Y-51177000D02*
X166920000Y-50000000D01*
X169000000Y-55000000D02*
X168097000Y-54097000D01*
X168097000Y-54097000D02*
X168097000Y-51177000D01*
X172275000Y-64775000D02*
X172500000Y-65000000D01*
X171275000Y-64775000D02*
X172275000Y-64775000D01*
D30*
%TO.N,GND*%
X172659774Y-62175000D02*
X172669671Y-62184897D01*
X171275000Y-62175000D02*
X172659774Y-62175000D01*
D29*
%TO.N,/Motor1_A*%
X166500000Y-55000000D02*
X166500000Y-52960000D01*
X166500000Y-52960000D02*
X166920000Y-52540000D01*
%TO.N,/Motor1_B*%
X164380000Y-56120000D02*
X164380000Y-52540000D01*
X162940319Y-57559681D02*
X164380000Y-56120000D01*
X162940319Y-58460310D02*
X162940319Y-57559681D01*
%TO.N,Vp1*%
X180983000Y-51177000D02*
X182160000Y-50000000D01*
X180983000Y-54841530D02*
X180983000Y-51177000D01*
X178824530Y-57000000D02*
X180983000Y-54841530D01*
X178500000Y-57000000D02*
X178824530Y-57000000D01*
%TO.N,Vp2*%
X171982948Y-60875000D02*
X172428974Y-60428974D01*
X172500000Y-60357948D02*
X172500000Y-59500000D01*
X172428974Y-60428974D02*
X172500000Y-60357948D01*
X171275000Y-60875000D02*
X171982948Y-60875000D01*
%TO.N,/Motor1_A*%
X166504000Y-64125000D02*
X165725000Y-64125000D01*
X166577000Y-59000000D02*
X166577000Y-64052000D01*
X166577000Y-64052000D02*
X166504000Y-64125000D01*
%TO.N,Vp1*%
X171275000Y-59225000D02*
X171500000Y-59000000D01*
X171275000Y-60225000D02*
X171275000Y-59225000D01*
%TO.N,Circuit2*%
X166699898Y-68300102D02*
X166699898Y-69900051D01*
X168460000Y-66540000D02*
X166699898Y-68300102D01*
X173715000Y-66540000D02*
X168460000Y-66540000D01*
%TO.N,/Motor1_B*%
X163325000Y-62825000D02*
X163000000Y-62500000D01*
X165725000Y-62825000D02*
X163325000Y-62825000D01*
%TO.N,/Motor2_B*%
X164504814Y-62175000D02*
X163664907Y-61335093D01*
%TO.N,Net-(U3-AISEN)*%
X164882948Y-61525000D02*
X164000000Y-60642052D01*
X164000000Y-60642052D02*
X164000000Y-59741067D01*
X164000000Y-59741067D02*
X162066067Y-59741067D01*
X165725000Y-61525000D02*
X164882948Y-61525000D01*
X162066067Y-59741067D02*
X161500000Y-59175000D01*
%TO.N,/Motor2_B*%
X165725000Y-62175000D02*
X164504814Y-62175000D01*
D30*
%TO.N,GND*%
X184817500Y-65227501D02*
X185407499Y-65817500D01*
X184817500Y-61682499D02*
X184817500Y-65227501D01*
D29*
%TO.N,Circuit2*%
X173715000Y-66540000D02*
X173715000Y-63725000D01*
D30*
%TO.N,GND*%
X184182499Y-62317500D02*
X184817500Y-61682499D01*
X181909194Y-62317500D02*
X184182499Y-62317500D01*
%TO.N,Net-(U2-BAT)*%
X187725806Y-65049193D02*
X186957499Y-65817500D01*
X187725806Y-63587503D02*
X187725806Y-65049193D01*
%TO.N,Net-(U2-CHRG#)*%
X189225806Y-64547498D02*
X189605803Y-64927495D01*
X189225806Y-62047498D02*
X189225806Y-64547498D01*
X188225806Y-61047498D02*
X189225806Y-62047498D01*
X187725806Y-61047498D02*
X188225806Y-61047498D01*
%TO.N,Net-(U2-STDBY#)*%
X188725806Y-65547498D02*
X189225806Y-66047498D01*
X188495808Y-62317500D02*
X188725806Y-62547498D01*
X188725806Y-62547498D02*
X188725806Y-65547498D01*
X187725806Y-62317500D02*
X188495808Y-62317500D01*
%TO.N,Net-(D1-K)*%
X193415807Y-61564995D02*
X193415807Y-63277495D01*
%TO.N,GND*%
X182912496Y-59777495D02*
X184817500Y-61682499D01*
X181909194Y-59777495D02*
X182912496Y-59777495D01*
D29*
%TO.N,Circuit2*%
X173225000Y-63725000D02*
X173715000Y-63725000D01*
X172325000Y-62825000D02*
X173225000Y-63725000D01*
X171275000Y-62825000D02*
X172325000Y-62825000D01*
%TO.N,Net-(U3-VINT)*%
X172775000Y-60725000D02*
X173715000Y-60725000D01*
X171275000Y-61525000D02*
X171975000Y-61525000D01*
X171975000Y-61525000D02*
X172775000Y-60725000D01*
%TO.N,Net-(U3-BISEN)*%
X165725000Y-63475000D02*
X165025000Y-63475000D01*
%TD*%
%TA.AperFunction,Conductor*%
%TO.N,Vbatt*%
G36*
X174790000Y-53870633D02*
G01*
X175003483Y-53813433D01*
X175003492Y-53813429D01*
X175217578Y-53713600D01*
X175411082Y-53578105D01*
X175578105Y-53411082D01*
X175708119Y-53225405D01*
X175762696Y-53181781D01*
X175832195Y-53174588D01*
X175894549Y-53206110D01*
X175911269Y-53225405D01*
X176041505Y-53411401D01*
X176041506Y-53411402D01*
X176208595Y-53578492D01*
X176208598Y-53578494D01*
X176208599Y-53578495D01*
X176276623Y-53626125D01*
X176320248Y-53680701D01*
X176329500Y-53727700D01*
X176329500Y-54124289D01*
X176309815Y-54191328D01*
X176297650Y-54207261D01*
X176267470Y-54240778D01*
X176267465Y-54240785D01*
X176172821Y-54404715D01*
X176172818Y-54404722D01*
X176138880Y-54509174D01*
X176114326Y-54584744D01*
X176094540Y-54773000D01*
X176114326Y-54961256D01*
X176114327Y-54961259D01*
X176172818Y-55141277D01*
X176172821Y-55141284D01*
X176267467Y-55305216D01*
X176357063Y-55404722D01*
X176394129Y-55445888D01*
X176547265Y-55557148D01*
X176547270Y-55557151D01*
X176722615Y-55635221D01*
X176775852Y-55680471D01*
X176796173Y-55747320D01*
X176777127Y-55814544D01*
X176724761Y-55860799D01*
X176672179Y-55872500D01*
X174027568Y-55872500D01*
X173960529Y-55852815D01*
X173914774Y-55800011D01*
X173904247Y-55761462D01*
X173885674Y-55584744D01*
X173827179Y-55404716D01*
X173827177Y-55404712D01*
X173821111Y-55394204D01*
X173804500Y-55332208D01*
X173804500Y-53881232D01*
X173824185Y-53814193D01*
X173876989Y-53768438D01*
X173946147Y-53758494D01*
X173980905Y-53768850D01*
X174076507Y-53813429D01*
X174076516Y-53813433D01*
X174290000Y-53870634D01*
X174290000Y-52973012D01*
X174347007Y-53005925D01*
X174474174Y-53040000D01*
X174605826Y-53040000D01*
X174732993Y-53005925D01*
X174790000Y-52973012D01*
X174790000Y-53870633D01*
G37*
%TD.AperFunction*%
%TA.AperFunction,Conductor*%
G36*
X174790000Y-52106988D02*
G01*
X174732993Y-52074075D01*
X174605826Y-52040000D01*
X174474174Y-52040000D01*
X174347007Y-52074075D01*
X174290000Y-52106988D01*
X174290000Y-50433012D01*
X174347007Y-50465925D01*
X174474174Y-50500000D01*
X174605826Y-50500000D01*
X174732993Y-50465925D01*
X174790000Y-50433012D01*
X174790000Y-52106988D01*
G37*
%TD.AperFunction*%
%TA.AperFunction,Conductor*%
G36*
X192501039Y-47500017D02*
G01*
X192503981Y-47500065D01*
X192656582Y-47502559D01*
X192670718Y-47503602D01*
X192980196Y-47544345D01*
X192996087Y-47547506D01*
X193240218Y-47612921D01*
X193296612Y-47628032D01*
X193311971Y-47633246D01*
X193599400Y-47752303D01*
X193613947Y-47759477D01*
X193883377Y-47915032D01*
X193896863Y-47924043D01*
X194143686Y-48113437D01*
X194155881Y-48124132D01*
X194375867Y-48344118D01*
X194386562Y-48356313D01*
X194575956Y-48603136D01*
X194584967Y-48616622D01*
X194740522Y-48886052D01*
X194747696Y-48900599D01*
X194866753Y-49188028D01*
X194871967Y-49203387D01*
X194952491Y-49503903D01*
X194955655Y-49519812D01*
X194996396Y-49829270D01*
X194997440Y-49843428D01*
X194999983Y-49998960D01*
X195000000Y-50000987D01*
X195000000Y-79499012D01*
X194999983Y-79501039D01*
X194997440Y-79656571D01*
X194996396Y-79670729D01*
X194955655Y-79980187D01*
X194952491Y-79996096D01*
X194871967Y-80296612D01*
X194866753Y-80311971D01*
X194747696Y-80599400D01*
X194740522Y-80613947D01*
X194584967Y-80883377D01*
X194575956Y-80896863D01*
X194386562Y-81143686D01*
X194375867Y-81155881D01*
X194155881Y-81375867D01*
X194143686Y-81386562D01*
X193896863Y-81575956D01*
X193883377Y-81584967D01*
X193613947Y-81740522D01*
X193599400Y-81747696D01*
X193311971Y-81866753D01*
X193296612Y-81871967D01*
X192996096Y-81952491D01*
X192980187Y-81955655D01*
X192670729Y-81996396D01*
X192656571Y-81997440D01*
X192501040Y-81999983D01*
X192499013Y-82000000D01*
X162500987Y-82000000D01*
X162498960Y-81999983D01*
X162343428Y-81997440D01*
X162329270Y-81996396D01*
X162019812Y-81955655D01*
X162003903Y-81952491D01*
X161703387Y-81871967D01*
X161688028Y-81866753D01*
X161400599Y-81747696D01*
X161386052Y-81740522D01*
X161116622Y-81584967D01*
X161103136Y-81575956D01*
X160856313Y-81386562D01*
X160844118Y-81375867D01*
X160624132Y-81155881D01*
X160613437Y-81143686D01*
X160424043Y-80896863D01*
X160415032Y-80883377D01*
X160396020Y-80850448D01*
X160259477Y-80613947D01*
X160252303Y-80599400D01*
X160133246Y-80311971D01*
X160128032Y-80296612D01*
X160071654Y-80086208D01*
X160047506Y-79996087D01*
X160044345Y-79980196D01*
X160003602Y-79670718D01*
X160002559Y-79656582D01*
X160000017Y-79501038D01*
X160000000Y-79499012D01*
X160000000Y-79099953D01*
X163094605Y-79099953D01*
X163114209Y-79361569D01*
X163114210Y-79361574D01*
X163172589Y-79617351D01*
X163172591Y-79617360D01*
X163172593Y-79617365D01*
X163268445Y-79861592D01*
X163399627Y-80088806D01*
X163413910Y-80106716D01*
X163563211Y-80293934D01*
X163744766Y-80462390D01*
X163755534Y-80472382D01*
X163972309Y-80620177D01*
X163972314Y-80620179D01*
X163972315Y-80620180D01*
X163972316Y-80620181D01*
X164097856Y-80680637D01*
X164208686Y-80734010D01*
X164208687Y-80734010D01*
X164208690Y-80734012D01*
X164459398Y-80811345D01*
X164718831Y-80850449D01*
X164981195Y-80850449D01*
X165240628Y-80811345D01*
X165491336Y-80734012D01*
X165727717Y-80620177D01*
X165944492Y-80472382D01*
X166093746Y-80333894D01*
X166136814Y-80293934D01*
X166136814Y-80293932D01*
X166136818Y-80293930D01*
X166300399Y-80088806D01*
X166431581Y-79861592D01*
X166527433Y-79617365D01*
X166585815Y-79361579D01*
X166605421Y-79099953D01*
X176394579Y-79099953D01*
X176414183Y-79361569D01*
X176414184Y-79361574D01*
X176472563Y-79617351D01*
X176472565Y-79617360D01*
X176472567Y-79617365D01*
X176568419Y-79861592D01*
X176699601Y-80088806D01*
X176713884Y-80106716D01*
X176863185Y-80293934D01*
X177044740Y-80462390D01*
X177055508Y-80472382D01*
X177272283Y-80620177D01*
X177272288Y-80620179D01*
X177272289Y-80620180D01*
X177272290Y-80620181D01*
X177397830Y-80680637D01*
X177508660Y-80734010D01*
X177508661Y-80734010D01*
X177508664Y-80734012D01*
X177759372Y-80811345D01*
X178018805Y-80850449D01*
X178281169Y-80850449D01*
X178540602Y-80811345D01*
X178791310Y-80734012D01*
X179027691Y-80620177D01*
X179244466Y-80472382D01*
X179393720Y-80333894D01*
X179436788Y-80293934D01*
X179436788Y-80293932D01*
X179436792Y-80293930D01*
X179600373Y-80088806D01*
X179731555Y-79861592D01*
X179827407Y-79617365D01*
X179885789Y-79361579D01*
X179887354Y-79340701D01*
X182389500Y-79340701D01*
X182392401Y-79377567D01*
X182392402Y-79377573D01*
X182438254Y-79535393D01*
X182438255Y-79535396D01*
X182521917Y-79676862D01*
X182521923Y-79676870D01*
X182638129Y-79793076D01*
X182638133Y-79793079D01*
X182638135Y-79793081D01*
X182779602Y-79876744D01*
X182821224Y-79888836D01*
X182937426Y-79922597D01*
X182937429Y-79922597D01*
X182937431Y-79922598D01*
X182974306Y-79925500D01*
X182974314Y-79925500D01*
X183405686Y-79925500D01*
X183405694Y-79925500D01*
X183442569Y-79922598D01*
X183442571Y-79922597D01*
X183442573Y-79922597D01*
X183489050Y-79909094D01*
X183600398Y-79876744D01*
X183741865Y-79793081D01*
X183741870Y-79793075D01*
X183748031Y-79788298D01*
X183749933Y-79790750D01*
X183798579Y-79764155D01*
X183868274Y-79769104D01*
X183900695Y-79789940D01*
X183901969Y-79788298D01*
X183908132Y-79793078D01*
X183908135Y-79793081D01*
X184049602Y-79876744D01*
X184091224Y-79888836D01*
X184207426Y-79922597D01*
X184207429Y-79922597D01*
X184207431Y-79922598D01*
X184244306Y-79925500D01*
X184244314Y-79925500D01*
X184675686Y-79925500D01*
X184675694Y-79925500D01*
X184712569Y-79922598D01*
X184712571Y-79922597D01*
X184712573Y-79922597D01*
X184759050Y-79909094D01*
X184870398Y-79876744D01*
X185011865Y-79793081D01*
X185011870Y-79793075D01*
X185018031Y-79788298D01*
X185019933Y-79790750D01*
X185068579Y-79764155D01*
X185138274Y-79769104D01*
X185170695Y-79789940D01*
X185171969Y-79788298D01*
X185178132Y-79793078D01*
X185178135Y-79793081D01*
X185319602Y-79876744D01*
X185361224Y-79888836D01*
X185477426Y-79922597D01*
X185477429Y-79922597D01*
X185477431Y-79922598D01*
X185514306Y-79925500D01*
X185514314Y-79925500D01*
X185945686Y-79925500D01*
X185945694Y-79925500D01*
X185982569Y-79922598D01*
X186042676Y-79905135D01*
X186112546Y-79905334D01*
X186171216Y-79943276D01*
X186200060Y-80006914D01*
X186189919Y-80076044D01*
X186184661Y-80086208D01*
X186172821Y-80106716D01*
X186172818Y-80106722D01*
X186114327Y-80286740D01*
X186114326Y-80286744D01*
X186094540Y-80475000D01*
X186114326Y-80663256D01*
X186114327Y-80663259D01*
X186172818Y-80843277D01*
X186172821Y-80843284D01*
X186267467Y-81007216D01*
X186394129Y-81147888D01*
X186547265Y-81259148D01*
X186547270Y-81259151D01*
X186720192Y-81336142D01*
X186720197Y-81336144D01*
X186905354Y-81375500D01*
X186905355Y-81375500D01*
X187094644Y-81375500D01*
X187094646Y-81375500D01*
X187279803Y-81336144D01*
X187452730Y-81259151D01*
X187605871Y-81147888D01*
X187732533Y-81007216D01*
X187827179Y-80843284D01*
X187885674Y-80663256D01*
X187905460Y-80475000D01*
X187885674Y-80286744D01*
X187827179Y-80106716D01*
X187815339Y-80086208D01*
X187798867Y-80018311D01*
X187821719Y-79952284D01*
X187876641Y-79909094D01*
X187946194Y-79902452D01*
X187957322Y-79905135D01*
X188017426Y-79922597D01*
X188017429Y-79922597D01*
X188017431Y-79922598D01*
X188054306Y-79925500D01*
X188054314Y-79925500D01*
X188485686Y-79925500D01*
X188485694Y-79925500D01*
X188522569Y-79922598D01*
X188522571Y-79922597D01*
X188522573Y-79922597D01*
X188569050Y-79909094D01*
X188680398Y-79876744D01*
X188821865Y-79793081D01*
X188821870Y-79793075D01*
X188828031Y-79788298D01*
X188829933Y-79790750D01*
X188878579Y-79764155D01*
X188948274Y-79769104D01*
X188980695Y-79789940D01*
X188981969Y-79788298D01*
X188988132Y-79793078D01*
X188988135Y-79793081D01*
X189129602Y-79876744D01*
X189171224Y-79888836D01*
X189287426Y-79922597D01*
X189287429Y-79922597D01*
X189287431Y-79922598D01*
X189324306Y-79925500D01*
X189324314Y-79925500D01*
X189755686Y-79925500D01*
X189755694Y-79925500D01*
X189792569Y-79922598D01*
X189792571Y-79922597D01*
X189792573Y-79922597D01*
X189839050Y-79909094D01*
X189950398Y-79876744D01*
X190091865Y-79793081D01*
X190091870Y-79793075D01*
X190098031Y-79788298D01*
X190099933Y-79790750D01*
X190148579Y-79764155D01*
X190218274Y-79769104D01*
X190250695Y-79789940D01*
X190251969Y-79788298D01*
X190258132Y-79793078D01*
X190258135Y-79793081D01*
X190399602Y-79876744D01*
X190441224Y-79888836D01*
X190557426Y-79922597D01*
X190557429Y-79922597D01*
X190557431Y-79922598D01*
X190594306Y-79925500D01*
X190594314Y-79925500D01*
X191025686Y-79925500D01*
X191025694Y-79925500D01*
X191062569Y-79922598D01*
X191062571Y-79922597D01*
X191062573Y-79922597D01*
X191109050Y-79909094D01*
X191220398Y-79876744D01*
X191361865Y-79793081D01*
X191478081Y-79676865D01*
X191561744Y-79535398D01*
X191607598Y-79377569D01*
X191610500Y-79340694D01*
X191610500Y-77559306D01*
X191607598Y-77522431D01*
X191591170Y-77465887D01*
X191561745Y-77364606D01*
X191561744Y-77364603D01*
X191561744Y-77364602D01*
X191478081Y-77223135D01*
X191478079Y-77223133D01*
X191478076Y-77223129D01*
X191361870Y-77106923D01*
X191361862Y-77106917D01*
X191220396Y-77023255D01*
X191220393Y-77023254D01*
X191062573Y-76977402D01*
X191062567Y-76977401D01*
X191025701Y-76974500D01*
X191025694Y-76974500D01*
X190594306Y-76974500D01*
X190594298Y-76974500D01*
X190557432Y-76977401D01*
X190557426Y-76977402D01*
X190399606Y-77023254D01*
X190399603Y-77023255D01*
X190258137Y-77106917D01*
X190251969Y-77111702D01*
X190250072Y-77109256D01*
X190201358Y-77135857D01*
X190131666Y-77130873D01*
X190099296Y-77110069D01*
X190098031Y-77111702D01*
X190091862Y-77106917D01*
X189950396Y-77023255D01*
X189950393Y-77023254D01*
X189792573Y-76977402D01*
X189792567Y-76977401D01*
X189755701Y-76974500D01*
X189755694Y-76974500D01*
X189324306Y-76974500D01*
X189324298Y-76974500D01*
X189287432Y-76977401D01*
X189287426Y-76977402D01*
X189129606Y-77023254D01*
X189129603Y-77023255D01*
X188988137Y-77106917D01*
X188981969Y-77111702D01*
X188980072Y-77109256D01*
X188931358Y-77135857D01*
X188861666Y-77130873D01*
X188829296Y-77110069D01*
X188828031Y-77111702D01*
X188821862Y-77106917D01*
X188680396Y-77023255D01*
X188680393Y-77023254D01*
X188522573Y-76977402D01*
X188522567Y-76977401D01*
X188485701Y-76974500D01*
X188485694Y-76974500D01*
X188054306Y-76974500D01*
X188054298Y-76974500D01*
X188017432Y-76977401D01*
X188017426Y-76977402D01*
X187859606Y-77023254D01*
X187859603Y-77023255D01*
X187718137Y-77106917D01*
X187711969Y-77111702D01*
X187710072Y-77109256D01*
X187661358Y-77135857D01*
X187591666Y-77130873D01*
X187559296Y-77110069D01*
X187558031Y-77111702D01*
X187551862Y-77106917D01*
X187410396Y-77023255D01*
X187410393Y-77023254D01*
X187252573Y-76977402D01*
X187252567Y-76977401D01*
X187215701Y-76974500D01*
X187215694Y-76974500D01*
X186784306Y-76974500D01*
X186784298Y-76974500D01*
X186747432Y-76977401D01*
X186747426Y-76977402D01*
X186589606Y-77023254D01*
X186589603Y-77023255D01*
X186448137Y-77106917D01*
X186441969Y-77111702D01*
X186440072Y-77109256D01*
X186391358Y-77135857D01*
X186321666Y-77130873D01*
X186289296Y-77110069D01*
X186288031Y-77111702D01*
X186281862Y-77106917D01*
X186140396Y-77023255D01*
X186140393Y-77023254D01*
X185982573Y-76977402D01*
X185982567Y-76977401D01*
X185945701Y-76974500D01*
X185945694Y-76974500D01*
X185514306Y-76974500D01*
X185514298Y-76974500D01*
X185477432Y-76977401D01*
X185477426Y-76977402D01*
X185319606Y-77023254D01*
X185319603Y-77023255D01*
X185178137Y-77106917D01*
X185171969Y-77111702D01*
X185170072Y-77109256D01*
X185121358Y-77135857D01*
X185051666Y-77130873D01*
X185019296Y-77110069D01*
X185018031Y-77111702D01*
X185011862Y-77106917D01*
X184870396Y-77023255D01*
X184870393Y-77023254D01*
X184712573Y-76977402D01*
X184712567Y-76977401D01*
X184675701Y-76974500D01*
X184675694Y-76974500D01*
X184244306Y-76974500D01*
X184244298Y-76974500D01*
X184207432Y-76977401D01*
X184207426Y-76977402D01*
X184049606Y-77023254D01*
X184049603Y-77023255D01*
X183908137Y-77106917D01*
X183901969Y-77111702D01*
X183900072Y-77109256D01*
X183851358Y-77135857D01*
X183781666Y-77130873D01*
X183749296Y-77110069D01*
X183748031Y-77111702D01*
X183741862Y-77106917D01*
X183600396Y-77023255D01*
X183600393Y-77023254D01*
X183442573Y-76977402D01*
X183442567Y-76977401D01*
X183405701Y-76974500D01*
X183405694Y-76974500D01*
X182974306Y-76974500D01*
X182974298Y-76974500D01*
X182937432Y-76977401D01*
X182937426Y-76977402D01*
X182779606Y-77023254D01*
X182779603Y-77023255D01*
X182638137Y-77106917D01*
X182638129Y-77106923D01*
X182521923Y-77223129D01*
X182521917Y-77223137D01*
X182438255Y-77364603D01*
X182438254Y-77364606D01*
X182392402Y-77522426D01*
X182392401Y-77522432D01*
X182389500Y-77559298D01*
X182389500Y-79340701D01*
X179887354Y-79340701D01*
X179905395Y-79099949D01*
X179885789Y-78838319D01*
X179827407Y-78582533D01*
X179731555Y-78338306D01*
X179600373Y-78111092D01*
X179436792Y-77905968D01*
X179436791Y-77905967D01*
X179436788Y-77905963D01*
X179244466Y-77727516D01*
X179027691Y-77579721D01*
X179027687Y-77579719D01*
X179027684Y-77579717D01*
X179027683Y-77579716D01*
X178791312Y-77465887D01*
X178791314Y-77465887D01*
X178540610Y-77388555D01*
X178540606Y-77388554D01*
X178540602Y-77388553D01*
X178415810Y-77369743D01*
X178281174Y-77349449D01*
X178281169Y-77349449D01*
X178018805Y-77349449D01*
X178018799Y-77349449D01*
X177857234Y-77373802D01*
X177759372Y-77388553D01*
X177759369Y-77388554D01*
X177759363Y-77388555D01*
X177508660Y-77465887D01*
X177272290Y-77579716D01*
X177272289Y-77579717D01*
X177055507Y-77727516D01*
X176863185Y-77905963D01*
X176699601Y-78111092D01*
X176568419Y-78338305D01*
X176472569Y-78582527D01*
X176472563Y-78582546D01*
X176414184Y-78838323D01*
X176414183Y-78838328D01*
X176394579Y-79099944D01*
X176394579Y-79099953D01*
X166605421Y-79099953D01*
X166605421Y-79099949D01*
X166585815Y-78838319D01*
X166527433Y-78582533D01*
X166431581Y-78338306D01*
X166300399Y-78111092D01*
X166136818Y-77905968D01*
X166136817Y-77905967D01*
X166136814Y-77905963D01*
X165944492Y-77727516D01*
X165727717Y-77579721D01*
X165727713Y-77579719D01*
X165727710Y-77579717D01*
X165727709Y-77579716D01*
X165491338Y-77465887D01*
X165491340Y-77465887D01*
X165240636Y-77388555D01*
X165240632Y-77388554D01*
X165240628Y-77388553D01*
X165115836Y-77369743D01*
X164981200Y-77349449D01*
X164981195Y-77349449D01*
X164718831Y-77349449D01*
X164718825Y-77349449D01*
X164557260Y-77373802D01*
X164459398Y-77388553D01*
X164459395Y-77388554D01*
X164459389Y-77388555D01*
X164208686Y-77465887D01*
X163972316Y-77579716D01*
X163972315Y-77579717D01*
X163755533Y-77727516D01*
X163563211Y-77905963D01*
X163399627Y-78111092D01*
X163268445Y-78338305D01*
X163172595Y-78582527D01*
X163172589Y-78582546D01*
X163114210Y-78838323D01*
X163114209Y-78838328D01*
X163094605Y-79099944D01*
X163094605Y-79099953D01*
X160000000Y-79099953D01*
X160000000Y-64547870D01*
X160499500Y-64547870D01*
X160499501Y-64547876D01*
X160505908Y-64607483D01*
X160556202Y-64742328D01*
X160556206Y-64742335D01*
X160642452Y-64857544D01*
X160642453Y-64857544D01*
X160642454Y-64857546D01*
X160647461Y-64861294D01*
X160648058Y-64861741D01*
X160689929Y-64917676D01*
X160694912Y-64987368D01*
X160673307Y-65033334D01*
X160673409Y-65033396D01*
X160672823Y-65034364D01*
X160671362Y-65037474D01*
X160669529Y-65039812D01*
X160581522Y-65185393D01*
X160530913Y-65347807D01*
X160524500Y-65418386D01*
X160524500Y-65931613D01*
X160530913Y-66002192D01*
X160530913Y-66002194D01*
X160530914Y-66002196D01*
X160566328Y-66115845D01*
X160581522Y-66164606D01*
X160669530Y-66310188D01*
X160771661Y-66412319D01*
X160805146Y-66473642D01*
X160800162Y-66543334D01*
X160771661Y-66587681D01*
X160669531Y-66689810D01*
X160669530Y-66689811D01*
X160581522Y-66835393D01*
X160530913Y-66997807D01*
X160524500Y-67068386D01*
X160524500Y-67581613D01*
X160530913Y-67652192D01*
X160581522Y-67814606D01*
X160669530Y-67960188D01*
X160674157Y-67966094D01*
X160672408Y-67967463D01*
X160700604Y-68019100D01*
X160695620Y-68088792D01*
X160686826Y-68107456D01*
X160672821Y-68131713D01*
X160614327Y-68311740D01*
X160614326Y-68311744D01*
X160594540Y-68500000D01*
X160614326Y-68688256D01*
X160614327Y-68688259D01*
X160672818Y-68868277D01*
X160672821Y-68868284D01*
X160767467Y-69032216D01*
X160866726Y-69142454D01*
X160894129Y-69172888D01*
X161047265Y-69284148D01*
X161047270Y-69284151D01*
X161220192Y-69361142D01*
X161220197Y-69361144D01*
X161405354Y-69400500D01*
X161405355Y-69400500D01*
X161594644Y-69400500D01*
X161594646Y-69400500D01*
X161779803Y-69361144D01*
X161825065Y-69340991D01*
X161894312Y-69331706D01*
X161957589Y-69361334D01*
X161994804Y-69420468D01*
X161999500Y-69454271D01*
X161999500Y-70547870D01*
X161999501Y-70547876D01*
X162005908Y-70607483D01*
X162056202Y-70742328D01*
X162056206Y-70742335D01*
X162142452Y-70857544D01*
X162142455Y-70857547D01*
X162257664Y-70943793D01*
X162257671Y-70943797D01*
X162392517Y-70994091D01*
X162392516Y-70994091D01*
X162399444Y-70994835D01*
X162452127Y-71000500D01*
X163547872Y-71000499D01*
X163607483Y-70994091D01*
X163742331Y-70943796D01*
X163857546Y-70857546D01*
X163943796Y-70742331D01*
X163994091Y-70607483D01*
X164000500Y-70547873D01*
X164000499Y-70438279D01*
X164020183Y-70371241D01*
X164036813Y-70350604D01*
X164745214Y-69642203D01*
X164806535Y-69608720D01*
X164876227Y-69613704D01*
X164932160Y-69655576D01*
X164956577Y-69721040D01*
X164956546Y-69739152D01*
X164944490Y-69900046D01*
X164944490Y-69900055D01*
X164964094Y-70161671D01*
X164964095Y-70161676D01*
X164964095Y-70161680D01*
X164964096Y-70161681D01*
X164970267Y-70188718D01*
X165022474Y-70417453D01*
X165022476Y-70417462D01*
X165022478Y-70417467D01*
X165030613Y-70438196D01*
X165069645Y-70537647D01*
X165075814Y-70607244D01*
X165043376Y-70669127D01*
X165041898Y-70670630D01*
X163736038Y-71976490D01*
X163674715Y-72009975D01*
X163615495Y-72005743D01*
X163615035Y-72007693D01*
X163607483Y-72005908D01*
X163547883Y-71999501D01*
X163547881Y-71999500D01*
X163547873Y-71999500D01*
X163547864Y-71999500D01*
X162452129Y-71999500D01*
X162452123Y-71999501D01*
X162392516Y-72005908D01*
X162257671Y-72056202D01*
X162257664Y-72056206D01*
X162142455Y-72142452D01*
X162142452Y-72142455D01*
X162056206Y-72257664D01*
X162056202Y-72257671D01*
X162005908Y-72392517D01*
X161999501Y-72452116D01*
X161999500Y-72452135D01*
X161999500Y-73547870D01*
X161999501Y-73547876D01*
X162005908Y-73607483D01*
X162056202Y-73742328D01*
X162056206Y-73742335D01*
X162142452Y-73857544D01*
X162142455Y-73857547D01*
X162257664Y-73943793D01*
X162257671Y-73943797D01*
X162392517Y-73994091D01*
X162392516Y-73994091D01*
X162399444Y-73994835D01*
X162452127Y-74000500D01*
X163547872Y-74000499D01*
X163607483Y-73994091D01*
X163742331Y-73943796D01*
X163857546Y-73857546D01*
X163943796Y-73742331D01*
X163994091Y-73607483D01*
X164000500Y-73547873D01*
X164000499Y-73538237D01*
X164020178Y-73471199D01*
X164036819Y-73450548D01*
X164087361Y-73400007D01*
X164087361Y-73400006D01*
X165925532Y-71561834D01*
X165986853Y-71528351D01*
X166054016Y-71533154D01*
X166054142Y-71532746D01*
X166055902Y-71533289D01*
X166056544Y-71533335D01*
X166058527Y-71534094D01*
X166058560Y-71534107D01*
X166058575Y-71534114D01*
X166309283Y-71611447D01*
X166568716Y-71650551D01*
X166831080Y-71650551D01*
X167090513Y-71611447D01*
X167341221Y-71534114D01*
X167528775Y-71443793D01*
X167577594Y-71420283D01*
X167577594Y-71420282D01*
X167577602Y-71420279D01*
X167794377Y-71272484D01*
X167972206Y-71107483D01*
X167986699Y-71094036D01*
X167986699Y-71094034D01*
X167986703Y-71094032D01*
X168150284Y-70888908D01*
X168281466Y-70661694D01*
X168377318Y-70417467D01*
X168435700Y-70161681D01*
X168435706Y-70161601D01*
X168455306Y-69900055D01*
X169745093Y-69900055D01*
X169764692Y-70161596D01*
X169764693Y-70161601D01*
X169823058Y-70417321D01*
X169918883Y-70661477D01*
X169918882Y-70661477D01*
X170050027Y-70888624D01*
X170097874Y-70948622D01*
X170709521Y-70336974D01*
X170800924Y-70473768D01*
X170926283Y-70599127D01*
X171063074Y-70690528D01*
X170450830Y-71302771D01*
X170622546Y-71419844D01*
X170622550Y-71419846D01*
X170858854Y-71533645D01*
X170858858Y-71533646D01*
X171109494Y-71610958D01*
X171109500Y-71610960D01*
X171368848Y-71650050D01*
X171368857Y-71650051D01*
X171631143Y-71650051D01*
X171631151Y-71650050D01*
X171890499Y-71610960D01*
X171890505Y-71610958D01*
X172141143Y-71533646D01*
X172377445Y-71419849D01*
X172377447Y-71419848D01*
X172549168Y-71302771D01*
X171936924Y-70690528D01*
X172073717Y-70599127D01*
X172199076Y-70473768D01*
X172290477Y-70336975D01*
X172902125Y-70948623D01*
X172949971Y-70888624D01*
X173081116Y-70661477D01*
X173176941Y-70417321D01*
X173235306Y-70161601D01*
X173235307Y-70161596D01*
X173254907Y-69900055D01*
X173254907Y-69900046D01*
X173235307Y-69638505D01*
X173235306Y-69638500D01*
X173176941Y-69382780D01*
X173081116Y-69138624D01*
X173081117Y-69138624D01*
X172949972Y-68911477D01*
X172902124Y-68851478D01*
X172290477Y-69463125D01*
X172199076Y-69326334D01*
X172073717Y-69200975D01*
X171936924Y-69109573D01*
X172549168Y-68497329D01*
X172377454Y-68380257D01*
X172377445Y-68380252D01*
X172141142Y-68266455D01*
X172141144Y-68266455D01*
X171890505Y-68189143D01*
X171890499Y-68189141D01*
X171631151Y-68150051D01*
X171368848Y-68150051D01*
X171109500Y-68189141D01*
X171109494Y-68189143D01*
X170858858Y-68266455D01*
X170858854Y-68266456D01*
X170622547Y-68380256D01*
X170622539Y-68380261D01*
X170450830Y-68497328D01*
X171063075Y-69109573D01*
X170926283Y-69200975D01*
X170800924Y-69326334D01*
X170709522Y-69463126D01*
X170097874Y-68851478D01*
X170050028Y-68911476D01*
X169918883Y-69138624D01*
X169823058Y-69382780D01*
X169764693Y-69638500D01*
X169764692Y-69638505D01*
X169745093Y-69900046D01*
X169745093Y-69900055D01*
X168455306Y-69900055D01*
X168455306Y-69900046D01*
X168435701Y-69638430D01*
X168435700Y-69638425D01*
X168435700Y-69638421D01*
X168377318Y-69382635D01*
X168281466Y-69138408D01*
X168150284Y-68911194D01*
X167986703Y-68706070D01*
X167986702Y-68706069D01*
X167986699Y-68706065D01*
X167862788Y-68591093D01*
X167794377Y-68527618D01*
X167753869Y-68500000D01*
X167659631Y-68435749D01*
X167615329Y-68381721D01*
X167607271Y-68312317D01*
X167638013Y-68249574D01*
X167641777Y-68245640D01*
X168683600Y-67203819D01*
X168744923Y-67170334D01*
X168771281Y-67167500D01*
X172801229Y-67167500D01*
X172868268Y-67187185D01*
X172906767Y-67226402D01*
X172917031Y-67243043D01*
X173036955Y-67362967D01*
X173036959Y-67362970D01*
X173181294Y-67451998D01*
X173181297Y-67451999D01*
X173181303Y-67452003D01*
X173342292Y-67505349D01*
X173441655Y-67515500D01*
X173988344Y-67515499D01*
X173988352Y-67515498D01*
X173988355Y-67515498D01*
X174042760Y-67509940D01*
X174087708Y-67505349D01*
X174248697Y-67452003D01*
X174393044Y-67362968D01*
X174402319Y-67353693D01*
X174463642Y-67320208D01*
X174533334Y-67325192D01*
X174577681Y-67353693D01*
X174586955Y-67362967D01*
X174586959Y-67362970D01*
X174731294Y-67451998D01*
X174731297Y-67451999D01*
X174731303Y-67452003D01*
X174892292Y-67505349D01*
X174991655Y-67515500D01*
X175538344Y-67515499D01*
X175538352Y-67515498D01*
X175538355Y-67515498D01*
X175592760Y-67509940D01*
X175637708Y-67505349D01*
X175798697Y-67452003D01*
X175943044Y-67362968D01*
X176062968Y-67243044D01*
X176152003Y-67098697D01*
X176205349Y-66937708D01*
X176215500Y-66838345D01*
X176215499Y-66241656D01*
X176215047Y-66237236D01*
X176205349Y-66142292D01*
X176200447Y-66127500D01*
X176172013Y-66041692D01*
X176169612Y-65971867D01*
X176205343Y-65911825D01*
X176267864Y-65880632D01*
X176315499Y-65881400D01*
X176405354Y-65900500D01*
X176405355Y-65900500D01*
X176594644Y-65900500D01*
X176594646Y-65900500D01*
X176779803Y-65861144D01*
X176952730Y-65784151D01*
X177105871Y-65672888D01*
X177232533Y-65532216D01*
X177327179Y-65368284D01*
X177385674Y-65188256D01*
X177402989Y-65023506D01*
X177429572Y-64958895D01*
X177438629Y-64948789D01*
X177443622Y-64943796D01*
X177487411Y-64900008D01*
X177515783Y-64857546D01*
X177556083Y-64797233D01*
X177592046Y-64710411D01*
X177603386Y-64683034D01*
X177627500Y-64561803D01*
X177627500Y-64438197D01*
X177627500Y-60423465D01*
X177647185Y-60356426D01*
X177659343Y-60340500D01*
X177732533Y-60259216D01*
X177827179Y-60095284D01*
X177885674Y-59915256D01*
X177905460Y-59727000D01*
X177885674Y-59538744D01*
X177827179Y-59358716D01*
X177732533Y-59194784D01*
X177605871Y-59054112D01*
X177577775Y-59033699D01*
X177452734Y-58942851D01*
X177452729Y-58942848D01*
X177277385Y-58864779D01*
X177224148Y-58819529D01*
X177203827Y-58752680D01*
X177222873Y-58685456D01*
X177275239Y-58639201D01*
X177327821Y-58627500D01*
X178589938Y-58627500D01*
X178589939Y-58627499D01*
X178711169Y-58603386D01*
X178719918Y-58599761D01*
X178789384Y-58592287D01*
X178851865Y-58623557D01*
X178859527Y-58631347D01*
X178922263Y-58701022D01*
X178922269Y-58701027D01*
X179075399Y-58812282D01*
X179075404Y-58812285D01*
X179248326Y-58889276D01*
X179248331Y-58889278D01*
X179433488Y-58928634D01*
X179433489Y-58928634D01*
X179622778Y-58928634D01*
X179622780Y-58928634D01*
X179807937Y-58889278D01*
X179980864Y-58812285D01*
X180133998Y-58701026D01*
X180134000Y-58701026D01*
X180134000Y-58701024D01*
X180134005Y-58701022D01*
X180163264Y-58668525D01*
X180222750Y-58631879D01*
X180255413Y-58627500D01*
X185438197Y-58627500D01*
X185504494Y-58627500D01*
X185571533Y-58647185D01*
X185617288Y-58699989D01*
X185622425Y-58713182D01*
X185672818Y-58868278D01*
X185672821Y-58868284D01*
X185767467Y-59032216D01*
X185863351Y-59138706D01*
X185894129Y-59172888D01*
X186047265Y-59284148D01*
X186047270Y-59284151D01*
X186071008Y-59294720D01*
X186124245Y-59339970D01*
X186144566Y-59406820D01*
X186125520Y-59474043D01*
X186073154Y-59520298D01*
X186020572Y-59531999D01*
X183638308Y-59531999D01*
X183571269Y-59512314D01*
X183550627Y-59495680D01*
X183327170Y-59272222D01*
X183327166Y-59272219D01*
X183327165Y-59272218D01*
X183220623Y-59201030D01*
X183206488Y-59195175D01*
X183102239Y-59151993D01*
X183100657Y-59151679D01*
X183100657Y-59151678D01*
X182976567Y-59126995D01*
X182976565Y-59126995D01*
X182917425Y-59126995D01*
X182850386Y-59107310D01*
X182843114Y-59102262D01*
X182751525Y-59033699D01*
X182751522Y-59033697D01*
X182616676Y-58983403D01*
X182616677Y-58983403D01*
X182557077Y-58976996D01*
X182557075Y-58976995D01*
X182557067Y-58976995D01*
X182557058Y-58976995D01*
X181261323Y-58976995D01*
X181261317Y-58976996D01*
X181201710Y-58983403D01*
X181066865Y-59033697D01*
X181066858Y-59033701D01*
X180951649Y-59119947D01*
X180951646Y-59119950D01*
X180865400Y-59235159D01*
X180865396Y-59235166D01*
X180815232Y-59369666D01*
X180815103Y-59370012D01*
X180808694Y-59429622D01*
X180808694Y-59429629D01*
X180808694Y-59429630D01*
X180808694Y-60125365D01*
X180808695Y-60125371D01*
X180815102Y-60184978D01*
X180834129Y-60235990D01*
X180839113Y-60305682D01*
X180805628Y-60367005D01*
X180744305Y-60400489D01*
X180674613Y-60395505D01*
X180653797Y-60385440D01*
X180564606Y-60331522D01*
X180527071Y-60319826D01*
X180402196Y-60280914D01*
X180402194Y-60280913D01*
X180402192Y-60280913D01*
X180352778Y-60276423D01*
X180331616Y-60274500D01*
X179668384Y-60274500D01*
X179649145Y-60276248D01*
X179597807Y-60280913D01*
X179435393Y-60331522D01*
X179289811Y-60419530D01*
X179169530Y-60539811D01*
X179081522Y-60685393D01*
X179030913Y-60847807D01*
X179024500Y-60918386D01*
X179024500Y-61431613D01*
X179030913Y-61502192D01*
X179030913Y-61502194D01*
X179030914Y-61502196D01*
X179063714Y-61607456D01*
X179081522Y-61664606D01*
X179169530Y-61810188D01*
X179271661Y-61912319D01*
X179305146Y-61973642D01*
X179300162Y-62043334D01*
X179271661Y-62087681D01*
X179169531Y-62189810D01*
X179169530Y-62189811D01*
X179081522Y-62335393D01*
X179030913Y-62497807D01*
X179024500Y-62568386D01*
X179024500Y-63081613D01*
X179030913Y-63152192D01*
X179030913Y-63152194D01*
X179030914Y-63152196D01*
X179081522Y-63314606D01*
X179169528Y-63460185D01*
X179231175Y-63521832D01*
X179264659Y-63583153D01*
X179259675Y-63652845D01*
X179250881Y-63671511D01*
X179206794Y-63747873D01*
X179176699Y-63800000D01*
X179172820Y-63806718D01*
X179172818Y-63806722D01*
X179123991Y-63956998D01*
X179114326Y-63986744D01*
X179094540Y-64175000D01*
X179114326Y-64363256D01*
X179114327Y-64363259D01*
X179172818Y-64543277D01*
X179172821Y-64543284D01*
X179267467Y-64707216D01*
X179384740Y-64837460D01*
X179394129Y-64847888D01*
X179547265Y-64959148D01*
X179547270Y-64959151D01*
X179720192Y-65036142D01*
X179720197Y-65036144D01*
X179905354Y-65075500D01*
X179905355Y-65075500D01*
X180094644Y-65075500D01*
X180094646Y-65075500D01*
X180279803Y-65036144D01*
X180452730Y-64959151D01*
X180605871Y-64847888D01*
X180732533Y-64707216D01*
X180827179Y-64543284D01*
X180852609Y-64465019D01*
X180892046Y-64407344D01*
X180956405Y-64380145D01*
X181025251Y-64392059D01*
X181076727Y-64439304D01*
X181091871Y-64493746D01*
X181093861Y-64493537D01*
X181094540Y-64499998D01*
X181094540Y-64500000D01*
X181114326Y-64688256D01*
X181114327Y-64688259D01*
X181172818Y-64868277D01*
X181172821Y-64868284D01*
X181267467Y-65032216D01*
X181394129Y-65172888D01*
X181547265Y-65284148D01*
X181547270Y-65284151D01*
X181720192Y-65361142D01*
X181720197Y-65361144D01*
X181905354Y-65400500D01*
X181905355Y-65400500D01*
X182094644Y-65400500D01*
X182094646Y-65400500D01*
X182279803Y-65361144D01*
X182452730Y-65284151D01*
X182605871Y-65172888D01*
X182732533Y-65032216D01*
X182827179Y-64868284D01*
X182885674Y-64688256D01*
X182905460Y-64500000D01*
X182885674Y-64311744D01*
X182884702Y-64308755D01*
X182884650Y-64306931D01*
X182884322Y-64305385D01*
X182884604Y-64305324D01*
X182882704Y-64238916D01*
X182903361Y-64196128D01*
X182952990Y-64129834D01*
X183003285Y-63994986D01*
X183009694Y-63935376D01*
X183009693Y-63728295D01*
X183029377Y-63661258D01*
X183082181Y-63615503D01*
X183151339Y-63605559D01*
X183214895Y-63634584D01*
X183232959Y-63653985D01*
X183259955Y-63690046D01*
X183375164Y-63776292D01*
X183375171Y-63776296D01*
X183420118Y-63793060D01*
X183510017Y-63826590D01*
X183569627Y-63832999D01*
X184043000Y-63832998D01*
X184110039Y-63852682D01*
X184155794Y-63905486D01*
X184167000Y-63956998D01*
X184167000Y-65291570D01*
X184167000Y-65291572D01*
X184166999Y-65291572D01*
X184188569Y-65400006D01*
X184188570Y-65400006D01*
X184188570Y-65400008D01*
X184191999Y-65417245D01*
X184192000Y-65417247D01*
X184232625Y-65515326D01*
X184241035Y-65535628D01*
X184312223Y-65642170D01*
X184420681Y-65750628D01*
X184454165Y-65811949D01*
X184456999Y-65838308D01*
X184456999Y-66115836D01*
X184457000Y-66115855D01*
X184466914Y-66212899D01*
X184454144Y-66281592D01*
X184406263Y-66332476D01*
X184343556Y-66349500D01*
X179136082Y-66349500D01*
X179010414Y-66374497D01*
X179010408Y-66374499D01*
X178892023Y-66423535D01*
X178785484Y-66494722D01*
X178785477Y-66494728D01*
X177049890Y-68230315D01*
X176988567Y-68263800D01*
X176925659Y-68261125D01*
X176825776Y-68230315D01*
X176690725Y-68188657D01*
X176690721Y-68188656D01*
X176690717Y-68188655D01*
X176565925Y-68169845D01*
X176431289Y-68149551D01*
X176431284Y-68149551D01*
X176168920Y-68149551D01*
X176168914Y-68149551D01*
X176007349Y-68173904D01*
X175909487Y-68188655D01*
X175909484Y-68188656D01*
X175909478Y-68188657D01*
X175658775Y-68265989D01*
X175422405Y-68379818D01*
X175422404Y-68379819D01*
X175422398Y-68379822D01*
X175422398Y-68379823D01*
X175421756Y-68380261D01*
X175205622Y-68527618D01*
X175013300Y-68706065D01*
X174849716Y-68911194D01*
X174718534Y-69138407D01*
X174622684Y-69382629D01*
X174622678Y-69382648D01*
X174564299Y-69638425D01*
X174564298Y-69638430D01*
X174544694Y-69900046D01*
X174544694Y-69900055D01*
X174564298Y-70161671D01*
X174564299Y-70161676D01*
X174564299Y-70161680D01*
X174564300Y-70161681D01*
X174570471Y-70188718D01*
X174622678Y-70417453D01*
X174622680Y-70417462D01*
X174622682Y-70417467D01*
X174718534Y-70661694D01*
X174849716Y-70888908D01*
X174933597Y-70994091D01*
X175013300Y-71094036D01*
X175194855Y-71262492D01*
X175205623Y-71272484D01*
X175422398Y-71420279D01*
X175422403Y-71420281D01*
X175422404Y-71420282D01*
X175422405Y-71420283D01*
X175490082Y-71452874D01*
X175658775Y-71534112D01*
X175658776Y-71534112D01*
X175658779Y-71534114D01*
X175909487Y-71611447D01*
X176168920Y-71650551D01*
X176431284Y-71650551D01*
X176690717Y-71611447D01*
X176941425Y-71534114D01*
X177128979Y-71443793D01*
X177177798Y-71420283D01*
X177177798Y-71420282D01*
X177177806Y-71420279D01*
X177394581Y-71272484D01*
X177515163Y-71160600D01*
X177577694Y-71129433D01*
X177599503Y-71127500D01*
X177927279Y-71127500D01*
X177994318Y-71147185D01*
X178040073Y-71199989D01*
X178043461Y-71208166D01*
X178056203Y-71242330D01*
X178056206Y-71242335D01*
X178142452Y-71357544D01*
X178142455Y-71357547D01*
X178257664Y-71443793D01*
X178257671Y-71443797D01*
X178392517Y-71494091D01*
X178392516Y-71494091D01*
X178399444Y-71494835D01*
X178452127Y-71500500D01*
X179547872Y-71500499D01*
X179607483Y-71494091D01*
X179742331Y-71443796D01*
X179857546Y-71357546D01*
X179943796Y-71242331D01*
X179994091Y-71107483D01*
X180000500Y-71047873D01*
X180000500Y-71047870D01*
X180499500Y-71047870D01*
X180499501Y-71047876D01*
X180505908Y-71107483D01*
X180556202Y-71242328D01*
X180556206Y-71242335D01*
X180642452Y-71357544D01*
X180642455Y-71357547D01*
X180757664Y-71443793D01*
X180757671Y-71443797D01*
X180782008Y-71452874D01*
X180892517Y-71494091D01*
X180952127Y-71500500D01*
X181561718Y-71500499D01*
X181628757Y-71520183D01*
X181649399Y-71536818D01*
X182012589Y-71900008D01*
X182068354Y-71955773D01*
X182099994Y-71987413D01*
X182099996Y-71987414D01*
X182202756Y-72056076D01*
X182202760Y-72056078D01*
X182202767Y-72056083D01*
X182244227Y-72073256D01*
X182316966Y-72103386D01*
X182418563Y-72123594D01*
X182480471Y-72155978D01*
X182515046Y-72216693D01*
X182511307Y-72286463D01*
X182501103Y-72308331D01*
X182438254Y-72414605D01*
X182438254Y-72414606D01*
X182392402Y-72572426D01*
X182392401Y-72572432D01*
X182389500Y-72609298D01*
X182389500Y-74390701D01*
X182392401Y-74427567D01*
X182392402Y-74427573D01*
X182438254Y-74585393D01*
X182438255Y-74585396D01*
X182521917Y-74726862D01*
X182521923Y-74726870D01*
X182638129Y-74843076D01*
X182638133Y-74843079D01*
X182638135Y-74843081D01*
X182779602Y-74926744D01*
X182821224Y-74938836D01*
X182937426Y-74972597D01*
X182937429Y-74972597D01*
X182937431Y-74972598D01*
X182974306Y-74975500D01*
X182974314Y-74975500D01*
X183405686Y-74975500D01*
X183405694Y-74975500D01*
X183442569Y-74972598D01*
X183442571Y-74972597D01*
X183442573Y-74972597D01*
X183484191Y-74960505D01*
X183600398Y-74926744D01*
X183741865Y-74843081D01*
X183741870Y-74843075D01*
X183748031Y-74838298D01*
X183749933Y-74840750D01*
X183798579Y-74814155D01*
X183868274Y-74819104D01*
X183900695Y-74839940D01*
X183901969Y-74838298D01*
X183908132Y-74843078D01*
X183908135Y-74843081D01*
X184049602Y-74926744D01*
X184091224Y-74938836D01*
X184207426Y-74972597D01*
X184207429Y-74972597D01*
X184207431Y-74972598D01*
X184244306Y-74975500D01*
X184244314Y-74975500D01*
X184675686Y-74975500D01*
X184675694Y-74975500D01*
X184712569Y-74972598D01*
X184712571Y-74972597D01*
X184712573Y-74972597D01*
X184754191Y-74960505D01*
X184870398Y-74926744D01*
X185011865Y-74843081D01*
X185011870Y-74843075D01*
X185018031Y-74838298D01*
X185019933Y-74840750D01*
X185068579Y-74814155D01*
X185138274Y-74819104D01*
X185170695Y-74839940D01*
X185171969Y-74838298D01*
X185178132Y-74843078D01*
X185178135Y-74843081D01*
X185319602Y-74926744D01*
X185361224Y-74938836D01*
X185477426Y-74972597D01*
X185477429Y-74972597D01*
X185477431Y-74972598D01*
X185514306Y-74975500D01*
X185514314Y-74975500D01*
X185945686Y-74975500D01*
X185945694Y-74975500D01*
X185982569Y-74972598D01*
X185982571Y-74972597D01*
X185982573Y-74972597D01*
X186024191Y-74960505D01*
X186140398Y-74926744D01*
X186281865Y-74843081D01*
X186281870Y-74843076D01*
X186288026Y-74838301D01*
X186289839Y-74840638D01*
X186338949Y-74813798D01*
X186408643Y-74818756D01*
X186440996Y-74839551D01*
X186442278Y-74837900D01*
X186448447Y-74842685D01*
X186589801Y-74926281D01*
X186747514Y-74972100D01*
X186747511Y-74972100D01*
X186749998Y-74972295D01*
X186750000Y-74972295D01*
X186750000Y-72027703D01*
X186747507Y-72027900D01*
X186645433Y-72057555D01*
X186575564Y-72057355D01*
X186516894Y-72019412D01*
X186488051Y-71955773D01*
X186498193Y-71886644D01*
X186507738Y-71869586D01*
X186556078Y-71797241D01*
X186556079Y-71797238D01*
X186556083Y-71797233D01*
X186559082Y-71789994D01*
X186595285Y-71702590D01*
X186603385Y-71683035D01*
X186617625Y-71611447D01*
X186627500Y-71561805D01*
X186627500Y-71519913D01*
X186647185Y-71452874D01*
X186687348Y-71413797D01*
X186825185Y-71330472D01*
X186945472Y-71210185D01*
X186959277Y-71187349D01*
X187010805Y-71140162D01*
X187065393Y-71127500D01*
X187518500Y-71127500D01*
X187585539Y-71147185D01*
X187631294Y-71199989D01*
X187642500Y-71251500D01*
X187642500Y-71993706D01*
X187622815Y-72060745D01*
X187570011Y-72106500D01*
X187500853Y-72116444D01*
X187455379Y-72100438D01*
X187410196Y-72073717D01*
X187410193Y-72073716D01*
X187252494Y-72027900D01*
X187252497Y-72027900D01*
X187250000Y-72027703D01*
X187250000Y-74972295D01*
X187250001Y-74972295D01*
X187252486Y-74972100D01*
X187410198Y-74926281D01*
X187551550Y-74842686D01*
X187557717Y-74837903D01*
X187559630Y-74840369D01*
X187608222Y-74813802D01*
X187677917Y-74818749D01*
X187710762Y-74839853D01*
X187711969Y-74838298D01*
X187718132Y-74843078D01*
X187718135Y-74843081D01*
X187859602Y-74926744D01*
X187901224Y-74938836D01*
X188017426Y-74972597D01*
X188017429Y-74972597D01*
X188017431Y-74972598D01*
X188054306Y-74975500D01*
X188054314Y-74975500D01*
X188485686Y-74975500D01*
X188485694Y-74975500D01*
X188522569Y-74972598D01*
X188522571Y-74972597D01*
X188522573Y-74972597D01*
X188564191Y-74960505D01*
X188680398Y-74926744D01*
X188821865Y-74843081D01*
X188821870Y-74843075D01*
X188828031Y-74838298D01*
X188829933Y-74840750D01*
X188878579Y-74814155D01*
X188948274Y-74819104D01*
X188980695Y-74839940D01*
X188981969Y-74838298D01*
X188988132Y-74843078D01*
X188988135Y-74843081D01*
X189129602Y-74926744D01*
X189171224Y-74938836D01*
X189287426Y-74972597D01*
X189287429Y-74972597D01*
X189287431Y-74972598D01*
X189324306Y-74975500D01*
X189324314Y-74975500D01*
X189755686Y-74975500D01*
X189755694Y-74975500D01*
X189792569Y-74972598D01*
X189792571Y-74972597D01*
X189792573Y-74972597D01*
X189834191Y-74960505D01*
X189950398Y-74926744D01*
X190091865Y-74843081D01*
X190091870Y-74843075D01*
X190098031Y-74838298D01*
X190099933Y-74840750D01*
X190148579Y-74814155D01*
X190218274Y-74819104D01*
X190250695Y-74839940D01*
X190251969Y-74838298D01*
X190258132Y-74843078D01*
X190258135Y-74843081D01*
X190399602Y-74926744D01*
X190441224Y-74938836D01*
X190557426Y-74972597D01*
X190557429Y-74972597D01*
X190557431Y-74972598D01*
X190594306Y-74975500D01*
X190594314Y-74975500D01*
X191025686Y-74975500D01*
X191025694Y-74975500D01*
X191062569Y-74972598D01*
X191062571Y-74972597D01*
X191062573Y-74972597D01*
X191104191Y-74960505D01*
X191220398Y-74926744D01*
X191361865Y-74843081D01*
X191478081Y-74726865D01*
X191561744Y-74585398D01*
X191607598Y-74427569D01*
X191610500Y-74390694D01*
X191610500Y-72609306D01*
X191607598Y-72572431D01*
X191607597Y-72572426D01*
X191562184Y-72416114D01*
X191562383Y-72346245D01*
X191593577Y-72293840D01*
X192987411Y-70900008D01*
X193015783Y-70857546D01*
X193056083Y-70797233D01*
X193087260Y-70721965D01*
X193103386Y-70683035D01*
X193127500Y-70561803D01*
X193127500Y-70438197D01*
X193127500Y-70438196D01*
X193127500Y-69938197D01*
X193127500Y-69696465D01*
X193147185Y-69629426D01*
X193159343Y-69613500D01*
X193232533Y-69532216D01*
X193327179Y-69368284D01*
X193385674Y-69188256D01*
X193405460Y-69000000D01*
X193385674Y-68811744D01*
X193327179Y-68631716D01*
X193232533Y-68467784D01*
X193105871Y-68327112D01*
X193105870Y-68327111D01*
X192952734Y-68215851D01*
X192952729Y-68215848D01*
X192779807Y-68138857D01*
X192779802Y-68138855D01*
X192632076Y-68107456D01*
X192594646Y-68099500D01*
X192405354Y-68099500D01*
X192372897Y-68106398D01*
X192220197Y-68138855D01*
X192220192Y-68138857D01*
X192047270Y-68215848D01*
X192047265Y-68215851D01*
X191894129Y-68327111D01*
X191767466Y-68467785D01*
X191672821Y-68631715D01*
X191672818Y-68631722D01*
X191614327Y-68811740D01*
X191614326Y-68811744D01*
X191594540Y-69000000D01*
X191614326Y-69188256D01*
X191614327Y-69188259D01*
X191672818Y-69368277D01*
X191672821Y-69368284D01*
X191767000Y-69531408D01*
X191767467Y-69532216D01*
X191840651Y-69613494D01*
X191870880Y-69676484D01*
X191872500Y-69696465D01*
X191872500Y-70188718D01*
X191852815Y-70255757D01*
X191836181Y-70276399D01*
X191381471Y-70731109D01*
X191320148Y-70764594D01*
X191250456Y-70759610D01*
X191235503Y-70750000D01*
X190575000Y-70750000D01*
X190575000Y-71486218D01*
X190555315Y-71553257D01*
X190538682Y-71573899D01*
X190409992Y-71702589D01*
X190366289Y-71746292D01*
X190322586Y-71789994D01*
X190322585Y-71789996D01*
X190253233Y-71893789D01*
X190251586Y-71898393D01*
X190206614Y-72006964D01*
X190206612Y-72006969D01*
X190201982Y-72030249D01*
X190169596Y-72092159D01*
X190108880Y-72126733D01*
X190039110Y-72122992D01*
X190017245Y-72112789D01*
X190001345Y-72103386D01*
X189950398Y-72073256D01*
X189950396Y-72073255D01*
X189950394Y-72073254D01*
X189950393Y-72073254D01*
X189792573Y-72027402D01*
X189792567Y-72027401D01*
X189755701Y-72024500D01*
X189755694Y-72024500D01*
X189324306Y-72024500D01*
X189324298Y-72024500D01*
X189287432Y-72027401D01*
X189287426Y-72027402D01*
X189129606Y-72073254D01*
X189129605Y-72073254D01*
X189084620Y-72099858D01*
X189016896Y-72117039D01*
X188950633Y-72094879D01*
X188906871Y-72040413D01*
X188897500Y-71993125D01*
X188897500Y-71591675D01*
X188917185Y-71524636D01*
X188969989Y-71478881D01*
X188997310Y-71470057D01*
X189002184Y-71469087D01*
X189002196Y-71469086D01*
X189164606Y-71418478D01*
X189310185Y-71330472D01*
X189412673Y-71227983D01*
X189473994Y-71194499D01*
X189543685Y-71199483D01*
X189588034Y-71227984D01*
X189690122Y-71330072D01*
X189835604Y-71418019D01*
X189835603Y-71418019D01*
X189997894Y-71468590D01*
X189997893Y-71468590D01*
X190068408Y-71474998D01*
X190068426Y-71474999D01*
X190074999Y-71474998D01*
X190075000Y-71474998D01*
X190075000Y-69525000D01*
X190575000Y-69525000D01*
X190575000Y-70250000D01*
X191224999Y-70250000D01*
X191224999Y-70168417D01*
X191218591Y-70097897D01*
X191218590Y-70097892D01*
X191168018Y-69935603D01*
X191080072Y-69790122D01*
X190959877Y-69669927D01*
X190814395Y-69581980D01*
X190814396Y-69581980D01*
X190652105Y-69531409D01*
X190652106Y-69531409D01*
X190581572Y-69525000D01*
X190575000Y-69525000D01*
X190075000Y-69525000D01*
X190074999Y-69524999D01*
X190068436Y-69525000D01*
X190068417Y-69525001D01*
X189997897Y-69531408D01*
X189997892Y-69531409D01*
X189835603Y-69581981D01*
X189690122Y-69669927D01*
X189690121Y-69669928D01*
X189588035Y-69772015D01*
X189526712Y-69805500D01*
X189457020Y-69800516D01*
X189412673Y-69772015D01*
X189310188Y-69669530D01*
X189310181Y-69669526D01*
X189164606Y-69581522D01*
X189002196Y-69530914D01*
X189002194Y-69530913D01*
X189002192Y-69530913D01*
X188952778Y-69526423D01*
X188931616Y-69524500D01*
X188418384Y-69524500D01*
X188399145Y-69526248D01*
X188347807Y-69530913D01*
X188185393Y-69581522D01*
X188039811Y-69669530D01*
X187919531Y-69789810D01*
X187919528Y-69789814D01*
X187905723Y-69812651D01*
X187854195Y-69859838D01*
X187799607Y-69872500D01*
X187065393Y-69872500D01*
X186998354Y-69852815D01*
X186959277Y-69812651D01*
X186951727Y-69800162D01*
X186945472Y-69789815D01*
X186945471Y-69789814D01*
X186945468Y-69789810D01*
X186825188Y-69669530D01*
X186825181Y-69669526D01*
X186679606Y-69581522D01*
X186517196Y-69530914D01*
X186517194Y-69530913D01*
X186517192Y-69530913D01*
X186467778Y-69526423D01*
X186446616Y-69524500D01*
X185933384Y-69524500D01*
X185914145Y-69526248D01*
X185862807Y-69530913D01*
X185700393Y-69581522D01*
X185554811Y-69669530D01*
X185554810Y-69669531D01*
X185452681Y-69771661D01*
X185391358Y-69805146D01*
X185321666Y-69800162D01*
X185277319Y-69771661D01*
X185175188Y-69669530D01*
X185175181Y-69669526D01*
X185029606Y-69581522D01*
X184867196Y-69530914D01*
X184867194Y-69530913D01*
X184867192Y-69530913D01*
X184817778Y-69526423D01*
X184796616Y-69524500D01*
X184283384Y-69524500D01*
X184264145Y-69526248D01*
X184212807Y-69530913D01*
X184050393Y-69581522D01*
X183904816Y-69669526D01*
X183893869Y-69680473D01*
X183832544Y-69713954D01*
X183762852Y-69708965D01*
X183755757Y-69706065D01*
X183604807Y-69638857D01*
X183604802Y-69638855D01*
X183446505Y-69605209D01*
X183419646Y-69599500D01*
X183230354Y-69599500D01*
X183203495Y-69605209D01*
X183045197Y-69638855D01*
X183045192Y-69638857D01*
X182872270Y-69715848D01*
X182872265Y-69715851D01*
X182719129Y-69827111D01*
X182719128Y-69827112D01*
X182679612Y-69870999D01*
X182620125Y-69907647D01*
X182550268Y-69906316D01*
X182492220Y-69867429D01*
X182471281Y-69831359D01*
X182443797Y-69757671D01*
X182443793Y-69757664D01*
X182357547Y-69642455D01*
X182357544Y-69642452D01*
X182242335Y-69556206D01*
X182242328Y-69556202D01*
X182107482Y-69505908D01*
X182107483Y-69505908D01*
X182047883Y-69499501D01*
X182047881Y-69499500D01*
X182047873Y-69499500D01*
X182047864Y-69499500D01*
X180952129Y-69499500D01*
X180952123Y-69499501D01*
X180892516Y-69505908D01*
X180757671Y-69556202D01*
X180757664Y-69556206D01*
X180642455Y-69642452D01*
X180642452Y-69642455D01*
X180556206Y-69757664D01*
X180556202Y-69757671D01*
X180505908Y-69892517D01*
X180499501Y-69952116D01*
X180499501Y-69952123D01*
X180499500Y-69952135D01*
X180499500Y-71047870D01*
X180000500Y-71047870D01*
X180000499Y-69952128D01*
X179994091Y-69892517D01*
X179986625Y-69872500D01*
X179943797Y-69757671D01*
X179943793Y-69757664D01*
X179857547Y-69642455D01*
X179857544Y-69642452D01*
X179742335Y-69556206D01*
X179742328Y-69556202D01*
X179607482Y-69505908D01*
X179607483Y-69505908D01*
X179547883Y-69499501D01*
X179547881Y-69499500D01*
X179547873Y-69499500D01*
X179547864Y-69499500D01*
X178452129Y-69499500D01*
X178452123Y-69499501D01*
X178392516Y-69505908D01*
X178257671Y-69556202D01*
X178257664Y-69556206D01*
X178204982Y-69595644D01*
X178139518Y-69620061D01*
X178071245Y-69605209D01*
X178021840Y-69555804D01*
X178009781Y-69523969D01*
X177977525Y-69382648D01*
X177977524Y-69382647D01*
X177977522Y-69382635D01*
X177939520Y-69285808D01*
X177933352Y-69216216D01*
X177965789Y-69154332D01*
X177967204Y-69152893D01*
X179433280Y-67686819D01*
X179494603Y-67653334D01*
X179520961Y-67650500D01*
X186064071Y-67650500D01*
X186148615Y-67633682D01*
X186189744Y-67625501D01*
X186308127Y-67576465D01*
X186414669Y-67505277D01*
X187090627Y-66829317D01*
X187151950Y-66795833D01*
X187178308Y-66792999D01*
X187230837Y-66792999D01*
X187230843Y-66792999D01*
X187230851Y-66792998D01*
X187230854Y-66792998D01*
X187285259Y-66787440D01*
X187330207Y-66782849D01*
X187491196Y-66729503D01*
X187635543Y-66640468D01*
X187755467Y-66520544D01*
X187844502Y-66376197D01*
X187897848Y-66215208D01*
X187907999Y-66115845D01*
X187907998Y-65896361D01*
X187927682Y-65829323D01*
X187980486Y-65783568D01*
X188049644Y-65773624D01*
X188113200Y-65802649D01*
X188146559Y-65848910D01*
X188149338Y-65855621D01*
X188220532Y-65962171D01*
X188811131Y-66552770D01*
X188811138Y-66552776D01*
X188884507Y-66601799D01*
X188884510Y-66601800D01*
X188884514Y-66601803D01*
X188917679Y-66623963D01*
X189036062Y-66672999D01*
X189036066Y-66672999D01*
X189036067Y-66673000D01*
X189161734Y-66697998D01*
X189161737Y-66697998D01*
X193424878Y-66697998D01*
X193509422Y-66681180D01*
X193550551Y-66672999D01*
X193668934Y-66623963D01*
X193775476Y-66552774D01*
X193866083Y-66462167D01*
X193937272Y-66355625D01*
X193986308Y-66237242D01*
X194004222Y-66147185D01*
X194011307Y-66111569D01*
X194011307Y-65822232D01*
X194030992Y-65755193D01*
X194071157Y-65716115D01*
X194125992Y-65682967D01*
X194246279Y-65562680D01*
X194334285Y-65417101D01*
X194384893Y-65254691D01*
X194391307Y-65184111D01*
X194391307Y-64670879D01*
X194384893Y-64600299D01*
X194334285Y-64437889D01*
X194246279Y-64292310D01*
X194246277Y-64292308D01*
X194246276Y-64292306D01*
X194144146Y-64190176D01*
X194110661Y-64128853D01*
X194115645Y-64059161D01*
X194144146Y-64014814D01*
X194246275Y-63912684D01*
X194246276Y-63912683D01*
X194246279Y-63912680D01*
X194334285Y-63767101D01*
X194384893Y-63604691D01*
X194391307Y-63534111D01*
X194391307Y-63020879D01*
X194384893Y-62950299D01*
X194334285Y-62787889D01*
X194246279Y-62642310D01*
X194246277Y-62642308D01*
X194246276Y-62642306D01*
X194126153Y-62522183D01*
X194092668Y-62460860D01*
X194097652Y-62391168D01*
X194126153Y-62346821D01*
X194137581Y-62335393D01*
X194240088Y-62232886D01*
X194328356Y-62089782D01*
X194381243Y-61930180D01*
X194391307Y-61831669D01*
X194391307Y-61298321D01*
X194381243Y-61199810D01*
X194328356Y-61040208D01*
X194328352Y-61040202D01*
X194328351Y-61040199D01*
X194240090Y-60897107D01*
X194240087Y-60897103D01*
X194208160Y-60865176D01*
X194174675Y-60803853D01*
X194179659Y-60734161D01*
X194208160Y-60689814D01*
X194218604Y-60679370D01*
X194240088Y-60657886D01*
X194328356Y-60514782D01*
X194381243Y-60355180D01*
X194391307Y-60256669D01*
X194391307Y-59723321D01*
X194381243Y-59624810D01*
X194328356Y-59465208D01*
X194328352Y-59465202D01*
X194328351Y-59465199D01*
X194240090Y-59322107D01*
X194240087Y-59322103D01*
X194121197Y-59203213D01*
X194033465Y-59149099D01*
X193995461Y-59112452D01*
X193961618Y-59061803D01*
X193961617Y-59061802D01*
X193942841Y-59033701D01*
X193921083Y-59001137D01*
X193921081Y-59001135D01*
X193921079Y-59001132D01*
X193011818Y-58091871D01*
X192978333Y-58030548D01*
X192975499Y-58004190D01*
X192975499Y-57726662D01*
X192975498Y-57726644D01*
X192965349Y-57627292D01*
X192965348Y-57627289D01*
X192949617Y-57579815D01*
X192912003Y-57466303D01*
X192912000Y-57466298D01*
X192911998Y-57466294D01*
X192822970Y-57321959D01*
X192822967Y-57321955D01*
X192813693Y-57312681D01*
X192780208Y-57251358D01*
X192785192Y-57181666D01*
X192813693Y-57137319D01*
X192814507Y-57136505D01*
X192822968Y-57128044D01*
X192912003Y-56983697D01*
X192965349Y-56822708D01*
X192975500Y-56723345D01*
X192975499Y-56176656D01*
X192974779Y-56169612D01*
X192965349Y-56077292D01*
X192965348Y-56077289D01*
X192939903Y-56000500D01*
X192912003Y-55916303D01*
X192911999Y-55916297D01*
X192911998Y-55916294D01*
X192822970Y-55771959D01*
X192822967Y-55771955D01*
X192703044Y-55652032D01*
X192703040Y-55652029D01*
X192558705Y-55563001D01*
X192558699Y-55562998D01*
X192558697Y-55562997D01*
X192516801Y-55549114D01*
X192397709Y-55509651D01*
X192298346Y-55499500D01*
X191701662Y-55499500D01*
X191701644Y-55499501D01*
X191602292Y-55509650D01*
X191602289Y-55509651D01*
X191441305Y-55562996D01*
X191441294Y-55563001D01*
X191296959Y-55652029D01*
X191296955Y-55652032D01*
X191235807Y-55713181D01*
X191174484Y-55746666D01*
X191148126Y-55749500D01*
X191039337Y-55749500D01*
X190972298Y-55729815D01*
X190966452Y-55725818D01*
X190952734Y-55715851D01*
X190952729Y-55715848D01*
X190779807Y-55638857D01*
X190779800Y-55638855D01*
X190697161Y-55621290D01*
X190635679Y-55588098D01*
X190601902Y-55526935D01*
X190606554Y-55457221D01*
X190648158Y-55401088D01*
X190697161Y-55378710D01*
X190703201Y-55377426D01*
X190779803Y-55361144D01*
X190952730Y-55284151D01*
X191105871Y-55172888D01*
X191232533Y-55032216D01*
X191327179Y-54868284D01*
X191385674Y-54688256D01*
X191405460Y-54500000D01*
X191385674Y-54311744D01*
X191327179Y-54131716D01*
X191283584Y-54056206D01*
X191267113Y-54027677D01*
X191250500Y-53965677D01*
X191250500Y-52082204D01*
X191270185Y-52015165D01*
X191286819Y-51994523D01*
X191302248Y-51979094D01*
X191339414Y-51941928D01*
X191441232Y-51801788D01*
X191519873Y-51647445D01*
X191573402Y-51482701D01*
X191600500Y-51311611D01*
X191600500Y-50588389D01*
X191573402Y-50417299D01*
X191519873Y-50252555D01*
X191441232Y-50098212D01*
X191339414Y-49958072D01*
X191216928Y-49835586D01*
X191076788Y-49733768D01*
X190922445Y-49655127D01*
X190757701Y-49601598D01*
X190757699Y-49601597D01*
X190757698Y-49601597D01*
X190626271Y-49580781D01*
X190586611Y-49574500D01*
X190413389Y-49574500D01*
X190373728Y-49580781D01*
X190242302Y-49601597D01*
X190077552Y-49655128D01*
X189923211Y-49733768D01*
X189783073Y-49835585D01*
X189675166Y-49943492D01*
X189613843Y-49976976D01*
X189544151Y-49971992D01*
X189488218Y-49930120D01*
X189481946Y-49920906D01*
X189442317Y-49856656D01*
X189318345Y-49732684D01*
X189169124Y-49640643D01*
X189169119Y-49640641D01*
X189002697Y-49585494D01*
X189002690Y-49585493D01*
X188899986Y-49575000D01*
X188750000Y-49575000D01*
X188750000Y-50669670D01*
X188730255Y-50649925D01*
X188644745Y-50600556D01*
X188549370Y-50575000D01*
X188450630Y-50575000D01*
X188355255Y-50600556D01*
X188269745Y-50649925D01*
X188250000Y-50669670D01*
X188250000Y-49575000D01*
X188100027Y-49575000D01*
X188100012Y-49575001D01*
X187997302Y-49585494D01*
X187830880Y-49640641D01*
X187830875Y-49640643D01*
X187681654Y-49732684D01*
X187557684Y-49856654D01*
X187465643Y-50005875D01*
X187465641Y-50005880D01*
X187410494Y-50172302D01*
X187410493Y-50172309D01*
X187400000Y-50275013D01*
X187400000Y-50700000D01*
X188219670Y-50700000D01*
X188199925Y-50719745D01*
X188150556Y-50805255D01*
X188125000Y-50900630D01*
X188125000Y-50999370D01*
X188150556Y-51094745D01*
X188199925Y-51180255D01*
X188219670Y-51200000D01*
X187400001Y-51200000D01*
X187400001Y-51624986D01*
X187410494Y-51727697D01*
X187465641Y-51894119D01*
X187465643Y-51894124D01*
X187557684Y-52043345D01*
X187681654Y-52167315D01*
X187830875Y-52259356D01*
X187830880Y-52259358D01*
X187997302Y-52314505D01*
X187997309Y-52314506D01*
X188100019Y-52324999D01*
X188249999Y-52324999D01*
X188250000Y-52324998D01*
X188250000Y-51230330D01*
X188269745Y-51250075D01*
X188355255Y-51299444D01*
X188450630Y-51325000D01*
X188549370Y-51325000D01*
X188644745Y-51299444D01*
X188730255Y-51250075D01*
X188750000Y-51230330D01*
X188750000Y-52324999D01*
X188899972Y-52324999D01*
X188899986Y-52324998D01*
X189002697Y-52314505D01*
X189169119Y-52259358D01*
X189169124Y-52259356D01*
X189318345Y-52167315D01*
X189442315Y-52043345D01*
X189481945Y-51979094D01*
X189533893Y-51932368D01*
X189602855Y-51921145D01*
X189666937Y-51948988D01*
X189675166Y-51956508D01*
X189713181Y-51994523D01*
X189746666Y-52055846D01*
X189749500Y-52082204D01*
X189749500Y-53965677D01*
X189732887Y-54027677D01*
X189672821Y-54131714D01*
X189614327Y-54311740D01*
X189614326Y-54311744D01*
X189594540Y-54500000D01*
X189614326Y-54688256D01*
X189614327Y-54688259D01*
X189672818Y-54868277D01*
X189672821Y-54868284D01*
X189767467Y-55032216D01*
X189865666Y-55141277D01*
X189894129Y-55172888D01*
X190047265Y-55284148D01*
X190047270Y-55284151D01*
X190220192Y-55361142D01*
X190220197Y-55361144D01*
X190302839Y-55378710D01*
X190364321Y-55411902D01*
X190398097Y-55473065D01*
X190393445Y-55542780D01*
X190351840Y-55598912D01*
X190302839Y-55621290D01*
X190220197Y-55638855D01*
X190220192Y-55638857D01*
X190047270Y-55715848D01*
X190047265Y-55715851D01*
X189894129Y-55827111D01*
X189767466Y-55967785D01*
X189672821Y-56131715D01*
X189672818Y-56131722D01*
X189614327Y-56311740D01*
X189614326Y-56311744D01*
X189594540Y-56500000D01*
X189614326Y-56688256D01*
X189614327Y-56688259D01*
X189672818Y-56868277D01*
X189672821Y-56868284D01*
X189767467Y-57032216D01*
X189881463Y-57158821D01*
X189894129Y-57172888D01*
X190047265Y-57284148D01*
X190047270Y-57284151D01*
X190220192Y-57361142D01*
X190220197Y-57361144D01*
X190405354Y-57400500D01*
X190405355Y-57400500D01*
X190594644Y-57400500D01*
X190594646Y-57400500D01*
X190779803Y-57361144D01*
X190927654Y-57295315D01*
X190996900Y-57286030D01*
X191060177Y-57315658D01*
X191097391Y-57374793D01*
X191096727Y-57444659D01*
X191090474Y-57460990D01*
X191087998Y-57466300D01*
X191034651Y-57627290D01*
X191024500Y-57726647D01*
X191024500Y-58036717D01*
X191004815Y-58103756D01*
X190988182Y-58124398D01*
X190917492Y-58195089D01*
X190917491Y-58195089D01*
X190830091Y-58282488D01*
X190830090Y-58282489D01*
X190761415Y-58385270D01*
X190749238Y-58414669D01*
X190714114Y-58499464D01*
X190714112Y-58499472D01*
X190693442Y-58603382D01*
X190693443Y-58603383D01*
X190690000Y-58620693D01*
X190690000Y-59125968D01*
X190670315Y-59193007D01*
X190631099Y-59231506D01*
X190612107Y-59243220D01*
X190519147Y-59336181D01*
X190457824Y-59369666D01*
X190431466Y-59372500D01*
X190311281Y-59372500D01*
X190244242Y-59352815D01*
X190223599Y-59336180D01*
X190177506Y-59290086D01*
X190177504Y-59290084D01*
X190164090Y-59281122D01*
X190150766Y-59272219D01*
X190107366Y-59243220D01*
X190074733Y-59221415D01*
X190074721Y-59221408D01*
X190028644Y-59202323D01*
X189960530Y-59174109D01*
X189960522Y-59174107D01*
X189839302Y-59149995D01*
X189839298Y-59149995D01*
X188764760Y-59149995D01*
X188697721Y-59130310D01*
X188690449Y-59125262D01*
X188568136Y-59033698D01*
X188568134Y-59033697D01*
X188433288Y-58983403D01*
X188433289Y-58983403D01*
X188373689Y-58976996D01*
X188373687Y-58976995D01*
X188373679Y-58976995D01*
X188373671Y-58976995D01*
X188251500Y-58976995D01*
X188184461Y-58957310D01*
X188138706Y-58904506D01*
X188127500Y-58852995D01*
X188127500Y-58438194D01*
X188103386Y-58316970D01*
X188103385Y-58316969D01*
X188103385Y-58316965D01*
X188089104Y-58282488D01*
X188056086Y-58202773D01*
X188056079Y-58202760D01*
X187987411Y-58099992D01*
X187987408Y-58099988D01*
X187900011Y-58012591D01*
X187900007Y-58012588D01*
X187797239Y-57943920D01*
X187797226Y-57943913D01*
X187683039Y-57896616D01*
X187683029Y-57896613D01*
X187561805Y-57872500D01*
X187561803Y-57872500D01*
X187201947Y-57872500D01*
X187134908Y-57852815D01*
X187109800Y-57831476D01*
X187105871Y-57827112D01*
X187105869Y-57827111D01*
X187105867Y-57827108D01*
X187105864Y-57827106D01*
X186952734Y-57715851D01*
X186952729Y-57715848D01*
X186779807Y-57638857D01*
X186779802Y-57638855D01*
X186634001Y-57607865D01*
X186594646Y-57599500D01*
X186594645Y-57599500D01*
X186538281Y-57599500D01*
X186471242Y-57579815D01*
X186450599Y-57563180D01*
X186400011Y-57512591D01*
X186400010Y-57512590D01*
X186377991Y-57497878D01*
X186375058Y-57495918D01*
X186322785Y-57460990D01*
X186297238Y-57443920D01*
X186297226Y-57443913D01*
X186263785Y-57430062D01*
X186183035Y-57396614D01*
X186183027Y-57396612D01*
X186061807Y-57372500D01*
X186061803Y-57372500D01*
X185561803Y-57372500D01*
X180342414Y-57372500D01*
X180275375Y-57352815D01*
X180229620Y-57300011D01*
X180219676Y-57230853D01*
X180248701Y-57167297D01*
X180254733Y-57160819D01*
X180547269Y-56868284D01*
X180987411Y-56428142D01*
X181005881Y-56400500D01*
X181037285Y-56353497D01*
X181052694Y-56334723D01*
X182698437Y-54688982D01*
X182711901Y-54668832D01*
X182767109Y-54586207D01*
X182814411Y-54472009D01*
X182822302Y-54432335D01*
X182838526Y-54350779D01*
X182838526Y-54014499D01*
X182858211Y-53947460D01*
X182911015Y-53901705D01*
X182962526Y-53890499D01*
X183057871Y-53890499D01*
X183057872Y-53890499D01*
X183117483Y-53884091D01*
X183252331Y-53833796D01*
X183367546Y-53747546D01*
X183453796Y-53632331D01*
X183504091Y-53497483D01*
X183510500Y-53437873D01*
X183510499Y-51642128D01*
X183504091Y-51582517D01*
X183473876Y-51501507D01*
X183453797Y-51447671D01*
X183453793Y-51447664D01*
X183367547Y-51332455D01*
X183367544Y-51332452D01*
X183252335Y-51246206D01*
X183252328Y-51246202D01*
X183120917Y-51197189D01*
X183064983Y-51155318D01*
X183040566Y-51089853D01*
X183055418Y-51021580D01*
X183076563Y-50993332D01*
X183198495Y-50871401D01*
X183334035Y-50677830D01*
X183433903Y-50463663D01*
X183495063Y-50235408D01*
X183515659Y-50000000D01*
X183495063Y-49764592D01*
X183433903Y-49536337D01*
X183334035Y-49322171D01*
X183328731Y-49314595D01*
X183198494Y-49128597D01*
X183031402Y-48961506D01*
X183031395Y-48961501D01*
X182837834Y-48825967D01*
X182837830Y-48825965D01*
X182837828Y-48825964D01*
X182623663Y-48726097D01*
X182623659Y-48726096D01*
X182623655Y-48726094D01*
X182395413Y-48664938D01*
X182395403Y-48664936D01*
X182160001Y-48644341D01*
X182159999Y-48644341D01*
X181924596Y-48664936D01*
X181924586Y-48664938D01*
X181696344Y-48726094D01*
X181696335Y-48726098D01*
X181482171Y-48825964D01*
X181482169Y-48825965D01*
X181288597Y-48961505D01*
X181121505Y-49128597D01*
X180991575Y-49314158D01*
X180936998Y-49357783D01*
X180867500Y-49364977D01*
X180805145Y-49333454D01*
X180788425Y-49314158D01*
X180658494Y-49128597D01*
X180491402Y-48961506D01*
X180491395Y-48961501D01*
X180297834Y-48825967D01*
X180297830Y-48825965D01*
X180297828Y-48825964D01*
X180083663Y-48726097D01*
X180083659Y-48726096D01*
X180083655Y-48726094D01*
X179855413Y-48664938D01*
X179855403Y-48664936D01*
X179620001Y-48644341D01*
X179619999Y-48644341D01*
X179384596Y-48664936D01*
X179384586Y-48664938D01*
X179156344Y-48726094D01*
X179156335Y-48726098D01*
X178942171Y-48825964D01*
X178942169Y-48825965D01*
X178748597Y-48961505D01*
X178581505Y-49128597D01*
X178451575Y-49314158D01*
X178396998Y-49357783D01*
X178327500Y-49364977D01*
X178265145Y-49333454D01*
X178248425Y-49314158D01*
X178118494Y-49128597D01*
X177951402Y-48961506D01*
X177951395Y-48961501D01*
X177757834Y-48825967D01*
X177757830Y-48825965D01*
X177757828Y-48825964D01*
X177543663Y-48726097D01*
X177543659Y-48726096D01*
X177543655Y-48726094D01*
X177315413Y-48664938D01*
X177315403Y-48664936D01*
X177080001Y-48644341D01*
X177079999Y-48644341D01*
X176844596Y-48664936D01*
X176844586Y-48664938D01*
X176616344Y-48726094D01*
X176616335Y-48726098D01*
X176402171Y-48825964D01*
X176402169Y-48825965D01*
X176208597Y-48961505D01*
X176041508Y-49128594D01*
X175911269Y-49314595D01*
X175856692Y-49358219D01*
X175787193Y-49365412D01*
X175724839Y-49333890D01*
X175708119Y-49314594D01*
X175578113Y-49128926D01*
X175578108Y-49128920D01*
X175411082Y-48961894D01*
X175217578Y-48826399D01*
X175003492Y-48726570D01*
X175003486Y-48726567D01*
X174790000Y-48669364D01*
X174790000Y-49566988D01*
X174732993Y-49534075D01*
X174605826Y-49500000D01*
X174474174Y-49500000D01*
X174347007Y-49534075D01*
X174290000Y-49566988D01*
X174290000Y-48669364D01*
X174289999Y-48669364D01*
X174076513Y-48726567D01*
X174076507Y-48726570D01*
X173862422Y-48826399D01*
X173862420Y-48826400D01*
X173668926Y-48961886D01*
X173668920Y-48961891D01*
X173501891Y-49128920D01*
X173501890Y-49128922D01*
X173371880Y-49314595D01*
X173317303Y-49358219D01*
X173247804Y-49365412D01*
X173185450Y-49333890D01*
X173168730Y-49314594D01*
X173038494Y-49128597D01*
X172871402Y-48961506D01*
X172871395Y-48961501D01*
X172677834Y-48825967D01*
X172677830Y-48825965D01*
X172677828Y-48825964D01*
X172463663Y-48726097D01*
X172463659Y-48726096D01*
X172463655Y-48726094D01*
X172235413Y-48664938D01*
X172235403Y-48664936D01*
X172000001Y-48644341D01*
X171999999Y-48644341D01*
X171764596Y-48664936D01*
X171764586Y-48664938D01*
X171536344Y-48726094D01*
X171536335Y-48726098D01*
X171322171Y-48825964D01*
X171322169Y-48825965D01*
X171128597Y-48961505D01*
X170961505Y-49128597D01*
X170831575Y-49314158D01*
X170776998Y-49357783D01*
X170707500Y-49364977D01*
X170645145Y-49333454D01*
X170628425Y-49314158D01*
X170498494Y-49128597D01*
X170331402Y-48961506D01*
X170331395Y-48961501D01*
X170137834Y-48825967D01*
X170137830Y-48825965D01*
X170137828Y-48825964D01*
X169923663Y-48726097D01*
X169923659Y-48726096D01*
X169923655Y-48726094D01*
X169695413Y-48664938D01*
X169695403Y-48664936D01*
X169460001Y-48644341D01*
X169459999Y-48644341D01*
X169224596Y-48664936D01*
X169224586Y-48664938D01*
X168996344Y-48726094D01*
X168996335Y-48726098D01*
X168782171Y-48825964D01*
X168782169Y-48825965D01*
X168588597Y-48961505D01*
X168421505Y-49128597D01*
X168291575Y-49314158D01*
X168236998Y-49357783D01*
X168167500Y-49364977D01*
X168105145Y-49333454D01*
X168088425Y-49314158D01*
X167958494Y-49128597D01*
X167791402Y-48961506D01*
X167791395Y-48961501D01*
X167597834Y-48825967D01*
X167597830Y-48825965D01*
X167597828Y-48825964D01*
X167383663Y-48726097D01*
X167383659Y-48726096D01*
X167383655Y-48726094D01*
X167155413Y-48664938D01*
X167155403Y-48664936D01*
X166920001Y-48644341D01*
X166919999Y-48644341D01*
X166684596Y-48664936D01*
X166684586Y-48664938D01*
X166456344Y-48726094D01*
X166456335Y-48726098D01*
X166242171Y-48825964D01*
X166242169Y-48825965D01*
X166048597Y-48961505D01*
X165881505Y-49128597D01*
X165751575Y-49314158D01*
X165696998Y-49357783D01*
X165627500Y-49364977D01*
X165565145Y-49333454D01*
X165548425Y-49314158D01*
X165418494Y-49128597D01*
X165251402Y-48961506D01*
X165251395Y-48961501D01*
X165057834Y-48825967D01*
X165057830Y-48825965D01*
X165057828Y-48825964D01*
X164843663Y-48726097D01*
X164843659Y-48726096D01*
X164843655Y-48726094D01*
X164615413Y-48664938D01*
X164615403Y-48664936D01*
X164380001Y-48644341D01*
X164379999Y-48644341D01*
X164144596Y-48664936D01*
X164144586Y-48664938D01*
X163916344Y-48726094D01*
X163916335Y-48726098D01*
X163702171Y-48825964D01*
X163702169Y-48825965D01*
X163508597Y-48961505D01*
X163341505Y-49128597D01*
X163205965Y-49322169D01*
X163205964Y-49322171D01*
X163106098Y-49536335D01*
X163106094Y-49536344D01*
X163044938Y-49764586D01*
X163044936Y-49764596D01*
X163024341Y-49999999D01*
X163024341Y-50000000D01*
X163044936Y-50235403D01*
X163044938Y-50235413D01*
X163106094Y-50463655D01*
X163106096Y-50463659D01*
X163106097Y-50463663D01*
X163185801Y-50634588D01*
X163205965Y-50677830D01*
X163205967Y-50677834D01*
X163235314Y-50719745D01*
X163341504Y-50871400D01*
X163341506Y-50871402D01*
X163508597Y-51038493D01*
X163508603Y-51038498D01*
X163694158Y-51168425D01*
X163737783Y-51223002D01*
X163744977Y-51292500D01*
X163713454Y-51354855D01*
X163694158Y-51371575D01*
X163508597Y-51501505D01*
X163341505Y-51668597D01*
X163205965Y-51862169D01*
X163205964Y-51862171D01*
X163106098Y-52076335D01*
X163106094Y-52076344D01*
X163044938Y-52304586D01*
X163044936Y-52304596D01*
X163024341Y-52539999D01*
X163024341Y-52540000D01*
X163044936Y-52775403D01*
X163044938Y-52775413D01*
X163106094Y-53003655D01*
X163106096Y-53003659D01*
X163106097Y-53003663D01*
X163185801Y-53174588D01*
X163205965Y-53217830D01*
X163205967Y-53217834D01*
X163314281Y-53372521D01*
X163341505Y-53411401D01*
X163508599Y-53578495D01*
X163699624Y-53712252D01*
X163743248Y-53766828D01*
X163752500Y-53813826D01*
X163752500Y-55686434D01*
X163732815Y-55753473D01*
X163680011Y-55799228D01*
X163610853Y-55809172D01*
X163555615Y-55786752D01*
X163438667Y-55701784D01*
X163438662Y-55701781D01*
X163265740Y-55624790D01*
X163265735Y-55624788D01*
X163111399Y-55591984D01*
X163080579Y-55585433D01*
X163080578Y-55585433D01*
X163024214Y-55585433D01*
X162957175Y-55565748D01*
X162936533Y-55549114D01*
X162536818Y-55149399D01*
X162503333Y-55088076D01*
X162500499Y-55061718D01*
X162500499Y-54452129D01*
X162500498Y-54452123D01*
X162500497Y-54452116D01*
X162494276Y-54394239D01*
X162494091Y-54392516D01*
X162443797Y-54257671D01*
X162443793Y-54257664D01*
X162357547Y-54142455D01*
X162357544Y-54142452D01*
X162242335Y-54056206D01*
X162242328Y-54056202D01*
X162107482Y-54005908D01*
X162107483Y-54005908D01*
X162047883Y-53999501D01*
X162047881Y-53999500D01*
X162047873Y-53999500D01*
X162047864Y-53999500D01*
X160952129Y-53999500D01*
X160952123Y-53999501D01*
X160892516Y-54005908D01*
X160757671Y-54056202D01*
X160757664Y-54056206D01*
X160642455Y-54142452D01*
X160642452Y-54142455D01*
X160556206Y-54257664D01*
X160556202Y-54257671D01*
X160505908Y-54392517D01*
X160499501Y-54452116D01*
X160499501Y-54452123D01*
X160499500Y-54452135D01*
X160499500Y-55547870D01*
X160499501Y-55547876D01*
X160505908Y-55607483D01*
X160556202Y-55742328D01*
X160556206Y-55742335D01*
X160642452Y-55857544D01*
X160642455Y-55857547D01*
X160757664Y-55943793D01*
X160757671Y-55943797D01*
X160802618Y-55960561D01*
X160892517Y-55994091D01*
X160952127Y-56000500D01*
X161561718Y-56000499D01*
X161628757Y-56020183D01*
X161649399Y-56036818D01*
X162047304Y-56434723D01*
X162080789Y-56496046D01*
X162082943Y-56509438D01*
X162100259Y-56674189D01*
X162100260Y-56674192D01*
X162158751Y-56854210D01*
X162158754Y-56854217D01*
X162253400Y-57018149D01*
X162317725Y-57089590D01*
X162359968Y-57136505D01*
X162390198Y-57199497D01*
X162382380Y-57266928D01*
X162374652Y-57285586D01*
X162374651Y-57285588D01*
X162336934Y-57376643D01*
X162336931Y-57376653D01*
X162319099Y-57466304D01*
X162319099Y-57466305D01*
X162312819Y-57497875D01*
X162312819Y-57763844D01*
X162293134Y-57830883D01*
X162280969Y-57846816D01*
X162207785Y-57928095D01*
X162113140Y-58092025D01*
X162113138Y-58092029D01*
X162075872Y-58206723D01*
X162036434Y-58264398D01*
X161972075Y-58291596D01*
X161921053Y-58286790D01*
X161902196Y-58280914D01*
X161831616Y-58274500D01*
X161168384Y-58274500D01*
X161149145Y-58276248D01*
X161097807Y-58280913D01*
X160935393Y-58331522D01*
X160789811Y-58419530D01*
X160669530Y-58539811D01*
X160581522Y-58685393D01*
X160530913Y-58847807D01*
X160524500Y-58918386D01*
X160524500Y-59431613D01*
X160530913Y-59502192D01*
X160530913Y-59502194D01*
X160530914Y-59502196D01*
X160581522Y-59664606D01*
X160638978Y-59759650D01*
X160669530Y-59810188D01*
X160771661Y-59912319D01*
X160805146Y-59973642D01*
X160800162Y-60043334D01*
X160771661Y-60087681D01*
X160669531Y-60189810D01*
X160669530Y-60189811D01*
X160581522Y-60335393D01*
X160530913Y-60497807D01*
X160527096Y-60539815D01*
X160525619Y-60556076D01*
X160524500Y-60568386D01*
X160524500Y-61081613D01*
X160530913Y-61152192D01*
X160530913Y-61152194D01*
X160530914Y-61152196D01*
X160581522Y-61314606D01*
X160652257Y-61431616D01*
X160669530Y-61460188D01*
X160674157Y-61466094D01*
X160672408Y-61467463D01*
X160700604Y-61519100D01*
X160695620Y-61588792D01*
X160686826Y-61607456D01*
X160672821Y-61631713D01*
X160614327Y-61811740D01*
X160614326Y-61811744D01*
X160594540Y-62000000D01*
X160614326Y-62188256D01*
X160614327Y-62188259D01*
X160672818Y-62368277D01*
X160672821Y-62368284D01*
X160767467Y-62532216D01*
X160887362Y-62665372D01*
X160894129Y-62672888D01*
X161034925Y-62775182D01*
X161077591Y-62830512D01*
X161083570Y-62900125D01*
X161050965Y-62961920D01*
X160990126Y-62996277D01*
X160962049Y-62999500D01*
X160952134Y-62999500D01*
X160952123Y-62999501D01*
X160892516Y-63005908D01*
X160757671Y-63056202D01*
X160757664Y-63056206D01*
X160642455Y-63142452D01*
X160642452Y-63142455D01*
X160556206Y-63257664D01*
X160556202Y-63257671D01*
X160505908Y-63392517D01*
X160499501Y-63452116D01*
X160499500Y-63452135D01*
X160499500Y-64547870D01*
X160000000Y-64547870D01*
X160000000Y-50000987D01*
X160000017Y-49998961D01*
X160000685Y-49958070D01*
X160002559Y-49843416D01*
X160003602Y-49829283D01*
X160044346Y-49519800D01*
X160047505Y-49503915D01*
X160128032Y-49203385D01*
X160133246Y-49188028D01*
X160157729Y-49128922D01*
X160252306Y-48900592D01*
X160259473Y-48886058D01*
X160415036Y-48616615D01*
X160424038Y-48603143D01*
X160613443Y-48356305D01*
X160624124Y-48344126D01*
X160844126Y-48124124D01*
X160856305Y-48113443D01*
X161103143Y-47924038D01*
X161116615Y-47915036D01*
X161386058Y-47759473D01*
X161400592Y-47752306D01*
X161688030Y-47633245D01*
X161703387Y-47628032D01*
X162003915Y-47547505D01*
X162019800Y-47544346D01*
X162329283Y-47503602D01*
X162343416Y-47502559D01*
X162496083Y-47500064D01*
X162498961Y-47500017D01*
X162500987Y-47500000D01*
X192499013Y-47500000D01*
X192501039Y-47500017D01*
G37*
%TD.AperFunction*%
%TD*%
M02*
