M48
; DRILL file {KiCad 8.0.1} date 2024-03-24T23:32:15+0200
; FORMAT={-:-/ absolute / inch / decimal}
; #@! TF.CreationDate,2024-03-24T23:32:15+02:00
; #@! TF.GenerationSoftware,Kicad,Pcbnew,8.0.1
; #@! TF.FileFunction,Plated,1,2,PTH
FMAT,2
INCH
; #@! TA.AperFunction,Plated,PTH,ViaDrill
T1C0.0157
; #@! TA.AperFunction,Plated,PTH,ComponentDrill
T2C0.0295
; #@! TA.AperFunction,Plated,PTH,ComponentDrill
T3C0.0394
; #@! TA.AperFunction,Plated,PTH,ComponentDrill
T4C0.0709
%
G90
G05
T1
X6.3583Y-2.4409
X6.3583Y-2.6969
X6.415Y-2.3016
X6.4168Y-2.2239
X6.4173Y-2.4606
X6.4435Y-2.4148
X6.4478Y-2.3234
X6.4764Y-2.2835
X6.5003Y-2.161
X6.5157Y-2.6595
X6.5265Y-2.2638
X6.5551Y-2.1654
X6.5551Y-2.6023
X6.5581Y-2.3228
X6.5945Y-2.2638
X6.6535Y-2.1654
X6.6535Y-2.2745
X6.6929Y-2.3318
X6.7019Y-2.2155
X6.7188Y-2.1799
X6.752Y-2.3228
X6.7913Y-2.3425
X6.7913Y-2.5591
X6.798Y-2.4482
X6.811Y-2.1958
X6.8898Y-2.2745
X6.8983Y-2.1958
X6.9488Y-2.5591
X6.9685Y-2.1564
X6.9685Y-2.3515
X6.9908Y-2.319
X7.0276Y-2.2441
X7.068Y-2.2846
X7.0866Y-2.5266
X7.1654Y-2.5394
X7.1723Y-2.2548
X7.2175Y-2.7756
X7.3425Y-2.3031
X7.3622Y-2.8346
X7.3622Y-3.1683
X7.4604Y-2.8317
X7.5Y-2.1457
X7.5Y-2.2244
X7.5787Y-2.7165
T2
X7.4213Y-2.0059
X7.5Y-2.0059
T3
X6.4717Y-1.9685
X6.4717Y-2.0685
X6.5717Y-1.9685
X6.5717Y-2.0685
X6.6717Y-1.9685
X6.6717Y-2.0685
X6.7717Y-1.9685
X6.7717Y-2.0685
X6.8717Y-1.9685
X6.8717Y-2.0685
X6.9717Y-1.9685
X6.9717Y-2.0685
X7.0717Y-1.9685
X7.0717Y-2.0685
X7.1717Y-1.9685
X7.1717Y-2.0685
T4
X6.4902Y-3.1142
X6.563Y-2.752
X6.752Y-2.752
X6.9409Y-2.752
X7.0138Y-3.1142
M30
