%TF.GenerationSoftware,KiCad,Pcbnew,8.0.1*%
%TF.CreationDate,2024-03-24T23:32:15+02:00*%
%TF.ProjectId,PowerSubsystem,506f7765-7253-4756-9273-797374656d2e,rev?*%
%TF.SameCoordinates,Original*%
%TF.FileFunction,Paste,Top*%
%TF.FilePolarity,Positive*%
%FSLAX46Y46*%
G04 Gerber Fmt 4.6, Leading zero omitted, Abs format (unit mm)*
G04 Created by KiCad (PCBNEW 8.0.1) date 2024-03-24 23:32:15*
%MOMM*%
%LPD*%
G01*
G04 APERTURE LIST*
G04 Aperture macros list*
%AMRoundRect*
0 Rectangle with rounded corners*
0 $1 Rounding radius*
0 $2 $3 $4 $5 $6 $7 $8 $9 X,Y pos of 4 corners*
0 Add a 4 corners polygon primitive as box body*
4,1,4,$2,$3,$4,$5,$6,$7,$8,$9,$2,$3,0*
0 Add four circle primitives for the rounded corners*
1,1,$1+$1,$2,$3*
1,1,$1+$1,$4,$5*
1,1,$1+$1,$6,$7*
1,1,$1+$1,$8,$9*
0 Add four rect primitives between the rounded corners*
20,1,$1+$1,$2,$3,$4,$5,0*
20,1,$1+$1,$4,$5,$6,$7,0*
20,1,$1+$1,$6,$7,$8,$9,0*
20,1,$1+$1,$8,$9,$2,$3,0*%
G04 Aperture macros list end*
%ADD10RoundRect,0.200000X-0.275000X0.200000X-0.275000X-0.200000X0.275000X-0.200000X0.275000X0.200000X0*%
%ADD11RoundRect,0.200000X0.275000X-0.200000X0.275000X0.200000X-0.275000X0.200000X-0.275000X-0.200000X0*%
%ADD12RoundRect,0.200000X0.200000X0.275000X-0.200000X0.275000X-0.200000X-0.275000X0.200000X-0.275000X0*%
%ADD13RoundRect,0.218750X0.256250X-0.218750X0.256250X0.218750X-0.256250X0.218750X-0.256250X-0.218750X0*%
%ADD14RoundRect,0.225000X-0.225000X-0.250000X0.225000X-0.250000X0.225000X0.250000X-0.225000X0.250000X0*%
%ADD15RoundRect,0.225000X0.250000X-0.225000X0.250000X0.225000X-0.250000X0.225000X-0.250000X-0.225000X0*%
%ADD16RoundRect,0.225000X0.225000X0.250000X-0.225000X0.250000X-0.225000X-0.250000X0.225000X-0.250000X0*%
%ADD17R,1.050000X0.450000*%
%ADD18R,0.882000X0.537000*%
%ADD19R,2.400000X3.300000*%
%ADD20R,1.200000X0.600000*%
%ADD21RoundRect,0.150000X-0.150000X0.825000X-0.150000X-0.825000X0.150000X-0.825000X0.150000X0.825000X0*%
G04 APERTURE END LIST*
D10*
%TO.C,R7*%
X180000000Y-61175000D03*
X180000000Y-62825000D03*
%TD*%
%TO.C,R6*%
X193415807Y-63277495D03*
X193415807Y-64927495D03*
%TD*%
%TO.C,R5*%
X191317500Y-64927495D03*
X191317500Y-63277495D03*
%TD*%
D11*
%TO.C,R4*%
X161500000Y-67325000D03*
X161500000Y-65675000D03*
%TD*%
%TO.C,R3*%
X161500000Y-60825000D03*
X161500000Y-59175000D03*
%TD*%
D12*
%TO.C,R2*%
X186190000Y-70500000D03*
X184540000Y-70500000D03*
%TD*%
%TO.C,R1*%
X188675000Y-70500000D03*
X190325000Y-70500000D03*
%TD*%
D13*
%TO.C,D2*%
X191317500Y-61605000D03*
X191317500Y-60030000D03*
%TD*%
%TO.C,D1*%
X193415807Y-61564995D03*
X193415807Y-59989995D03*
%TD*%
D14*
%TO.C,C5*%
X185407499Y-65817500D03*
X186957499Y-65817500D03*
%TD*%
D15*
%TO.C,C4*%
X192000000Y-56450000D03*
X192000000Y-58000000D03*
%TD*%
D16*
%TO.C,C3*%
X175265000Y-66540000D03*
X173715000Y-66540000D03*
%TD*%
D14*
%TO.C,C2*%
X173715000Y-60725000D03*
X175265000Y-60725000D03*
%TD*%
D16*
%TO.C,C1*%
X175265000Y-63725000D03*
X173715000Y-63725000D03*
%TD*%
D17*
%TO.C,U3*%
X165725000Y-60225000D03*
X165725000Y-60875000D03*
X165725000Y-61525000D03*
X165725000Y-62175000D03*
X165725000Y-62825000D03*
X165725000Y-63475000D03*
X165725000Y-64125000D03*
X165725000Y-64775000D03*
X171275000Y-64775000D03*
X171275000Y-64125000D03*
X171275000Y-63475000D03*
X171275000Y-62825000D03*
X171275000Y-62175000D03*
X171275000Y-61525000D03*
X171275000Y-60875000D03*
X171275000Y-60225000D03*
D18*
X167765000Y-61157500D03*
X167765000Y-62052500D03*
X167765000Y-62947500D03*
X167765000Y-63842500D03*
X169235000Y-61157500D03*
X169235000Y-62052500D03*
X169235000Y-62947500D03*
X169235000Y-63842500D03*
%TD*%
D19*
%TO.C,U2*%
X184817500Y-61682499D03*
D20*
X187725806Y-59777495D03*
X187725806Y-61047498D03*
X187725806Y-62317500D03*
X187725806Y-63587503D03*
X181909194Y-63587503D03*
X181909194Y-62317500D03*
X181909194Y-61047498D03*
X181909194Y-59777495D03*
%TD*%
D21*
%TO.C,U1*%
X190810000Y-73500000D03*
X189540000Y-73500000D03*
X188270000Y-73500000D03*
X187000000Y-73500000D03*
X185730000Y-73500000D03*
X184460000Y-73500000D03*
X183190000Y-73500000D03*
X183190000Y-78450000D03*
X184460000Y-78450000D03*
X185730000Y-78450000D03*
X187000000Y-78450000D03*
X188270000Y-78450000D03*
X189540000Y-78450000D03*
X190810000Y-78450000D03*
%TD*%
M02*
