%TF.GenerationSoftware,KiCad,Pcbnew,8.0.1*%
%TF.CreationDate,2024-03-24T23:32:15+02:00*%
%TF.ProjectId,PowerSubsystem,506f7765-7253-4756-9273-797374656d2e,rev?*%
%TF.SameCoordinates,Original*%
%TF.FileFunction,Legend,Bot*%
%TF.FilePolarity,Positive*%
%FSLAX46Y46*%
G04 Gerber Fmt 4.6, Leading zero omitted, Abs format (unit mm)*
G04 Created by KiCad (PCBNEW 8.0.1) date 2024-03-24 23:32:15*
%MOMM*%
%LPD*%
G01*
G04 APERTURE LIST*
G04 Aperture macros list*
%AMRoundRect*
0 Rectangle with rounded corners*
0 $1 Rounding radius*
0 $2 $3 $4 $5 $6 $7 $8 $9 X,Y pos of 4 corners*
0 Add a 4 corners polygon primitive as box body*
4,1,4,$2,$3,$4,$5,$6,$7,$8,$9,$2,$3,0*
0 Add four circle primitives for the rounded corners*
1,1,$1+$1,$2,$3*
1,1,$1+$1,$4,$5*
1,1,$1+$1,$6,$7*
1,1,$1+$1,$8,$9*
0 Add four rect primitives between the rounded corners*
20,1,$1+$1,$2,$3,$4,$5,0*
20,1,$1+$1,$4,$5,$6,$7,0*
20,1,$1+$1,$6,$7,$8,$9,0*
20,1,$1+$1,$8,$9,$2,$3,0*%
G04 Aperture macros list end*
%ADD10C,0.100000*%
%ADD11C,0.300000*%
%ADD12C,0.150000*%
%ADD13C,0.120000*%
%ADD14C,2.500000*%
%ADD15RoundRect,0.250000X-0.350000X-0.625000X0.350000X-0.625000X0.350000X0.625000X-0.350000X0.625000X0*%
%ADD16O,1.200000X1.750000*%
%ADD17O,1.700000X1.700000*%
%ADD18R,1.700000X1.700000*%
G04 APERTURE END LIST*
D10*
X175389598Y-72385990D02*
X175370550Y-72409800D01*
X175370550Y-72409800D02*
X175313408Y-72433609D01*
X175313408Y-72433609D02*
X175275312Y-72433609D01*
X175275312Y-72433609D02*
X175218169Y-72409800D01*
X175218169Y-72409800D02*
X175180074Y-72362180D01*
X175180074Y-72362180D02*
X175161027Y-72314561D01*
X175161027Y-72314561D02*
X175141979Y-72219323D01*
X175141979Y-72219323D02*
X175141979Y-72147895D01*
X175141979Y-72147895D02*
X175161027Y-72052657D01*
X175161027Y-72052657D02*
X175180074Y-72005038D01*
X175180074Y-72005038D02*
X175218169Y-71957419D01*
X175218169Y-71957419D02*
X175275312Y-71933609D01*
X175275312Y-71933609D02*
X175313408Y-71933609D01*
X175313408Y-71933609D02*
X175370550Y-71957419D01*
X175370550Y-71957419D02*
X175389598Y-71981228D01*
X175561027Y-72433609D02*
X175561027Y-71933609D01*
X175732455Y-72433609D02*
X175732455Y-72171704D01*
X175732455Y-72171704D02*
X175713408Y-72124085D01*
X175713408Y-72124085D02*
X175675312Y-72100276D01*
X175675312Y-72100276D02*
X175618169Y-72100276D01*
X175618169Y-72100276D02*
X175580074Y-72124085D01*
X175580074Y-72124085D02*
X175561027Y-72147895D01*
X176094360Y-72433609D02*
X176094360Y-72171704D01*
X176094360Y-72171704D02*
X176075313Y-72124085D01*
X176075313Y-72124085D02*
X176037217Y-72100276D01*
X176037217Y-72100276D02*
X175961027Y-72100276D01*
X175961027Y-72100276D02*
X175922932Y-72124085D01*
X176094360Y-72409800D02*
X176056265Y-72433609D01*
X176056265Y-72433609D02*
X175961027Y-72433609D01*
X175961027Y-72433609D02*
X175922932Y-72409800D01*
X175922932Y-72409800D02*
X175903884Y-72362180D01*
X175903884Y-72362180D02*
X175903884Y-72314561D01*
X175903884Y-72314561D02*
X175922932Y-72266942D01*
X175922932Y-72266942D02*
X175961027Y-72243133D01*
X175961027Y-72243133D02*
X176056265Y-72243133D01*
X176056265Y-72243133D02*
X176094360Y-72219323D01*
X176284837Y-72433609D02*
X176284837Y-72100276D01*
X176284837Y-72195514D02*
X176303884Y-72147895D01*
X176303884Y-72147895D02*
X176322932Y-72124085D01*
X176322932Y-72124085D02*
X176361027Y-72100276D01*
X176361027Y-72100276D02*
X176399122Y-72100276D01*
X176703884Y-72100276D02*
X176703884Y-72505038D01*
X176703884Y-72505038D02*
X176684837Y-72552657D01*
X176684837Y-72552657D02*
X176665789Y-72576466D01*
X176665789Y-72576466D02*
X176627694Y-72600276D01*
X176627694Y-72600276D02*
X176570551Y-72600276D01*
X176570551Y-72600276D02*
X176532456Y-72576466D01*
X176703884Y-72409800D02*
X176665789Y-72433609D01*
X176665789Y-72433609D02*
X176589598Y-72433609D01*
X176589598Y-72433609D02*
X176551503Y-72409800D01*
X176551503Y-72409800D02*
X176532456Y-72385990D01*
X176532456Y-72385990D02*
X176513408Y-72338371D01*
X176513408Y-72338371D02*
X176513408Y-72195514D01*
X176513408Y-72195514D02*
X176532456Y-72147895D01*
X176532456Y-72147895D02*
X176551503Y-72124085D01*
X176551503Y-72124085D02*
X176589598Y-72100276D01*
X176589598Y-72100276D02*
X176665789Y-72100276D01*
X176665789Y-72100276D02*
X176703884Y-72124085D01*
X176894361Y-72433609D02*
X176894361Y-72100276D01*
X176894361Y-71933609D02*
X176875313Y-71957419D01*
X176875313Y-71957419D02*
X176894361Y-71981228D01*
X176894361Y-71981228D02*
X176913408Y-71957419D01*
X176913408Y-71957419D02*
X176894361Y-71933609D01*
X176894361Y-71933609D02*
X176894361Y-71981228D01*
X177084837Y-72100276D02*
X177084837Y-72433609D01*
X177084837Y-72147895D02*
X177103884Y-72124085D01*
X177103884Y-72124085D02*
X177141979Y-72100276D01*
X177141979Y-72100276D02*
X177199122Y-72100276D01*
X177199122Y-72100276D02*
X177237218Y-72124085D01*
X177237218Y-72124085D02*
X177256265Y-72171704D01*
X177256265Y-72171704D02*
X177256265Y-72433609D01*
X177618170Y-72100276D02*
X177618170Y-72505038D01*
X177618170Y-72505038D02*
X177599123Y-72552657D01*
X177599123Y-72552657D02*
X177580075Y-72576466D01*
X177580075Y-72576466D02*
X177541980Y-72600276D01*
X177541980Y-72600276D02*
X177484837Y-72600276D01*
X177484837Y-72600276D02*
X177446742Y-72576466D01*
X177618170Y-72409800D02*
X177580075Y-72433609D01*
X177580075Y-72433609D02*
X177503884Y-72433609D01*
X177503884Y-72433609D02*
X177465789Y-72409800D01*
X177465789Y-72409800D02*
X177446742Y-72385990D01*
X177446742Y-72385990D02*
X177427694Y-72338371D01*
X177427694Y-72338371D02*
X177427694Y-72195514D01*
X177427694Y-72195514D02*
X177446742Y-72147895D01*
X177446742Y-72147895D02*
X177465789Y-72124085D01*
X177465789Y-72124085D02*
X177503884Y-72100276D01*
X177503884Y-72100276D02*
X177580075Y-72100276D01*
X177580075Y-72100276D02*
X177618170Y-72124085D01*
X165661027Y-72433609D02*
X165661027Y-71933609D01*
X165661027Y-72171704D02*
X165889598Y-72171704D01*
X165889598Y-72433609D02*
X165889598Y-71933609D01*
X166080075Y-72243133D02*
X166384837Y-72243133D01*
X166708646Y-72171704D02*
X166765789Y-72195514D01*
X166765789Y-72195514D02*
X166784836Y-72219323D01*
X166784836Y-72219323D02*
X166803884Y-72266942D01*
X166803884Y-72266942D02*
X166803884Y-72338371D01*
X166803884Y-72338371D02*
X166784836Y-72385990D01*
X166784836Y-72385990D02*
X166765789Y-72409800D01*
X166765789Y-72409800D02*
X166727694Y-72433609D01*
X166727694Y-72433609D02*
X166575313Y-72433609D01*
X166575313Y-72433609D02*
X166575313Y-71933609D01*
X166575313Y-71933609D02*
X166708646Y-71933609D01*
X166708646Y-71933609D02*
X166746741Y-71957419D01*
X166746741Y-71957419D02*
X166765789Y-71981228D01*
X166765789Y-71981228D02*
X166784836Y-72028847D01*
X166784836Y-72028847D02*
X166784836Y-72076466D01*
X166784836Y-72076466D02*
X166765789Y-72124085D01*
X166765789Y-72124085D02*
X166746741Y-72147895D01*
X166746741Y-72147895D02*
X166708646Y-72171704D01*
X166708646Y-72171704D02*
X166575313Y-72171704D01*
X166975313Y-72433609D02*
X166975313Y-72100276D01*
X166975313Y-72195514D02*
X166994360Y-72147895D01*
X166994360Y-72147895D02*
X167013408Y-72124085D01*
X167013408Y-72124085D02*
X167051503Y-72100276D01*
X167051503Y-72100276D02*
X167089598Y-72100276D01*
X167222932Y-72433609D02*
X167222932Y-72100276D01*
X167222932Y-71933609D02*
X167203884Y-71957419D01*
X167203884Y-71957419D02*
X167222932Y-71981228D01*
X167222932Y-71981228D02*
X167241979Y-71957419D01*
X167241979Y-71957419D02*
X167222932Y-71933609D01*
X167222932Y-71933609D02*
X167222932Y-71981228D01*
X167584836Y-72433609D02*
X167584836Y-71933609D01*
X167584836Y-72409800D02*
X167546741Y-72433609D01*
X167546741Y-72433609D02*
X167470550Y-72433609D01*
X167470550Y-72433609D02*
X167432455Y-72409800D01*
X167432455Y-72409800D02*
X167413408Y-72385990D01*
X167413408Y-72385990D02*
X167394360Y-72338371D01*
X167394360Y-72338371D02*
X167394360Y-72195514D01*
X167394360Y-72195514D02*
X167413408Y-72147895D01*
X167413408Y-72147895D02*
X167432455Y-72124085D01*
X167432455Y-72124085D02*
X167470550Y-72100276D01*
X167470550Y-72100276D02*
X167546741Y-72100276D01*
X167546741Y-72100276D02*
X167584836Y-72124085D01*
X167946741Y-72100276D02*
X167946741Y-72505038D01*
X167946741Y-72505038D02*
X167927694Y-72552657D01*
X167927694Y-72552657D02*
X167908646Y-72576466D01*
X167908646Y-72576466D02*
X167870551Y-72600276D01*
X167870551Y-72600276D02*
X167813408Y-72600276D01*
X167813408Y-72600276D02*
X167775313Y-72576466D01*
X167946741Y-72409800D02*
X167908646Y-72433609D01*
X167908646Y-72433609D02*
X167832455Y-72433609D01*
X167832455Y-72433609D02*
X167794360Y-72409800D01*
X167794360Y-72409800D02*
X167775313Y-72385990D01*
X167775313Y-72385990D02*
X167756265Y-72338371D01*
X167756265Y-72338371D02*
X167756265Y-72195514D01*
X167756265Y-72195514D02*
X167775313Y-72147895D01*
X167775313Y-72147895D02*
X167794360Y-72124085D01*
X167794360Y-72124085D02*
X167832455Y-72100276D01*
X167832455Y-72100276D02*
X167908646Y-72100276D01*
X167908646Y-72100276D02*
X167946741Y-72124085D01*
X168289599Y-72409800D02*
X168251503Y-72433609D01*
X168251503Y-72433609D02*
X168175313Y-72433609D01*
X168175313Y-72433609D02*
X168137218Y-72409800D01*
X168137218Y-72409800D02*
X168118170Y-72362180D01*
X168118170Y-72362180D02*
X168118170Y-72171704D01*
X168118170Y-72171704D02*
X168137218Y-72124085D01*
X168137218Y-72124085D02*
X168175313Y-72100276D01*
X168175313Y-72100276D02*
X168251503Y-72100276D01*
X168251503Y-72100276D02*
X168289599Y-72124085D01*
X168289599Y-72124085D02*
X168308646Y-72171704D01*
X168308646Y-72171704D02*
X168308646Y-72219323D01*
X168308646Y-72219323D02*
X168118170Y-72266942D01*
D11*
X181483082Y-76729400D02*
X181697368Y-76800828D01*
X181697368Y-76800828D02*
X182054510Y-76800828D01*
X182054510Y-76800828D02*
X182197368Y-76729400D01*
X182197368Y-76729400D02*
X182268796Y-76657971D01*
X182268796Y-76657971D02*
X182340225Y-76515114D01*
X182340225Y-76515114D02*
X182340225Y-76372257D01*
X182340225Y-76372257D02*
X182268796Y-76229400D01*
X182268796Y-76229400D02*
X182197368Y-76157971D01*
X182197368Y-76157971D02*
X182054510Y-76086542D01*
X182054510Y-76086542D02*
X181768796Y-76015114D01*
X181768796Y-76015114D02*
X181625939Y-75943685D01*
X181625939Y-75943685D02*
X181554510Y-75872257D01*
X181554510Y-75872257D02*
X181483082Y-75729400D01*
X181483082Y-75729400D02*
X181483082Y-75586542D01*
X181483082Y-75586542D02*
X181554510Y-75443685D01*
X181554510Y-75443685D02*
X181625939Y-75372257D01*
X181625939Y-75372257D02*
X181768796Y-75300828D01*
X181768796Y-75300828D02*
X182125939Y-75300828D01*
X182125939Y-75300828D02*
X182340225Y-75372257D01*
X183483081Y-76015114D02*
X182983081Y-76015114D01*
X182983081Y-76800828D02*
X182983081Y-75300828D01*
X182983081Y-75300828D02*
X183697367Y-75300828D01*
X185125938Y-76800828D02*
X184625938Y-76086542D01*
X184268795Y-76800828D02*
X184268795Y-75300828D01*
X184268795Y-75300828D02*
X184840224Y-75300828D01*
X184840224Y-75300828D02*
X184983081Y-75372257D01*
X184983081Y-75372257D02*
X185054510Y-75443685D01*
X185054510Y-75443685D02*
X185125938Y-75586542D01*
X185125938Y-75586542D02*
X185125938Y-75800828D01*
X185125938Y-75800828D02*
X185054510Y-75943685D01*
X185054510Y-75943685D02*
X184983081Y-76015114D01*
X184983081Y-76015114D02*
X184840224Y-76086542D01*
X184840224Y-76086542D02*
X184268795Y-76086542D01*
X186625938Y-76800828D02*
X186125938Y-76086542D01*
X185768795Y-76800828D02*
X185768795Y-75300828D01*
X185768795Y-75300828D02*
X186340224Y-75300828D01*
X186340224Y-75300828D02*
X186483081Y-75372257D01*
X186483081Y-75372257D02*
X186554510Y-75443685D01*
X186554510Y-75443685D02*
X186625938Y-75586542D01*
X186625938Y-75586542D02*
X186625938Y-75800828D01*
X186625938Y-75800828D02*
X186554510Y-75943685D01*
X186554510Y-75943685D02*
X186483081Y-76015114D01*
X186483081Y-76015114D02*
X186340224Y-76086542D01*
X186340224Y-76086542D02*
X185768795Y-76086542D01*
X187268795Y-76015114D02*
X187768795Y-76015114D01*
X187983081Y-76800828D02*
X187268795Y-76800828D01*
X187268795Y-76800828D02*
X187268795Y-75300828D01*
X187268795Y-75300828D02*
X187983081Y-75300828D01*
X188625938Y-76800828D02*
X188625938Y-75300828D01*
X188625938Y-75300828D02*
X189483081Y-76800828D01*
X189483081Y-76800828D02*
X189483081Y-75300828D01*
X190483082Y-75300828D02*
X190625939Y-75300828D01*
X190625939Y-75300828D02*
X190768796Y-75372257D01*
X190768796Y-75372257D02*
X190840225Y-75443685D01*
X190840225Y-75443685D02*
X190911653Y-75586542D01*
X190911653Y-75586542D02*
X190983082Y-75872257D01*
X190983082Y-75872257D02*
X190983082Y-76229400D01*
X190983082Y-76229400D02*
X190911653Y-76515114D01*
X190911653Y-76515114D02*
X190840225Y-76657971D01*
X190840225Y-76657971D02*
X190768796Y-76729400D01*
X190768796Y-76729400D02*
X190625939Y-76800828D01*
X190625939Y-76800828D02*
X190483082Y-76800828D01*
X190483082Y-76800828D02*
X190340225Y-76729400D01*
X190340225Y-76729400D02*
X190268796Y-76657971D01*
X190268796Y-76657971D02*
X190197367Y-76515114D01*
X190197367Y-76515114D02*
X190125939Y-76229400D01*
X190125939Y-76229400D02*
X190125939Y-75872257D01*
X190125939Y-75872257D02*
X190197367Y-75586542D01*
X190197367Y-75586542D02*
X190268796Y-75443685D01*
X190268796Y-75443685D02*
X190340225Y-75372257D01*
X190340225Y-75372257D02*
X190483082Y-75300828D01*
X191911653Y-75300828D02*
X192054510Y-75300828D01*
X192054510Y-75300828D02*
X192197367Y-75372257D01*
X192197367Y-75372257D02*
X192268796Y-75443685D01*
X192268796Y-75443685D02*
X192340224Y-75586542D01*
X192340224Y-75586542D02*
X192411653Y-75872257D01*
X192411653Y-75872257D02*
X192411653Y-76229400D01*
X192411653Y-76229400D02*
X192340224Y-76515114D01*
X192340224Y-76515114D02*
X192268796Y-76657971D01*
X192268796Y-76657971D02*
X192197367Y-76729400D01*
X192197367Y-76729400D02*
X192054510Y-76800828D01*
X192054510Y-76800828D02*
X191911653Y-76800828D01*
X191911653Y-76800828D02*
X191768796Y-76729400D01*
X191768796Y-76729400D02*
X191697367Y-76657971D01*
X191697367Y-76657971D02*
X191625938Y-76515114D01*
X191625938Y-76515114D02*
X191554510Y-76229400D01*
X191554510Y-76229400D02*
X191554510Y-75872257D01*
X191554510Y-75872257D02*
X191625938Y-75586542D01*
X191625938Y-75586542D02*
X191697367Y-75443685D01*
X191697367Y-75443685D02*
X191768796Y-75372257D01*
X191768796Y-75372257D02*
X191911653Y-75300828D01*
X193840224Y-76800828D02*
X192983081Y-76800828D01*
X193411652Y-76800828D02*
X193411652Y-75300828D01*
X193411652Y-75300828D02*
X193268795Y-75515114D01*
X193268795Y-75515114D02*
X193125938Y-75657971D01*
X193125938Y-75657971D02*
X192983081Y-75729400D01*
D10*
X181161027Y-48433609D02*
X181161027Y-47933609D01*
X181161027Y-47933609D02*
X181313408Y-47933609D01*
X181313408Y-47933609D02*
X181351503Y-47957419D01*
X181351503Y-47957419D02*
X181370550Y-47981228D01*
X181370550Y-47981228D02*
X181389598Y-48028847D01*
X181389598Y-48028847D02*
X181389598Y-48100276D01*
X181389598Y-48100276D02*
X181370550Y-48147895D01*
X181370550Y-48147895D02*
X181351503Y-48171704D01*
X181351503Y-48171704D02*
X181313408Y-48195514D01*
X181313408Y-48195514D02*
X181161027Y-48195514D01*
X181789598Y-48385990D02*
X181770550Y-48409800D01*
X181770550Y-48409800D02*
X181713408Y-48433609D01*
X181713408Y-48433609D02*
X181675312Y-48433609D01*
X181675312Y-48433609D02*
X181618169Y-48409800D01*
X181618169Y-48409800D02*
X181580074Y-48362180D01*
X181580074Y-48362180D02*
X181561027Y-48314561D01*
X181561027Y-48314561D02*
X181541979Y-48219323D01*
X181541979Y-48219323D02*
X181541979Y-48147895D01*
X181541979Y-48147895D02*
X181561027Y-48052657D01*
X181561027Y-48052657D02*
X181580074Y-48005038D01*
X181580074Y-48005038D02*
X181618169Y-47957419D01*
X181618169Y-47957419D02*
X181675312Y-47933609D01*
X181675312Y-47933609D02*
X181713408Y-47933609D01*
X181713408Y-47933609D02*
X181770550Y-47957419D01*
X181770550Y-47957419D02*
X181789598Y-47981228D01*
X182132455Y-47933609D02*
X182056265Y-47933609D01*
X182056265Y-47933609D02*
X182018169Y-47957419D01*
X182018169Y-47957419D02*
X181999122Y-47981228D01*
X181999122Y-47981228D02*
X181961027Y-48052657D01*
X181961027Y-48052657D02*
X181941979Y-48147895D01*
X181941979Y-48147895D02*
X181941979Y-48338371D01*
X181941979Y-48338371D02*
X181961027Y-48385990D01*
X181961027Y-48385990D02*
X181980074Y-48409800D01*
X181980074Y-48409800D02*
X182018169Y-48433609D01*
X182018169Y-48433609D02*
X182094360Y-48433609D01*
X182094360Y-48433609D02*
X182132455Y-48409800D01*
X182132455Y-48409800D02*
X182151503Y-48385990D01*
X182151503Y-48385990D02*
X182170550Y-48338371D01*
X182170550Y-48338371D02*
X182170550Y-48219323D01*
X182170550Y-48219323D02*
X182151503Y-48171704D01*
X182151503Y-48171704D02*
X182132455Y-48147895D01*
X182132455Y-48147895D02*
X182094360Y-48124085D01*
X182094360Y-48124085D02*
X182018169Y-48124085D01*
X182018169Y-48124085D02*
X181980074Y-48147895D01*
X181980074Y-48147895D02*
X181961027Y-48171704D01*
X181961027Y-48171704D02*
X181941979Y-48219323D01*
X182341979Y-48243133D02*
X182646741Y-48243133D01*
X182856264Y-48433609D02*
X182932455Y-48433609D01*
X182932455Y-48433609D02*
X182970550Y-48409800D01*
X182970550Y-48409800D02*
X182989598Y-48385990D01*
X182989598Y-48385990D02*
X183027693Y-48314561D01*
X183027693Y-48314561D02*
X183046740Y-48219323D01*
X183046740Y-48219323D02*
X183046740Y-48028847D01*
X183046740Y-48028847D02*
X183027693Y-47981228D01*
X183027693Y-47981228D02*
X183008645Y-47957419D01*
X183008645Y-47957419D02*
X182970550Y-47933609D01*
X182970550Y-47933609D02*
X182894359Y-47933609D01*
X182894359Y-47933609D02*
X182856264Y-47957419D01*
X182856264Y-47957419D02*
X182837217Y-47981228D01*
X182837217Y-47981228D02*
X182818169Y-48028847D01*
X182818169Y-48028847D02*
X182818169Y-48147895D01*
X182818169Y-48147895D02*
X182837217Y-48195514D01*
X182837217Y-48195514D02*
X182856264Y-48219323D01*
X182856264Y-48219323D02*
X182894359Y-48243133D01*
X182894359Y-48243133D02*
X182970550Y-48243133D01*
X182970550Y-48243133D02*
X183008645Y-48219323D01*
X183008645Y-48219323D02*
X183027693Y-48195514D01*
X183027693Y-48195514D02*
X183046740Y-48147895D01*
X178661027Y-48433609D02*
X178661027Y-47933609D01*
X178661027Y-47933609D02*
X178813408Y-47933609D01*
X178813408Y-47933609D02*
X178851503Y-47957419D01*
X178851503Y-47957419D02*
X178870550Y-47981228D01*
X178870550Y-47981228D02*
X178889598Y-48028847D01*
X178889598Y-48028847D02*
X178889598Y-48100276D01*
X178889598Y-48100276D02*
X178870550Y-48147895D01*
X178870550Y-48147895D02*
X178851503Y-48171704D01*
X178851503Y-48171704D02*
X178813408Y-48195514D01*
X178813408Y-48195514D02*
X178661027Y-48195514D01*
X179289598Y-48385990D02*
X179270550Y-48409800D01*
X179270550Y-48409800D02*
X179213408Y-48433609D01*
X179213408Y-48433609D02*
X179175312Y-48433609D01*
X179175312Y-48433609D02*
X179118169Y-48409800D01*
X179118169Y-48409800D02*
X179080074Y-48362180D01*
X179080074Y-48362180D02*
X179061027Y-48314561D01*
X179061027Y-48314561D02*
X179041979Y-48219323D01*
X179041979Y-48219323D02*
X179041979Y-48147895D01*
X179041979Y-48147895D02*
X179061027Y-48052657D01*
X179061027Y-48052657D02*
X179080074Y-48005038D01*
X179080074Y-48005038D02*
X179118169Y-47957419D01*
X179118169Y-47957419D02*
X179175312Y-47933609D01*
X179175312Y-47933609D02*
X179213408Y-47933609D01*
X179213408Y-47933609D02*
X179270550Y-47957419D01*
X179270550Y-47957419D02*
X179289598Y-47981228D01*
X179632455Y-47933609D02*
X179556265Y-47933609D01*
X179556265Y-47933609D02*
X179518169Y-47957419D01*
X179518169Y-47957419D02*
X179499122Y-47981228D01*
X179499122Y-47981228D02*
X179461027Y-48052657D01*
X179461027Y-48052657D02*
X179441979Y-48147895D01*
X179441979Y-48147895D02*
X179441979Y-48338371D01*
X179441979Y-48338371D02*
X179461027Y-48385990D01*
X179461027Y-48385990D02*
X179480074Y-48409800D01*
X179480074Y-48409800D02*
X179518169Y-48433609D01*
X179518169Y-48433609D02*
X179594360Y-48433609D01*
X179594360Y-48433609D02*
X179632455Y-48409800D01*
X179632455Y-48409800D02*
X179651503Y-48385990D01*
X179651503Y-48385990D02*
X179670550Y-48338371D01*
X179670550Y-48338371D02*
X179670550Y-48219323D01*
X179670550Y-48219323D02*
X179651503Y-48171704D01*
X179651503Y-48171704D02*
X179632455Y-48147895D01*
X179632455Y-48147895D02*
X179594360Y-48124085D01*
X179594360Y-48124085D02*
X179518169Y-48124085D01*
X179518169Y-48124085D02*
X179480074Y-48147895D01*
X179480074Y-48147895D02*
X179461027Y-48171704D01*
X179461027Y-48171704D02*
X179441979Y-48219323D01*
X179841979Y-48243133D02*
X180146741Y-48243133D01*
X180356264Y-48433609D02*
X180432455Y-48433609D01*
X180432455Y-48433609D02*
X180470550Y-48409800D01*
X180470550Y-48409800D02*
X180489598Y-48385990D01*
X180489598Y-48385990D02*
X180527693Y-48314561D01*
X180527693Y-48314561D02*
X180546740Y-48219323D01*
X180546740Y-48219323D02*
X180546740Y-48028847D01*
X180546740Y-48028847D02*
X180527693Y-47981228D01*
X180527693Y-47981228D02*
X180508645Y-47957419D01*
X180508645Y-47957419D02*
X180470550Y-47933609D01*
X180470550Y-47933609D02*
X180394359Y-47933609D01*
X180394359Y-47933609D02*
X180356264Y-47957419D01*
X180356264Y-47957419D02*
X180337217Y-47981228D01*
X180337217Y-47981228D02*
X180318169Y-48028847D01*
X180318169Y-48028847D02*
X180318169Y-48147895D01*
X180318169Y-48147895D02*
X180337217Y-48195514D01*
X180337217Y-48195514D02*
X180356264Y-48219323D01*
X180356264Y-48219323D02*
X180394359Y-48243133D01*
X180394359Y-48243133D02*
X180470550Y-48243133D01*
X180470550Y-48243133D02*
X180508645Y-48219323D01*
X180508645Y-48219323D02*
X180527693Y-48195514D01*
X180527693Y-48195514D02*
X180546740Y-48147895D01*
X181661027Y-54433609D02*
X181661027Y-53933609D01*
X181661027Y-53933609D02*
X181794360Y-54290752D01*
X181794360Y-54290752D02*
X181927693Y-53933609D01*
X181927693Y-53933609D02*
X181927693Y-54433609D01*
X182175312Y-54433609D02*
X182137217Y-54409800D01*
X182137217Y-54409800D02*
X182118170Y-54385990D01*
X182118170Y-54385990D02*
X182099122Y-54338371D01*
X182099122Y-54338371D02*
X182099122Y-54195514D01*
X182099122Y-54195514D02*
X182118170Y-54147895D01*
X182118170Y-54147895D02*
X182137217Y-54124085D01*
X182137217Y-54124085D02*
X182175312Y-54100276D01*
X182175312Y-54100276D02*
X182232455Y-54100276D01*
X182232455Y-54100276D02*
X182270551Y-54124085D01*
X182270551Y-54124085D02*
X182289598Y-54147895D01*
X182289598Y-54147895D02*
X182308646Y-54195514D01*
X182308646Y-54195514D02*
X182308646Y-54338371D01*
X182308646Y-54338371D02*
X182289598Y-54385990D01*
X182289598Y-54385990D02*
X182270551Y-54409800D01*
X182270551Y-54409800D02*
X182232455Y-54433609D01*
X182232455Y-54433609D02*
X182175312Y-54433609D01*
X182422932Y-54100276D02*
X182575313Y-54100276D01*
X182480075Y-53933609D02*
X182480075Y-54362180D01*
X182480075Y-54362180D02*
X182499122Y-54409800D01*
X182499122Y-54409800D02*
X182537217Y-54433609D01*
X182537217Y-54433609D02*
X182575313Y-54433609D01*
X182765788Y-54433609D02*
X182727693Y-54409800D01*
X182727693Y-54409800D02*
X182708646Y-54385990D01*
X182708646Y-54385990D02*
X182689598Y-54338371D01*
X182689598Y-54338371D02*
X182689598Y-54195514D01*
X182689598Y-54195514D02*
X182708646Y-54147895D01*
X182708646Y-54147895D02*
X182727693Y-54124085D01*
X182727693Y-54124085D02*
X182765788Y-54100276D01*
X182765788Y-54100276D02*
X182822931Y-54100276D01*
X182822931Y-54100276D02*
X182861027Y-54124085D01*
X182861027Y-54124085D02*
X182880074Y-54147895D01*
X182880074Y-54147895D02*
X182899122Y-54195514D01*
X182899122Y-54195514D02*
X182899122Y-54338371D01*
X182899122Y-54338371D02*
X182880074Y-54385990D01*
X182880074Y-54385990D02*
X182861027Y-54409800D01*
X182861027Y-54409800D02*
X182822931Y-54433609D01*
X182822931Y-54433609D02*
X182765788Y-54433609D01*
X183070551Y-54433609D02*
X183070551Y-54100276D01*
X183070551Y-54195514D02*
X183089598Y-54147895D01*
X183089598Y-54147895D02*
X183108646Y-54124085D01*
X183108646Y-54124085D02*
X183146741Y-54100276D01*
X183146741Y-54100276D02*
X183184836Y-54100276D01*
X183299122Y-53981228D02*
X183318170Y-53957419D01*
X183318170Y-53957419D02*
X183356265Y-53933609D01*
X183356265Y-53933609D02*
X183451503Y-53933609D01*
X183451503Y-53933609D02*
X183489598Y-53957419D01*
X183489598Y-53957419D02*
X183508646Y-53981228D01*
X183508646Y-53981228D02*
X183527693Y-54028847D01*
X183527693Y-54028847D02*
X183527693Y-54076466D01*
X183527693Y-54076466D02*
X183508646Y-54147895D01*
X183508646Y-54147895D02*
X183280074Y-54433609D01*
X183280074Y-54433609D02*
X183527693Y-54433609D01*
X183603884Y-54481228D02*
X183908645Y-54481228D01*
X183984836Y-54290752D02*
X184175312Y-54290752D01*
X183946741Y-54433609D02*
X184080074Y-53933609D01*
X184080074Y-53933609D02*
X184213407Y-54433609D01*
X178661027Y-54433609D02*
X178661027Y-53933609D01*
X178661027Y-53933609D02*
X178794360Y-54290752D01*
X178794360Y-54290752D02*
X178927693Y-53933609D01*
X178927693Y-53933609D02*
X178927693Y-54433609D01*
X179175312Y-54433609D02*
X179137217Y-54409800D01*
X179137217Y-54409800D02*
X179118170Y-54385990D01*
X179118170Y-54385990D02*
X179099122Y-54338371D01*
X179099122Y-54338371D02*
X179099122Y-54195514D01*
X179099122Y-54195514D02*
X179118170Y-54147895D01*
X179118170Y-54147895D02*
X179137217Y-54124085D01*
X179137217Y-54124085D02*
X179175312Y-54100276D01*
X179175312Y-54100276D02*
X179232455Y-54100276D01*
X179232455Y-54100276D02*
X179270551Y-54124085D01*
X179270551Y-54124085D02*
X179289598Y-54147895D01*
X179289598Y-54147895D02*
X179308646Y-54195514D01*
X179308646Y-54195514D02*
X179308646Y-54338371D01*
X179308646Y-54338371D02*
X179289598Y-54385990D01*
X179289598Y-54385990D02*
X179270551Y-54409800D01*
X179270551Y-54409800D02*
X179232455Y-54433609D01*
X179232455Y-54433609D02*
X179175312Y-54433609D01*
X179422932Y-54100276D02*
X179575313Y-54100276D01*
X179480075Y-53933609D02*
X179480075Y-54362180D01*
X179480075Y-54362180D02*
X179499122Y-54409800D01*
X179499122Y-54409800D02*
X179537217Y-54433609D01*
X179537217Y-54433609D02*
X179575313Y-54433609D01*
X179765788Y-54433609D02*
X179727693Y-54409800D01*
X179727693Y-54409800D02*
X179708646Y-54385990D01*
X179708646Y-54385990D02*
X179689598Y-54338371D01*
X179689598Y-54338371D02*
X179689598Y-54195514D01*
X179689598Y-54195514D02*
X179708646Y-54147895D01*
X179708646Y-54147895D02*
X179727693Y-54124085D01*
X179727693Y-54124085D02*
X179765788Y-54100276D01*
X179765788Y-54100276D02*
X179822931Y-54100276D01*
X179822931Y-54100276D02*
X179861027Y-54124085D01*
X179861027Y-54124085D02*
X179880074Y-54147895D01*
X179880074Y-54147895D02*
X179899122Y-54195514D01*
X179899122Y-54195514D02*
X179899122Y-54338371D01*
X179899122Y-54338371D02*
X179880074Y-54385990D01*
X179880074Y-54385990D02*
X179861027Y-54409800D01*
X179861027Y-54409800D02*
X179822931Y-54433609D01*
X179822931Y-54433609D02*
X179765788Y-54433609D01*
X180070551Y-54433609D02*
X180070551Y-54100276D01*
X180070551Y-54195514D02*
X180089598Y-54147895D01*
X180089598Y-54147895D02*
X180108646Y-54124085D01*
X180108646Y-54124085D02*
X180146741Y-54100276D01*
X180146741Y-54100276D02*
X180184836Y-54100276D01*
X180299122Y-53981228D02*
X180318170Y-53957419D01*
X180318170Y-53957419D02*
X180356265Y-53933609D01*
X180356265Y-53933609D02*
X180451503Y-53933609D01*
X180451503Y-53933609D02*
X180489598Y-53957419D01*
X180489598Y-53957419D02*
X180508646Y-53981228D01*
X180508646Y-53981228D02*
X180527693Y-54028847D01*
X180527693Y-54028847D02*
X180527693Y-54076466D01*
X180527693Y-54076466D02*
X180508646Y-54147895D01*
X180508646Y-54147895D02*
X180280074Y-54433609D01*
X180280074Y-54433609D02*
X180527693Y-54433609D01*
X180603884Y-54481228D02*
X180908645Y-54481228D01*
X181137217Y-54171704D02*
X181194360Y-54195514D01*
X181194360Y-54195514D02*
X181213407Y-54219323D01*
X181213407Y-54219323D02*
X181232455Y-54266942D01*
X181232455Y-54266942D02*
X181232455Y-54338371D01*
X181232455Y-54338371D02*
X181213407Y-54385990D01*
X181213407Y-54385990D02*
X181194360Y-54409800D01*
X181194360Y-54409800D02*
X181156265Y-54433609D01*
X181156265Y-54433609D02*
X181003884Y-54433609D01*
X181003884Y-54433609D02*
X181003884Y-53933609D01*
X181003884Y-53933609D02*
X181137217Y-53933609D01*
X181137217Y-53933609D02*
X181175312Y-53957419D01*
X181175312Y-53957419D02*
X181194360Y-53981228D01*
X181194360Y-53981228D02*
X181213407Y-54028847D01*
X181213407Y-54028847D02*
X181213407Y-54076466D01*
X181213407Y-54076466D02*
X181194360Y-54124085D01*
X181194360Y-54124085D02*
X181175312Y-54147895D01*
X181175312Y-54147895D02*
X181137217Y-54171704D01*
X181137217Y-54171704D02*
X181003884Y-54171704D01*
X166161027Y-54433609D02*
X166161027Y-53933609D01*
X166161027Y-53933609D02*
X166294360Y-54290752D01*
X166294360Y-54290752D02*
X166427693Y-53933609D01*
X166427693Y-53933609D02*
X166427693Y-54433609D01*
X166675312Y-54433609D02*
X166637217Y-54409800D01*
X166637217Y-54409800D02*
X166618170Y-54385990D01*
X166618170Y-54385990D02*
X166599122Y-54338371D01*
X166599122Y-54338371D02*
X166599122Y-54195514D01*
X166599122Y-54195514D02*
X166618170Y-54147895D01*
X166618170Y-54147895D02*
X166637217Y-54124085D01*
X166637217Y-54124085D02*
X166675312Y-54100276D01*
X166675312Y-54100276D02*
X166732455Y-54100276D01*
X166732455Y-54100276D02*
X166770551Y-54124085D01*
X166770551Y-54124085D02*
X166789598Y-54147895D01*
X166789598Y-54147895D02*
X166808646Y-54195514D01*
X166808646Y-54195514D02*
X166808646Y-54338371D01*
X166808646Y-54338371D02*
X166789598Y-54385990D01*
X166789598Y-54385990D02*
X166770551Y-54409800D01*
X166770551Y-54409800D02*
X166732455Y-54433609D01*
X166732455Y-54433609D02*
X166675312Y-54433609D01*
X166922932Y-54100276D02*
X167075313Y-54100276D01*
X166980075Y-53933609D02*
X166980075Y-54362180D01*
X166980075Y-54362180D02*
X166999122Y-54409800D01*
X166999122Y-54409800D02*
X167037217Y-54433609D01*
X167037217Y-54433609D02*
X167075313Y-54433609D01*
X167265788Y-54433609D02*
X167227693Y-54409800D01*
X167227693Y-54409800D02*
X167208646Y-54385990D01*
X167208646Y-54385990D02*
X167189598Y-54338371D01*
X167189598Y-54338371D02*
X167189598Y-54195514D01*
X167189598Y-54195514D02*
X167208646Y-54147895D01*
X167208646Y-54147895D02*
X167227693Y-54124085D01*
X167227693Y-54124085D02*
X167265788Y-54100276D01*
X167265788Y-54100276D02*
X167322931Y-54100276D01*
X167322931Y-54100276D02*
X167361027Y-54124085D01*
X167361027Y-54124085D02*
X167380074Y-54147895D01*
X167380074Y-54147895D02*
X167399122Y-54195514D01*
X167399122Y-54195514D02*
X167399122Y-54338371D01*
X167399122Y-54338371D02*
X167380074Y-54385990D01*
X167380074Y-54385990D02*
X167361027Y-54409800D01*
X167361027Y-54409800D02*
X167322931Y-54433609D01*
X167322931Y-54433609D02*
X167265788Y-54433609D01*
X167570551Y-54433609D02*
X167570551Y-54100276D01*
X167570551Y-54195514D02*
X167589598Y-54147895D01*
X167589598Y-54147895D02*
X167608646Y-54124085D01*
X167608646Y-54124085D02*
X167646741Y-54100276D01*
X167646741Y-54100276D02*
X167684836Y-54100276D01*
X168027693Y-54433609D02*
X167799122Y-54433609D01*
X167913408Y-54433609D02*
X167913408Y-53933609D01*
X167913408Y-53933609D02*
X167875312Y-54005038D01*
X167875312Y-54005038D02*
X167837217Y-54052657D01*
X167837217Y-54052657D02*
X167799122Y-54076466D01*
X168103884Y-54481228D02*
X168408645Y-54481228D01*
X168484836Y-54290752D02*
X168675312Y-54290752D01*
X168446741Y-54433609D02*
X168580074Y-53933609D01*
X168580074Y-53933609D02*
X168713407Y-54433609D01*
X163161027Y-54433609D02*
X163161027Y-53933609D01*
X163161027Y-53933609D02*
X163294360Y-54290752D01*
X163294360Y-54290752D02*
X163427693Y-53933609D01*
X163427693Y-53933609D02*
X163427693Y-54433609D01*
X163675312Y-54433609D02*
X163637217Y-54409800D01*
X163637217Y-54409800D02*
X163618170Y-54385990D01*
X163618170Y-54385990D02*
X163599122Y-54338371D01*
X163599122Y-54338371D02*
X163599122Y-54195514D01*
X163599122Y-54195514D02*
X163618170Y-54147895D01*
X163618170Y-54147895D02*
X163637217Y-54124085D01*
X163637217Y-54124085D02*
X163675312Y-54100276D01*
X163675312Y-54100276D02*
X163732455Y-54100276D01*
X163732455Y-54100276D02*
X163770551Y-54124085D01*
X163770551Y-54124085D02*
X163789598Y-54147895D01*
X163789598Y-54147895D02*
X163808646Y-54195514D01*
X163808646Y-54195514D02*
X163808646Y-54338371D01*
X163808646Y-54338371D02*
X163789598Y-54385990D01*
X163789598Y-54385990D02*
X163770551Y-54409800D01*
X163770551Y-54409800D02*
X163732455Y-54433609D01*
X163732455Y-54433609D02*
X163675312Y-54433609D01*
X163922932Y-54100276D02*
X164075313Y-54100276D01*
X163980075Y-53933609D02*
X163980075Y-54362180D01*
X163980075Y-54362180D02*
X163999122Y-54409800D01*
X163999122Y-54409800D02*
X164037217Y-54433609D01*
X164037217Y-54433609D02*
X164075313Y-54433609D01*
X164265788Y-54433609D02*
X164227693Y-54409800D01*
X164227693Y-54409800D02*
X164208646Y-54385990D01*
X164208646Y-54385990D02*
X164189598Y-54338371D01*
X164189598Y-54338371D02*
X164189598Y-54195514D01*
X164189598Y-54195514D02*
X164208646Y-54147895D01*
X164208646Y-54147895D02*
X164227693Y-54124085D01*
X164227693Y-54124085D02*
X164265788Y-54100276D01*
X164265788Y-54100276D02*
X164322931Y-54100276D01*
X164322931Y-54100276D02*
X164361027Y-54124085D01*
X164361027Y-54124085D02*
X164380074Y-54147895D01*
X164380074Y-54147895D02*
X164399122Y-54195514D01*
X164399122Y-54195514D02*
X164399122Y-54338371D01*
X164399122Y-54338371D02*
X164380074Y-54385990D01*
X164380074Y-54385990D02*
X164361027Y-54409800D01*
X164361027Y-54409800D02*
X164322931Y-54433609D01*
X164322931Y-54433609D02*
X164265788Y-54433609D01*
X164570551Y-54433609D02*
X164570551Y-54100276D01*
X164570551Y-54195514D02*
X164589598Y-54147895D01*
X164589598Y-54147895D02*
X164608646Y-54124085D01*
X164608646Y-54124085D02*
X164646741Y-54100276D01*
X164646741Y-54100276D02*
X164684836Y-54100276D01*
X165027693Y-54433609D02*
X164799122Y-54433609D01*
X164913408Y-54433609D02*
X164913408Y-53933609D01*
X164913408Y-53933609D02*
X164875312Y-54005038D01*
X164875312Y-54005038D02*
X164837217Y-54052657D01*
X164837217Y-54052657D02*
X164799122Y-54076466D01*
X165103884Y-54481228D02*
X165408645Y-54481228D01*
X165637217Y-54171704D02*
X165694360Y-54195514D01*
X165694360Y-54195514D02*
X165713407Y-54219323D01*
X165713407Y-54219323D02*
X165732455Y-54266942D01*
X165732455Y-54266942D02*
X165732455Y-54338371D01*
X165732455Y-54338371D02*
X165713407Y-54385990D01*
X165713407Y-54385990D02*
X165694360Y-54409800D01*
X165694360Y-54409800D02*
X165656265Y-54433609D01*
X165656265Y-54433609D02*
X165503884Y-54433609D01*
X165503884Y-54433609D02*
X165503884Y-53933609D01*
X165503884Y-53933609D02*
X165637217Y-53933609D01*
X165637217Y-53933609D02*
X165675312Y-53957419D01*
X165675312Y-53957419D02*
X165694360Y-53981228D01*
X165694360Y-53981228D02*
X165713407Y-54028847D01*
X165713407Y-54028847D02*
X165713407Y-54076466D01*
X165713407Y-54076466D02*
X165694360Y-54124085D01*
X165694360Y-54124085D02*
X165675312Y-54147895D01*
X165675312Y-54147895D02*
X165637217Y-54171704D01*
X165637217Y-54171704D02*
X165503884Y-54171704D01*
X176870550Y-47957419D02*
X176832455Y-47933609D01*
X176832455Y-47933609D02*
X176775312Y-47933609D01*
X176775312Y-47933609D02*
X176718169Y-47957419D01*
X176718169Y-47957419D02*
X176680074Y-48005038D01*
X176680074Y-48005038D02*
X176661027Y-48052657D01*
X176661027Y-48052657D02*
X176641979Y-48147895D01*
X176641979Y-48147895D02*
X176641979Y-48219323D01*
X176641979Y-48219323D02*
X176661027Y-48314561D01*
X176661027Y-48314561D02*
X176680074Y-48362180D01*
X176680074Y-48362180D02*
X176718169Y-48409800D01*
X176718169Y-48409800D02*
X176775312Y-48433609D01*
X176775312Y-48433609D02*
X176813408Y-48433609D01*
X176813408Y-48433609D02*
X176870550Y-48409800D01*
X176870550Y-48409800D02*
X176889598Y-48385990D01*
X176889598Y-48385990D02*
X176889598Y-48219323D01*
X176889598Y-48219323D02*
X176813408Y-48219323D01*
X177061027Y-48433609D02*
X177061027Y-47933609D01*
X177061027Y-47933609D02*
X177289598Y-48433609D01*
X177289598Y-48433609D02*
X177289598Y-47933609D01*
X177480075Y-48433609D02*
X177480075Y-47933609D01*
X177480075Y-47933609D02*
X177575313Y-47933609D01*
X177575313Y-47933609D02*
X177632456Y-47957419D01*
X177632456Y-47957419D02*
X177670551Y-48005038D01*
X177670551Y-48005038D02*
X177689598Y-48052657D01*
X177689598Y-48052657D02*
X177708646Y-48147895D01*
X177708646Y-48147895D02*
X177708646Y-48219323D01*
X177708646Y-48219323D02*
X177689598Y-48314561D01*
X177689598Y-48314561D02*
X177670551Y-48362180D01*
X177670551Y-48362180D02*
X177632456Y-48409800D01*
X177632456Y-48409800D02*
X177575313Y-48433609D01*
X177575313Y-48433609D02*
X177480075Y-48433609D01*
X174294360Y-48171704D02*
X174351503Y-48195514D01*
X174351503Y-48195514D02*
X174370550Y-48219323D01*
X174370550Y-48219323D02*
X174389598Y-48266942D01*
X174389598Y-48266942D02*
X174389598Y-48338371D01*
X174389598Y-48338371D02*
X174370550Y-48385990D01*
X174370550Y-48385990D02*
X174351503Y-48409800D01*
X174351503Y-48409800D02*
X174313408Y-48433609D01*
X174313408Y-48433609D02*
X174161027Y-48433609D01*
X174161027Y-48433609D02*
X174161027Y-47933609D01*
X174161027Y-47933609D02*
X174294360Y-47933609D01*
X174294360Y-47933609D02*
X174332455Y-47957419D01*
X174332455Y-47957419D02*
X174351503Y-47981228D01*
X174351503Y-47981228D02*
X174370550Y-48028847D01*
X174370550Y-48028847D02*
X174370550Y-48076466D01*
X174370550Y-48076466D02*
X174351503Y-48124085D01*
X174351503Y-48124085D02*
X174332455Y-48147895D01*
X174332455Y-48147895D02*
X174294360Y-48171704D01*
X174294360Y-48171704D02*
X174161027Y-48171704D01*
X174541979Y-48290752D02*
X174732455Y-48290752D01*
X174503884Y-48433609D02*
X174637217Y-47933609D01*
X174637217Y-47933609D02*
X174770550Y-48433609D01*
X174846741Y-47933609D02*
X175075312Y-47933609D01*
X174961026Y-48433609D02*
X174961026Y-47933609D01*
X175151503Y-47933609D02*
X175380074Y-47933609D01*
X175265788Y-48433609D02*
X175265788Y-47933609D01*
X170794360Y-48171704D02*
X170851503Y-48195514D01*
X170851503Y-48195514D02*
X170870550Y-48219323D01*
X170870550Y-48219323D02*
X170889598Y-48266942D01*
X170889598Y-48266942D02*
X170889598Y-48338371D01*
X170889598Y-48338371D02*
X170870550Y-48385990D01*
X170870550Y-48385990D02*
X170851503Y-48409800D01*
X170851503Y-48409800D02*
X170813408Y-48433609D01*
X170813408Y-48433609D02*
X170661027Y-48433609D01*
X170661027Y-48433609D02*
X170661027Y-47933609D01*
X170661027Y-47933609D02*
X170794360Y-47933609D01*
X170794360Y-47933609D02*
X170832455Y-47957419D01*
X170832455Y-47957419D02*
X170851503Y-47981228D01*
X170851503Y-47981228D02*
X170870550Y-48028847D01*
X170870550Y-48028847D02*
X170870550Y-48076466D01*
X170870550Y-48076466D02*
X170851503Y-48124085D01*
X170851503Y-48124085D02*
X170832455Y-48147895D01*
X170832455Y-48147895D02*
X170794360Y-48171704D01*
X170794360Y-48171704D02*
X170661027Y-48171704D01*
X171041979Y-48290752D02*
X171232455Y-48290752D01*
X171003884Y-48433609D02*
X171137217Y-47933609D01*
X171137217Y-47933609D02*
X171270550Y-48433609D01*
X171346741Y-47933609D02*
X171575312Y-47933609D01*
X171461026Y-48433609D02*
X171461026Y-47933609D01*
X171651503Y-47933609D02*
X171880074Y-47933609D01*
X171765788Y-48433609D02*
X171765788Y-47933609D01*
X171918170Y-48481228D02*
X172222931Y-48481228D01*
X172299122Y-48290752D02*
X172489598Y-48290752D01*
X172261027Y-48433609D02*
X172394360Y-47933609D01*
X172394360Y-47933609D02*
X172527693Y-48433609D01*
X172661027Y-48433609D02*
X172661027Y-47933609D01*
X172661027Y-47933609D02*
X172756265Y-47933609D01*
X172756265Y-47933609D02*
X172813408Y-47957419D01*
X172813408Y-47957419D02*
X172851503Y-48005038D01*
X172851503Y-48005038D02*
X172870550Y-48052657D01*
X172870550Y-48052657D02*
X172889598Y-48147895D01*
X172889598Y-48147895D02*
X172889598Y-48219323D01*
X172889598Y-48219323D02*
X172870550Y-48314561D01*
X172870550Y-48314561D02*
X172851503Y-48362180D01*
X172851503Y-48362180D02*
X172813408Y-48409800D01*
X172813408Y-48409800D02*
X172756265Y-48433609D01*
X172756265Y-48433609D02*
X172661027Y-48433609D01*
X173289598Y-48385990D02*
X173270550Y-48409800D01*
X173270550Y-48409800D02*
X173213408Y-48433609D01*
X173213408Y-48433609D02*
X173175312Y-48433609D01*
X173175312Y-48433609D02*
X173118169Y-48409800D01*
X173118169Y-48409800D02*
X173080074Y-48362180D01*
X173080074Y-48362180D02*
X173061027Y-48314561D01*
X173061027Y-48314561D02*
X173041979Y-48219323D01*
X173041979Y-48219323D02*
X173041979Y-48147895D01*
X173041979Y-48147895D02*
X173061027Y-48052657D01*
X173061027Y-48052657D02*
X173080074Y-48005038D01*
X173080074Y-48005038D02*
X173118169Y-47957419D01*
X173118169Y-47957419D02*
X173175312Y-47933609D01*
X173175312Y-47933609D02*
X173213408Y-47933609D01*
X173213408Y-47933609D02*
X173270550Y-47957419D01*
X173270550Y-47957419D02*
X173289598Y-47981228D01*
X169351503Y-53933609D02*
X169161027Y-53933609D01*
X169161027Y-53933609D02*
X169141979Y-54171704D01*
X169141979Y-54171704D02*
X169161027Y-54147895D01*
X169161027Y-54147895D02*
X169199122Y-54124085D01*
X169199122Y-54124085D02*
X169294360Y-54124085D01*
X169294360Y-54124085D02*
X169332455Y-54147895D01*
X169332455Y-54147895D02*
X169351503Y-54171704D01*
X169351503Y-54171704D02*
X169370550Y-54219323D01*
X169370550Y-54219323D02*
X169370550Y-54338371D01*
X169370550Y-54338371D02*
X169351503Y-54385990D01*
X169351503Y-54385990D02*
X169332455Y-54409800D01*
X169332455Y-54409800D02*
X169294360Y-54433609D01*
X169294360Y-54433609D02*
X169199122Y-54433609D01*
X169199122Y-54433609D02*
X169161027Y-54409800D01*
X169161027Y-54409800D02*
X169141979Y-54385990D01*
X169484836Y-53933609D02*
X169618169Y-54433609D01*
X169618169Y-54433609D02*
X169751502Y-53933609D01*
X169351503Y-47933609D02*
X169161027Y-47933609D01*
X169161027Y-47933609D02*
X169141979Y-48171704D01*
X169141979Y-48171704D02*
X169161027Y-48147895D01*
X169161027Y-48147895D02*
X169199122Y-48124085D01*
X169199122Y-48124085D02*
X169294360Y-48124085D01*
X169294360Y-48124085D02*
X169332455Y-48147895D01*
X169332455Y-48147895D02*
X169351503Y-48171704D01*
X169351503Y-48171704D02*
X169370550Y-48219323D01*
X169370550Y-48219323D02*
X169370550Y-48338371D01*
X169370550Y-48338371D02*
X169351503Y-48385990D01*
X169351503Y-48385990D02*
X169332455Y-48409800D01*
X169332455Y-48409800D02*
X169294360Y-48433609D01*
X169294360Y-48433609D02*
X169199122Y-48433609D01*
X169199122Y-48433609D02*
X169161027Y-48409800D01*
X169161027Y-48409800D02*
X169141979Y-48385990D01*
X169484836Y-47933609D02*
X169618169Y-48433609D01*
X169618169Y-48433609D02*
X169751502Y-47933609D01*
X166161027Y-48433609D02*
X166161027Y-47933609D01*
X166161027Y-47933609D02*
X166313408Y-47933609D01*
X166313408Y-47933609D02*
X166351503Y-47957419D01*
X166351503Y-47957419D02*
X166370550Y-47981228D01*
X166370550Y-47981228D02*
X166389598Y-48028847D01*
X166389598Y-48028847D02*
X166389598Y-48100276D01*
X166389598Y-48100276D02*
X166370550Y-48147895D01*
X166370550Y-48147895D02*
X166351503Y-48171704D01*
X166351503Y-48171704D02*
X166313408Y-48195514D01*
X166313408Y-48195514D02*
X166161027Y-48195514D01*
X166789598Y-48385990D02*
X166770550Y-48409800D01*
X166770550Y-48409800D02*
X166713408Y-48433609D01*
X166713408Y-48433609D02*
X166675312Y-48433609D01*
X166675312Y-48433609D02*
X166618169Y-48409800D01*
X166618169Y-48409800D02*
X166580074Y-48362180D01*
X166580074Y-48362180D02*
X166561027Y-48314561D01*
X166561027Y-48314561D02*
X166541979Y-48219323D01*
X166541979Y-48219323D02*
X166541979Y-48147895D01*
X166541979Y-48147895D02*
X166561027Y-48052657D01*
X166561027Y-48052657D02*
X166580074Y-48005038D01*
X166580074Y-48005038D02*
X166618169Y-47957419D01*
X166618169Y-47957419D02*
X166675312Y-47933609D01*
X166675312Y-47933609D02*
X166713408Y-47933609D01*
X166713408Y-47933609D02*
X166770550Y-47957419D01*
X166770550Y-47957419D02*
X166789598Y-47981228D01*
X167132455Y-47933609D02*
X167056265Y-47933609D01*
X167056265Y-47933609D02*
X167018169Y-47957419D01*
X167018169Y-47957419D02*
X166999122Y-47981228D01*
X166999122Y-47981228D02*
X166961027Y-48052657D01*
X166961027Y-48052657D02*
X166941979Y-48147895D01*
X166941979Y-48147895D02*
X166941979Y-48338371D01*
X166941979Y-48338371D02*
X166961027Y-48385990D01*
X166961027Y-48385990D02*
X166980074Y-48409800D01*
X166980074Y-48409800D02*
X167018169Y-48433609D01*
X167018169Y-48433609D02*
X167094360Y-48433609D01*
X167094360Y-48433609D02*
X167132455Y-48409800D01*
X167132455Y-48409800D02*
X167151503Y-48385990D01*
X167151503Y-48385990D02*
X167170550Y-48338371D01*
X167170550Y-48338371D02*
X167170550Y-48219323D01*
X167170550Y-48219323D02*
X167151503Y-48171704D01*
X167151503Y-48171704D02*
X167132455Y-48147895D01*
X167132455Y-48147895D02*
X167094360Y-48124085D01*
X167094360Y-48124085D02*
X167018169Y-48124085D01*
X167018169Y-48124085D02*
X166980074Y-48147895D01*
X166980074Y-48147895D02*
X166961027Y-48171704D01*
X166961027Y-48171704D02*
X166941979Y-48219323D01*
X167341979Y-48243133D02*
X167646741Y-48243133D01*
X167856264Y-48433609D02*
X167932455Y-48433609D01*
X167932455Y-48433609D02*
X167970550Y-48409800D01*
X167970550Y-48409800D02*
X167989598Y-48385990D01*
X167989598Y-48385990D02*
X168027693Y-48314561D01*
X168027693Y-48314561D02*
X168046740Y-48219323D01*
X168046740Y-48219323D02*
X168046740Y-48028847D01*
X168046740Y-48028847D02*
X168027693Y-47981228D01*
X168027693Y-47981228D02*
X168008645Y-47957419D01*
X168008645Y-47957419D02*
X167970550Y-47933609D01*
X167970550Y-47933609D02*
X167894359Y-47933609D01*
X167894359Y-47933609D02*
X167856264Y-47957419D01*
X167856264Y-47957419D02*
X167837217Y-47981228D01*
X167837217Y-47981228D02*
X167818169Y-48028847D01*
X167818169Y-48028847D02*
X167818169Y-48147895D01*
X167818169Y-48147895D02*
X167837217Y-48195514D01*
X167837217Y-48195514D02*
X167856264Y-48219323D01*
X167856264Y-48219323D02*
X167894359Y-48243133D01*
X167894359Y-48243133D02*
X167970550Y-48243133D01*
X167970550Y-48243133D02*
X168008645Y-48219323D01*
X168008645Y-48219323D02*
X168027693Y-48195514D01*
X168027693Y-48195514D02*
X168046740Y-48147895D01*
X163161027Y-48433609D02*
X163161027Y-47933609D01*
X163161027Y-47933609D02*
X163313408Y-47933609D01*
X163313408Y-47933609D02*
X163351503Y-47957419D01*
X163351503Y-47957419D02*
X163370550Y-47981228D01*
X163370550Y-47981228D02*
X163389598Y-48028847D01*
X163389598Y-48028847D02*
X163389598Y-48100276D01*
X163389598Y-48100276D02*
X163370550Y-48147895D01*
X163370550Y-48147895D02*
X163351503Y-48171704D01*
X163351503Y-48171704D02*
X163313408Y-48195514D01*
X163313408Y-48195514D02*
X163161027Y-48195514D01*
X163789598Y-48385990D02*
X163770550Y-48409800D01*
X163770550Y-48409800D02*
X163713408Y-48433609D01*
X163713408Y-48433609D02*
X163675312Y-48433609D01*
X163675312Y-48433609D02*
X163618169Y-48409800D01*
X163618169Y-48409800D02*
X163580074Y-48362180D01*
X163580074Y-48362180D02*
X163561027Y-48314561D01*
X163561027Y-48314561D02*
X163541979Y-48219323D01*
X163541979Y-48219323D02*
X163541979Y-48147895D01*
X163541979Y-48147895D02*
X163561027Y-48052657D01*
X163561027Y-48052657D02*
X163580074Y-48005038D01*
X163580074Y-48005038D02*
X163618169Y-47957419D01*
X163618169Y-47957419D02*
X163675312Y-47933609D01*
X163675312Y-47933609D02*
X163713408Y-47933609D01*
X163713408Y-47933609D02*
X163770550Y-47957419D01*
X163770550Y-47957419D02*
X163789598Y-47981228D01*
X164132455Y-47933609D02*
X164056265Y-47933609D01*
X164056265Y-47933609D02*
X164018169Y-47957419D01*
X164018169Y-47957419D02*
X163999122Y-47981228D01*
X163999122Y-47981228D02*
X163961027Y-48052657D01*
X163961027Y-48052657D02*
X163941979Y-48147895D01*
X163941979Y-48147895D02*
X163941979Y-48338371D01*
X163941979Y-48338371D02*
X163961027Y-48385990D01*
X163961027Y-48385990D02*
X163980074Y-48409800D01*
X163980074Y-48409800D02*
X164018169Y-48433609D01*
X164018169Y-48433609D02*
X164094360Y-48433609D01*
X164094360Y-48433609D02*
X164132455Y-48409800D01*
X164132455Y-48409800D02*
X164151503Y-48385990D01*
X164151503Y-48385990D02*
X164170550Y-48338371D01*
X164170550Y-48338371D02*
X164170550Y-48219323D01*
X164170550Y-48219323D02*
X164151503Y-48171704D01*
X164151503Y-48171704D02*
X164132455Y-48147895D01*
X164132455Y-48147895D02*
X164094360Y-48124085D01*
X164094360Y-48124085D02*
X164018169Y-48124085D01*
X164018169Y-48124085D02*
X163980074Y-48147895D01*
X163980074Y-48147895D02*
X163961027Y-48171704D01*
X163961027Y-48171704D02*
X163941979Y-48219323D01*
X164341979Y-48243133D02*
X164646741Y-48243133D01*
X164856264Y-48433609D02*
X164932455Y-48433609D01*
X164932455Y-48433609D02*
X164970550Y-48409800D01*
X164970550Y-48409800D02*
X164989598Y-48385990D01*
X164989598Y-48385990D02*
X165027693Y-48314561D01*
X165027693Y-48314561D02*
X165046740Y-48219323D01*
X165046740Y-48219323D02*
X165046740Y-48028847D01*
X165046740Y-48028847D02*
X165027693Y-47981228D01*
X165027693Y-47981228D02*
X165008645Y-47957419D01*
X165008645Y-47957419D02*
X164970550Y-47933609D01*
X164970550Y-47933609D02*
X164894359Y-47933609D01*
X164894359Y-47933609D02*
X164856264Y-47957419D01*
X164856264Y-47957419D02*
X164837217Y-47981228D01*
X164837217Y-47981228D02*
X164818169Y-48028847D01*
X164818169Y-48028847D02*
X164818169Y-48147895D01*
X164818169Y-48147895D02*
X164837217Y-48195514D01*
X164837217Y-48195514D02*
X164856264Y-48219323D01*
X164856264Y-48219323D02*
X164894359Y-48243133D01*
X164894359Y-48243133D02*
X164970550Y-48243133D01*
X164970550Y-48243133D02*
X165008645Y-48219323D01*
X165008645Y-48219323D02*
X165027693Y-48195514D01*
X165027693Y-48195514D02*
X165046740Y-48147895D01*
D12*
X183944819Y-50936666D02*
X184659104Y-50936666D01*
X184659104Y-50936666D02*
X184801961Y-50889047D01*
X184801961Y-50889047D02*
X184897200Y-50793809D01*
X184897200Y-50793809D02*
X184944819Y-50650952D01*
X184944819Y-50650952D02*
X184944819Y-50555714D01*
X184944819Y-51936666D02*
X184944819Y-51365238D01*
X184944819Y-51650952D02*
X183944819Y-51650952D01*
X183944819Y-51650952D02*
X184087676Y-51555714D01*
X184087676Y-51555714D02*
X184182914Y-51460476D01*
X184182914Y-51460476D02*
X184230533Y-51365238D01*
D13*
%TO.C,J1*%
X163050000Y-48670000D02*
X183490000Y-48670000D01*
X183490000Y-51270000D02*
X180890000Y-51270000D01*
X183490000Y-48670000D02*
X183490000Y-51270000D01*
X163050000Y-48670000D02*
X163050000Y-53870000D01*
X180890000Y-51270000D02*
X180890000Y-53870000D01*
X163050000Y-53870000D02*
X180890000Y-53870000D01*
X183490000Y-53870000D02*
X182160000Y-53870000D01*
X183490000Y-52540000D02*
X183490000Y-53870000D01*
%TD*%
%LPC*%
D14*
%TO.C,U4*%
X176300102Y-69900051D03*
X171500000Y-69900051D03*
X166699898Y-69900051D03*
X178149987Y-79099949D03*
X164850013Y-79099949D03*
%TD*%
D15*
%TO.C,J2*%
X188500000Y-50950000D03*
D16*
X190500000Y-50950000D03*
%TD*%
D17*
%TO.C,J1*%
X164380000Y-50000000D03*
X164380000Y-52540000D03*
X166920000Y-50000000D03*
X166920000Y-52540000D03*
X169460000Y-50000000D03*
X169460000Y-52540000D03*
X172000000Y-50000000D03*
X172000000Y-52540000D03*
X174540000Y-50000000D03*
X174540000Y-52540000D03*
X177080000Y-50000000D03*
X177080000Y-52540000D03*
X179620000Y-50000000D03*
X179620000Y-52540000D03*
X182160000Y-50000000D03*
D18*
X182160000Y-52540000D03*
%TD*%
%LPD*%
M02*
