M48
; DRILL file {KiCad (6.0.4)} date Sat Mar 23 15:20:55 2024
; FORMAT={-:-/ absolute / inch / decimal}
; #@! TF.CreationDate,2024-03-23T15:20:55+02:00
; #@! TF.GenerationSoftware,Kicad,Pcbnew,(6.0.4)
; #@! TF.FileFunction,Plated,1,2,PTH
FMAT,2
INCH
; #@! TA.AperFunction,Plated,PTH,ComponentDrill
T1C0.0354
; #@! TA.AperFunction,Plated,PTH,ComponentDrill
T2C0.0394
%
G90
G05
T1
X5.5998Y-3.4278
X5.602Y-2.2762
X5.6998Y-3.4278
X5.702Y-2.2762
X5.85Y-2.2
X5.85Y-3.5039
X5.8719Y-2.5541
X5.8719Y-2.6541
X5.8719Y-3.0541
X5.8719Y-3.1541
X5.948Y-2.8039
X5.948Y-2.9039
X5.95Y-2.2
X5.95Y-3.5039
X6.0998Y-3.4278
X6.1002Y-2.2762
X6.1998Y-3.4278
X6.2002Y-2.2762
T2
X4.6978Y-2.2039
X4.6978Y-2.3039
X4.6978Y-2.4039
X4.6978Y-2.5039
X4.6978Y-2.6039
X4.6978Y-2.7039
X4.6978Y-2.8039
X4.6978Y-2.9039
X4.6978Y-3.0039
X4.6978Y-3.1039
X4.6978Y-3.2039
X4.6978Y-3.3039
X4.6978Y-3.4039
X4.6978Y-3.5039
X4.7978Y-2.2039
X4.7978Y-2.3039
X4.7978Y-2.4039
X4.7978Y-2.5039
X4.7978Y-2.6039
X4.7978Y-2.7039
X4.7978Y-2.8039
X4.7978Y-2.9039
X4.7978Y-3.0039
X4.7978Y-3.1039
X4.7978Y-3.2039
X4.7978Y-3.3039
X4.7978Y-3.4039
X4.7978Y-3.5039
T0
M30
