%TF.GenerationSoftware,KiCad,Pcbnew,(6.0.4)*%
%TF.CreationDate,2024-03-23T15:20:54+02:00*%
%TF.ProjectId,EEE3088 Sensing,45454533-3038-4382-9053-656e73696e67,R1.0*%
%TF.SameCoordinates,Original*%
%TF.FileFunction,Copper,L1,Top*%
%TF.FilePolarity,Positive*%
%FSLAX46Y46*%
G04 Gerber Fmt 4.6, Leading zero omitted, Abs format (unit mm)*
G04 Created by KiCad (PCBNEW (6.0.4)) date 2024-03-23 15:20:54*
%MOMM*%
%LPD*%
G01*
G04 APERTURE LIST*
G04 Aperture macros list*
%AMRoundRect*
0 Rectangle with rounded corners*
0 $1 Rounding radius*
0 $2 $3 $4 $5 $6 $7 $8 $9 X,Y pos of 4 corners*
0 Add a 4 corners polygon primitive as box body*
4,1,4,$2,$3,$4,$5,$6,$7,$8,$9,$2,$3,0*
0 Add four circle primitives for the rounded corners*
1,1,$1+$1,$2,$3*
1,1,$1+$1,$4,$5*
1,1,$1+$1,$6,$7*
1,1,$1+$1,$8,$9*
0 Add four rect primitives between the rounded corners*
20,1,$1+$1,$2,$3,$4,$5,0*
20,1,$1+$1,$4,$5,$6,$7,0*
20,1,$1+$1,$6,$7,$8,$9,0*
20,1,$1+$1,$8,$9,$2,$3,0*%
G04 Aperture macros list end*
%TA.AperFunction,SMDPad,CuDef*%
%ADD10RoundRect,0.225000X-0.225000X-0.250000X0.225000X-0.250000X0.225000X0.250000X-0.225000X0.250000X0*%
%TD*%
%TA.AperFunction,SMDPad,CuDef*%
%ADD11RoundRect,0.225000X0.250000X-0.225000X0.250000X0.225000X-0.250000X0.225000X-0.250000X-0.225000X0*%
%TD*%
%TA.AperFunction,SMDPad,CuDef*%
%ADD12RoundRect,0.225000X-0.250000X0.225000X-0.250000X-0.225000X0.250000X-0.225000X0.250000X0.225000X0*%
%TD*%
%TA.AperFunction,SMDPad,CuDef*%
%ADD13RoundRect,0.225000X0.225000X0.250000X-0.225000X0.250000X-0.225000X-0.250000X0.225000X-0.250000X0*%
%TD*%
%TA.AperFunction,SMDPad,CuDef*%
%ADD14RoundRect,0.200000X0.200000X0.275000X-0.200000X0.275000X-0.200000X-0.275000X0.200000X-0.275000X0*%
%TD*%
%TA.AperFunction,SMDPad,CuDef*%
%ADD15RoundRect,0.200000X0.275000X-0.200000X0.275000X0.200000X-0.275000X0.200000X-0.275000X-0.200000X0*%
%TD*%
%TA.AperFunction,SMDPad,CuDef*%
%ADD16RoundRect,0.200000X-0.275000X0.200000X-0.275000X-0.200000X0.275000X-0.200000X0.275000X0.200000X0*%
%TD*%
%TA.AperFunction,SMDPad,CuDef*%
%ADD17RoundRect,0.200000X-0.200000X-0.275000X0.200000X-0.275000X0.200000X0.275000X-0.200000X0.275000X0*%
%TD*%
%TA.AperFunction,SMDPad,CuDef*%
%ADD18RoundRect,0.150000X-0.150000X0.587500X-0.150000X-0.587500X0.150000X-0.587500X0.150000X0.587500X0*%
%TD*%
%TA.AperFunction,SMDPad,CuDef*%
%ADD19RoundRect,0.150000X0.150000X-0.587500X0.150000X0.587500X-0.150000X0.587500X-0.150000X-0.587500X0*%
%TD*%
%TA.AperFunction,SMDPad,CuDef*%
%ADD20RoundRect,0.150000X-0.587500X-0.150000X0.587500X-0.150000X0.587500X0.150000X-0.587500X0.150000X0*%
%TD*%
%TA.AperFunction,ComponentPad*%
%ADD21C,1.800000*%
%TD*%
%TA.AperFunction,ComponentPad*%
%ADD22R,1.800000X1.800000*%
%TD*%
%TA.AperFunction,ComponentPad*%
%ADD23O,1.700000X1.700000*%
%TD*%
%TA.AperFunction,ComponentPad*%
%ADD24R,1.700000X1.700000*%
%TD*%
G04 APERTURE END LIST*
D10*
%TO.P,C12,1*%
%TO.N,vcc*%
X129641000Y-72136000D03*
%TO.P,C12,2*%
%TO.N,GND*%
X131191000Y-72136000D03*
%TD*%
%TO.P,C11,1*%
%TO.N,vcc*%
X129654000Y-69215000D03*
%TO.P,C11,2*%
%TO.N,GND*%
X131204000Y-69215000D03*
%TD*%
%TO.P,C10,1*%
%TO.N,vcc*%
X129641000Y-75057000D03*
%TO.P,C10,2*%
%TO.N,GND*%
X131191000Y-75057000D03*
%TD*%
D11*
%TO.P,C9,1*%
%TO.N,Net-(C9-Pad1)*%
X137160000Y-82600000D03*
%TO.P,C9,2*%
%TO.N,GND*%
X137160000Y-81050000D03*
%TD*%
D12*
%TO.P,C8,2*%
%TO.N,GND*%
X142240000Y-63754000D03*
%TO.P,C8,1*%
%TO.N,Net-(C8-Pad1)*%
X142240000Y-62204000D03*
%TD*%
D13*
%TO.P,C7,1*%
%TO.N,Net-(C7-Pad1)*%
X145314000Y-74930000D03*
%TO.P,C7,2*%
%TO.N,GND*%
X143764000Y-74930000D03*
%TD*%
D11*
%TO.P,C6,1*%
%TO.N,Net-(C6-Pad1)*%
X139700000Y-82600000D03*
%TO.P,C6,2*%
%TO.N,GND*%
X139700000Y-81050000D03*
%TD*%
D12*
%TO.P,C5,1*%
%TO.N,Net-(C5-Pad1)*%
X139700000Y-62204000D03*
%TO.P,C5,2*%
%TO.N,GND*%
X139700000Y-63754000D03*
%TD*%
D13*
%TO.P,C4,1*%
%TO.N,Net-(C4-Pad1)*%
X145314000Y-72390000D03*
%TO.P,C4,2*%
%TO.N,GND*%
X143764000Y-72390000D03*
%TD*%
D11*
%TO.P,C3,1*%
%TO.N,Net-(C3-Pad1)*%
X142200000Y-82600000D03*
%TO.P,C3,2*%
%TO.N,GND*%
X142200000Y-81050000D03*
%TD*%
D12*
%TO.P,C2,1*%
%TO.N,Net-(C2-Pad1)*%
X137150000Y-62204000D03*
%TO.P,C2,2*%
%TO.N,GND*%
X137150000Y-63754000D03*
%TD*%
D13*
%TO.P,C1,1*%
%TO.N,Net-(C1-Pad1)*%
X145314000Y-69850000D03*
%TO.P,C1,2*%
%TO.N,GND*%
X143764000Y-69850000D03*
%TD*%
D14*
%TO.P,R12,1*%
%TO.N,VoutR*%
X140144000Y-77343000D03*
%TO.P,R12,2*%
%TO.N,GND*%
X138494000Y-77343000D03*
%TD*%
%TO.P,R11,1*%
%TO.N,VoutL*%
X140144000Y-70993000D03*
%TO.P,R11,2*%
%TO.N,GND*%
X138494000Y-70993000D03*
%TD*%
%TO.P,R10,1*%
%TO.N,VoutM*%
X140144000Y-74168000D03*
%TO.P,R10,2*%
%TO.N,GND*%
X138494000Y-74168000D03*
%TD*%
D15*
%TO.P,R9,1*%
%TO.N,Net-(D6-Pad1)*%
X132030000Y-84745000D03*
%TO.P,R9,2*%
%TO.N,Net-(Q3-Pad3)*%
X132030000Y-83095000D03*
%TD*%
D16*
%TO.P,R8,1*%
%TO.N,Net-(D5-Pad1)*%
X147270000Y-60235000D03*
%TO.P,R8,2*%
%TO.N,Net-(Q2-Pad3)*%
X147270000Y-61885000D03*
%TD*%
D14*
%TO.P,R7,1*%
%TO.N,Net-(D4-Pad1)*%
X146825000Y-80110000D03*
%TO.P,R7,2*%
%TO.N,Net-(Q1-Pad3)*%
X145175000Y-80110000D03*
%TD*%
D17*
%TO.P,R6,1*%
%TO.N,VinR*%
X134253000Y-77316000D03*
%TO.P,R6,2*%
%TO.N,Net-(Q3-Pad1)*%
X135903000Y-77316000D03*
%TD*%
%TO.P,R5,1*%
%TO.N,VinL*%
X134253000Y-70966000D03*
%TO.P,R5,2*%
%TO.N,Net-(Q2-Pad1)*%
X135903000Y-70966000D03*
%TD*%
%TO.P,R4,1*%
%TO.N,VinM*%
X134253000Y-74141000D03*
%TO.P,R4,2*%
%TO.N,Net-(Q1-Pad1)*%
X135903000Y-74141000D03*
%TD*%
D15*
%TO.P,R3,1*%
%TO.N,Net-(D3-Pad1)*%
X144730000Y-84745000D03*
%TO.P,R3,2*%
%TO.N,Net-(Q3-Pad3)*%
X144730000Y-83095000D03*
%TD*%
D16*
%TO.P,R2,1*%
%TO.N,Net-(D2-Pad1)*%
X134570000Y-60235000D03*
%TO.P,R2,2*%
%TO.N,Net-(Q2-Pad3)*%
X134570000Y-61885000D03*
%TD*%
D14*
%TO.P,R1,1*%
%TO.N,Net-(D1-Pad1)*%
X146825000Y-67410000D03*
%TO.P,R1,2*%
%TO.N,Net-(Q1-Pad3)*%
X145175000Y-67410000D03*
%TD*%
D18*
%TO.P,Q3,1,B*%
%TO.N,Net-(Q3-Pad1)*%
X133030000Y-79405000D03*
%TO.P,Q3,2,E*%
%TO.N,GND*%
X131130000Y-79405000D03*
%TO.P,Q3,3,C*%
%TO.N,Net-(Q3-Pad3)*%
X132080000Y-81280000D03*
%TD*%
D19*
%TO.P,Q2,1,B*%
%TO.N,Net-(Q2-Pad1)*%
X132974000Y-65913000D03*
%TO.P,Q2,2,E*%
%TO.N,GND*%
X134874000Y-65913000D03*
%TO.P,Q2,3,C*%
%TO.N,Net-(Q2-Pad3)*%
X133924000Y-64038000D03*
%TD*%
D20*
%TO.P,Q1,3,C*%
%TO.N,Net-(Q1-Pad3)*%
X143177500Y-67056000D03*
%TO.P,Q1,2,E*%
%TO.N,GND*%
X141302500Y-68006000D03*
%TO.P,Q1,1,B*%
%TO.N,Net-(Q1-Pad1)*%
X141302500Y-66106000D03*
%TD*%
D21*
%TO.P,Q6,2,E*%
%TO.N,VoutR*%
X151130000Y-89000000D03*
D22*
%TO.P,Q6,1,C*%
%TO.N,vcc*%
X148590000Y-89000000D03*
%TD*%
%TO.P,D2,1,K*%
%TO.N,Net-(D2-Pad1)*%
X144830000Y-57815000D03*
D21*
%TO.P,D2,2,A*%
%TO.N,vcc*%
X142290000Y-57815000D03*
%TD*%
%TO.P,Q4,2,E*%
%TO.N,VoutM*%
X151080000Y-71220000D03*
D22*
%TO.P,Q4,1,C*%
%TO.N,vcc*%
X151080000Y-73760000D03*
%TD*%
%TO.P,Q5,1,C*%
%TO.N,vcc*%
X151130000Y-55880000D03*
D21*
%TO.P,Q5,2,E*%
%TO.N,VoutL*%
X148590000Y-55880000D03*
%TD*%
D22*
%TO.P,D6,1,K*%
%TO.N,Net-(D6-Pad1)*%
X142235000Y-87065000D03*
D21*
%TO.P,D6,2,A*%
%TO.N,vcc*%
X144775000Y-87065000D03*
%TD*%
D22*
%TO.P,D1,1,K*%
%TO.N,Net-(D1-Pad1)*%
X149145000Y-67415000D03*
D21*
%TO.P,D1,2,A*%
%TO.N,vcc*%
X149145000Y-64875000D03*
%TD*%
D22*
%TO.P,D5,1,K*%
%TO.N,Net-(D5-Pad1)*%
X157485000Y-57815000D03*
D21*
%TO.P,D5,2,A*%
%TO.N,vcc*%
X154945000Y-57815000D03*
%TD*%
D22*
%TO.P,D4,1,K*%
%TO.N,Net-(D4-Pad1)*%
X149145000Y-80115000D03*
D21*
%TO.P,D4,2,A*%
%TO.N,vcc*%
X149145000Y-77575000D03*
%TD*%
D23*
%TO.P,J1,28,Pin_28*%
%TO.N,3V3*%
X121865000Y-55980000D03*
%TO.P,J1,27,Pin_27*%
%TO.N,GND*%
X119325000Y-55980000D03*
%TO.P,J1,26,Pin_26*%
%TO.N,BATT*%
X121865000Y-58520000D03*
%TO.P,J1,25,Pin_25*%
%TO.N,AB0*%
X119325000Y-58520000D03*
%TO.P,J1,24,Pin_24*%
%TO.N,RESV1*%
X121865000Y-61060000D03*
%TO.P,J1,23,Pin_23*%
%TO.N,PC5*%
X119325000Y-61060000D03*
%TO.P,J1,22,Pin_22*%
%TO.N,PE8*%
X121865000Y-63600000D03*
%TO.P,J1,21,Pin_21*%
%TO.N,GND*%
X119325000Y-63600000D03*
%TO.P,J1,20,Pin_20*%
%TO.N,PE9*%
X121865000Y-66140000D03*
%TO.P,J1,19,Pin_19*%
%TO.N,PC4*%
X119325000Y-66140000D03*
%TO.P,J1,18,Pin_18*%
%TO.N,PE10*%
X121865000Y-68680000D03*
%TO.P,J1,17,Pin_17*%
%TO.N,PA7*%
X119325000Y-68680000D03*
%TO.P,J1,16,Pin_16*%
%TO.N,PE11*%
X121865000Y-71220000D03*
%TO.P,J1,15,Pin_15*%
%TO.N,GND*%
X119325000Y-71220000D03*
%TO.P,J1,14,Pin_14*%
%TO.N,PE12*%
X121865000Y-73760000D03*
%TO.P,J1,13,Pin_13*%
%TO.N,PA6*%
X119325000Y-73760000D03*
%TO.P,J1,12,Pin_12*%
%TO.N,PE13*%
X121865000Y-76300000D03*
%TO.P,J1,11,Pin_11*%
%TO.N,PA5*%
X119325000Y-76300000D03*
%TO.P,J1,10,Pin_10*%
%TO.N,PE14*%
X121865000Y-78840000D03*
%TO.P,J1,9,Pin_9*%
%TO.N,GND*%
X119325000Y-78840000D03*
%TO.P,J1,8,Pin_8*%
%TO.N,PE15*%
X121865000Y-81380000D03*
%TO.P,J1,7,Pin_7*%
%TO.N,PA4*%
X119325000Y-81380000D03*
%TO.P,J1,6,Pin_6*%
%TO.N,RESV2*%
X121865000Y-83920000D03*
%TO.P,J1,5,Pin_5*%
%TO.N,PA3*%
X119325000Y-83920000D03*
%TO.P,J1,4,Pin_4*%
%TO.N,BATT*%
X121865000Y-86460000D03*
%TO.P,J1,3,Pin_3*%
%TO.N,GND*%
X119325000Y-86460000D03*
%TO.P,J1,2,Pin_2*%
%TO.N,3V3*%
X121865000Y-89000000D03*
D24*
%TO.P,J1,1,Pin_1*%
%TO.N,RESV3*%
X119325000Y-89000000D03*
%TD*%
D22*
%TO.P,D3,1,K*%
%TO.N,Net-(D3-Pad1)*%
X154935000Y-87065000D03*
D21*
%TO.P,D3,2,A*%
%TO.N,vcc*%
X157475000Y-87065000D03*
%TD*%
M02*
