%TF.GenerationSoftware,KiCad,Pcbnew,(6.0.4)*%
%TF.CreationDate,2024-03-23T15:20:54+02:00*%
%TF.ProjectId,EEE3088 Sensing,45454533-3038-4382-9053-656e73696e67,R1.0*%
%TF.SameCoordinates,Original*%
%TF.FileFunction,Soldermask,Bot*%
%TF.FilePolarity,Negative*%
%FSLAX46Y46*%
G04 Gerber Fmt 4.6, Leading zero omitted, Abs format (unit mm)*
G04 Created by KiCad (PCBNEW (6.0.4)) date 2024-03-23 15:20:54*
%MOMM*%
%LPD*%
G01*
G04 APERTURE LIST*
G04 Aperture macros list*
%AMFreePoly0*
4,1,22,0.500000,-0.750000,0.000000,-0.750000,0.000000,-0.745033,-0.079941,-0.743568,-0.215256,-0.701293,-0.333266,-0.622738,-0.424486,-0.514219,-0.481581,-0.384460,-0.499164,-0.250000,-0.500000,-0.250000,-0.500000,0.250000,-0.499164,0.250000,-0.499963,0.256109,-0.478152,0.396186,-0.417904,0.524511,-0.324060,0.630769,-0.204165,0.706417,-0.067858,0.745374,0.000000,0.744959,0.000000,0.750000,
0.500000,0.750000,0.500000,-0.750000,0.500000,-0.750000,$1*%
%AMFreePoly1*
4,1,20,0.000000,0.744959,0.073905,0.744508,0.209726,0.703889,0.328688,0.626782,0.421226,0.519385,0.479903,0.390333,0.500000,0.250000,0.500000,-0.250000,0.499851,-0.262216,0.476331,-0.402017,0.414519,-0.529596,0.319384,-0.634700,0.198574,-0.708877,0.061801,-0.746166,0.000000,-0.745033,0.000000,-0.750000,-0.500000,-0.750000,-0.500000,0.750000,0.000000,0.750000,0.000000,0.744959,
0.000000,0.744959,$1*%
G04 Aperture macros list end*
%ADD10FreePoly0,0.000000*%
%ADD11FreePoly1,0.000000*%
%ADD12FreePoly0,180.000000*%
%ADD13FreePoly1,180.000000*%
%ADD14FreePoly0,270.000000*%
%ADD15FreePoly1,270.000000*%
%ADD16FreePoly0,90.000000*%
%ADD17FreePoly1,90.000000*%
%ADD18C,1.800000*%
%ADD19R,1.800000X1.800000*%
%ADD20O,1.700000X1.700000*%
%ADD21R,1.700000X1.700000*%
%ADD22C,1.500000*%
G04 APERTURE END LIST*
D10*
%TO.C,17*%
X129637000Y-77216000D03*
D11*
X130937000Y-77216000D03*
%TD*%
D10*
%TO.C,16*%
X137130000Y-77343000D03*
D11*
X138430000Y-77343000D03*
%TD*%
D12*
%TO.C,15*%
X130952000Y-74676000D03*
D13*
X129652000Y-74676000D03*
%TD*%
D10*
%TO.C,14*%
X137160000Y-74803000D03*
D11*
X138460000Y-74803000D03*
%TD*%
D10*
%TO.C,13*%
X137160000Y-72263000D03*
D11*
X138460000Y-72263000D03*
%TD*%
D10*
%TO.C,12*%
X129637000Y-72136000D03*
D11*
X130937000Y-72136000D03*
%TD*%
D10*
%TO.C,11*%
X129159000Y-60960000D03*
D11*
X130459000Y-60960000D03*
%TD*%
D10*
%TO.C,10*%
X129159000Y-64643000D03*
D11*
X130459000Y-64643000D03*
%TD*%
D14*
%TO.C,9*%
X147320000Y-83170000D03*
D15*
X147320000Y-84470000D03*
%TD*%
D16*
%TO.C,8*%
X152400000Y-61610000D03*
D17*
X152400000Y-60310000D03*
%TD*%
D10*
%TO.C,7*%
X147320000Y-74930000D03*
D11*
X148620000Y-74930000D03*
%TD*%
D14*
%TO.C,6*%
X149860000Y-83170000D03*
D15*
X149860000Y-84470000D03*
%TD*%
D16*
%TO.C,5*%
X149860000Y-61610000D03*
D17*
X149860000Y-60310000D03*
%TD*%
D10*
%TO.C,4*%
X147290000Y-72390000D03*
D11*
X148590000Y-72390000D03*
%TD*%
D14*
%TO.C,3*%
X152400000Y-83170000D03*
D15*
X152400000Y-84470000D03*
%TD*%
D16*
%TO.C,2*%
X147320000Y-61610000D03*
D17*
X147320000Y-60310000D03*
%TD*%
D11*
%TO.C,1*%
X148590000Y-69850000D03*
D10*
X147290000Y-69850000D03*
%TD*%
D18*
%TO.C,Q6*%
X151130000Y-89000000D03*
D19*
X148590000Y-89000000D03*
%TD*%
%TO.C,D2*%
X144830000Y-57815000D03*
D18*
X142290000Y-57815000D03*
%TD*%
%TO.C,Q4*%
X151080000Y-71220000D03*
D19*
X151080000Y-73760000D03*
%TD*%
%TO.C,Q5*%
X151130000Y-55880000D03*
D18*
X148590000Y-55880000D03*
%TD*%
D19*
%TO.C,D6*%
X142235000Y-87065000D03*
D18*
X144775000Y-87065000D03*
%TD*%
D19*
%TO.C,D1*%
X149145000Y-67415000D03*
D18*
X149145000Y-64875000D03*
%TD*%
D19*
%TO.C,D5*%
X157485000Y-57815000D03*
D18*
X154945000Y-57815000D03*
%TD*%
D19*
%TO.C,D4*%
X149145000Y-80115000D03*
D18*
X149145000Y-77575000D03*
%TD*%
D20*
%TO.C,J1*%
X121865000Y-55980000D03*
X119325000Y-55980000D03*
X121865000Y-58520000D03*
X119325000Y-58520000D03*
X121865000Y-61060000D03*
X119325000Y-61060000D03*
X121865000Y-63600000D03*
X119325000Y-63600000D03*
X121865000Y-66140000D03*
X119325000Y-66140000D03*
X121865000Y-68680000D03*
X119325000Y-68680000D03*
X121865000Y-71220000D03*
X119325000Y-71220000D03*
X121865000Y-73760000D03*
X119325000Y-73760000D03*
X121865000Y-76300000D03*
X119325000Y-76300000D03*
X121865000Y-78840000D03*
X119325000Y-78840000D03*
X121865000Y-81380000D03*
X119325000Y-81380000D03*
X121865000Y-83920000D03*
X119325000Y-83920000D03*
X121865000Y-86460000D03*
X119325000Y-86460000D03*
X121865000Y-89000000D03*
D21*
X119325000Y-89000000D03*
%TD*%
D19*
%TO.C,D3*%
X154935000Y-87065000D03*
D18*
X157475000Y-87065000D03*
%TD*%
D22*
%TO.C,TP12*%
X115520000Y-61060000D03*
%TD*%
%TO.C,TP14*%
X115520000Y-63600000D03*
%TD*%
%TO.C,TP2*%
X115520000Y-55980000D03*
%TD*%
%TO.C,TP4*%
X115520000Y-81380000D03*
%TD*%
%TO.C,TP18*%
X125680000Y-81380000D03*
%TD*%
%TO.C,TP21*%
X125680000Y-73760000D03*
%TD*%
%TO.C,TP11*%
X115520000Y-71220000D03*
%TD*%
%TO.C,TP16*%
X125680000Y-58520000D03*
%TD*%
%TO.C,TP1*%
X115520000Y-89000000D03*
%TD*%
%TO.C,TP28*%
X125680000Y-55980000D03*
%TD*%
%TO.C,TP19*%
X125680000Y-78840000D03*
%TD*%
%TO.C,TP24*%
X125680000Y-66140000D03*
%TD*%
%TO.C,TP17*%
X125680000Y-83920000D03*
%TD*%
%TO.C,TP8*%
X115520000Y-78840000D03*
%TD*%
%TO.C,TP26*%
X125680000Y-61060000D03*
%TD*%
%TO.C,TP7*%
X115520000Y-73860000D03*
%TD*%
%TO.C,TP10*%
X115520000Y-66140000D03*
%TD*%
%TO.C,TP9*%
X115520000Y-68680000D03*
%TD*%
%TO.C,TP5*%
X115520000Y-86460000D03*
%TD*%
%TO.C,TP6*%
X115520000Y-76300000D03*
%TD*%
%TO.C,TP15*%
X125680000Y-89000000D03*
%TD*%
%TO.C,TP13*%
X115520000Y-58520000D03*
%TD*%
%TO.C,TP20*%
X125680000Y-76300000D03*
%TD*%
%TO.C,TP22*%
X125680000Y-71220000D03*
%TD*%
%TO.C,TP27*%
X125680000Y-86460000D03*
%TD*%
%TO.C,TP3*%
X115520000Y-83920000D03*
%TD*%
%TO.C,TP25*%
X125680000Y-63600000D03*
%TD*%
%TO.C,TP23*%
X125680000Y-68680000D03*
%TD*%
M02*
