%TF.GenerationSoftware,KiCad,Pcbnew,(6.0.4)*%
%TF.CreationDate,2024-03-23T19:03:43+02:00*%
%TF.ProjectId,EEE3088 Sensing,45454533-3038-4382-9053-656e73696e67,R1.0*%
%TF.SameCoordinates,Original*%
%TF.FileFunction,Copper,L2,Bot*%
%TF.FilePolarity,Positive*%
%FSLAX46Y46*%
G04 Gerber Fmt 4.6, Leading zero omitted, Abs format (unit mm)*
G04 Created by KiCad (PCBNEW (6.0.4)) date 2024-03-23 19:03:43*
%MOMM*%
%LPD*%
G01*
G04 APERTURE LIST*
G04 Aperture macros list*
%AMFreePoly0*
4,1,22,0.500000,-0.750000,0.000000,-0.750000,0.000000,-0.745033,-0.079941,-0.743568,-0.215256,-0.701293,-0.333266,-0.622738,-0.424486,-0.514219,-0.481581,-0.384460,-0.499164,-0.250000,-0.500000,-0.250000,-0.500000,0.250000,-0.499164,0.250000,-0.499963,0.256109,-0.478152,0.396186,-0.417904,0.524511,-0.324060,0.630769,-0.204165,0.706417,-0.067858,0.745374,0.000000,0.744959,0.000000,0.750000,
0.500000,0.750000,0.500000,-0.750000,0.500000,-0.750000,$1*%
%AMFreePoly1*
4,1,20,0.000000,0.744959,0.073905,0.744508,0.209726,0.703889,0.328688,0.626782,0.421226,0.519385,0.479903,0.390333,0.500000,0.250000,0.500000,-0.250000,0.499851,-0.262216,0.476331,-0.402017,0.414519,-0.529596,0.319384,-0.634700,0.198574,-0.708877,0.061801,-0.746166,0.000000,-0.745033,0.000000,-0.750000,-0.500000,-0.750000,-0.500000,0.750000,0.000000,0.750000,0.000000,0.744959,
0.000000,0.744959,$1*%
G04 Aperture macros list end*
%TA.AperFunction,ComponentPad*%
%ADD10R,1.800000X1.800000*%
%TD*%
%TA.AperFunction,ComponentPad*%
%ADD11C,1.800000*%
%TD*%
%TA.AperFunction,SMDPad,CuDef*%
%ADD12C,1.500000*%
%TD*%
%TA.AperFunction,SMDPad,CuDef*%
%ADD13FreePoly0,90.000000*%
%TD*%
%TA.AperFunction,SMDPad,CuDef*%
%ADD14FreePoly1,90.000000*%
%TD*%
%TA.AperFunction,SMDPad,CuDef*%
%ADD15FreePoly0,0.000000*%
%TD*%
%TA.AperFunction,SMDPad,CuDef*%
%ADD16FreePoly1,0.000000*%
%TD*%
%TA.AperFunction,SMDPad,CuDef*%
%ADD17FreePoly0,270.000000*%
%TD*%
%TA.AperFunction,SMDPad,CuDef*%
%ADD18FreePoly1,270.000000*%
%TD*%
%TA.AperFunction,ComponentPad*%
%ADD19R,1.700000X1.700000*%
%TD*%
%TA.AperFunction,ComponentPad*%
%ADD20O,1.700000X1.700000*%
%TD*%
%TA.AperFunction,ViaPad*%
%ADD21C,0.800000*%
%TD*%
%TA.AperFunction,Conductor*%
%ADD22C,0.500000*%
%TD*%
G04 APERTURE END LIST*
D10*
%TO.P,Q6,1,C*%
%TO.N,vcc*%
X148590000Y-89000000D03*
D11*
%TO.P,Q6,2,E*%
%TO.N,VoutR*%
X151130000Y-89000000D03*
%TD*%
D10*
%TO.P,D2,1,K*%
%TO.N,Net-(D2-Pad1)*%
X144830000Y-57815000D03*
D11*
%TO.P,D2,2,A*%
%TO.N,vcc*%
X142290000Y-57815000D03*
%TD*%
D10*
%TO.P,Q4,1,C*%
%TO.N,vcc*%
X151080000Y-73760000D03*
D11*
%TO.P,Q4,2,E*%
%TO.N,VoutM*%
X151080000Y-71220000D03*
%TD*%
D10*
%TO.P,Q5,1,C*%
%TO.N,vcc*%
X151130000Y-55880000D03*
D11*
%TO.P,Q5,2,E*%
%TO.N,VoutL*%
X148590000Y-55880000D03*
%TD*%
D10*
%TO.P,D6,1,K*%
%TO.N,Net-(D6-Pad1)*%
X142235000Y-87065000D03*
D11*
%TO.P,D6,2,A*%
%TO.N,vcc*%
X144775000Y-87065000D03*
%TD*%
D10*
%TO.P,D1,1,K*%
%TO.N,Net-(D1-Pad1)*%
X149145000Y-67415000D03*
D11*
%TO.P,D1,2,A*%
%TO.N,vcc*%
X149145000Y-64875000D03*
%TD*%
D10*
%TO.P,D5,1,K*%
%TO.N,Net-(D5-Pad1)*%
X157485000Y-57815000D03*
D11*
%TO.P,D5,2,A*%
%TO.N,vcc*%
X154945000Y-57815000D03*
%TD*%
D10*
%TO.P,D4,1,K*%
%TO.N,Net-(D4-Pad1)*%
X149145000Y-80115000D03*
D11*
%TO.P,D4,2,A*%
%TO.N,vcc*%
X149145000Y-77575000D03*
%TD*%
D10*
%TO.P,D3,1,K*%
%TO.N,Net-(D3-Pad1)*%
X154935000Y-87065000D03*
D11*
%TO.P,D3,2,A*%
%TO.N,vcc*%
X157475000Y-87065000D03*
%TD*%
D12*
%TO.P,TP12,1,1*%
%TO.N,PC5*%
X115520000Y-61060000D03*
%TD*%
%TO.P,TP14,1,1*%
%TO.N,GND*%
X115520000Y-63600000D03*
%TD*%
%TO.P,TP2,1,1*%
%TO.N,GND*%
X115520000Y-55980000D03*
%TD*%
D13*
%TO.P,5,1,A*%
%TO.N,Net-(C5-Pad1)*%
X149860000Y-61610000D03*
D14*
%TO.P,5,2,B*%
%TO.N,VoutL*%
X149860000Y-60310000D03*
%TD*%
D12*
%TO.P,TP4,1,1*%
%TO.N,PA4*%
X115520000Y-81380000D03*
%TD*%
D15*
%TO.P,15,1,A*%
%TO.N,PE14*%
X129652000Y-74676000D03*
D16*
%TO.P,15,2,B*%
%TO.N,VinM*%
X130952000Y-74676000D03*
%TD*%
D15*
%TO.P,10,1,A*%
%TO.N,BATT*%
X128890000Y-60960000D03*
D16*
%TO.P,10,2,B*%
%TO.N,vcc*%
X130190000Y-60960000D03*
%TD*%
D15*
%TO.P,4,1,A*%
%TO.N,Net-(C4-Pad1)*%
X147290000Y-72390000D03*
D16*
%TO.P,4,2,B*%
%TO.N,VoutM*%
X148590000Y-72390000D03*
%TD*%
D12*
%TO.P,TP18,1,1*%
%TO.N,PE15*%
X125680000Y-81380000D03*
%TD*%
%TO.P,TP21,1,1*%
%TO.N,PE12*%
X125680000Y-73760000D03*
%TD*%
%TO.P,TP11,1,1*%
%TO.N,GND*%
X115520000Y-71220000D03*
%TD*%
%TO.P,TP16,1,1*%
%TO.N,BATT*%
X125680000Y-58520000D03*
%TD*%
%TO.P,TP1,1,1*%
%TO.N,RESV3*%
X115520000Y-89000000D03*
%TD*%
D13*
%TO.P,2,1,A*%
%TO.N,Net-(C2-Pad1)*%
X147320000Y-61610000D03*
D14*
%TO.P,2,2,B*%
%TO.N,VoutL*%
X147320000Y-60310000D03*
%TD*%
D12*
%TO.P,TP28,1,1*%
%TO.N,3V3*%
X125680000Y-55980000D03*
%TD*%
D15*
%TO.P,13,1,A*%
%TO.N,PA3*%
X137160000Y-72263000D03*
D16*
%TO.P,13,2,B*%
%TO.N,VoutL*%
X138460000Y-72263000D03*
%TD*%
D12*
%TO.P,TP19,1,1*%
%TO.N,PE14*%
X125680000Y-78840000D03*
%TD*%
D17*
%TO.P,3,1,A*%
%TO.N,Net-(C3-Pad1)*%
X152400000Y-83170000D03*
D18*
%TO.P,3,2,B*%
%TO.N,VoutR*%
X152400000Y-84470000D03*
%TD*%
D12*
%TO.P,TP24,1,1*%
%TO.N,PE9*%
X125680000Y-66140000D03*
%TD*%
%TO.P,TP17,1,1*%
%TO.N,RESV2*%
X125680000Y-83920000D03*
%TD*%
%TO.P,TP8,1,1*%
%TO.N,GND*%
X115520000Y-78840000D03*
%TD*%
%TO.P,TP26,1,1*%
%TO.N,RESV1*%
X125680000Y-61060000D03*
%TD*%
D15*
%TO.P,17,1,A*%
%TO.N,PE15*%
X129637000Y-77216000D03*
D16*
%TO.P,17,2,B*%
%TO.N,VinR*%
X130937000Y-77216000D03*
%TD*%
D12*
%TO.P,TP7,1,1*%
%TO.N,PA6*%
X115520000Y-73761600D03*
%TD*%
%TO.P,TP10,1,1*%
%TO.N,PC4*%
X115520000Y-66140000D03*
%TD*%
%TO.P,TP9,1,1*%
%TO.N,PA7*%
X115520000Y-68680000D03*
%TD*%
%TO.P,TP5,1,1*%
%TO.N,GND*%
X115520000Y-86460000D03*
%TD*%
D15*
%TO.P,1,1,A*%
%TO.N,Net-(C1-Pad1)*%
X147290000Y-69850000D03*
D16*
%TO.P,1,2,B*%
%TO.N,VoutM*%
X148590000Y-69850000D03*
%TD*%
D12*
%TO.P,TP6,1,1*%
%TO.N,PA5*%
X115520000Y-76300000D03*
%TD*%
%TO.P,TP15,1,1*%
%TO.N,3V3*%
X125680000Y-89000000D03*
%TD*%
D17*
%TO.P,9,1,A*%
%TO.N,Net-(C9-Pad1)*%
X147320000Y-83170000D03*
D18*
%TO.P,9,2,B*%
%TO.N,VoutR*%
X147320000Y-84470000D03*
%TD*%
D15*
%TO.P,14,1,A*%
%TO.N,PA4*%
X137160000Y-74803000D03*
D16*
%TO.P,14,2,B*%
%TO.N,VoutM*%
X138460000Y-74803000D03*
%TD*%
D12*
%TO.P,TP13,1,1*%
%TO.N,AB0*%
X115520000Y-58520000D03*
%TD*%
%TO.P,TP20,1,1*%
%TO.N,PE13*%
X125680000Y-76300000D03*
%TD*%
D19*
%TO.P,J1,1,Pin_1*%
%TO.N,RESV3*%
X119325000Y-89000000D03*
D20*
%TO.P,J1,2,Pin_2*%
%TO.N,3V3*%
X121865000Y-89000000D03*
%TO.P,J1,3,Pin_3*%
%TO.N,GND*%
X119325000Y-86460000D03*
%TO.P,J1,4,Pin_4*%
%TO.N,BATT*%
X121865000Y-86460000D03*
%TO.P,J1,5,Pin_5*%
%TO.N,PA3*%
X119325000Y-83920000D03*
%TO.P,J1,6,Pin_6*%
%TO.N,RESV2*%
X121865000Y-83920000D03*
%TO.P,J1,7,Pin_7*%
%TO.N,PA4*%
X119325000Y-81380000D03*
%TO.P,J1,8,Pin_8*%
%TO.N,PE15*%
X121865000Y-81380000D03*
%TO.P,J1,9,Pin_9*%
%TO.N,GND*%
X119325000Y-78840000D03*
%TO.P,J1,10,Pin_10*%
%TO.N,PE14*%
X121865000Y-78840000D03*
%TO.P,J1,11,Pin_11*%
%TO.N,PA5*%
X119325000Y-76300000D03*
%TO.P,J1,12,Pin_12*%
%TO.N,PE13*%
X121865000Y-76300000D03*
%TO.P,J1,13,Pin_13*%
%TO.N,PA6*%
X119325000Y-73760000D03*
%TO.P,J1,14,Pin_14*%
%TO.N,PE12*%
X121865000Y-73760000D03*
%TO.P,J1,15,Pin_15*%
%TO.N,GND*%
X119325000Y-71220000D03*
%TO.P,J1,16,Pin_16*%
%TO.N,PE11*%
X121865000Y-71220000D03*
%TO.P,J1,17,Pin_17*%
%TO.N,PA7*%
X119325000Y-68680000D03*
%TO.P,J1,18,Pin_18*%
%TO.N,PE10*%
X121865000Y-68680000D03*
%TO.P,J1,19,Pin_19*%
%TO.N,PC4*%
X119325000Y-66140000D03*
%TO.P,J1,20,Pin_20*%
%TO.N,PE9*%
X121865000Y-66140000D03*
%TO.P,J1,21,Pin_21*%
%TO.N,GND*%
X119325000Y-63600000D03*
%TO.P,J1,22,Pin_22*%
%TO.N,PE8*%
X121865000Y-63600000D03*
%TO.P,J1,23,Pin_23*%
%TO.N,PC5*%
X119325000Y-61060000D03*
%TO.P,J1,24,Pin_24*%
%TO.N,RESV1*%
X121865000Y-61060000D03*
%TO.P,J1,25,Pin_25*%
%TO.N,AB0*%
X119325000Y-58520000D03*
%TO.P,J1,26,Pin_26*%
%TO.N,BATT*%
X121865000Y-58520000D03*
%TO.P,J1,27,Pin_27*%
%TO.N,GND*%
X119325000Y-55980000D03*
%TO.P,J1,28,Pin_28*%
%TO.N,3V3*%
X121865000Y-55980000D03*
%TD*%
D12*
%TO.P,TP22,1,1*%
%TO.N,PE11*%
X125680000Y-71220000D03*
%TD*%
D13*
%TO.P,8,1,A*%
%TO.N,Net-(C8-Pad1)*%
X152400000Y-61610000D03*
D14*
%TO.P,8,2,B*%
%TO.N,VoutL*%
X152400000Y-60310000D03*
%TD*%
D15*
%TO.P,7,1,A*%
%TO.N,Net-(C7-Pad1)*%
X147320000Y-74930000D03*
D16*
%TO.P,7,2,B*%
%TO.N,VoutM*%
X148620000Y-74930000D03*
%TD*%
D12*
%TO.P,TP27,1,1*%
%TO.N,BATT*%
X125680000Y-86460000D03*
%TD*%
D15*
%TO.P,11,1,A*%
%TO.N,3V3*%
X129159000Y-64770000D03*
D16*
%TO.P,11,2,B*%
%TO.N,vcc*%
X130459000Y-64770000D03*
%TD*%
D12*
%TO.P,TP3,1,1*%
%TO.N,PA3*%
X115520000Y-83920000D03*
%TD*%
D15*
%TO.P,12,1,A*%
%TO.N,PE13*%
X129637000Y-72136000D03*
D16*
%TO.P,12,2,B*%
%TO.N,VinL*%
X130937000Y-72136000D03*
%TD*%
D12*
%TO.P,TP25,1,1*%
%TO.N,PE8*%
X125680000Y-63600000D03*
%TD*%
D17*
%TO.P,6,1,A*%
%TO.N,Net-(C6-Pad1)*%
X149860000Y-83170000D03*
D18*
%TO.P,6,2,B*%
%TO.N,VoutR*%
X149860000Y-84470000D03*
%TD*%
D15*
%TO.P,16,1,A*%
%TO.N,PA5*%
X137130000Y-77343000D03*
D16*
%TO.P,16,2,B*%
%TO.N,VoutR*%
X138430000Y-77343000D03*
%TD*%
D12*
%TO.P,TP23,1,1*%
%TO.N,PE10*%
X125680000Y-68680000D03*
%TD*%
D21*
%TO.N,vcc*%
X129895600Y-67183000D03*
%TO.N,3V3*%
X128295400Y-63246000D03*
%TO.N,GND*%
X139242800Y-67640200D03*
X137134600Y-65786000D03*
%TO.N,VinM*%
X132715000Y-74295000D03*
%TO.N,VoutM*%
X140970000Y-74930000D03*
%TO.N,Net-(C1-Pad1)*%
X146278600Y-69824600D03*
%TO.N,Net-(C2-Pad1)*%
X145415000Y-61885020D03*
%TO.N,Net-(C3-Pad1)*%
X152400000Y-81915000D03*
%TO.N,VoutL*%
X140970000Y-72390000D03*
%TO.N,VoutR*%
X140970000Y-77470000D03*
%TO.N,Net-(C4-Pad1)*%
X146304000Y-72390000D03*
%TO.N,Net-(C5-Pad1)*%
X149225000Y-62230000D03*
%TO.N,Net-(C6-Pad1)*%
X140335000Y-83426461D03*
%TO.N,Net-(C7-Pad1)*%
X146354800Y-74955400D03*
%TO.N,Net-(C8-Pad1)*%
X151130000Y-62865000D03*
%TO.N,Net-(C9-Pad1)*%
X146050000Y-83185000D03*
%TO.N,Net-(Q2-Pad1)*%
X131800600Y-67081400D03*
X135458200Y-69545200D03*
%TO.N,VinL*%
X133350000Y-71755000D03*
%TO.N,VinR*%
X132715000Y-77470000D03*
%TD*%
D22*
%TO.N,BATT*%
X125680000Y-58520000D02*
X126450000Y-58520000D01*
X126450000Y-58520000D02*
X128890000Y-60960000D01*
X121865000Y-58520000D02*
X125680000Y-58520000D01*
X125680000Y-86460000D02*
X121865000Y-86460000D01*
%TO.N,vcc*%
X157475000Y-72385000D02*
X154940000Y-69850000D01*
X144780000Y-52070000D02*
X151130000Y-52070000D01*
X151080000Y-75640000D02*
X151080000Y-73760000D01*
X153570000Y-73760000D02*
X154940000Y-72390000D01*
X148590000Y-92710000D02*
X147320000Y-92710000D01*
X148590000Y-92710000D02*
X148590000Y-89000000D01*
X130459000Y-66619600D02*
X129895600Y-67183000D01*
X142290000Y-57815000D02*
X142290000Y-54560000D01*
X157475000Y-87065000D02*
X157475000Y-72385000D01*
X154945000Y-53345000D02*
X154945000Y-57815000D01*
X157475000Y-90165000D02*
X157480000Y-90170000D01*
X130459000Y-60041000D02*
X132685000Y-57815000D01*
X149145000Y-77575000D02*
X151080000Y-75640000D01*
X130459000Y-64770000D02*
X130459000Y-66619600D01*
X154940000Y-72390000D02*
X154940000Y-62230000D01*
X151130000Y-52070000D02*
X151130000Y-55880000D01*
X157475000Y-87065000D02*
X157475000Y-90165000D01*
X151080000Y-73760000D02*
X153570000Y-73760000D01*
X152295000Y-64875000D02*
X154945000Y-62225000D01*
X154945000Y-62225000D02*
X154945000Y-57815000D01*
X154940000Y-92710000D02*
X148590000Y-92710000D01*
X149145000Y-64875000D02*
X152295000Y-64875000D01*
X151130000Y-52070000D02*
X153670000Y-52070000D01*
X130459000Y-64643000D02*
X130459000Y-60041000D01*
X132685000Y-57815000D02*
X142290000Y-57815000D01*
X153670000Y-52070000D02*
X154945000Y-53345000D01*
X147320000Y-92710000D02*
X144775000Y-90165000D01*
X157480000Y-90170000D02*
X154940000Y-92710000D01*
X144775000Y-90165000D02*
X144775000Y-87065000D01*
X142290000Y-54560000D02*
X144780000Y-52070000D01*
%TO.N,3V3*%
X121865000Y-89000000D02*
X125680000Y-89000000D01*
X125680000Y-55980000D02*
X121865000Y-55980000D01*
X128295400Y-63906400D02*
X129159000Y-64770000D01*
X128295400Y-63246000D02*
X128295400Y-63906400D01*
%TO.N,RESV3*%
X115520000Y-89000000D02*
X119325000Y-89000000D01*
%TO.N,GND*%
X115520000Y-63600000D02*
X119325000Y-63600000D01*
X115520000Y-78840000D02*
X119325000Y-78840000D01*
X115520000Y-86460000D02*
X119325000Y-86460000D01*
X115520000Y-55980000D02*
X119325000Y-55980000D01*
X138988800Y-67640200D02*
X137134600Y-65786000D01*
X139242800Y-67640200D02*
X138988800Y-67640200D01*
X115520000Y-71220000D02*
X119325000Y-71220000D01*
%TO.N,PA3*%
X115520000Y-83920000D02*
X119325000Y-83920000D01*
X136210489Y-75449041D02*
X130073400Y-81586130D01*
X115570355Y-91935965D02*
X114034320Y-90399930D01*
X125794165Y-91935965D02*
X115570355Y-91935965D01*
X130073400Y-87656730D02*
X125794165Y-91935965D01*
X136210489Y-73212511D02*
X136210489Y-75449041D01*
X114034320Y-85405680D02*
X115520000Y-83920000D01*
X114034320Y-90399930D02*
X114034320Y-85405680D01*
X130073400Y-81586130D02*
X130073400Y-87656730D01*
X137160000Y-72263000D02*
X136210489Y-73212511D01*
%TO.N,RESV2*%
X121865000Y-83920000D02*
X125680000Y-83920000D01*
%TO.N,PA4*%
X115520000Y-81380000D02*
X119325000Y-81380000D01*
X115280605Y-92635485D02*
X113334800Y-90689680D01*
X113334800Y-90689680D02*
X113334800Y-83565200D01*
X130860800Y-81788000D02*
X130860800Y-87858600D01*
X137160000Y-74803000D02*
X137160000Y-75488800D01*
X130860800Y-87858600D02*
X126083915Y-92635485D01*
X137160000Y-75488800D02*
X130860800Y-81788000D01*
X113334800Y-83565200D02*
X115520000Y-81380000D01*
X126083915Y-92635485D02*
X115280605Y-92635485D01*
%TO.N,PE15*%
X129637000Y-77423000D02*
X129637000Y-77216000D01*
X125680000Y-81380000D02*
X129637000Y-77423000D01*
X125680000Y-81380000D02*
X121865000Y-81380000D01*
%TO.N,PE14*%
X121865000Y-78840000D02*
X125680000Y-78840000D01*
X129652000Y-74868000D02*
X129652000Y-74676000D01*
X125680000Y-78840000D02*
X129652000Y-74868000D01*
%TO.N,PA5*%
X115520000Y-76300000D02*
X119325000Y-76300000D01*
X115000849Y-93344999D02*
X112635281Y-90979431D01*
X112635281Y-90979431D02*
X112635281Y-79184719D01*
X131826000Y-82647000D02*
X131826000Y-87882670D01*
X126363671Y-93344999D02*
X115000849Y-93344999D01*
X137130000Y-77343000D02*
X131826000Y-82647000D01*
X131826000Y-87882670D02*
X126363671Y-93344999D01*
X112635281Y-79184719D02*
X115520000Y-76300000D01*
%TO.N,PE13*%
X129637000Y-72343000D02*
X129637000Y-72136000D01*
X125680000Y-76300000D02*
X121865000Y-76300000D01*
X125680000Y-76300000D02*
X129637000Y-72343000D01*
%TO.N,PA6*%
X119225000Y-73860000D02*
X119325000Y-73760000D01*
X115520000Y-73860000D02*
X119225000Y-73860000D01*
%TO.N,PE12*%
X121865000Y-73760000D02*
X125680000Y-73760000D01*
%TO.N,PE11*%
X125680000Y-71220000D02*
X121865000Y-71220000D01*
%TO.N,PA7*%
X115520000Y-68680000D02*
X119325000Y-68680000D01*
%TO.N,PE10*%
X121865000Y-68680000D02*
X125680000Y-68680000D01*
%TO.N,PC4*%
X115520000Y-66140000D02*
X119325000Y-66140000D01*
%TO.N,PE9*%
X125680000Y-66140000D02*
X121865000Y-66140000D01*
%TO.N,PE8*%
X121865000Y-63600000D02*
X125680000Y-63600000D01*
%TO.N,PC5*%
X115520000Y-61060000D02*
X119325000Y-61060000D01*
%TO.N,RESV1*%
X125680000Y-61060000D02*
X121865000Y-61060000D01*
%TO.N,AB0*%
X115520000Y-58520000D02*
X119325000Y-58520000D01*
%TO.N,VinM*%
X131333000Y-74295000D02*
X130952000Y-74676000D01*
X132715000Y-74295000D02*
X131333000Y-74295000D01*
%TO.N,VoutM*%
X148620000Y-71150000D02*
X148620000Y-69880000D01*
X151080000Y-71220000D02*
X148690000Y-71220000D01*
X148006207Y-76129511D02*
X142169511Y-76129511D01*
X148620000Y-74930000D02*
X148620000Y-75515718D01*
X148620000Y-74930000D02*
X148620000Y-71150000D01*
X142169511Y-76129511D02*
X140970000Y-74930000D01*
X148620000Y-75515718D02*
X148006207Y-76129511D01*
X148690000Y-71220000D02*
X148620000Y-71150000D01*
X138460000Y-74803000D02*
X138587000Y-74930000D01*
X148620000Y-69880000D02*
X148590000Y-69850000D01*
X138587000Y-74930000D02*
X140970000Y-74930000D01*
%TO.N,Net-(C1-Pad1)*%
X147264600Y-69824600D02*
X147290000Y-69850000D01*
X146278600Y-69824600D02*
X147264600Y-69824600D01*
%TO.N,Net-(C2-Pad1)*%
X145415000Y-61885020D02*
X145690020Y-61610000D01*
X145690020Y-61610000D02*
X147320000Y-61610000D01*
%TO.N,Net-(C3-Pad1)*%
X152400000Y-83170000D02*
X152400000Y-81915000D01*
%TO.N,VoutL*%
X145430000Y-60310000D02*
X147320000Y-60310000D01*
X148590000Y-59040000D02*
X149860000Y-60310000D01*
X148590000Y-55880000D02*
X148590000Y-59040000D01*
X149860000Y-60310000D02*
X147320000Y-60310000D01*
X138460000Y-72263000D02*
X140843000Y-72263000D01*
X144145000Y-61595000D02*
X145430000Y-60310000D01*
X144145000Y-69215000D02*
X144145000Y-61595000D01*
X140970000Y-72390000D02*
X144145000Y-69215000D01*
X149860000Y-60310000D02*
X152400000Y-60310000D01*
X140843000Y-72263000D02*
X140970000Y-72390000D01*
%TO.N,VoutR*%
X140843000Y-77343000D02*
X140970000Y-77470000D01*
X138430000Y-77343000D02*
X138430000Y-82722852D01*
X152400000Y-84470000D02*
X147320000Y-84470000D01*
X138430000Y-82722852D02*
X140177148Y-84470000D01*
X151130000Y-85740000D02*
X149860000Y-84470000D01*
X140177148Y-84470000D02*
X147320000Y-84470000D01*
X138430000Y-77343000D02*
X140843000Y-77343000D01*
X151130000Y-89000000D02*
X151130000Y-85740000D01*
%TO.N,Net-(C4-Pad1)*%
X146304000Y-72390000D02*
X147290000Y-72390000D01*
%TO.N,Net-(C5-Pad1)*%
X149225000Y-62230000D02*
X149240000Y-62230000D01*
X149240000Y-62230000D02*
X149860000Y-61610000D01*
%TO.N,Net-(C6-Pad1)*%
X142633539Y-83426461D02*
X144145000Y-81915000D01*
X140335000Y-83426461D02*
X142633539Y-83426461D01*
X144145000Y-81915000D02*
X148605000Y-81915000D01*
X148605000Y-81915000D02*
X149860000Y-83170000D01*
%TO.N,Net-(C7-Pad1)*%
X147294600Y-74955400D02*
X147320000Y-74930000D01*
X146354800Y-74955400D02*
X147294600Y-74955400D01*
%TO.N,Net-(C8-Pad1)*%
X151130000Y-62865000D02*
X151145000Y-62865000D01*
X151145000Y-62865000D02*
X152400000Y-61610000D01*
%TO.N,Net-(C9-Pad1)*%
X146050000Y-83185000D02*
X147305000Y-83185000D01*
X147305000Y-83185000D02*
X147320000Y-83170000D01*
%TO.N,Net-(Q2-Pad1)*%
X131800600Y-67081400D02*
X132994400Y-67081400D01*
X132994400Y-67081400D02*
X135458200Y-69545200D01*
%TO.N,VinL*%
X133350000Y-71755000D02*
X131318000Y-71755000D01*
X131318000Y-71755000D02*
X130937000Y-72136000D01*
%TO.N,VinR*%
X132715000Y-77470000D02*
X131191000Y-77470000D01*
X131191000Y-77470000D02*
X130937000Y-77216000D01*
%TD*%
%TA.AperFunction,Conductor*%
%TO.N,GND*%
G36*
X159453621Y-47518502D02*
G01*
X159500114Y-47572158D01*
X159511500Y-47624500D01*
X159511500Y-97155500D01*
X159491498Y-97223621D01*
X159437842Y-97270114D01*
X159385500Y-97281500D01*
X112394500Y-97281500D01*
X112326379Y-97261498D01*
X112279886Y-97207842D01*
X112268500Y-97155500D01*
X112268500Y-91989521D01*
X112288502Y-91921400D01*
X112342158Y-91874907D01*
X112412432Y-91864803D01*
X112477012Y-91894297D01*
X112483595Y-91900426D01*
X114417079Y-93833910D01*
X114429465Y-93848322D01*
X114437998Y-93859917D01*
X114438003Y-93859922D01*
X114442341Y-93865817D01*
X114447919Y-93870556D01*
X114447922Y-93870559D01*
X114482617Y-93900034D01*
X114490133Y-93906964D01*
X114495828Y-93912659D01*
X114498710Y-93914939D01*
X114518100Y-93930280D01*
X114521504Y-93933071D01*
X114571552Y-93975590D01*
X114577134Y-93980332D01*
X114583650Y-93983660D01*
X114588699Y-93987027D01*
X114593828Y-93990194D01*
X114599565Y-93994733D01*
X114665724Y-94025654D01*
X114669618Y-94027557D01*
X114734657Y-94060768D01*
X114741765Y-94062507D01*
X114747408Y-94064606D01*
X114753171Y-94066523D01*
X114759799Y-94069621D01*
X114766961Y-94071111D01*
X114766962Y-94071111D01*
X114831261Y-94084485D01*
X114835545Y-94085455D01*
X114906459Y-94102807D01*
X114912061Y-94103155D01*
X114912064Y-94103155D01*
X114917613Y-94103499D01*
X114917611Y-94103535D01*
X114921604Y-94103774D01*
X114925796Y-94104148D01*
X114932964Y-94105639D01*
X115010369Y-94103545D01*
X115013777Y-94103499D01*
X126296601Y-94103499D01*
X126315551Y-94104932D01*
X126329786Y-94107098D01*
X126329790Y-94107098D01*
X126337020Y-94108198D01*
X126344312Y-94107605D01*
X126344315Y-94107605D01*
X126389689Y-94103914D01*
X126399904Y-94103499D01*
X126407964Y-94103499D01*
X126425351Y-94101472D01*
X126436178Y-94100210D01*
X126440553Y-94099777D01*
X126506010Y-94094453D01*
X126506013Y-94094452D01*
X126513308Y-94093859D01*
X126520272Y-94091603D01*
X126526231Y-94090412D01*
X126532086Y-94089028D01*
X126539352Y-94088181D01*
X126607998Y-94063264D01*
X126612126Y-94061847D01*
X126674607Y-94041606D01*
X126674609Y-94041605D01*
X126681570Y-94039350D01*
X126687825Y-94035554D01*
X126693299Y-94033048D01*
X126698729Y-94030329D01*
X126705608Y-94027832D01*
X126711729Y-94023819D01*
X126766647Y-93987813D01*
X126770351Y-93985476D01*
X126832778Y-93947594D01*
X126841155Y-93940196D01*
X126841179Y-93940223D01*
X126844171Y-93937570D01*
X126847404Y-93934867D01*
X126853523Y-93930855D01*
X126906799Y-93874616D01*
X126909177Y-93872174D01*
X132314911Y-88466440D01*
X132329323Y-88454054D01*
X132340918Y-88445521D01*
X132340923Y-88445516D01*
X132346818Y-88441178D01*
X132351557Y-88435600D01*
X132351560Y-88435597D01*
X132381035Y-88400902D01*
X132387965Y-88393386D01*
X132393661Y-88387690D01*
X132395924Y-88384829D01*
X132395929Y-88384824D01*
X132411293Y-88365404D01*
X132414082Y-88362003D01*
X132415743Y-88360048D01*
X132461333Y-88306385D01*
X132464659Y-88299872D01*
X132468020Y-88294833D01*
X132471196Y-88289691D01*
X132475734Y-88283954D01*
X132506655Y-88217795D01*
X132508561Y-88213895D01*
X132513973Y-88203297D01*
X132541769Y-88148862D01*
X132543508Y-88141753D01*
X132545604Y-88136119D01*
X132547523Y-88130349D01*
X132550622Y-88123720D01*
X132555875Y-88098469D01*
X132565490Y-88052241D01*
X132566461Y-88047952D01*
X132568484Y-88039684D01*
X132583808Y-87977060D01*
X132584500Y-87965906D01*
X132584535Y-87965908D01*
X132584775Y-87961936D01*
X132585152Y-87957715D01*
X132586641Y-87950555D01*
X132584546Y-87873128D01*
X132584500Y-87869720D01*
X132584500Y-83013371D01*
X132604502Y-82945250D01*
X132621405Y-82924276D01*
X136908660Y-78637021D01*
X136970972Y-78602995D01*
X137017897Y-78601736D01*
X137039821Y-78605287D01*
X137106782Y-78606514D01*
X137178539Y-78607830D01*
X137178541Y-78607830D01*
X137183020Y-78607912D01*
X137187465Y-78607359D01*
X137191944Y-78607122D01*
X137191951Y-78607249D01*
X137200339Y-78606729D01*
X137545500Y-78606729D01*
X137613621Y-78626731D01*
X137660114Y-78680387D01*
X137671500Y-78732729D01*
X137671500Y-82655782D01*
X137670067Y-82674732D01*
X137666801Y-82696201D01*
X137667394Y-82703493D01*
X137667394Y-82703496D01*
X137671085Y-82748870D01*
X137671500Y-82759085D01*
X137671500Y-82767145D01*
X137671925Y-82770789D01*
X137674789Y-82795359D01*
X137675222Y-82799734D01*
X137676662Y-82817432D01*
X137681140Y-82872489D01*
X137683396Y-82879453D01*
X137684587Y-82885412D01*
X137685971Y-82891267D01*
X137686818Y-82898533D01*
X137711735Y-82967179D01*
X137713152Y-82971307D01*
X137720586Y-82994253D01*
X137735649Y-83040751D01*
X137739445Y-83047006D01*
X137741951Y-83052480D01*
X137744670Y-83057910D01*
X137747167Y-83064789D01*
X137751180Y-83070909D01*
X137751180Y-83070910D01*
X137787186Y-83125828D01*
X137789523Y-83129532D01*
X137827405Y-83191959D01*
X137831121Y-83196167D01*
X137831122Y-83196168D01*
X137834803Y-83200336D01*
X137834776Y-83200360D01*
X137837429Y-83203352D01*
X137840132Y-83206585D01*
X137844144Y-83212704D01*
X137849456Y-83217736D01*
X137900383Y-83265980D01*
X137902825Y-83268358D01*
X139593378Y-84958911D01*
X139605764Y-84973323D01*
X139614297Y-84984918D01*
X139614302Y-84984923D01*
X139618640Y-84990818D01*
X139624218Y-84995557D01*
X139624221Y-84995560D01*
X139658916Y-85025035D01*
X139666432Y-85031965D01*
X139672127Y-85037660D01*
X139675009Y-85039940D01*
X139694399Y-85055281D01*
X139697803Y-85058072D01*
X139747851Y-85100591D01*
X139753433Y-85105333D01*
X139759949Y-85108661D01*
X139764998Y-85112028D01*
X139770127Y-85115195D01*
X139775864Y-85119734D01*
X139842023Y-85150655D01*
X139845917Y-85152558D01*
X139910956Y-85185769D01*
X139918064Y-85187508D01*
X139923707Y-85189607D01*
X139929470Y-85191524D01*
X139936098Y-85194622D01*
X139943260Y-85196112D01*
X139943261Y-85196112D01*
X140007560Y-85209486D01*
X140011844Y-85210456D01*
X140082758Y-85227808D01*
X140088360Y-85228156D01*
X140088363Y-85228156D01*
X140093912Y-85228500D01*
X140093910Y-85228536D01*
X140097903Y-85228775D01*
X140102095Y-85229149D01*
X140109263Y-85230640D01*
X140186668Y-85228546D01*
X140190076Y-85228500D01*
X146348753Y-85228500D01*
X146416874Y-85248502D01*
X146433308Y-85261084D01*
X146442776Y-85269654D01*
X146446492Y-85272161D01*
X146446494Y-85272162D01*
X146559817Y-85348599D01*
X146559822Y-85348602D01*
X146563536Y-85351107D01*
X146567573Y-85353063D01*
X146567575Y-85353064D01*
X146588531Y-85363217D01*
X146692428Y-85413554D01*
X146831188Y-85457838D01*
X146972426Y-85481600D01*
X147051373Y-85488682D01*
X147053795Y-85488712D01*
X147053802Y-85488712D01*
X147057116Y-85488752D01*
X147063715Y-85488833D01*
X147138035Y-85483995D01*
X147146221Y-85483729D01*
X147490519Y-85483729D01*
X147501778Y-85484233D01*
X147551373Y-85488682D01*
X147553795Y-85488712D01*
X147553802Y-85488712D01*
X147557116Y-85488752D01*
X147563715Y-85488833D01*
X147600007Y-85486471D01*
X147640408Y-85483841D01*
X147640418Y-85483840D01*
X147642829Y-85483683D01*
X147660202Y-85481195D01*
X147780161Y-85464016D01*
X147780167Y-85464015D01*
X147784606Y-85463379D01*
X147788911Y-85462120D01*
X147788916Y-85462119D01*
X147920108Y-85423755D01*
X147924410Y-85422497D01*
X148054789Y-85363217D01*
X148058560Y-85360805D01*
X148058568Y-85360801D01*
X148173721Y-85287157D01*
X148173722Y-85287156D01*
X148177497Y-85284742D01*
X148207317Y-85259048D01*
X148271979Y-85229733D01*
X148289565Y-85228500D01*
X148888753Y-85228500D01*
X148956874Y-85248502D01*
X148973308Y-85261084D01*
X148982776Y-85269654D01*
X148986492Y-85272161D01*
X148986494Y-85272162D01*
X149099817Y-85348599D01*
X149099822Y-85348602D01*
X149103536Y-85351107D01*
X149107573Y-85353063D01*
X149107575Y-85353064D01*
X149128531Y-85363217D01*
X149232428Y-85413554D01*
X149371188Y-85457838D01*
X149512426Y-85481600D01*
X149591373Y-85488682D01*
X149593795Y-85488712D01*
X149593802Y-85488712D01*
X149597116Y-85488752D01*
X149603715Y-85488833D01*
X149678035Y-85483995D01*
X149686221Y-85483729D01*
X149748858Y-85483729D01*
X149816979Y-85503731D01*
X149837953Y-85520634D01*
X150334595Y-86017276D01*
X150368621Y-86079588D01*
X150371500Y-86106371D01*
X150371500Y-87745127D01*
X150351498Y-87813248D01*
X150321154Y-87845886D01*
X150284871Y-87873128D01*
X150235619Y-87910108D01*
X150191655Y-87943117D01*
X150174711Y-87960848D01*
X150174170Y-87961414D01*
X150112646Y-87996844D01*
X150041733Y-87993387D01*
X149983947Y-87952141D01*
X149965094Y-87918592D01*
X149943768Y-87861705D01*
X149943767Y-87861703D01*
X149940615Y-87853295D01*
X149853261Y-87736739D01*
X149736705Y-87649385D01*
X149600316Y-87598255D01*
X149538134Y-87591500D01*
X147641866Y-87591500D01*
X147579684Y-87598255D01*
X147443295Y-87649385D01*
X147326739Y-87736739D01*
X147239385Y-87853295D01*
X147188255Y-87989684D01*
X147181500Y-88051866D01*
X147181500Y-89948134D01*
X147188255Y-90010316D01*
X147239385Y-90146705D01*
X147326739Y-90263261D01*
X147443295Y-90350615D01*
X147579684Y-90401745D01*
X147641866Y-90408500D01*
X147705500Y-90408500D01*
X147773621Y-90428502D01*
X147820114Y-90482158D01*
X147831500Y-90534500D01*
X147831500Y-91825500D01*
X147811498Y-91893621D01*
X147757842Y-91940114D01*
X147705500Y-91951500D01*
X147686371Y-91951500D01*
X147618250Y-91931498D01*
X147597276Y-91914595D01*
X145570405Y-89887724D01*
X145536379Y-89825412D01*
X145533500Y-89798629D01*
X145533500Y-88319052D01*
X145553502Y-88250931D01*
X145586332Y-88216473D01*
X145683039Y-88147493D01*
X145683042Y-88147491D01*
X145687243Y-88144494D01*
X145851303Y-87981005D01*
X145865006Y-87961936D01*
X145896151Y-87918592D01*
X145986458Y-87792917D01*
X145989512Y-87786739D01*
X146086784Y-87589922D01*
X146086785Y-87589920D01*
X146089078Y-87585280D01*
X146156408Y-87363671D01*
X146186640Y-87134041D01*
X146188327Y-87065000D01*
X146174110Y-86892076D01*
X146169773Y-86839318D01*
X146169772Y-86839312D01*
X146169349Y-86834167D01*
X146112925Y-86609533D01*
X146049196Y-86462966D01*
X146022630Y-86401868D01*
X146022628Y-86401865D01*
X146020570Y-86397131D01*
X145894764Y-86202665D01*
X145738887Y-86031358D01*
X145734836Y-86028159D01*
X145734832Y-86028155D01*
X145561177Y-85891011D01*
X145561172Y-85891008D01*
X145557123Y-85887810D01*
X145552607Y-85885317D01*
X145552604Y-85885315D01*
X145358879Y-85778373D01*
X145358875Y-85778371D01*
X145354355Y-85775876D01*
X145349486Y-85774152D01*
X145349482Y-85774150D01*
X145140903Y-85700288D01*
X145140899Y-85700287D01*
X145136028Y-85698562D01*
X145130935Y-85697655D01*
X145130932Y-85697654D01*
X144913095Y-85658851D01*
X144913089Y-85658850D01*
X144908006Y-85657945D01*
X144835096Y-85657054D01*
X144681581Y-85655179D01*
X144681579Y-85655179D01*
X144676411Y-85655116D01*
X144447464Y-85690150D01*
X144227314Y-85762106D01*
X144222726Y-85764494D01*
X144222722Y-85764496D01*
X144060253Y-85849072D01*
X144021872Y-85869052D01*
X144017739Y-85872155D01*
X144017736Y-85872157D01*
X143861710Y-85989305D01*
X143836655Y-86008117D01*
X143819170Y-86026414D01*
X143757646Y-86061844D01*
X143686733Y-86058387D01*
X143628947Y-86017141D01*
X143610094Y-85983592D01*
X143588768Y-85926705D01*
X143588767Y-85926703D01*
X143585615Y-85918295D01*
X143498261Y-85801739D01*
X143381705Y-85714385D01*
X143245316Y-85663255D01*
X143183134Y-85656500D01*
X141286866Y-85656500D01*
X141224684Y-85663255D01*
X141088295Y-85714385D01*
X140971739Y-85801739D01*
X140884385Y-85918295D01*
X140833255Y-86054684D01*
X140826500Y-86116866D01*
X140826500Y-88013134D01*
X140833255Y-88075316D01*
X140884385Y-88211705D01*
X140971739Y-88328261D01*
X141088295Y-88415615D01*
X141224684Y-88466745D01*
X141286866Y-88473500D01*
X143183134Y-88473500D01*
X143245316Y-88466745D01*
X143381705Y-88415615D01*
X143498261Y-88328261D01*
X143585615Y-88211705D01*
X143610180Y-88146178D01*
X143652822Y-88089414D01*
X143719383Y-88064714D01*
X143788732Y-88079921D01*
X143808647Y-88093464D01*
X143963517Y-88222039D01*
X143964349Y-88222730D01*
X143964206Y-88222902D01*
X144007101Y-88276570D01*
X144016500Y-88324321D01*
X144016500Y-90097930D01*
X144015067Y-90116880D01*
X144013229Y-90128964D01*
X144011801Y-90138349D01*
X144012394Y-90145641D01*
X144012394Y-90145644D01*
X144016085Y-90191018D01*
X144016500Y-90201233D01*
X144016500Y-90209293D01*
X144017417Y-90217158D01*
X144019789Y-90237507D01*
X144020222Y-90241882D01*
X144025534Y-90307185D01*
X144026140Y-90314637D01*
X144028396Y-90321601D01*
X144029587Y-90327560D01*
X144030971Y-90333415D01*
X144031818Y-90340681D01*
X144056735Y-90409327D01*
X144058152Y-90413455D01*
X144077299Y-90472557D01*
X144080649Y-90482899D01*
X144084445Y-90489154D01*
X144086951Y-90494628D01*
X144089670Y-90500058D01*
X144092167Y-90506937D01*
X144096180Y-90513057D01*
X144096180Y-90513058D01*
X144132186Y-90567976D01*
X144134523Y-90571680D01*
X144172405Y-90634107D01*
X144176121Y-90638315D01*
X144176122Y-90638316D01*
X144179803Y-90642484D01*
X144179776Y-90642508D01*
X144182429Y-90645500D01*
X144185132Y-90648733D01*
X144189144Y-90654852D01*
X144194456Y-90659884D01*
X144245383Y-90708128D01*
X144247825Y-90710506D01*
X146736230Y-93198911D01*
X146748616Y-93213323D01*
X146757149Y-93224918D01*
X146757154Y-93224923D01*
X146761492Y-93230818D01*
X146767070Y-93235557D01*
X146767073Y-93235560D01*
X146801768Y-93265035D01*
X146809284Y-93271965D01*
X146814980Y-93277661D01*
X146817841Y-93279924D01*
X146817846Y-93279929D01*
X146837266Y-93295293D01*
X146840667Y-93298082D01*
X146896285Y-93345333D01*
X146902805Y-93348662D01*
X146907852Y-93352028D01*
X146912976Y-93355193D01*
X146918717Y-93359735D01*
X146925348Y-93362834D01*
X146925351Y-93362836D01*
X146972723Y-93384976D01*
X146980949Y-93388820D01*
X146984830Y-93390634D01*
X146988776Y-93392562D01*
X147053808Y-93425769D01*
X147060914Y-93427508D01*
X147066564Y-93429609D01*
X147072321Y-93431524D01*
X147078950Y-93434622D01*
X147150435Y-93449491D01*
X147154701Y-93450457D01*
X147225610Y-93467808D01*
X147231212Y-93468156D01*
X147231215Y-93468156D01*
X147236764Y-93468500D01*
X147236762Y-93468535D01*
X147240734Y-93468775D01*
X147244955Y-93469152D01*
X147252115Y-93470641D01*
X147329542Y-93468546D01*
X147332950Y-93468500D01*
X148562165Y-93468500D01*
X148569966Y-93468742D01*
X148631298Y-93472547D01*
X148644260Y-93470320D01*
X148665596Y-93468500D01*
X154872930Y-93468500D01*
X154891880Y-93469933D01*
X154906115Y-93472099D01*
X154906119Y-93472099D01*
X154913349Y-93473199D01*
X154920641Y-93472606D01*
X154920644Y-93472606D01*
X154966018Y-93468915D01*
X154976233Y-93468500D01*
X154984293Y-93468500D01*
X155001680Y-93466473D01*
X155012507Y-93465211D01*
X155016882Y-93464778D01*
X155082339Y-93459454D01*
X155082342Y-93459453D01*
X155089637Y-93458860D01*
X155096601Y-93456604D01*
X155102560Y-93455413D01*
X155108415Y-93454029D01*
X155115681Y-93453182D01*
X155184327Y-93428265D01*
X155188455Y-93426848D01*
X155250936Y-93406607D01*
X155250938Y-93406606D01*
X155257899Y-93404351D01*
X155264154Y-93400555D01*
X155269628Y-93398049D01*
X155275058Y-93395330D01*
X155281937Y-93392833D01*
X155327690Y-93362836D01*
X155342976Y-93352814D01*
X155346680Y-93350477D01*
X155409107Y-93312595D01*
X155417484Y-93305197D01*
X155417508Y-93305224D01*
X155420500Y-93302571D01*
X155423733Y-93299868D01*
X155429852Y-93295856D01*
X155483128Y-93239617D01*
X155485506Y-93237175D01*
X157996650Y-90726031D01*
X158002337Y-90720685D01*
X158048404Y-90680000D01*
X158085635Y-90627319D01*
X158089716Y-90621864D01*
X158125191Y-90577026D01*
X158129734Y-90571284D01*
X158133756Y-90562679D01*
X158145003Y-90543315D01*
X158150484Y-90535560D01*
X158174610Y-90475695D01*
X158177315Y-90469477D01*
X158201519Y-90417689D01*
X158201521Y-90417683D01*
X158204621Y-90411050D01*
X158206552Y-90401764D01*
X158213046Y-90380324D01*
X158216598Y-90371511D01*
X158217698Y-90364281D01*
X158217699Y-90364277D01*
X158226302Y-90307723D01*
X158227509Y-90301014D01*
X158239150Y-90245048D01*
X158240640Y-90237885D01*
X158240383Y-90228401D01*
X158241771Y-90206036D01*
X158242099Y-90203883D01*
X158242099Y-90203880D01*
X158243199Y-90196651D01*
X158242540Y-90188543D01*
X158237970Y-90132368D01*
X158237601Y-90125559D01*
X158236055Y-90068402D01*
X158235857Y-90061080D01*
X158234536Y-90056100D01*
X158233500Y-90041637D01*
X158233500Y-88319052D01*
X158253502Y-88250931D01*
X158286332Y-88216473D01*
X158383039Y-88147493D01*
X158383042Y-88147491D01*
X158387243Y-88144494D01*
X158551303Y-87981005D01*
X158565006Y-87961936D01*
X158596151Y-87918592D01*
X158686458Y-87792917D01*
X158689512Y-87786739D01*
X158786784Y-87589922D01*
X158786785Y-87589920D01*
X158789078Y-87585280D01*
X158856408Y-87363671D01*
X158886640Y-87134041D01*
X158888327Y-87065000D01*
X158874110Y-86892076D01*
X158869773Y-86839318D01*
X158869772Y-86839312D01*
X158869349Y-86834167D01*
X158812925Y-86609533D01*
X158749196Y-86462966D01*
X158722630Y-86401868D01*
X158722628Y-86401865D01*
X158720570Y-86397131D01*
X158594764Y-86202665D01*
X158438887Y-86031358D01*
X158434836Y-86028159D01*
X158434832Y-86028155D01*
X158281408Y-85906989D01*
X158240345Y-85849072D01*
X158233500Y-85808107D01*
X158233500Y-72452063D01*
X158234933Y-72433114D01*
X158236690Y-72421565D01*
X158238198Y-72411651D01*
X158236349Y-72388909D01*
X158233915Y-72358991D01*
X158233500Y-72348777D01*
X158233500Y-72340707D01*
X158233078Y-72337087D01*
X158233077Y-72337069D01*
X158230208Y-72312461D01*
X158229775Y-72308086D01*
X158224454Y-72242661D01*
X158224453Y-72242658D01*
X158223860Y-72235363D01*
X158221604Y-72228399D01*
X158220413Y-72222440D01*
X158219029Y-72216585D01*
X158218182Y-72209319D01*
X158193265Y-72140673D01*
X158191848Y-72136545D01*
X158171607Y-72074064D01*
X158171606Y-72074062D01*
X158169351Y-72067101D01*
X158165555Y-72060846D01*
X158163049Y-72055372D01*
X158160330Y-72049942D01*
X158157833Y-72043063D01*
X158117809Y-71982016D01*
X158115472Y-71978312D01*
X158080509Y-71920693D01*
X158080505Y-71920688D01*
X158077595Y-71915892D01*
X158070197Y-71907516D01*
X158070223Y-71907493D01*
X158067574Y-71904503D01*
X158064866Y-71901264D01*
X158060856Y-71895148D01*
X158055549Y-71890121D01*
X158055546Y-71890117D01*
X158004617Y-71841872D01*
X158002175Y-71839494D01*
X155735405Y-69572724D01*
X155701379Y-69510412D01*
X155698500Y-69483629D01*
X155698500Y-62352186D01*
X155701119Y-62330460D01*
X155700630Y-62330386D01*
X155701473Y-62324847D01*
X155702808Y-62319390D01*
X155703500Y-62308236D01*
X155703536Y-62308238D01*
X155703775Y-62304245D01*
X155704149Y-62300053D01*
X155705640Y-62292885D01*
X155703546Y-62215479D01*
X155703500Y-62212072D01*
X155703500Y-59069052D01*
X155723502Y-59000931D01*
X155756332Y-58966473D01*
X155853039Y-58897493D01*
X155853042Y-58897491D01*
X155857243Y-58894494D01*
X155902309Y-58849585D01*
X155964681Y-58815669D01*
X156035487Y-58820857D01*
X156092249Y-58863503D01*
X156109231Y-58894607D01*
X156134385Y-58961705D01*
X156221739Y-59078261D01*
X156338295Y-59165615D01*
X156474684Y-59216745D01*
X156536866Y-59223500D01*
X158433134Y-59223500D01*
X158495316Y-59216745D01*
X158631705Y-59165615D01*
X158748261Y-59078261D01*
X158835615Y-58961705D01*
X158886745Y-58825316D01*
X158893500Y-58763134D01*
X158893500Y-56866866D01*
X158886745Y-56804684D01*
X158835615Y-56668295D01*
X158748261Y-56551739D01*
X158631705Y-56464385D01*
X158495316Y-56413255D01*
X158433134Y-56406500D01*
X156536866Y-56406500D01*
X156474684Y-56413255D01*
X156338295Y-56464385D01*
X156221739Y-56551739D01*
X156134385Y-56668295D01*
X156131233Y-56676703D01*
X156131232Y-56676705D01*
X156110538Y-56731906D01*
X156067897Y-56788671D01*
X156001335Y-56813371D01*
X155931986Y-56798164D01*
X155909167Y-56781666D01*
X155908887Y-56781358D01*
X155751408Y-56656989D01*
X155710345Y-56599072D01*
X155703500Y-56558107D01*
X155703500Y-53412069D01*
X155704933Y-53393118D01*
X155707099Y-53378883D01*
X155707099Y-53378881D01*
X155708199Y-53371651D01*
X155703915Y-53318982D01*
X155703500Y-53308767D01*
X155703500Y-53300707D01*
X155700211Y-53272493D01*
X155699778Y-53268118D01*
X155694454Y-53202661D01*
X155694453Y-53202658D01*
X155693860Y-53195363D01*
X155691604Y-53188399D01*
X155690413Y-53182440D01*
X155689029Y-53176585D01*
X155688182Y-53169319D01*
X155663265Y-53100673D01*
X155661848Y-53096545D01*
X155641607Y-53034064D01*
X155641606Y-53034062D01*
X155639351Y-53027101D01*
X155635555Y-53020846D01*
X155633049Y-53015372D01*
X155630330Y-53009942D01*
X155627833Y-53003063D01*
X155587809Y-52942016D01*
X155585472Y-52938312D01*
X155550509Y-52880693D01*
X155550505Y-52880688D01*
X155547595Y-52875892D01*
X155540197Y-52867516D01*
X155540223Y-52867493D01*
X155537574Y-52864503D01*
X155534866Y-52861264D01*
X155530856Y-52855148D01*
X155525549Y-52850121D01*
X155525546Y-52850117D01*
X155474617Y-52801872D01*
X155472175Y-52799494D01*
X154253770Y-51581089D01*
X154241384Y-51566677D01*
X154232851Y-51555082D01*
X154232846Y-51555077D01*
X154228508Y-51549182D01*
X154222930Y-51544443D01*
X154222927Y-51544440D01*
X154188232Y-51514965D01*
X154180716Y-51508035D01*
X154175021Y-51502340D01*
X154158736Y-51489456D01*
X154152749Y-51484719D01*
X154149345Y-51481928D01*
X154099297Y-51439409D01*
X154099295Y-51439408D01*
X154093715Y-51434667D01*
X154087199Y-51431339D01*
X154082150Y-51427972D01*
X154077021Y-51424805D01*
X154071284Y-51420266D01*
X154005125Y-51389345D01*
X154001225Y-51387439D01*
X153936192Y-51354231D01*
X153929084Y-51352492D01*
X153923441Y-51350393D01*
X153917678Y-51348476D01*
X153911050Y-51345378D01*
X153839583Y-51330513D01*
X153835299Y-51329543D01*
X153764390Y-51312192D01*
X153758788Y-51311844D01*
X153758785Y-51311844D01*
X153753236Y-51311500D01*
X153753238Y-51311464D01*
X153749245Y-51311225D01*
X153745053Y-51310851D01*
X153737885Y-51309360D01*
X153674120Y-51311085D01*
X153660479Y-51311454D01*
X153657072Y-51311500D01*
X151157835Y-51311500D01*
X151150033Y-51311258D01*
X151149501Y-51311225D01*
X151088702Y-51307453D01*
X151075740Y-51309680D01*
X151054404Y-51311500D01*
X144847070Y-51311500D01*
X144828120Y-51310067D01*
X144813885Y-51307901D01*
X144813881Y-51307901D01*
X144806651Y-51306801D01*
X144799359Y-51307394D01*
X144799356Y-51307394D01*
X144753982Y-51311085D01*
X144743767Y-51311500D01*
X144735707Y-51311500D01*
X144732073Y-51311924D01*
X144732067Y-51311924D01*
X144719042Y-51313443D01*
X144707480Y-51314791D01*
X144703132Y-51315221D01*
X144630364Y-51321140D01*
X144623403Y-51323395D01*
X144617463Y-51324582D01*
X144611588Y-51325971D01*
X144604319Y-51326818D01*
X144535670Y-51351736D01*
X144531542Y-51353153D01*
X144469064Y-51373393D01*
X144469062Y-51373394D01*
X144462101Y-51375649D01*
X144455846Y-51379445D01*
X144450372Y-51381951D01*
X144444942Y-51384670D01*
X144438063Y-51387167D01*
X144431943Y-51391180D01*
X144431942Y-51391180D01*
X144377024Y-51427186D01*
X144373320Y-51429523D01*
X144310893Y-51467405D01*
X144302516Y-51474803D01*
X144302492Y-51474776D01*
X144299500Y-51477429D01*
X144296267Y-51480132D01*
X144290148Y-51484144D01*
X144260951Y-51514965D01*
X144236872Y-51540383D01*
X144234494Y-51542825D01*
X141801089Y-53976230D01*
X141786677Y-53988616D01*
X141775082Y-53997149D01*
X141775077Y-53997154D01*
X141769182Y-54001492D01*
X141764443Y-54007070D01*
X141764440Y-54007073D01*
X141734965Y-54041768D01*
X141728035Y-54049284D01*
X141722340Y-54054979D01*
X141720060Y-54057861D01*
X141704719Y-54077251D01*
X141701928Y-54080655D01*
X141659409Y-54130703D01*
X141654667Y-54136285D01*
X141651339Y-54142801D01*
X141647972Y-54147850D01*
X141644805Y-54152979D01*
X141640266Y-54158716D01*
X141609345Y-54224875D01*
X141607442Y-54228769D01*
X141574231Y-54293808D01*
X141572492Y-54300916D01*
X141570393Y-54306559D01*
X141568476Y-54312322D01*
X141565378Y-54318950D01*
X141563888Y-54326112D01*
X141563888Y-54326113D01*
X141550514Y-54390412D01*
X141549544Y-54394696D01*
X141532192Y-54465610D01*
X141531844Y-54471212D01*
X141531844Y-54471215D01*
X141531741Y-54472882D01*
X141531500Y-54476764D01*
X141531464Y-54476762D01*
X141531225Y-54480755D01*
X141530851Y-54484947D01*
X141529360Y-54492115D01*
X141529713Y-54505150D01*
X141531454Y-54569521D01*
X141531500Y-54572928D01*
X141531500Y-56560127D01*
X141511498Y-56628248D01*
X141481154Y-56660886D01*
X141471286Y-56668295D01*
X141386565Y-56731906D01*
X141351655Y-56758117D01*
X141191639Y-56925564D01*
X141188725Y-56929836D01*
X141139835Y-57001505D01*
X141084923Y-57046507D01*
X141035747Y-57056500D01*
X132752063Y-57056500D01*
X132733114Y-57055067D01*
X132732907Y-57055036D01*
X132711651Y-57051802D01*
X132704359Y-57052395D01*
X132704356Y-57052395D01*
X132658991Y-57056085D01*
X132648777Y-57056500D01*
X132640707Y-57056500D01*
X132637087Y-57056922D01*
X132637069Y-57056923D01*
X132612461Y-57059792D01*
X132608100Y-57060224D01*
X132582981Y-57062267D01*
X132542661Y-57065546D01*
X132542658Y-57065547D01*
X132535363Y-57066140D01*
X132528399Y-57068396D01*
X132522440Y-57069587D01*
X132516585Y-57070971D01*
X132509319Y-57071818D01*
X132440673Y-57096735D01*
X132436545Y-57098152D01*
X132374064Y-57118393D01*
X132374062Y-57118394D01*
X132367101Y-57120649D01*
X132360846Y-57124445D01*
X132355372Y-57126951D01*
X132349942Y-57129670D01*
X132343063Y-57132167D01*
X132282016Y-57172191D01*
X132278327Y-57174518D01*
X132265263Y-57182446D01*
X132220693Y-57209491D01*
X132220688Y-57209495D01*
X132215892Y-57212405D01*
X132207516Y-57219803D01*
X132207493Y-57219777D01*
X132204503Y-57222426D01*
X132201264Y-57225134D01*
X132195148Y-57229144D01*
X132190121Y-57234451D01*
X132190117Y-57234454D01*
X132141872Y-57285383D01*
X132139494Y-57287825D01*
X129970089Y-59457230D01*
X129955677Y-59469616D01*
X129944082Y-59478149D01*
X129944077Y-59478154D01*
X129938182Y-59482492D01*
X129933443Y-59488070D01*
X129933440Y-59488073D01*
X129903965Y-59522768D01*
X129897035Y-59530284D01*
X129891340Y-59535979D01*
X129889060Y-59538861D01*
X129873719Y-59558251D01*
X129870928Y-59561655D01*
X129829935Y-59609907D01*
X129823667Y-59617285D01*
X129820338Y-59623804D01*
X129816970Y-59628854D01*
X129813804Y-59633980D01*
X129810760Y-59637828D01*
X129810360Y-59638187D01*
X129809865Y-59638958D01*
X129809287Y-59639689D01*
X129808968Y-59639437D01*
X129759447Y-59683928D01*
X129705058Y-59696271D01*
X129690000Y-59696271D01*
X129681024Y-59696913D01*
X129623627Y-59701018D01*
X129623626Y-59701018D01*
X129616889Y-59701500D01*
X129580560Y-59712167D01*
X129527132Y-59715988D01*
X129390000Y-59696271D01*
X128899992Y-59696271D01*
X128899222Y-59696269D01*
X128829069Y-59695840D01*
X128829063Y-59695840D01*
X128824583Y-59695813D01*
X128775648Y-59702516D01*
X128705445Y-59691942D01*
X128669457Y-59666776D01*
X127033770Y-58031089D01*
X127021384Y-58016677D01*
X127012851Y-58005082D01*
X127012846Y-58005077D01*
X127008508Y-57999182D01*
X127002930Y-57994443D01*
X127002927Y-57994440D01*
X126968232Y-57964965D01*
X126960716Y-57958035D01*
X126955021Y-57952340D01*
X126948880Y-57947482D01*
X126932749Y-57934719D01*
X126929345Y-57931928D01*
X126879297Y-57889409D01*
X126879295Y-57889408D01*
X126873715Y-57884667D01*
X126867199Y-57881339D01*
X126862150Y-57877972D01*
X126857021Y-57874805D01*
X126851284Y-57870266D01*
X126785125Y-57839345D01*
X126781225Y-57837439D01*
X126742508Y-57817669D01*
X126696596Y-57777722D01*
X126650912Y-57712478D01*
X126650907Y-57712472D01*
X126647749Y-57707962D01*
X126492038Y-57552251D01*
X126455791Y-57526870D01*
X126412759Y-57496739D01*
X126311654Y-57425944D01*
X126306672Y-57423621D01*
X126306667Y-57423618D01*
X126179232Y-57364195D01*
X126125947Y-57317278D01*
X126106486Y-57249001D01*
X126127028Y-57181041D01*
X126179232Y-57135805D01*
X126306667Y-57076382D01*
X126306672Y-57076379D01*
X126311654Y-57074056D01*
X126415267Y-57001505D01*
X126487527Y-56950908D01*
X126487529Y-56950906D01*
X126492038Y-56947749D01*
X126647749Y-56792038D01*
X126652616Y-56785088D01*
X126770899Y-56616162D01*
X126770900Y-56616160D01*
X126774056Y-56611653D01*
X126776379Y-56606671D01*
X126776382Y-56606666D01*
X126864795Y-56417061D01*
X126867120Y-56412076D01*
X126924115Y-56199371D01*
X126943307Y-55980000D01*
X126924115Y-55760629D01*
X126867120Y-55547924D01*
X126794403Y-55391981D01*
X126776382Y-55353334D01*
X126776379Y-55353329D01*
X126774056Y-55348347D01*
X126748342Y-55311623D01*
X126650908Y-55172473D01*
X126650906Y-55172470D01*
X126647749Y-55167962D01*
X126492038Y-55012251D01*
X126467169Y-54994837D01*
X126374342Y-54929839D01*
X126311654Y-54885944D01*
X126112076Y-54792880D01*
X125899371Y-54735885D01*
X125680000Y-54716693D01*
X125460629Y-54735885D01*
X125247924Y-54792880D01*
X125154562Y-54836415D01*
X125053334Y-54883618D01*
X125053329Y-54883621D01*
X125048347Y-54885944D01*
X125043840Y-54889100D01*
X125043838Y-54889101D01*
X124872473Y-55009092D01*
X124872470Y-55009094D01*
X124867962Y-55012251D01*
X124712251Y-55167962D01*
X124709094Y-55172471D01*
X124705716Y-55176496D01*
X124646605Y-55215819D01*
X124609198Y-55221500D01*
X123060939Y-55221500D01*
X122992818Y-55201498D01*
X122955147Y-55163941D01*
X122948022Y-55152926D01*
X122945014Y-55148277D01*
X122794670Y-54983051D01*
X122790619Y-54979852D01*
X122790615Y-54979848D01*
X122623414Y-54847800D01*
X122623410Y-54847798D01*
X122619359Y-54844598D01*
X122587218Y-54826855D01*
X122529883Y-54795205D01*
X122423789Y-54736638D01*
X122418920Y-54734914D01*
X122418916Y-54734912D01*
X122218087Y-54663795D01*
X122218083Y-54663794D01*
X122213212Y-54662069D01*
X122208119Y-54661162D01*
X122208116Y-54661161D01*
X121998373Y-54623800D01*
X121998367Y-54623799D01*
X121993284Y-54622894D01*
X121919452Y-54621992D01*
X121775081Y-54620228D01*
X121775079Y-54620228D01*
X121769911Y-54620165D01*
X121549091Y-54653955D01*
X121336756Y-54723357D01*
X121301514Y-54741703D01*
X121197837Y-54795674D01*
X121138607Y-54826507D01*
X121134474Y-54829610D01*
X121134471Y-54829612D01*
X120964100Y-54957530D01*
X120959965Y-54960635D01*
X120805629Y-55122138D01*
X120802715Y-55126410D01*
X120802714Y-55126411D01*
X120697898Y-55280066D01*
X120642987Y-55325069D01*
X120572462Y-55333240D01*
X120508715Y-55301986D01*
X120488018Y-55277502D01*
X120407426Y-55152926D01*
X120401136Y-55144757D01*
X120257806Y-54987240D01*
X120250273Y-54980215D01*
X120083139Y-54848222D01*
X120074552Y-54842517D01*
X119888117Y-54739599D01*
X119878705Y-54735369D01*
X119677959Y-54664280D01*
X119667988Y-54661646D01*
X119596837Y-54648972D01*
X119583540Y-54650432D01*
X119579000Y-54664989D01*
X119579000Y-56108000D01*
X119558998Y-56176121D01*
X119505342Y-56222614D01*
X119453000Y-56234000D01*
X118008225Y-56234000D01*
X117994694Y-56237973D01*
X117993257Y-56247966D01*
X118023565Y-56382446D01*
X118026645Y-56392275D01*
X118106770Y-56589603D01*
X118111413Y-56598794D01*
X118222694Y-56780388D01*
X118228777Y-56788699D01*
X118368213Y-56949667D01*
X118375580Y-56956883D01*
X118539434Y-57092916D01*
X118547881Y-57098831D01*
X118616969Y-57139203D01*
X118665693Y-57190842D01*
X118678764Y-57260625D01*
X118652033Y-57326396D01*
X118611584Y-57359752D01*
X118598607Y-57366507D01*
X118594474Y-57369610D01*
X118594471Y-57369612D01*
X118570247Y-57387800D01*
X118419965Y-57500635D01*
X118265629Y-57662138D01*
X118235363Y-57706507D01*
X118180455Y-57751507D01*
X118131277Y-57761500D01*
X116590802Y-57761500D01*
X116522681Y-57741498D01*
X116494284Y-57716496D01*
X116490906Y-57712471D01*
X116487749Y-57707962D01*
X116332038Y-57552251D01*
X116295791Y-57526870D01*
X116252759Y-57496739D01*
X116151654Y-57425944D01*
X116146672Y-57423621D01*
X116146667Y-57423618D01*
X116018641Y-57363919D01*
X115965356Y-57317002D01*
X115945895Y-57248724D01*
X115966437Y-57180764D01*
X116018641Y-57135529D01*
X116146416Y-57075947D01*
X116155912Y-57070464D01*
X116197148Y-57041590D01*
X116205523Y-57031112D01*
X116198457Y-57017668D01*
X115532811Y-56352021D01*
X115518868Y-56344408D01*
X115517034Y-56344539D01*
X115510420Y-56348790D01*
X114840820Y-57018391D01*
X114834393Y-57030161D01*
X114843687Y-57042175D01*
X114884088Y-57070464D01*
X114893584Y-57075947D01*
X115021359Y-57135529D01*
X115074644Y-57182446D01*
X115094105Y-57250724D01*
X115073563Y-57318684D01*
X115021359Y-57363919D01*
X114893334Y-57423618D01*
X114893329Y-57423621D01*
X114888347Y-57425944D01*
X114883840Y-57429100D01*
X114883838Y-57429101D01*
X114712473Y-57549092D01*
X114712470Y-57549094D01*
X114707962Y-57552251D01*
X114552251Y-57707962D01*
X114549094Y-57712470D01*
X114549092Y-57712473D01*
X114432785Y-57878577D01*
X114425944Y-57888347D01*
X114423621Y-57893329D01*
X114423618Y-57893334D01*
X114376472Y-57994440D01*
X114332880Y-58087924D01*
X114275885Y-58300629D01*
X114256693Y-58520000D01*
X114275885Y-58739371D01*
X114332880Y-58952076D01*
X114361452Y-59013349D01*
X114423618Y-59146666D01*
X114423621Y-59146671D01*
X114425944Y-59151653D01*
X114429100Y-59156160D01*
X114429101Y-59156162D01*
X114547740Y-59325595D01*
X114552251Y-59332038D01*
X114707962Y-59487749D01*
X114712471Y-59490906D01*
X114712473Y-59490908D01*
X114768708Y-59530284D01*
X114888346Y-59614056D01*
X114893328Y-59616379D01*
X114893333Y-59616382D01*
X115020768Y-59675805D01*
X115074053Y-59722722D01*
X115093514Y-59790999D01*
X115072972Y-59858959D01*
X115020768Y-59904195D01*
X114893334Y-59963618D01*
X114893329Y-59963621D01*
X114888347Y-59965944D01*
X114883840Y-59969100D01*
X114883838Y-59969101D01*
X114712473Y-60089092D01*
X114712470Y-60089094D01*
X114707962Y-60092251D01*
X114552251Y-60247962D01*
X114549094Y-60252470D01*
X114549092Y-60252473D01*
X114429101Y-60423838D01*
X114425944Y-60428347D01*
X114423621Y-60433329D01*
X114423618Y-60433334D01*
X114376415Y-60534562D01*
X114332880Y-60627924D01*
X114275885Y-60840629D01*
X114256693Y-61060000D01*
X114275885Y-61279371D01*
X114332880Y-61492076D01*
X114358981Y-61548049D01*
X114423618Y-61686666D01*
X114423621Y-61686671D01*
X114425944Y-61691653D01*
X114429100Y-61696160D01*
X114429101Y-61696162D01*
X114547740Y-61865595D01*
X114552251Y-61872038D01*
X114707962Y-62027749D01*
X114712471Y-62030906D01*
X114712473Y-62030908D01*
X114721516Y-62037240D01*
X114888346Y-62154056D01*
X114893328Y-62156379D01*
X114893333Y-62156382D01*
X115021359Y-62216081D01*
X115074644Y-62262998D01*
X115094105Y-62331276D01*
X115073563Y-62399236D01*
X115021359Y-62444471D01*
X114893583Y-62504054D01*
X114884093Y-62509534D01*
X114842851Y-62538411D01*
X114834477Y-62548887D01*
X114841545Y-62562334D01*
X115507189Y-63227979D01*
X115521132Y-63235592D01*
X115522966Y-63235461D01*
X115529580Y-63231210D01*
X116199180Y-62561609D01*
X116205607Y-62549839D01*
X116196313Y-62537825D01*
X116155912Y-62509536D01*
X116146416Y-62504053D01*
X116018641Y-62444471D01*
X115965356Y-62397554D01*
X115945895Y-62329276D01*
X115966437Y-62261316D01*
X116018641Y-62216081D01*
X116146667Y-62156382D01*
X116146672Y-62156379D01*
X116151654Y-62154056D01*
X116318484Y-62037240D01*
X116327527Y-62030908D01*
X116327529Y-62030906D01*
X116332038Y-62027749D01*
X116487749Y-61872038D01*
X116490908Y-61867527D01*
X116494284Y-61863504D01*
X116553395Y-61824181D01*
X116590802Y-61818500D01*
X118127491Y-61818500D01*
X118195612Y-61838502D01*
X118224402Y-61865595D01*
X118224987Y-61865088D01*
X118371250Y-62033938D01*
X118543126Y-62176632D01*
X118596520Y-62207833D01*
X118616955Y-62219774D01*
X118665679Y-62271412D01*
X118678750Y-62341195D01*
X118652019Y-62406967D01*
X118611562Y-62440327D01*
X118603457Y-62444546D01*
X118594738Y-62450036D01*
X118424433Y-62577905D01*
X118416726Y-62584748D01*
X118269590Y-62738717D01*
X118263104Y-62746727D01*
X118143098Y-62922649D01*
X118138000Y-62931623D01*
X118048338Y-63124783D01*
X118044775Y-63134470D01*
X117989389Y-63334183D01*
X117990912Y-63342607D01*
X118003292Y-63346000D01*
X119453000Y-63346000D01*
X119521121Y-63366002D01*
X119567614Y-63419658D01*
X119579000Y-63472000D01*
X119579000Y-63728000D01*
X119558998Y-63796121D01*
X119505342Y-63842614D01*
X119453000Y-63854000D01*
X118008225Y-63854000D01*
X117994694Y-63857973D01*
X117993257Y-63867966D01*
X118023565Y-64002446D01*
X118026645Y-64012275D01*
X118106770Y-64209603D01*
X118111413Y-64218794D01*
X118222694Y-64400388D01*
X118228777Y-64408699D01*
X118368213Y-64569667D01*
X118375580Y-64576883D01*
X118539434Y-64712916D01*
X118547881Y-64718831D01*
X118616969Y-64759203D01*
X118665693Y-64810842D01*
X118678764Y-64880625D01*
X118652033Y-64946396D01*
X118611584Y-64979752D01*
X118598607Y-64986507D01*
X118594474Y-64989610D01*
X118594471Y-64989612D01*
X118473502Y-65080438D01*
X118419965Y-65120635D01*
X118265629Y-65282138D01*
X118235363Y-65326507D01*
X118180455Y-65371507D01*
X118131277Y-65381500D01*
X116590802Y-65381500D01*
X116522681Y-65361498D01*
X116494284Y-65336496D01*
X116490906Y-65332471D01*
X116487749Y-65327962D01*
X116332038Y-65172251D01*
X116295791Y-65146870D01*
X116200916Y-65080438D01*
X116151654Y-65045944D01*
X116146672Y-65043621D01*
X116146667Y-65043618D01*
X116018641Y-64983919D01*
X115965356Y-64937002D01*
X115945895Y-64868724D01*
X115966437Y-64800764D01*
X116018641Y-64755529D01*
X116146416Y-64695947D01*
X116155912Y-64690464D01*
X116197148Y-64661590D01*
X116205523Y-64651112D01*
X116198457Y-64637668D01*
X115532811Y-63972021D01*
X115518868Y-63964408D01*
X115517034Y-63964539D01*
X115510420Y-63968790D01*
X114840820Y-64638391D01*
X114834393Y-64650161D01*
X114843687Y-64662175D01*
X114884088Y-64690464D01*
X114893584Y-64695947D01*
X115021359Y-64755529D01*
X115074644Y-64802446D01*
X115094105Y-64870724D01*
X115073563Y-64938684D01*
X115021359Y-64983919D01*
X114893334Y-65043618D01*
X114893329Y-65043621D01*
X114888347Y-65045944D01*
X114883840Y-65049100D01*
X114883838Y-65049101D01*
X114712473Y-65169092D01*
X114712470Y-65169094D01*
X114707962Y-65172251D01*
X114552251Y-65327962D01*
X114549094Y-65332470D01*
X114549092Y-65332473D01*
X114433435Y-65497649D01*
X114425944Y-65508347D01*
X114423621Y-65513329D01*
X114423618Y-65513334D01*
X114402868Y-65557833D01*
X114332880Y-65707924D01*
X114275885Y-65920629D01*
X114256693Y-66140000D01*
X114275885Y-66359371D01*
X114332880Y-66572076D01*
X114365089Y-66641148D01*
X114423618Y-66766666D01*
X114423621Y-66766671D01*
X114425944Y-66771653D01*
X114429100Y-66776160D01*
X114429101Y-66776162D01*
X114547740Y-66945595D01*
X114552251Y-66952038D01*
X114707962Y-67107749D01*
X114712471Y-67110906D01*
X114712473Y-67110908D01*
X114721516Y-67117240D01*
X114888346Y-67234056D01*
X114893328Y-67236379D01*
X114893333Y-67236382D01*
X115020768Y-67295805D01*
X115074053Y-67342722D01*
X115093514Y-67410999D01*
X115072972Y-67478959D01*
X115020768Y-67524195D01*
X114893334Y-67583618D01*
X114893329Y-67583621D01*
X114888347Y-67585944D01*
X114883840Y-67589100D01*
X114883838Y-67589101D01*
X114712473Y-67709092D01*
X114712470Y-67709094D01*
X114707962Y-67712251D01*
X114552251Y-67867962D01*
X114549094Y-67872470D01*
X114549092Y-67872473D01*
X114429101Y-68043838D01*
X114425944Y-68048347D01*
X114423621Y-68053329D01*
X114423618Y-68053334D01*
X114406461Y-68090128D01*
X114332880Y-68247924D01*
X114275885Y-68460629D01*
X114256693Y-68680000D01*
X114275885Y-68899371D01*
X114332880Y-69112076D01*
X114358921Y-69167921D01*
X114423618Y-69306666D01*
X114423621Y-69306671D01*
X114425944Y-69311653D01*
X114429100Y-69316160D01*
X114429101Y-69316162D01*
X114547740Y-69485595D01*
X114552251Y-69492038D01*
X114707962Y-69647749D01*
X114712471Y-69650906D01*
X114712473Y-69650908D01*
X114776897Y-69696018D01*
X114888346Y-69774056D01*
X114893328Y-69776379D01*
X114893333Y-69776382D01*
X115021359Y-69836081D01*
X115074644Y-69882998D01*
X115094105Y-69951276D01*
X115073563Y-70019236D01*
X115021359Y-70064471D01*
X114893583Y-70124054D01*
X114884093Y-70129534D01*
X114842851Y-70158411D01*
X114834477Y-70168887D01*
X114841545Y-70182334D01*
X115507189Y-70847979D01*
X115521132Y-70855592D01*
X115522966Y-70855461D01*
X115529580Y-70851210D01*
X116199180Y-70181609D01*
X116205607Y-70169839D01*
X116196313Y-70157825D01*
X116155912Y-70129536D01*
X116146416Y-70124053D01*
X116018641Y-70064471D01*
X115965356Y-70017554D01*
X115945895Y-69949276D01*
X115966437Y-69881316D01*
X116018641Y-69836081D01*
X116146667Y-69776382D01*
X116146672Y-69776379D01*
X116151654Y-69774056D01*
X116263103Y-69696018D01*
X116327527Y-69650908D01*
X116327529Y-69650906D01*
X116332038Y-69647749D01*
X116487749Y-69492038D01*
X116490908Y-69487527D01*
X116494284Y-69483504D01*
X116553395Y-69444181D01*
X116590802Y-69438500D01*
X118127491Y-69438500D01*
X118195612Y-69458502D01*
X118224402Y-69485595D01*
X118224987Y-69485088D01*
X118371250Y-69653938D01*
X118543126Y-69796632D01*
X118610163Y-69835805D01*
X118616955Y-69839774D01*
X118665679Y-69891412D01*
X118678750Y-69961195D01*
X118652019Y-70026967D01*
X118611562Y-70060327D01*
X118603457Y-70064546D01*
X118594738Y-70070036D01*
X118424433Y-70197905D01*
X118416726Y-70204748D01*
X118269590Y-70358717D01*
X118263104Y-70366727D01*
X118143098Y-70542649D01*
X118138000Y-70551623D01*
X118048338Y-70744783D01*
X118044775Y-70754470D01*
X117989389Y-70954183D01*
X117990912Y-70962607D01*
X118003292Y-70966000D01*
X119453000Y-70966000D01*
X119521121Y-70986002D01*
X119567614Y-71039658D01*
X119579000Y-71092000D01*
X119579000Y-71348000D01*
X119558998Y-71416121D01*
X119505342Y-71462614D01*
X119453000Y-71474000D01*
X118008225Y-71474000D01*
X117994694Y-71477973D01*
X117993257Y-71487966D01*
X118023565Y-71622446D01*
X118026645Y-71632275D01*
X118106770Y-71829603D01*
X118111413Y-71838794D01*
X118222694Y-72020388D01*
X118228777Y-72028699D01*
X118368213Y-72189667D01*
X118375580Y-72196883D01*
X118539434Y-72332916D01*
X118547881Y-72338831D01*
X118616969Y-72379203D01*
X118665693Y-72430842D01*
X118678764Y-72500625D01*
X118652033Y-72566396D01*
X118611584Y-72599752D01*
X118598607Y-72606507D01*
X118594474Y-72609610D01*
X118594471Y-72609612D01*
X118424100Y-72737530D01*
X118419965Y-72740635D01*
X118362889Y-72800361D01*
X118287411Y-72879345D01*
X118265629Y-72902138D01*
X118262720Y-72906403D01*
X118262714Y-72906411D01*
X118167149Y-73046504D01*
X118112238Y-73091507D01*
X118063061Y-73101500D01*
X116659729Y-73101500D01*
X116591608Y-73081498D01*
X116556516Y-73047771D01*
X116490908Y-72954073D01*
X116490906Y-72954070D01*
X116487749Y-72949562D01*
X116332038Y-72793851D01*
X116325242Y-72789092D01*
X116189835Y-72694279D01*
X116151654Y-72667544D01*
X116146672Y-72665221D01*
X116146667Y-72665218D01*
X116016925Y-72604719D01*
X115963640Y-72557802D01*
X115944179Y-72489525D01*
X115964721Y-72421565D01*
X116016925Y-72376329D01*
X116146416Y-72315947D01*
X116155912Y-72310464D01*
X116197148Y-72281590D01*
X116205523Y-72271112D01*
X116198457Y-72257668D01*
X115532811Y-71592021D01*
X115518868Y-71584408D01*
X115517034Y-71584539D01*
X115510420Y-71588790D01*
X114840820Y-72258391D01*
X114834393Y-72270161D01*
X114843687Y-72282175D01*
X114884088Y-72310464D01*
X114893584Y-72315947D01*
X115023075Y-72376329D01*
X115076360Y-72423246D01*
X115095821Y-72491523D01*
X115075279Y-72559483D01*
X115023075Y-72604719D01*
X114893334Y-72665218D01*
X114893329Y-72665221D01*
X114888347Y-72667544D01*
X114883840Y-72670700D01*
X114883838Y-72670701D01*
X114712473Y-72790692D01*
X114712470Y-72790694D01*
X114707962Y-72793851D01*
X114552251Y-72949562D01*
X114549094Y-72954070D01*
X114549092Y-72954073D01*
X114429101Y-73125438D01*
X114425944Y-73129947D01*
X114423621Y-73134929D01*
X114423618Y-73134934D01*
X114397456Y-73191039D01*
X114332880Y-73329524D01*
X114275885Y-73542229D01*
X114256693Y-73761600D01*
X114275885Y-73980971D01*
X114332880Y-74193676D01*
X114359673Y-74251134D01*
X114423618Y-74388266D01*
X114423621Y-74388271D01*
X114425944Y-74393253D01*
X114429100Y-74397760D01*
X114429101Y-74397762D01*
X114546013Y-74564729D01*
X114552251Y-74573638D01*
X114707962Y-74729349D01*
X114712471Y-74732506D01*
X114712473Y-74732508D01*
X114776648Y-74777444D01*
X114888346Y-74855656D01*
X114893331Y-74857980D01*
X114893337Y-74857984D01*
X115019052Y-74916605D01*
X115072338Y-74963522D01*
X115091799Y-75031799D01*
X115071257Y-75099759D01*
X115019053Y-75144995D01*
X114893334Y-75203618D01*
X114893329Y-75203621D01*
X114888347Y-75205944D01*
X114883840Y-75209100D01*
X114883838Y-75209101D01*
X114712473Y-75329092D01*
X114712470Y-75329094D01*
X114707962Y-75332251D01*
X114552251Y-75487962D01*
X114549094Y-75492470D01*
X114549092Y-75492473D01*
X114434528Y-75656088D01*
X114425944Y-75668347D01*
X114423621Y-75673329D01*
X114423618Y-75673334D01*
X114397761Y-75728785D01*
X114332880Y-75867924D01*
X114275885Y-76080629D01*
X114256693Y-76300000D01*
X114257172Y-76305475D01*
X114257172Y-76305476D01*
X114266908Y-76416761D01*
X114252919Y-76486365D01*
X114230482Y-76516837D01*
X112483595Y-78263724D01*
X112421283Y-78297750D01*
X112350468Y-78292685D01*
X112293632Y-78250138D01*
X112268821Y-78183618D01*
X112268500Y-78174629D01*
X112268500Y-71225475D01*
X114257674Y-71225475D01*
X114275901Y-71433804D01*
X114277804Y-71444599D01*
X114331928Y-71646595D01*
X114335674Y-71656887D01*
X114424054Y-71846417D01*
X114429534Y-71855907D01*
X114458411Y-71897149D01*
X114468887Y-71905523D01*
X114482334Y-71898455D01*
X115147979Y-71232811D01*
X115154356Y-71221132D01*
X115884408Y-71221132D01*
X115884539Y-71222966D01*
X115888790Y-71229580D01*
X116558391Y-71899180D01*
X116570161Y-71905607D01*
X116582176Y-71896311D01*
X116610466Y-71855907D01*
X116615946Y-71846417D01*
X116704326Y-71656887D01*
X116708072Y-71646595D01*
X116762196Y-71444599D01*
X116764099Y-71433804D01*
X116782326Y-71225475D01*
X116782326Y-71214525D01*
X116764099Y-71006196D01*
X116762196Y-70995401D01*
X116708072Y-70793405D01*
X116704326Y-70783113D01*
X116615946Y-70593583D01*
X116610466Y-70584093D01*
X116581589Y-70542851D01*
X116571113Y-70534477D01*
X116557666Y-70541545D01*
X115892021Y-71207189D01*
X115884408Y-71221132D01*
X115154356Y-71221132D01*
X115155592Y-71218868D01*
X115155461Y-71217034D01*
X115151210Y-71210420D01*
X114481609Y-70540820D01*
X114469839Y-70534393D01*
X114457824Y-70543689D01*
X114429534Y-70584093D01*
X114424054Y-70593583D01*
X114335674Y-70783113D01*
X114331928Y-70793405D01*
X114277804Y-70995401D01*
X114275901Y-71006196D01*
X114257674Y-71214525D01*
X114257674Y-71225475D01*
X112268500Y-71225475D01*
X112268500Y-63605475D01*
X114257674Y-63605475D01*
X114275901Y-63813804D01*
X114277804Y-63824599D01*
X114331928Y-64026595D01*
X114335674Y-64036887D01*
X114424054Y-64226417D01*
X114429534Y-64235907D01*
X114458411Y-64277149D01*
X114468887Y-64285523D01*
X114482334Y-64278455D01*
X115147979Y-63612811D01*
X115154356Y-63601132D01*
X115884408Y-63601132D01*
X115884539Y-63602966D01*
X115888790Y-63609580D01*
X116558391Y-64279180D01*
X116570161Y-64285607D01*
X116582176Y-64276311D01*
X116610466Y-64235907D01*
X116615946Y-64226417D01*
X116704326Y-64036887D01*
X116708072Y-64026595D01*
X116762196Y-63824599D01*
X116764099Y-63813804D01*
X116782326Y-63605475D01*
X116782326Y-63594525D01*
X116764099Y-63386196D01*
X116762196Y-63375401D01*
X116708072Y-63173405D01*
X116704326Y-63163113D01*
X116615946Y-62973583D01*
X116610466Y-62964093D01*
X116581589Y-62922851D01*
X116571113Y-62914477D01*
X116557666Y-62921545D01*
X115892021Y-63587189D01*
X115884408Y-63601132D01*
X115154356Y-63601132D01*
X115155592Y-63598868D01*
X115155461Y-63597034D01*
X115151210Y-63590420D01*
X114481609Y-62920820D01*
X114469839Y-62914393D01*
X114457824Y-62923689D01*
X114429534Y-62964093D01*
X114424054Y-62973583D01*
X114335674Y-63163113D01*
X114331928Y-63173405D01*
X114277804Y-63375401D01*
X114275901Y-63386196D01*
X114257674Y-63594525D01*
X114257674Y-63605475D01*
X112268500Y-63605475D01*
X112268500Y-55985475D01*
X114257674Y-55985475D01*
X114275901Y-56193804D01*
X114277804Y-56204599D01*
X114331928Y-56406595D01*
X114335674Y-56416887D01*
X114424054Y-56606417D01*
X114429534Y-56615907D01*
X114458411Y-56657149D01*
X114468887Y-56665523D01*
X114482334Y-56658455D01*
X115147979Y-55992811D01*
X115154356Y-55981132D01*
X115884408Y-55981132D01*
X115884539Y-55982966D01*
X115888790Y-55989580D01*
X116558391Y-56659180D01*
X116570161Y-56665607D01*
X116582176Y-56656311D01*
X116610466Y-56615907D01*
X116615946Y-56606417D01*
X116704326Y-56416887D01*
X116708072Y-56406595D01*
X116762196Y-56204599D01*
X116764099Y-56193804D01*
X116782326Y-55985475D01*
X116782326Y-55974525D01*
X116764099Y-55766196D01*
X116762196Y-55755401D01*
X116751152Y-55714183D01*
X117989389Y-55714183D01*
X117990912Y-55722607D01*
X118003292Y-55726000D01*
X119052885Y-55726000D01*
X119068124Y-55721525D01*
X119069329Y-55720135D01*
X119071000Y-55712452D01*
X119071000Y-54663102D01*
X119067082Y-54649758D01*
X119052806Y-54647771D01*
X119014324Y-54653660D01*
X119004288Y-54656051D01*
X118801868Y-54722212D01*
X118792359Y-54726209D01*
X118603463Y-54824542D01*
X118594738Y-54830036D01*
X118424433Y-54957905D01*
X118416726Y-54964748D01*
X118269590Y-55118717D01*
X118263104Y-55126727D01*
X118143098Y-55302649D01*
X118138000Y-55311623D01*
X118048338Y-55504783D01*
X118044775Y-55514470D01*
X117989389Y-55714183D01*
X116751152Y-55714183D01*
X116708072Y-55553405D01*
X116704326Y-55543113D01*
X116615946Y-55353583D01*
X116610466Y-55344093D01*
X116581589Y-55302851D01*
X116571113Y-55294477D01*
X116557666Y-55301545D01*
X115892021Y-55967189D01*
X115884408Y-55981132D01*
X115154356Y-55981132D01*
X115155592Y-55978868D01*
X115155461Y-55977034D01*
X115151210Y-55970420D01*
X114481609Y-55300820D01*
X114469839Y-55294393D01*
X114457824Y-55303689D01*
X114429534Y-55344093D01*
X114424054Y-55353583D01*
X114335674Y-55543113D01*
X114331928Y-55553405D01*
X114277804Y-55755401D01*
X114275901Y-55766196D01*
X114257674Y-55974525D01*
X114257674Y-55985475D01*
X112268500Y-55985475D01*
X112268500Y-54928887D01*
X114834477Y-54928887D01*
X114841545Y-54942334D01*
X115507189Y-55607979D01*
X115521132Y-55615592D01*
X115522966Y-55615461D01*
X115529580Y-55611210D01*
X116199180Y-54941609D01*
X116205607Y-54929839D01*
X116196313Y-54917825D01*
X116155912Y-54889536D01*
X116146416Y-54884053D01*
X115956887Y-54795674D01*
X115946595Y-54791928D01*
X115744599Y-54737804D01*
X115733804Y-54735901D01*
X115525475Y-54717674D01*
X115514525Y-54717674D01*
X115306196Y-54735901D01*
X115295401Y-54737804D01*
X115093405Y-54791928D01*
X115083113Y-54795674D01*
X114893583Y-54884054D01*
X114884093Y-54889534D01*
X114842851Y-54918411D01*
X114834477Y-54928887D01*
X112268500Y-54928887D01*
X112268500Y-47624500D01*
X112288502Y-47556379D01*
X112342158Y-47509886D01*
X112394500Y-47498500D01*
X159385500Y-47498500D01*
X159453621Y-47518502D01*
G37*
%TD.AperFunction*%
%TA.AperFunction,Conductor*%
G36*
X118195612Y-84698502D02*
G01*
X118224402Y-84725595D01*
X118224987Y-84725088D01*
X118371250Y-84893938D01*
X118512130Y-85010899D01*
X118537505Y-85031965D01*
X118543126Y-85036632D01*
X118610163Y-85075805D01*
X118616955Y-85079774D01*
X118665679Y-85131412D01*
X118678750Y-85201195D01*
X118652019Y-85266967D01*
X118611562Y-85300327D01*
X118603457Y-85304546D01*
X118594738Y-85310036D01*
X118424433Y-85437905D01*
X118416726Y-85444748D01*
X118269590Y-85598717D01*
X118263104Y-85606727D01*
X118143098Y-85782649D01*
X118138000Y-85791623D01*
X118048338Y-85984783D01*
X118044775Y-85994470D01*
X117989389Y-86194183D01*
X117990912Y-86202607D01*
X118003292Y-86206000D01*
X119453000Y-86206000D01*
X119521121Y-86226002D01*
X119567614Y-86279658D01*
X119579000Y-86332000D01*
X119579000Y-86588000D01*
X119558998Y-86656121D01*
X119505342Y-86702614D01*
X119453000Y-86714000D01*
X118008225Y-86714000D01*
X117994694Y-86717973D01*
X117993257Y-86727966D01*
X118023565Y-86862446D01*
X118026645Y-86872275D01*
X118106770Y-87069603D01*
X118111413Y-87078794D01*
X118222694Y-87260388D01*
X118228777Y-87268699D01*
X118368213Y-87429667D01*
X118375577Y-87436879D01*
X118380522Y-87440985D01*
X118420156Y-87499889D01*
X118421653Y-87570870D01*
X118384537Y-87631392D01*
X118344264Y-87655910D01*
X118236705Y-87696232D01*
X118236704Y-87696233D01*
X118228295Y-87699385D01*
X118111739Y-87786739D01*
X118024385Y-87903295D01*
X117973255Y-88039684D01*
X117966500Y-88101866D01*
X117966500Y-88115500D01*
X117946498Y-88183621D01*
X117892842Y-88230114D01*
X117840500Y-88241500D01*
X116590802Y-88241500D01*
X116522681Y-88221498D01*
X116494284Y-88196496D01*
X116490906Y-88192471D01*
X116487749Y-88187962D01*
X116332038Y-88032251D01*
X116317746Y-88022243D01*
X116230873Y-87961414D01*
X116151654Y-87905944D01*
X116146672Y-87903621D01*
X116146667Y-87903618D01*
X116018641Y-87843919D01*
X115965356Y-87797002D01*
X115945895Y-87728724D01*
X115966437Y-87660764D01*
X116018641Y-87615529D01*
X116146416Y-87555947D01*
X116155912Y-87550464D01*
X116197148Y-87521590D01*
X116205523Y-87511113D01*
X116198455Y-87497667D01*
X115249884Y-86549095D01*
X115215859Y-86486783D01*
X115217694Y-86461132D01*
X115884408Y-86461132D01*
X115884539Y-86462966D01*
X115888790Y-86469580D01*
X116558391Y-87139180D01*
X116570161Y-87145607D01*
X116582176Y-87136311D01*
X116610466Y-87095907D01*
X116615946Y-87086417D01*
X116704326Y-86896887D01*
X116708072Y-86886595D01*
X116762196Y-86684599D01*
X116764099Y-86673804D01*
X116782326Y-86465475D01*
X116782326Y-86454525D01*
X116764099Y-86246196D01*
X116762196Y-86235401D01*
X116708072Y-86033405D01*
X116704326Y-86023113D01*
X116615946Y-85833583D01*
X116610466Y-85824093D01*
X116581589Y-85782851D01*
X116571113Y-85774477D01*
X116557666Y-85781545D01*
X115892021Y-86447189D01*
X115884408Y-86461132D01*
X115217694Y-86461132D01*
X115220924Y-86415967D01*
X115249885Y-86370905D01*
X115520000Y-86100790D01*
X116199176Y-85421613D01*
X116205606Y-85409838D01*
X116196310Y-85397824D01*
X116155912Y-85369536D01*
X116146416Y-85364053D01*
X116018641Y-85304471D01*
X115965356Y-85257554D01*
X115945895Y-85189276D01*
X115966437Y-85121316D01*
X116018641Y-85076081D01*
X116146667Y-85016382D01*
X116146672Y-85016379D01*
X116151654Y-85014056D01*
X116318484Y-84897240D01*
X116327527Y-84890908D01*
X116327529Y-84890906D01*
X116332038Y-84887749D01*
X116487749Y-84732038D01*
X116490908Y-84727527D01*
X116494284Y-84723504D01*
X116553395Y-84684181D01*
X116590802Y-84678500D01*
X118127491Y-84678500D01*
X118195612Y-84698502D01*
G37*
%TD.AperFunction*%
%TA.AperFunction,Conductor*%
G36*
X118195612Y-77078502D02*
G01*
X118224402Y-77105595D01*
X118224987Y-77105088D01*
X118371250Y-77273938D01*
X118455846Y-77344171D01*
X118524241Y-77400953D01*
X118543126Y-77416632D01*
X118610163Y-77455805D01*
X118616955Y-77459774D01*
X118665679Y-77511412D01*
X118678750Y-77581195D01*
X118652019Y-77646967D01*
X118611562Y-77680327D01*
X118603457Y-77684546D01*
X118594738Y-77690036D01*
X118424433Y-77817905D01*
X118416726Y-77824748D01*
X118269590Y-77978717D01*
X118263104Y-77986727D01*
X118143098Y-78162649D01*
X118138000Y-78171623D01*
X118048338Y-78364783D01*
X118044775Y-78374470D01*
X117989389Y-78574183D01*
X117990912Y-78582607D01*
X118003292Y-78586000D01*
X119453000Y-78586000D01*
X119521121Y-78606002D01*
X119567614Y-78659658D01*
X119579000Y-78712000D01*
X119579000Y-78968000D01*
X119558998Y-79036121D01*
X119505342Y-79082614D01*
X119453000Y-79094000D01*
X118008225Y-79094000D01*
X117994694Y-79097973D01*
X117993257Y-79107966D01*
X118023565Y-79242446D01*
X118026645Y-79252275D01*
X118106770Y-79449603D01*
X118111413Y-79458794D01*
X118222694Y-79640388D01*
X118228777Y-79648699D01*
X118368213Y-79809667D01*
X118375580Y-79816883D01*
X118539434Y-79952916D01*
X118547881Y-79958831D01*
X118616969Y-79999203D01*
X118665693Y-80050842D01*
X118678764Y-80120625D01*
X118652033Y-80186396D01*
X118611584Y-80219752D01*
X118598607Y-80226507D01*
X118594474Y-80229610D01*
X118594471Y-80229612D01*
X118570247Y-80247800D01*
X118419965Y-80360635D01*
X118265629Y-80522138D01*
X118235363Y-80566507D01*
X118180455Y-80611507D01*
X118131277Y-80621500D01*
X116590802Y-80621500D01*
X116522681Y-80601498D01*
X116494284Y-80576496D01*
X116490906Y-80572471D01*
X116487749Y-80567962D01*
X116332038Y-80412251D01*
X116295791Y-80386870D01*
X116252759Y-80356739D01*
X116151654Y-80285944D01*
X116146672Y-80283621D01*
X116146667Y-80283618D01*
X116018641Y-80223919D01*
X115965356Y-80177002D01*
X115945895Y-80108724D01*
X115966437Y-80040764D01*
X116018641Y-79995529D01*
X116146416Y-79935947D01*
X116155912Y-79930464D01*
X116197148Y-79901590D01*
X116205523Y-79891112D01*
X116198457Y-79877668D01*
X115532811Y-79212021D01*
X115518868Y-79204408D01*
X115517034Y-79204539D01*
X115510420Y-79208790D01*
X114840820Y-79878391D01*
X114834393Y-79890161D01*
X114843687Y-79902175D01*
X114884088Y-79930464D01*
X114893584Y-79935947D01*
X115021359Y-79995529D01*
X115074644Y-80042446D01*
X115094105Y-80110724D01*
X115073563Y-80178684D01*
X115021359Y-80223919D01*
X114893334Y-80283618D01*
X114893329Y-80283621D01*
X114888347Y-80285944D01*
X114883840Y-80289100D01*
X114883838Y-80289101D01*
X114712473Y-80409092D01*
X114712470Y-80409094D01*
X114707962Y-80412251D01*
X114552251Y-80567962D01*
X114549094Y-80572470D01*
X114549092Y-80572473D01*
X114429101Y-80743838D01*
X114425944Y-80748347D01*
X114423621Y-80753329D01*
X114423618Y-80753334D01*
X114376415Y-80854562D01*
X114332880Y-80947924D01*
X114275885Y-81160629D01*
X114256693Y-81380000D01*
X114257172Y-81385475D01*
X114257172Y-81385476D01*
X114266908Y-81496761D01*
X114252919Y-81566365D01*
X114230482Y-81596837D01*
X113608876Y-82218443D01*
X113546564Y-82252469D01*
X113475749Y-82247404D01*
X113418913Y-82204857D01*
X113394102Y-82138337D01*
X113393781Y-82129348D01*
X113393781Y-79551090D01*
X113413783Y-79482969D01*
X113430686Y-79461995D01*
X114049676Y-78843005D01*
X114111988Y-78808979D01*
X114182803Y-78814044D01*
X114239639Y-78856591D01*
X114264292Y-78921118D01*
X114275901Y-79053804D01*
X114277804Y-79064599D01*
X114331928Y-79266595D01*
X114335674Y-79276887D01*
X114424054Y-79466417D01*
X114429534Y-79475907D01*
X114458411Y-79517149D01*
X114468886Y-79525523D01*
X114482335Y-79518454D01*
X115159658Y-78841132D01*
X115884408Y-78841132D01*
X115884539Y-78842966D01*
X115888790Y-78849580D01*
X116558391Y-79519180D01*
X116570161Y-79525607D01*
X116582176Y-79516311D01*
X116610466Y-79475907D01*
X116615946Y-79466417D01*
X116704326Y-79276887D01*
X116708072Y-79266595D01*
X116762196Y-79064599D01*
X116764099Y-79053804D01*
X116782326Y-78845475D01*
X116782326Y-78834525D01*
X116764099Y-78626196D01*
X116762196Y-78615401D01*
X116708072Y-78413405D01*
X116704326Y-78403113D01*
X116615946Y-78213583D01*
X116610466Y-78204093D01*
X116581589Y-78162851D01*
X116571113Y-78154477D01*
X116557666Y-78161545D01*
X115892021Y-78827189D01*
X115884408Y-78841132D01*
X115159658Y-78841132D01*
X115520000Y-78480790D01*
X116199178Y-77801611D01*
X116205606Y-77789839D01*
X116196310Y-77777824D01*
X116155912Y-77749536D01*
X116146416Y-77744053D01*
X116018641Y-77684471D01*
X115965356Y-77637554D01*
X115945895Y-77569276D01*
X115966437Y-77501316D01*
X116018641Y-77456081D01*
X116146667Y-77396382D01*
X116146672Y-77396379D01*
X116151654Y-77394056D01*
X116278557Y-77305197D01*
X116327527Y-77270908D01*
X116327529Y-77270906D01*
X116332038Y-77267749D01*
X116487749Y-77112038D01*
X116490906Y-77107529D01*
X116494284Y-77103504D01*
X116553395Y-77064181D01*
X116590802Y-77058500D01*
X118127491Y-77058500D01*
X118195612Y-77078502D01*
G37*
%TD.AperFunction*%
%TA.AperFunction,Conductor*%
G36*
X150313621Y-52848502D02*
G01*
X150360114Y-52902158D01*
X150371500Y-52954500D01*
X150371500Y-54345500D01*
X150351498Y-54413621D01*
X150297842Y-54460114D01*
X150245500Y-54471500D01*
X150181866Y-54471500D01*
X150119684Y-54478255D01*
X149983295Y-54529385D01*
X149866739Y-54616739D01*
X149779385Y-54733295D01*
X149776233Y-54741703D01*
X149776232Y-54741705D01*
X149755538Y-54796906D01*
X149712897Y-54853671D01*
X149646335Y-54878371D01*
X149576986Y-54863164D01*
X149554167Y-54846666D01*
X149553887Y-54846358D01*
X149486172Y-54792880D01*
X149376177Y-54706011D01*
X149376172Y-54706008D01*
X149372123Y-54702810D01*
X149367607Y-54700317D01*
X149367604Y-54700315D01*
X149173879Y-54593373D01*
X149173875Y-54593371D01*
X149169355Y-54590876D01*
X149164486Y-54589152D01*
X149164482Y-54589150D01*
X148955903Y-54515288D01*
X148955899Y-54515287D01*
X148951028Y-54513562D01*
X148945935Y-54512655D01*
X148945932Y-54512654D01*
X148728095Y-54473851D01*
X148728089Y-54473850D01*
X148723006Y-54472945D01*
X148650096Y-54472054D01*
X148496581Y-54470179D01*
X148496579Y-54470179D01*
X148491411Y-54470116D01*
X148262464Y-54505150D01*
X148042314Y-54577106D01*
X148037726Y-54579494D01*
X148037722Y-54579496D01*
X147841461Y-54681663D01*
X147836872Y-54684052D01*
X147832739Y-54687155D01*
X147832736Y-54687157D01*
X147655790Y-54820012D01*
X147651655Y-54823117D01*
X147633116Y-54842517D01*
X147498819Y-54983051D01*
X147491639Y-54990564D01*
X147361119Y-55181899D01*
X147263602Y-55391981D01*
X147201707Y-55615169D01*
X147177095Y-55845469D01*
X147190427Y-56076697D01*
X147191564Y-56081743D01*
X147191565Y-56081749D01*
X147218073Y-56199371D01*
X147241346Y-56302642D01*
X147243288Y-56307424D01*
X147243289Y-56307428D01*
X147305743Y-56461233D01*
X147328484Y-56517237D01*
X147449501Y-56714719D01*
X147601147Y-56889784D01*
X147778517Y-57037039D01*
X147779349Y-57037730D01*
X147779206Y-57037902D01*
X147822101Y-57091570D01*
X147831500Y-57139321D01*
X147831500Y-58972930D01*
X147830067Y-58991880D01*
X147826801Y-59013349D01*
X147827394Y-59020641D01*
X147827394Y-59020644D01*
X147831085Y-59066018D01*
X147831500Y-59076233D01*
X147831500Y-59084293D01*
X147831925Y-59087937D01*
X147834789Y-59112507D01*
X147835222Y-59116881D01*
X147838051Y-59151653D01*
X147839396Y-59168192D01*
X147824983Y-59237710D01*
X147775274Y-59288400D01*
X147706050Y-59304169D01*
X147692908Y-59302662D01*
X147687993Y-59301835D01*
X147669978Y-59298804D01*
X147669967Y-59298803D01*
X147667574Y-59298400D01*
X147588627Y-59291318D01*
X147586205Y-59291288D01*
X147586198Y-59291288D01*
X147582884Y-59291248D01*
X147576285Y-59291167D01*
X147505620Y-59295767D01*
X147501964Y-59296005D01*
X147493779Y-59296271D01*
X147149481Y-59296271D01*
X147138223Y-59295767D01*
X147134249Y-59295411D01*
X147088627Y-59291318D01*
X147086205Y-59291288D01*
X147086198Y-59291288D01*
X147082884Y-59291248D01*
X147076285Y-59291167D01*
X147039993Y-59293529D01*
X146999592Y-59296159D01*
X146999582Y-59296160D01*
X146997171Y-59296317D01*
X146994762Y-59296662D01*
X146859839Y-59315984D01*
X146859833Y-59315985D01*
X146855394Y-59316621D01*
X146851089Y-59317880D01*
X146851084Y-59317881D01*
X146722372Y-59355520D01*
X146715590Y-59357503D01*
X146585211Y-59416783D01*
X146581440Y-59419195D01*
X146581432Y-59419199D01*
X146473738Y-59488073D01*
X146462503Y-59495258D01*
X146459109Y-59498183D01*
X146459107Y-59498184D01*
X146432684Y-59520952D01*
X146368021Y-59550267D01*
X146350435Y-59551500D01*
X145497063Y-59551500D01*
X145478114Y-59550067D01*
X145477907Y-59550036D01*
X145456651Y-59546802D01*
X145449359Y-59547395D01*
X145449356Y-59547395D01*
X145403991Y-59551085D01*
X145393777Y-59551500D01*
X145385707Y-59551500D01*
X145382087Y-59551922D01*
X145382069Y-59551923D01*
X145357461Y-59554792D01*
X145353100Y-59555224D01*
X145327981Y-59557267D01*
X145287661Y-59560546D01*
X145287658Y-59560547D01*
X145280363Y-59561140D01*
X145273399Y-59563396D01*
X145267440Y-59564587D01*
X145261585Y-59565971D01*
X145254319Y-59566818D01*
X145185673Y-59591735D01*
X145181545Y-59593152D01*
X145119064Y-59613393D01*
X145119062Y-59613394D01*
X145112101Y-59615649D01*
X145105846Y-59619445D01*
X145100372Y-59621951D01*
X145094942Y-59624670D01*
X145088063Y-59627167D01*
X145027016Y-59667191D01*
X145023327Y-59669518D01*
X145006918Y-59679476D01*
X144965693Y-59704491D01*
X144965688Y-59704495D01*
X144960892Y-59707405D01*
X144952516Y-59714803D01*
X144952493Y-59714777D01*
X144949503Y-59717426D01*
X144946264Y-59720134D01*
X144940148Y-59724144D01*
X144935121Y-59729451D01*
X144935117Y-59729454D01*
X144886872Y-59780383D01*
X144884494Y-59782825D01*
X143656089Y-61011230D01*
X143641677Y-61023616D01*
X143630082Y-61032149D01*
X143630077Y-61032154D01*
X143624182Y-61036492D01*
X143619443Y-61042070D01*
X143619440Y-61042073D01*
X143589965Y-61076768D01*
X143583035Y-61084284D01*
X143577340Y-61089979D01*
X143575060Y-61092861D01*
X143559719Y-61112251D01*
X143556928Y-61115655D01*
X143514409Y-61165703D01*
X143509667Y-61171285D01*
X143506339Y-61177801D01*
X143502972Y-61182850D01*
X143499805Y-61187979D01*
X143495266Y-61193716D01*
X143464345Y-61259875D01*
X143462442Y-61263769D01*
X143429231Y-61328808D01*
X143427492Y-61335916D01*
X143425393Y-61341559D01*
X143423476Y-61347322D01*
X143420378Y-61353950D01*
X143418888Y-61361112D01*
X143418888Y-61361113D01*
X143405514Y-61425412D01*
X143404544Y-61429696D01*
X143387192Y-61500610D01*
X143386500Y-61511764D01*
X143386464Y-61511762D01*
X143386225Y-61515755D01*
X143385851Y-61519947D01*
X143384360Y-61527115D01*
X143384558Y-61534432D01*
X143386454Y-61604521D01*
X143386500Y-61607928D01*
X143386500Y-68848629D01*
X143366498Y-68916750D01*
X143349595Y-68937724D01*
X140819724Y-71467595D01*
X140757412Y-71501621D01*
X140730629Y-71504500D01*
X139407036Y-71504500D01*
X139338915Y-71484498D01*
X139300887Y-71446385D01*
X139277157Y-71409279D01*
X139277156Y-71409278D01*
X139274742Y-71405503D01*
X139181252Y-71297002D01*
X139071489Y-71201250D01*
X139064538Y-71196744D01*
X138985601Y-71145580D01*
X138951304Y-71123350D01*
X138943630Y-71119804D01*
X138823145Y-71064132D01*
X138823143Y-71064131D01*
X138819076Y-71062252D01*
X138743525Y-71039658D01*
X138686156Y-71022501D01*
X138686151Y-71022500D01*
X138681858Y-71021216D01*
X138677426Y-71020554D01*
X138677423Y-71020553D01*
X138542235Y-71000350D01*
X138542232Y-71000350D01*
X138537804Y-70999688D01*
X138463145Y-70999232D01*
X138399055Y-70998840D01*
X138399050Y-70998840D01*
X138394583Y-70998813D01*
X138392139Y-70999148D01*
X138388344Y-70999271D01*
X137960000Y-70999271D01*
X137951024Y-70999913D01*
X137893627Y-71004018D01*
X137893626Y-71004018D01*
X137886889Y-71004500D01*
X137850560Y-71015167D01*
X137797132Y-71018988D01*
X137660000Y-70999271D01*
X137169992Y-70999271D01*
X137169222Y-70999269D01*
X137099069Y-70998840D01*
X137099063Y-70998840D01*
X137094583Y-70998813D01*
X137010493Y-71010331D01*
X136954724Y-71017970D01*
X136954720Y-71017971D01*
X136950273Y-71018580D01*
X136812564Y-71057937D01*
X136679602Y-71117414D01*
X136675820Y-71119800D01*
X136675813Y-71119804D01*
X136614743Y-71158337D01*
X136558474Y-71193840D01*
X136447548Y-71288246D01*
X136352740Y-71395597D01*
X136350285Y-71399334D01*
X136350283Y-71399337D01*
X136318474Y-71447762D01*
X136272774Y-71517334D01*
X136211905Y-71646979D01*
X136210596Y-71651262D01*
X136210594Y-71651266D01*
X136178879Y-71755000D01*
X136169317Y-71786277D01*
X136168628Y-71790700D01*
X136168627Y-71790706D01*
X136166360Y-71805267D01*
X136147283Y-71927795D01*
X136147228Y-71932262D01*
X136147228Y-71932267D01*
X136146620Y-71982032D01*
X136145503Y-72073438D01*
X136146063Y-72077723D01*
X136146271Y-72084760D01*
X136146271Y-72151858D01*
X136126269Y-72219979D01*
X136109366Y-72240953D01*
X135721578Y-72628741D01*
X135707166Y-72641127D01*
X135695571Y-72649660D01*
X135695566Y-72649665D01*
X135689671Y-72654003D01*
X135684932Y-72659581D01*
X135684929Y-72659584D01*
X135655454Y-72694279D01*
X135648524Y-72701795D01*
X135642829Y-72707490D01*
X135640549Y-72710372D01*
X135625208Y-72729762D01*
X135622417Y-72733166D01*
X135593436Y-72767279D01*
X135575156Y-72788796D01*
X135571828Y-72795312D01*
X135568461Y-72800361D01*
X135565294Y-72805490D01*
X135560755Y-72811227D01*
X135529834Y-72877386D01*
X135527931Y-72881280D01*
X135494720Y-72946319D01*
X135492981Y-72953427D01*
X135490882Y-72959070D01*
X135488965Y-72964833D01*
X135485867Y-72971461D01*
X135484377Y-72978623D01*
X135484377Y-72978624D01*
X135480218Y-72998621D01*
X135471299Y-73041502D01*
X135471003Y-73042923D01*
X135470033Y-73047207D01*
X135452681Y-73118121D01*
X135451989Y-73129275D01*
X135451953Y-73129273D01*
X135451714Y-73133266D01*
X135451340Y-73137458D01*
X135449849Y-73144626D01*
X135450047Y-73151943D01*
X135451943Y-73222032D01*
X135451989Y-73225439D01*
X135451989Y-75082670D01*
X135431987Y-75150791D01*
X135415084Y-75171765D01*
X133641920Y-76944929D01*
X133579608Y-76978955D01*
X133508793Y-76973890D01*
X133454504Y-76932638D01*
X133454040Y-76933056D01*
X133451845Y-76930618D01*
X133451844Y-76930618D01*
X133449620Y-76928147D01*
X133449617Y-76928143D01*
X133330675Y-76796045D01*
X133330674Y-76796044D01*
X133326253Y-76791134D01*
X133196926Y-76697172D01*
X133177094Y-76682763D01*
X133177093Y-76682762D01*
X133171752Y-76678882D01*
X133165724Y-76676198D01*
X133165722Y-76676197D01*
X133003319Y-76603891D01*
X133003318Y-76603891D01*
X132997288Y-76601206D01*
X132903887Y-76581353D01*
X132816944Y-76562872D01*
X132816939Y-76562872D01*
X132810487Y-76561500D01*
X132619513Y-76561500D01*
X132613061Y-76562872D01*
X132613056Y-76562872D01*
X132526113Y-76581353D01*
X132432712Y-76601206D01*
X132426682Y-76603891D01*
X132426681Y-76603891D01*
X132264278Y-76676197D01*
X132264276Y-76676198D01*
X132258248Y-76678882D01*
X132252909Y-76682761D01*
X132252902Y-76682765D01*
X132246472Y-76687437D01*
X132172413Y-76711500D01*
X132013144Y-76711500D01*
X131945023Y-76691498D01*
X131898530Y-76637842D01*
X131892209Y-76620865D01*
X131890754Y-76615888D01*
X131890753Y-76615886D01*
X131889497Y-76611590D01*
X131830217Y-76481211D01*
X131827805Y-76477440D01*
X131827801Y-76477432D01*
X131754157Y-76362279D01*
X131754156Y-76362278D01*
X131751742Y-76358503D01*
X131658252Y-76250002D01*
X131548489Y-76154250D01*
X131534251Y-76145021D01*
X131472938Y-76105280D01*
X131428304Y-76076350D01*
X131402444Y-76064401D01*
X131348995Y-76017672D01*
X131329295Y-75949463D01*
X131349599Y-75881432D01*
X131405251Y-75834385D01*
X131417298Y-75829172D01*
X131417301Y-75829170D01*
X131421420Y-75827388D01*
X131543472Y-75752448D01*
X131546922Y-75749584D01*
X131652093Y-75662270D01*
X131652095Y-75662268D01*
X131655540Y-75659408D01*
X131751654Y-75553224D01*
X131766302Y-75531507D01*
X131830599Y-75436183D01*
X131830602Y-75436178D01*
X131833107Y-75432464D01*
X131895554Y-75303572D01*
X131939838Y-75164812D01*
X131940885Y-75158591D01*
X131941151Y-75158043D01*
X131941639Y-75156031D01*
X131942077Y-75156137D01*
X131971914Y-75094734D01*
X132032541Y-75057790D01*
X132065138Y-75053500D01*
X132172413Y-75053500D01*
X132246472Y-75077563D01*
X132252902Y-75082235D01*
X132252909Y-75082239D01*
X132258248Y-75086118D01*
X132264276Y-75088802D01*
X132264278Y-75088803D01*
X132426681Y-75161109D01*
X132432712Y-75163794D01*
X132526113Y-75183647D01*
X132613056Y-75202128D01*
X132613061Y-75202128D01*
X132619513Y-75203500D01*
X132810487Y-75203500D01*
X132816939Y-75202128D01*
X132816944Y-75202128D01*
X132903887Y-75183647D01*
X132997288Y-75163794D01*
X133003319Y-75161109D01*
X133165722Y-75088803D01*
X133165724Y-75088802D01*
X133171752Y-75086118D01*
X133177097Y-75082235D01*
X133250675Y-75028777D01*
X133326253Y-74973866D01*
X133337080Y-74961841D01*
X133449621Y-74836852D01*
X133449622Y-74836851D01*
X133454040Y-74831944D01*
X133531011Y-74698627D01*
X133546223Y-74672279D01*
X133546224Y-74672278D01*
X133549527Y-74666556D01*
X133608542Y-74484928D01*
X133613775Y-74435144D01*
X133627814Y-74301565D01*
X133628504Y-74295000D01*
X133623485Y-74247251D01*
X133609232Y-74111635D01*
X133609232Y-74111633D01*
X133608542Y-74105072D01*
X133549527Y-73923444D01*
X133454040Y-73758056D01*
X133388783Y-73685580D01*
X133330675Y-73621045D01*
X133330674Y-73621044D01*
X133326253Y-73616134D01*
X133180045Y-73509907D01*
X133177094Y-73507763D01*
X133177093Y-73507762D01*
X133171752Y-73503882D01*
X133165724Y-73501198D01*
X133165722Y-73501197D01*
X133003319Y-73428891D01*
X133003318Y-73428891D01*
X132997288Y-73426206D01*
X132903887Y-73406353D01*
X132816944Y-73387872D01*
X132816939Y-73387872D01*
X132810487Y-73386500D01*
X132619513Y-73386500D01*
X132613061Y-73387872D01*
X132613056Y-73387872D01*
X132526113Y-73406353D01*
X132432712Y-73426206D01*
X132426682Y-73428891D01*
X132426681Y-73428891D01*
X132264278Y-73501197D01*
X132264276Y-73501198D01*
X132258248Y-73503882D01*
X132252909Y-73507761D01*
X132252902Y-73507765D01*
X132246472Y-73512437D01*
X132172413Y-73536500D01*
X131471332Y-73536500D01*
X131418483Y-73524881D01*
X131402937Y-73517698D01*
X131349487Y-73470968D01*
X131329787Y-73402759D01*
X131350091Y-73334727D01*
X131399302Y-73293109D01*
X131398328Y-73291236D01*
X131402294Y-73289173D01*
X131406420Y-73287388D01*
X131528472Y-73212448D01*
X131531922Y-73209584D01*
X131637093Y-73122270D01*
X131637095Y-73122268D01*
X131640540Y-73119408D01*
X131736654Y-73013224D01*
X131748394Y-72995819D01*
X131815599Y-72896183D01*
X131815602Y-72896178D01*
X131818107Y-72892464D01*
X131880554Y-72763572D01*
X131924838Y-72624812D01*
X131925885Y-72618591D01*
X131926151Y-72618043D01*
X131926639Y-72616031D01*
X131927077Y-72616137D01*
X131956914Y-72554734D01*
X132017541Y-72517790D01*
X132050138Y-72513500D01*
X132807413Y-72513500D01*
X132881472Y-72537563D01*
X132887902Y-72542235D01*
X132887909Y-72542239D01*
X132893248Y-72546118D01*
X132899276Y-72548802D01*
X132899278Y-72548803D01*
X133061681Y-72621109D01*
X133067712Y-72623794D01*
X133160054Y-72643422D01*
X133248056Y-72662128D01*
X133248061Y-72662128D01*
X133254513Y-72663500D01*
X133445487Y-72663500D01*
X133451939Y-72662128D01*
X133451944Y-72662128D01*
X133539946Y-72643422D01*
X133632288Y-72623794D01*
X133638319Y-72621109D01*
X133800722Y-72548803D01*
X133800724Y-72548802D01*
X133806752Y-72546118D01*
X133812097Y-72542235D01*
X133891713Y-72484390D01*
X133961253Y-72433866D01*
X133977027Y-72416347D01*
X134084621Y-72296852D01*
X134084622Y-72296851D01*
X134089040Y-72291944D01*
X134171738Y-72148708D01*
X134181223Y-72132279D01*
X134181224Y-72132278D01*
X134184527Y-72126556D01*
X134243542Y-71944928D01*
X134245808Y-71923373D01*
X134262814Y-71761565D01*
X134263504Y-71755000D01*
X134252110Y-71646595D01*
X134244232Y-71571635D01*
X134244232Y-71571633D01*
X134243542Y-71565072D01*
X134184527Y-71383444D01*
X134089040Y-71218056D01*
X134060803Y-71186695D01*
X133965675Y-71081045D01*
X133965674Y-71081044D01*
X133961253Y-71076134D01*
X133855458Y-70999269D01*
X133812094Y-70967763D01*
X133812093Y-70967762D01*
X133806752Y-70963882D01*
X133800724Y-70961198D01*
X133800722Y-70961197D01*
X133638319Y-70888891D01*
X133638318Y-70888891D01*
X133632288Y-70886206D01*
X133538888Y-70866353D01*
X133451944Y-70847872D01*
X133451939Y-70847872D01*
X133445487Y-70846500D01*
X133254513Y-70846500D01*
X133248061Y-70847872D01*
X133248056Y-70847872D01*
X133161112Y-70866353D01*
X133067712Y-70886206D01*
X133061682Y-70888891D01*
X133061681Y-70888891D01*
X132899278Y-70961197D01*
X132899276Y-70961198D01*
X132893248Y-70963882D01*
X132887909Y-70967761D01*
X132887902Y-70967765D01*
X132881472Y-70972437D01*
X132807413Y-70996500D01*
X131456332Y-70996500D01*
X131403481Y-70984880D01*
X131300145Y-70937132D01*
X131300143Y-70937131D01*
X131296076Y-70935252D01*
X131200623Y-70906706D01*
X131163156Y-70895501D01*
X131163151Y-70895500D01*
X131158858Y-70894216D01*
X131154426Y-70893554D01*
X131154423Y-70893553D01*
X131019235Y-70873350D01*
X131019232Y-70873350D01*
X131014804Y-70872688D01*
X130940145Y-70872232D01*
X130876055Y-70871840D01*
X130876050Y-70871840D01*
X130871583Y-70871813D01*
X130869139Y-70872148D01*
X130865344Y-70872271D01*
X130437000Y-70872271D01*
X130428024Y-70872913D01*
X130370627Y-70877018D01*
X130370626Y-70877018D01*
X130363889Y-70877500D01*
X130327560Y-70888167D01*
X130274132Y-70891988D01*
X130137000Y-70872271D01*
X129646992Y-70872271D01*
X129646222Y-70872269D01*
X129576069Y-70871840D01*
X129576063Y-70871840D01*
X129571583Y-70871813D01*
X129487493Y-70883331D01*
X129431724Y-70890970D01*
X129431720Y-70890971D01*
X129427273Y-70891580D01*
X129289564Y-70930937D01*
X129156602Y-70990414D01*
X129152820Y-70992800D01*
X129152813Y-70992804D01*
X129078555Y-71039658D01*
X129035474Y-71066840D01*
X128924548Y-71161246D01*
X128829740Y-71268597D01*
X128749774Y-71390334D01*
X128747869Y-71394391D01*
X128747867Y-71394395D01*
X128729322Y-71433894D01*
X128688905Y-71519979D01*
X128687596Y-71524262D01*
X128687594Y-71524266D01*
X128673112Y-71571635D01*
X128646317Y-71659277D01*
X128645628Y-71663700D01*
X128645627Y-71663706D01*
X128638243Y-71711134D01*
X128624283Y-71800795D01*
X128624228Y-71805262D01*
X128624228Y-71805267D01*
X128623810Y-71839494D01*
X128622503Y-71946438D01*
X128623063Y-71950723D01*
X128623271Y-71957760D01*
X128623271Y-72231858D01*
X128603269Y-72299979D01*
X128586366Y-72320953D01*
X127150786Y-73756533D01*
X127088474Y-73790559D01*
X127017659Y-73785494D01*
X126960823Y-73742947D01*
X126936170Y-73678420D01*
X126924594Y-73546105D01*
X126924115Y-73540629D01*
X126867120Y-73327924D01*
X126823585Y-73234562D01*
X126776382Y-73133334D01*
X126776379Y-73133329D01*
X126774056Y-73128347D01*
X126770899Y-73123838D01*
X126650908Y-72952473D01*
X126650906Y-72952470D01*
X126647749Y-72947962D01*
X126492038Y-72792251D01*
X126455791Y-72766870D01*
X126352120Y-72694279D01*
X126311654Y-72665944D01*
X126306672Y-72663621D01*
X126306667Y-72663618D01*
X126179232Y-72604195D01*
X126125947Y-72557278D01*
X126106486Y-72489001D01*
X126127028Y-72421041D01*
X126179232Y-72375805D01*
X126306667Y-72316382D01*
X126306672Y-72316379D01*
X126311654Y-72314056D01*
X126442232Y-72222624D01*
X126487527Y-72190908D01*
X126487529Y-72190906D01*
X126492038Y-72187749D01*
X126647749Y-72032038D01*
X126652616Y-72025088D01*
X126770899Y-71856162D01*
X126770900Y-71856160D01*
X126774056Y-71851653D01*
X126776379Y-71846671D01*
X126776382Y-71846666D01*
X126839581Y-71711134D01*
X126867120Y-71652076D01*
X126924115Y-71439371D01*
X126943307Y-71220000D01*
X126924115Y-71000629D01*
X126867120Y-70787924D01*
X126821788Y-70690709D01*
X126776382Y-70593334D01*
X126776379Y-70593329D01*
X126774056Y-70588347D01*
X126752014Y-70556868D01*
X126650908Y-70412473D01*
X126650906Y-70412470D01*
X126647749Y-70407962D01*
X126492038Y-70252251D01*
X126457332Y-70227949D01*
X126374342Y-70169839D01*
X126311654Y-70125944D01*
X126306672Y-70123621D01*
X126306667Y-70123618D01*
X126179232Y-70064195D01*
X126125947Y-70017278D01*
X126106486Y-69949001D01*
X126127028Y-69881041D01*
X126179232Y-69835805D01*
X126306667Y-69776382D01*
X126306672Y-69776379D01*
X126311654Y-69774056D01*
X126423103Y-69696018D01*
X126487527Y-69650908D01*
X126487529Y-69650906D01*
X126492038Y-69647749D01*
X126647749Y-69492038D01*
X126652261Y-69485595D01*
X126770899Y-69316162D01*
X126770900Y-69316160D01*
X126774056Y-69311653D01*
X126776379Y-69306671D01*
X126776382Y-69306666D01*
X126841079Y-69167921D01*
X126867120Y-69112076D01*
X126924115Y-68899371D01*
X126943307Y-68680000D01*
X126924115Y-68460629D01*
X126867120Y-68247924D01*
X126793539Y-68090128D01*
X126776382Y-68053334D01*
X126776379Y-68053329D01*
X126774056Y-68048347D01*
X126770899Y-68043838D01*
X126650908Y-67872473D01*
X126650906Y-67872470D01*
X126647749Y-67867962D01*
X126492038Y-67712251D01*
X126455791Y-67686870D01*
X126364935Y-67623252D01*
X126311654Y-67585944D01*
X126306672Y-67583621D01*
X126306667Y-67583618D01*
X126179232Y-67524195D01*
X126125947Y-67477278D01*
X126106486Y-67409001D01*
X126127028Y-67341041D01*
X126179232Y-67295805D01*
X126306667Y-67236382D01*
X126306672Y-67236379D01*
X126311654Y-67234056D01*
X126478484Y-67117240D01*
X126487527Y-67110908D01*
X126487529Y-67110906D01*
X126492038Y-67107749D01*
X126647749Y-66952038D01*
X126652261Y-66945595D01*
X126770899Y-66776162D01*
X126770900Y-66776160D01*
X126774056Y-66771653D01*
X126776379Y-66766671D01*
X126776382Y-66766666D01*
X126834911Y-66641148D01*
X126867120Y-66572076D01*
X126924115Y-66359371D01*
X126943307Y-66140000D01*
X126924115Y-65920629D01*
X126867120Y-65707924D01*
X126797132Y-65557833D01*
X126776382Y-65513334D01*
X126776379Y-65513329D01*
X126774056Y-65508347D01*
X126766565Y-65497649D01*
X126650908Y-65332473D01*
X126650906Y-65332470D01*
X126647749Y-65327962D01*
X126492038Y-65172251D01*
X126455791Y-65146870D01*
X126360916Y-65080438D01*
X126311654Y-65045944D01*
X126306672Y-65043621D01*
X126306667Y-65043618D01*
X126179232Y-64984195D01*
X126125947Y-64937278D01*
X126106486Y-64869001D01*
X126127028Y-64801041D01*
X126179232Y-64755805D01*
X126306667Y-64696382D01*
X126306672Y-64696379D01*
X126311654Y-64694056D01*
X126438557Y-64605197D01*
X126487527Y-64570908D01*
X126487529Y-64570906D01*
X126492038Y-64567749D01*
X126647749Y-64412038D01*
X126652616Y-64405088D01*
X126770899Y-64236162D01*
X126770900Y-64236160D01*
X126774056Y-64231653D01*
X126776379Y-64226671D01*
X126776382Y-64226666D01*
X126829095Y-64113621D01*
X126867120Y-64032076D01*
X126924115Y-63819371D01*
X126943307Y-63600000D01*
X126924115Y-63380629D01*
X126867120Y-63167924D01*
X126807364Y-63039776D01*
X126776382Y-62973334D01*
X126776379Y-62973329D01*
X126774056Y-62968347D01*
X126748342Y-62931623D01*
X126650908Y-62792473D01*
X126650906Y-62792470D01*
X126647749Y-62787962D01*
X126492038Y-62632251D01*
X126480965Y-62624497D01*
X126399042Y-62567134D01*
X126311654Y-62505944D01*
X126306672Y-62503621D01*
X126306667Y-62503618D01*
X126179232Y-62444195D01*
X126125947Y-62397278D01*
X126106486Y-62329001D01*
X126127028Y-62261041D01*
X126179232Y-62215805D01*
X126306667Y-62156382D01*
X126306672Y-62156379D01*
X126311654Y-62154056D01*
X126478484Y-62037240D01*
X126487527Y-62030908D01*
X126487529Y-62030906D01*
X126492038Y-62027749D01*
X126647749Y-61872038D01*
X126652261Y-61865595D01*
X126770899Y-61696162D01*
X126770900Y-61696160D01*
X126774056Y-61691653D01*
X126776379Y-61686671D01*
X126776382Y-61686666D01*
X126841019Y-61548049D01*
X126867120Y-61492076D01*
X126924115Y-61279371D01*
X126943307Y-61060000D01*
X126924115Y-60840629D01*
X126867120Y-60627924D01*
X126823585Y-60534562D01*
X126776382Y-60433334D01*
X126776379Y-60433329D01*
X126774056Y-60428347D01*
X126770899Y-60423838D01*
X126650908Y-60252473D01*
X126650906Y-60252470D01*
X126647749Y-60247962D01*
X126492038Y-60092251D01*
X126455791Y-60066870D01*
X126323523Y-59974255D01*
X126311654Y-59965944D01*
X126306672Y-59963621D01*
X126306667Y-59963618D01*
X126179232Y-59904195D01*
X126125947Y-59857278D01*
X126106486Y-59789001D01*
X126127028Y-59721041D01*
X126179232Y-59675805D01*
X126306667Y-59616382D01*
X126306672Y-59616379D01*
X126311654Y-59614056D01*
X126317580Y-59609907D01*
X126318988Y-59608921D01*
X126320432Y-59608434D01*
X126320924Y-59608150D01*
X126320981Y-59608249D01*
X126386261Y-59586231D01*
X126455122Y-59603514D01*
X126480356Y-59623037D01*
X127839366Y-60982047D01*
X127873392Y-61044359D01*
X127876271Y-61071142D01*
X127876271Y-61171047D01*
X127876273Y-61171047D01*
X127876682Y-61174014D01*
X127875504Y-61270438D01*
X127876085Y-61274880D01*
X127876085Y-61274883D01*
X127884804Y-61341559D01*
X127894074Y-61412452D01*
X127933245Y-61552748D01*
X127990928Y-61683841D01*
X128022862Y-61735144D01*
X128054714Y-61786316D01*
X128067897Y-61807496D01*
X128070779Y-61810924D01*
X128070780Y-61810926D01*
X128125425Y-61875935D01*
X128160054Y-61917131D01*
X128268639Y-62014218D01*
X128272372Y-62016703D01*
X128272376Y-62016706D01*
X128303224Y-62037240D01*
X128387864Y-62093581D01*
X128391911Y-62095512D01*
X128391914Y-62095513D01*
X128396653Y-62097774D01*
X128449528Y-62145154D01*
X128468393Y-62213598D01*
X128447259Y-62281376D01*
X128392837Y-62326969D01*
X128342410Y-62337500D01*
X128199913Y-62337500D01*
X128193461Y-62338872D01*
X128193456Y-62338872D01*
X128130821Y-62352186D01*
X128013112Y-62377206D01*
X128007082Y-62379891D01*
X128007081Y-62379891D01*
X127844678Y-62452197D01*
X127844676Y-62452198D01*
X127838648Y-62454882D01*
X127684147Y-62567134D01*
X127679726Y-62572044D01*
X127679725Y-62572045D01*
X127575448Y-62687857D01*
X127556360Y-62709056D01*
X127513053Y-62784066D01*
X127466326Y-62865000D01*
X127460873Y-62874444D01*
X127401858Y-63056072D01*
X127401168Y-63062633D01*
X127401168Y-63062635D01*
X127390626Y-63162939D01*
X127381896Y-63246000D01*
X127382586Y-63252565D01*
X127396622Y-63386106D01*
X127401858Y-63435928D01*
X127460873Y-63617556D01*
X127505768Y-63695315D01*
X127520019Y-63719999D01*
X127536900Y-63782999D01*
X127536900Y-63839330D01*
X127535467Y-63858280D01*
X127532201Y-63879749D01*
X127532794Y-63887041D01*
X127532794Y-63887044D01*
X127536485Y-63932418D01*
X127536900Y-63942633D01*
X127536900Y-63950693D01*
X127537325Y-63954337D01*
X127540189Y-63978907D01*
X127540622Y-63983282D01*
X127544539Y-64031432D01*
X127546540Y-64056037D01*
X127548796Y-64063001D01*
X127549987Y-64068960D01*
X127551371Y-64074815D01*
X127552218Y-64082081D01*
X127577135Y-64150727D01*
X127578552Y-64154855D01*
X127601049Y-64224299D01*
X127604845Y-64230554D01*
X127607351Y-64236028D01*
X127610070Y-64241458D01*
X127612567Y-64248337D01*
X127616580Y-64254457D01*
X127616580Y-64254458D01*
X127652586Y-64309376D01*
X127654923Y-64313080D01*
X127692805Y-64375507D01*
X127696521Y-64379715D01*
X127696522Y-64379716D01*
X127700203Y-64383884D01*
X127700176Y-64383908D01*
X127702828Y-64386899D01*
X127705532Y-64390133D01*
X127709544Y-64396252D01*
X127714857Y-64401285D01*
X127765765Y-64449511D01*
X127768207Y-64451888D01*
X128108366Y-64792047D01*
X128142392Y-64854359D01*
X128145271Y-64881142D01*
X128145271Y-64981047D01*
X128145273Y-64981047D01*
X128145682Y-64984014D01*
X128144504Y-65080438D01*
X128145085Y-65084880D01*
X128145085Y-65084883D01*
X128157019Y-65176148D01*
X128163074Y-65222452D01*
X128202245Y-65362748D01*
X128259928Y-65493841D01*
X128336897Y-65617496D01*
X128339779Y-65620924D01*
X128339780Y-65620926D01*
X128426169Y-65723699D01*
X128429054Y-65727131D01*
X128537639Y-65824218D01*
X128541372Y-65826703D01*
X128541376Y-65826706D01*
X128653135Y-65901099D01*
X128656864Y-65903581D01*
X128788333Y-65966289D01*
X128792612Y-65967626D01*
X128792615Y-65967627D01*
X128811881Y-65973646D01*
X128925039Y-66008999D01*
X128929463Y-66009716D01*
X128929465Y-66009716D01*
X128971300Y-66016492D01*
X129068821Y-66032287D01*
X129135782Y-66033514D01*
X129207539Y-66034830D01*
X129207541Y-66034830D01*
X129212020Y-66034912D01*
X129216465Y-66034359D01*
X129220944Y-66034122D01*
X129220951Y-66034249D01*
X129229339Y-66033729D01*
X129574500Y-66033729D01*
X129642621Y-66053731D01*
X129689114Y-66107387D01*
X129700500Y-66159729D01*
X129700500Y-66195058D01*
X129680498Y-66263179D01*
X129626842Y-66309672D01*
X129617461Y-66313324D01*
X129613312Y-66314206D01*
X129607285Y-66316889D01*
X129607283Y-66316890D01*
X129444878Y-66389197D01*
X129444876Y-66389198D01*
X129438848Y-66391882D01*
X129433507Y-66395762D01*
X129433506Y-66395763D01*
X129410415Y-66412540D01*
X129284347Y-66504134D01*
X129279926Y-66509044D01*
X129279925Y-66509045D01*
X129267310Y-66523056D01*
X129156560Y-66646056D01*
X129061073Y-66811444D01*
X129002058Y-66993072D01*
X129001368Y-66999633D01*
X129001368Y-66999635D01*
X128990415Y-67103852D01*
X128982096Y-67183000D01*
X128982786Y-67189565D01*
X128998707Y-67341041D01*
X129002058Y-67372928D01*
X129061073Y-67554556D01*
X129156560Y-67719944D01*
X129284347Y-67861866D01*
X129304909Y-67876805D01*
X129405920Y-67950194D01*
X129438848Y-67974118D01*
X129444876Y-67976802D01*
X129444878Y-67976803D01*
X129595442Y-68043838D01*
X129613312Y-68051794D01*
X129706712Y-68071647D01*
X129793656Y-68090128D01*
X129793661Y-68090128D01*
X129800113Y-68091500D01*
X129991087Y-68091500D01*
X129997539Y-68090128D01*
X129997544Y-68090128D01*
X130084488Y-68071647D01*
X130177888Y-68051794D01*
X130195758Y-68043838D01*
X130346322Y-67976803D01*
X130346324Y-67976802D01*
X130352352Y-67974118D01*
X130385281Y-67950194D01*
X130486291Y-67876805D01*
X130506853Y-67861866D01*
X130634640Y-67719944D01*
X130730127Y-67554556D01*
X130748766Y-67497191D01*
X130788839Y-67438585D01*
X130854235Y-67410947D01*
X130924192Y-67423053D01*
X130977718Y-67473126D01*
X131061560Y-67618344D01*
X131065978Y-67623251D01*
X131065979Y-67623252D01*
X131116938Y-67679848D01*
X131189347Y-67760266D01*
X131269363Y-67818401D01*
X131338504Y-67868635D01*
X131343848Y-67872518D01*
X131349876Y-67875202D01*
X131349878Y-67875203D01*
X131512281Y-67947509D01*
X131518312Y-67950194D01*
X131611713Y-67970047D01*
X131698656Y-67988528D01*
X131698661Y-67988528D01*
X131705113Y-67989900D01*
X131896087Y-67989900D01*
X131902539Y-67988528D01*
X131902544Y-67988528D01*
X131989487Y-67970047D01*
X132082888Y-67950194D01*
X132088919Y-67947509D01*
X132251322Y-67875203D01*
X132251324Y-67875202D01*
X132257352Y-67872518D01*
X132262691Y-67868639D01*
X132262698Y-67868635D01*
X132269128Y-67863963D01*
X132343187Y-67839900D01*
X132628029Y-67839900D01*
X132696150Y-67859902D01*
X132717124Y-67876805D01*
X134538075Y-69697756D01*
X134568813Y-69747914D01*
X134623673Y-69916756D01*
X134626976Y-69922478D01*
X134626977Y-69922479D01*
X134642448Y-69949276D01*
X134719160Y-70082144D01*
X134723578Y-70087051D01*
X134723579Y-70087052D01*
X134825258Y-70199978D01*
X134846947Y-70224066D01*
X135001448Y-70336318D01*
X135007476Y-70339002D01*
X135007478Y-70339003D01*
X135169881Y-70411309D01*
X135175912Y-70413994D01*
X135269313Y-70433847D01*
X135356256Y-70452328D01*
X135356261Y-70452328D01*
X135362713Y-70453700D01*
X135553687Y-70453700D01*
X135560139Y-70452328D01*
X135560144Y-70452328D01*
X135647087Y-70433847D01*
X135740488Y-70413994D01*
X135746519Y-70411309D01*
X135908922Y-70339003D01*
X135908924Y-70339002D01*
X135914952Y-70336318D01*
X136069453Y-70224066D01*
X136091142Y-70199978D01*
X136192821Y-70087052D01*
X136192822Y-70087051D01*
X136197240Y-70082144D01*
X136273952Y-69949276D01*
X136289423Y-69922479D01*
X136289424Y-69922478D01*
X136292727Y-69916756D01*
X136351742Y-69735128D01*
X136356029Y-69694345D01*
X136371014Y-69551765D01*
X136371704Y-69545200D01*
X136354659Y-69383028D01*
X136352432Y-69361835D01*
X136352432Y-69361833D01*
X136351742Y-69355272D01*
X136292727Y-69173644D01*
X136279449Y-69150645D01*
X136210254Y-69030797D01*
X136197240Y-69008256D01*
X136152432Y-68958491D01*
X136073875Y-68871245D01*
X136073874Y-68871244D01*
X136069453Y-68866334D01*
X135914952Y-68754082D01*
X135908924Y-68751398D01*
X135908922Y-68751397D01*
X135746519Y-68679091D01*
X135746518Y-68679091D01*
X135740488Y-68676406D01*
X135734033Y-68675034D01*
X135734024Y-68675031D01*
X135677428Y-68663001D01*
X135614531Y-68628850D01*
X133578170Y-66592489D01*
X133565784Y-66578077D01*
X133557251Y-66566482D01*
X133557246Y-66566477D01*
X133552908Y-66560582D01*
X133547330Y-66555843D01*
X133547327Y-66555840D01*
X133512632Y-66526365D01*
X133505116Y-66519435D01*
X133499421Y-66513740D01*
X133487279Y-66504134D01*
X133477149Y-66496119D01*
X133473745Y-66493328D01*
X133423697Y-66450809D01*
X133423695Y-66450808D01*
X133418115Y-66446067D01*
X133411599Y-66442739D01*
X133406550Y-66439372D01*
X133401421Y-66436205D01*
X133395684Y-66431666D01*
X133329525Y-66400745D01*
X133325625Y-66398839D01*
X133319601Y-66395763D01*
X133260592Y-66365631D01*
X133253484Y-66363892D01*
X133247841Y-66361793D01*
X133242078Y-66359876D01*
X133235450Y-66356778D01*
X133163983Y-66341913D01*
X133159699Y-66340943D01*
X133088790Y-66323592D01*
X133083188Y-66323244D01*
X133083185Y-66323244D01*
X133077636Y-66322900D01*
X133077638Y-66322864D01*
X133073645Y-66322625D01*
X133069453Y-66322251D01*
X133062285Y-66320760D01*
X132996075Y-66322551D01*
X132984879Y-66322854D01*
X132981472Y-66322900D01*
X132343187Y-66322900D01*
X132269128Y-66298837D01*
X132262698Y-66294165D01*
X132262691Y-66294161D01*
X132257352Y-66290282D01*
X132251324Y-66287598D01*
X132251322Y-66287597D01*
X132088919Y-66215291D01*
X132088918Y-66215291D01*
X132082888Y-66212606D01*
X131961759Y-66186859D01*
X131902544Y-66174272D01*
X131902539Y-66174272D01*
X131896087Y-66172900D01*
X131705113Y-66172900D01*
X131698661Y-66174272D01*
X131698656Y-66174272D01*
X131639441Y-66186859D01*
X131518312Y-66212606D01*
X131394747Y-66267620D01*
X131324382Y-66277054D01*
X131260085Y-66246948D01*
X131222271Y-66186859D01*
X131217500Y-66152513D01*
X131217500Y-65741247D01*
X131237502Y-65673126D01*
X131250084Y-65656692D01*
X131251529Y-65655096D01*
X131258654Y-65647224D01*
X131261958Y-65642326D01*
X131337599Y-65530183D01*
X131337602Y-65530178D01*
X131340107Y-65526464D01*
X131402554Y-65397572D01*
X131446838Y-65258812D01*
X131470600Y-65117574D01*
X131477682Y-65038627D01*
X131477833Y-65026285D01*
X131472995Y-64951964D01*
X131472729Y-64943779D01*
X131472729Y-64599481D01*
X131473233Y-64588223D01*
X131474865Y-64570031D01*
X131477682Y-64538627D01*
X131477833Y-64526285D01*
X131472990Y-64451888D01*
X131472841Y-64449592D01*
X131472840Y-64449582D01*
X131472683Y-64447171D01*
X131467215Y-64408990D01*
X131453016Y-64309839D01*
X131453015Y-64309833D01*
X131452379Y-64305394D01*
X131446569Y-64285523D01*
X131412755Y-64169892D01*
X131411497Y-64165590D01*
X131352217Y-64035211D01*
X131349805Y-64031440D01*
X131349801Y-64031432D01*
X131276157Y-63916279D01*
X131276156Y-63916278D01*
X131273742Y-63912503D01*
X131248048Y-63882683D01*
X131218733Y-63818021D01*
X131217500Y-63800435D01*
X131217500Y-60407371D01*
X131237502Y-60339250D01*
X131254405Y-60318276D01*
X132962276Y-58610405D01*
X133024588Y-58576379D01*
X133051371Y-58573500D01*
X141032230Y-58573500D01*
X141100351Y-58593502D01*
X141139662Y-58633665D01*
X141146798Y-58645309D01*
X141146801Y-58645314D01*
X141149501Y-58649719D01*
X141301147Y-58824784D01*
X141479349Y-58972730D01*
X141679322Y-59089584D01*
X141895694Y-59172209D01*
X141900760Y-59173240D01*
X141900761Y-59173240D01*
X141933285Y-59179857D01*
X142122656Y-59218385D01*
X142249280Y-59223028D01*
X142348949Y-59226683D01*
X142348953Y-59226683D01*
X142354113Y-59226872D01*
X142359233Y-59226216D01*
X142359235Y-59226216D01*
X142441471Y-59215681D01*
X142583847Y-59197442D01*
X142588795Y-59195957D01*
X142588802Y-59195956D01*
X142800747Y-59132369D01*
X142805690Y-59130886D01*
X142834278Y-59116881D01*
X143009049Y-59031262D01*
X143009052Y-59031260D01*
X143013684Y-59028991D01*
X143202243Y-58894494D01*
X143247309Y-58849585D01*
X143309681Y-58815669D01*
X143380487Y-58820857D01*
X143437249Y-58863503D01*
X143454231Y-58894607D01*
X143479385Y-58961705D01*
X143566739Y-59078261D01*
X143683295Y-59165615D01*
X143819684Y-59216745D01*
X143881866Y-59223500D01*
X145778134Y-59223500D01*
X145840316Y-59216745D01*
X145976705Y-59165615D01*
X146093261Y-59078261D01*
X146180615Y-58961705D01*
X146231745Y-58825316D01*
X146238500Y-58763134D01*
X146238500Y-56866866D01*
X146231745Y-56804684D01*
X146180615Y-56668295D01*
X146093261Y-56551739D01*
X145976705Y-56464385D01*
X145840316Y-56413255D01*
X145778134Y-56406500D01*
X143881866Y-56406500D01*
X143819684Y-56413255D01*
X143683295Y-56464385D01*
X143566739Y-56551739D01*
X143479385Y-56668295D01*
X143476233Y-56676703D01*
X143476232Y-56676705D01*
X143455538Y-56731906D01*
X143412897Y-56788671D01*
X143346335Y-56813371D01*
X143276986Y-56798164D01*
X143254167Y-56781666D01*
X143253887Y-56781358D01*
X143096408Y-56656989D01*
X143055345Y-56599072D01*
X143048500Y-56558107D01*
X143048500Y-54926371D01*
X143068502Y-54858250D01*
X143085405Y-54837276D01*
X145057276Y-52865405D01*
X145119588Y-52831379D01*
X145146371Y-52828500D01*
X150245500Y-52828500D01*
X150313621Y-52848502D01*
G37*
%TD.AperFunction*%
%TD*%
M02*
