M48
; DRILL file {KiCad (6.0.4)} date Sat Mar 23 19:03:44 2024
; FORMAT={-:-/ absolute / inch / decimal}
; #@! TF.CreationDate,2024-03-23T19:03:44+02:00
; #@! TF.GenerationSoftware,Kicad,Pcbnew,(6.0.4)
; #@! TF.FileFunction,Plated,1,2,PTH
FMAT,2
INCH
; #@! TA.AperFunction,Plated,PTH,ViaDrill
T1C0.0157
; #@! TA.AperFunction,Plated,PTH,ComponentDrill
T2C0.0354
; #@! TA.AperFunction,Plated,PTH,ComponentDrill
T3C0.0394
%
G90
G05
T1
X5.051Y-2.49
X5.114Y-2.645
X5.189Y-2.641
X5.225Y-2.925
X5.225Y-3.05
X5.25Y-2.825
X5.333Y-2.738
X5.399Y-2.59
X5.482Y-2.663
X5.525Y-3.2845
X5.55Y-2.85
X5.55Y-2.95
X5.55Y-3.05
X5.725Y-2.4364
X5.75Y-3.275
X5.759Y-2.749
X5.76Y-2.85
X5.762Y-2.951
X5.875Y-2.45
X5.95Y-2.475
X6.0Y-3.225
T2
X5.5998Y-3.4278
X5.602Y-2.2762
X5.6998Y-3.4278
X5.702Y-2.2762
X5.85Y-2.2
X5.85Y-3.5039
X5.8719Y-2.5541
X5.8719Y-2.6541
X5.8719Y-3.0541
X5.8719Y-3.1541
X5.948Y-2.8039
X5.948Y-2.9039
X5.95Y-2.2
X5.95Y-3.5039
X6.0998Y-3.4278
X6.1002Y-2.2762
X6.1998Y-3.4278
X6.2002Y-2.2762
T3
X4.6978Y-2.2039
X4.6978Y-2.3039
X4.6978Y-2.4039
X4.6978Y-2.5039
X4.6978Y-2.6039
X4.6978Y-2.7039
X4.6978Y-2.8039
X4.6978Y-2.9039
X4.6978Y-3.0039
X4.6978Y-3.1039
X4.6978Y-3.2039
X4.6978Y-3.3039
X4.6978Y-3.4039
X4.6978Y-3.5039
X4.7978Y-2.2039
X4.7978Y-2.3039
X4.7978Y-2.4039
X4.7978Y-2.5039
X4.7978Y-2.6039
X4.7978Y-2.7039
X4.7978Y-2.8039
X4.7978Y-2.9039
X4.7978Y-3.0039
X4.7978Y-3.1039
X4.7978Y-3.2039
X4.7978Y-3.3039
X4.7978Y-3.4039
X4.7978Y-3.5039
T0
M30
