%TF.GenerationSoftware,KiCad,Pcbnew,(6.0.4)*%
%TF.CreationDate,2024-03-23T19:03:43+02:00*%
%TF.ProjectId,EEE3088 Sensing,45454533-3038-4382-9053-656e73696e67,R1.0*%
%TF.SameCoordinates,Original*%
%TF.FileFunction,Paste,Top*%
%TF.FilePolarity,Positive*%
%FSLAX46Y46*%
G04 Gerber Fmt 4.6, Leading zero omitted, Abs format (unit mm)*
G04 Created by KiCad (PCBNEW (6.0.4)) date 2024-03-23 19:03:43*
%MOMM*%
%LPD*%
G01*
G04 APERTURE LIST*
G04 Aperture macros list*
%AMRoundRect*
0 Rectangle with rounded corners*
0 $1 Rounding radius*
0 $2 $3 $4 $5 $6 $7 $8 $9 X,Y pos of 4 corners*
0 Add a 4 corners polygon primitive as box body*
4,1,4,$2,$3,$4,$5,$6,$7,$8,$9,$2,$3,0*
0 Add four circle primitives for the rounded corners*
1,1,$1+$1,$2,$3*
1,1,$1+$1,$4,$5*
1,1,$1+$1,$6,$7*
1,1,$1+$1,$8,$9*
0 Add four rect primitives between the rounded corners*
20,1,$1+$1,$2,$3,$4,$5,0*
20,1,$1+$1,$4,$5,$6,$7,0*
20,1,$1+$1,$6,$7,$8,$9,0*
20,1,$1+$1,$8,$9,$2,$3,0*%
G04 Aperture macros list end*
%ADD10RoundRect,0.225000X0.250000X-0.225000X0.250000X0.225000X-0.250000X0.225000X-0.250000X-0.225000X0*%
%ADD11RoundRect,0.200000X-0.200000X-0.275000X0.200000X-0.275000X0.200000X0.275000X-0.200000X0.275000X0*%
%ADD12RoundRect,0.225000X-0.250000X0.225000X-0.250000X-0.225000X0.250000X-0.225000X0.250000X0.225000X0*%
%ADD13RoundRect,0.225000X0.225000X0.250000X-0.225000X0.250000X-0.225000X-0.250000X0.225000X-0.250000X0*%
%ADD14RoundRect,0.200000X-0.275000X0.200000X-0.275000X-0.200000X0.275000X-0.200000X0.275000X0.200000X0*%
%ADD15RoundRect,0.200000X0.200000X0.275000X-0.200000X0.275000X-0.200000X-0.275000X0.200000X-0.275000X0*%
%ADD16RoundRect,0.225000X-0.225000X-0.250000X0.225000X-0.250000X0.225000X0.250000X-0.225000X0.250000X0*%
%ADD17RoundRect,0.150000X0.150000X-0.587500X0.150000X0.587500X-0.150000X0.587500X-0.150000X-0.587500X0*%
%ADD18RoundRect,0.200000X0.275000X-0.200000X0.275000X0.200000X-0.275000X0.200000X-0.275000X-0.200000X0*%
%ADD19RoundRect,0.150000X-0.587500X-0.150000X0.587500X-0.150000X0.587500X0.150000X-0.587500X0.150000X0*%
%ADD20RoundRect,0.150000X-0.150000X0.587500X-0.150000X-0.587500X0.150000X-0.587500X0.150000X0.587500X0*%
G04 APERTURE END LIST*
D10*
%TO.C,C6*%
X139700000Y-82600000D03*
X139700000Y-81050000D03*
%TD*%
D11*
%TO.C,R6*%
X134253000Y-77316000D03*
X135903000Y-77316000D03*
%TD*%
D10*
%TO.C,C9*%
X137160000Y-82600000D03*
X137160000Y-81050000D03*
%TD*%
D12*
%TO.C,C2*%
X137150000Y-62204000D03*
X137150000Y-63754000D03*
%TD*%
D13*
%TO.C,C4*%
X145314000Y-72390000D03*
X143764000Y-72390000D03*
%TD*%
D14*
%TO.C,R8*%
X147270000Y-60235000D03*
X147270000Y-61885000D03*
%TD*%
D10*
%TO.C,C3*%
X142200000Y-82600000D03*
X142200000Y-81050000D03*
%TD*%
D12*
%TO.C,C5*%
X139700000Y-62204000D03*
X139700000Y-63754000D03*
%TD*%
D15*
%TO.C,R11*%
X140144000Y-70993000D03*
X138494000Y-70993000D03*
%TD*%
D16*
%TO.C,C12*%
X129641000Y-72136000D03*
X131191000Y-72136000D03*
%TD*%
D17*
%TO.C,Q2*%
X132974000Y-65913000D03*
X134874000Y-65913000D03*
X133924000Y-64038000D03*
%TD*%
D13*
%TO.C,C1*%
X145314000Y-69850000D03*
X143764000Y-69850000D03*
%TD*%
D11*
%TO.C,R5*%
X134253000Y-70966000D03*
X135903000Y-70966000D03*
%TD*%
D15*
%TO.C,R7*%
X146825000Y-80110000D03*
X145175000Y-80110000D03*
%TD*%
D14*
%TO.C,R2*%
X134570000Y-60235000D03*
X134570000Y-61885000D03*
%TD*%
D18*
%TO.C,R9*%
X132030000Y-84745000D03*
X132030000Y-83095000D03*
%TD*%
D15*
%TO.C,R1*%
X146825000Y-67410000D03*
X145175000Y-67410000D03*
%TD*%
%TO.C,R12*%
X140144000Y-77343000D03*
X138494000Y-77343000D03*
%TD*%
D11*
%TO.C,R4*%
X134253000Y-74141000D03*
X135903000Y-74141000D03*
%TD*%
D16*
%TO.C,C11*%
X129654000Y-69215000D03*
X131204000Y-69215000D03*
%TD*%
D15*
%TO.C,R10*%
X140144000Y-74168000D03*
X138494000Y-74168000D03*
%TD*%
D19*
%TO.C,Q1*%
X141302500Y-66106000D03*
X141302500Y-68006000D03*
X143177500Y-67056000D03*
%TD*%
D15*
%TO.C,R3*%
X137795000Y-85725000D03*
X136145000Y-85725000D03*
%TD*%
D12*
%TO.C,C8*%
X142240000Y-62204000D03*
X142240000Y-63754000D03*
%TD*%
D13*
%TO.C,C7*%
X145314000Y-74930000D03*
X143764000Y-74930000D03*
%TD*%
D16*
%TO.C,C10*%
X129641000Y-75057000D03*
X131191000Y-75057000D03*
%TD*%
D20*
%TO.C,Q3*%
X133030000Y-79405000D03*
X131130000Y-79405000D03*
X132080000Y-81280000D03*
%TD*%
M02*
